<svg width="155" height="45" viewBox="0 0 155 45" fill="none" xmlns="http://www.w3.org/2000/svg">
<rect x="0.5" y="0.6875" width="154" height="43.5938" rx="16" fill="#242424"/>
<path d="M25.2871 23.1777C25.0586 23.4316 25.0586 23.8125 25.2871 24.041L28.7402 27.4941C28.9941 27.748 29.375 27.748 29.6035 27.4941L30.1875 26.9355C30.416 26.6816 30.416 26.3008 30.1875 26.0723L27.7246 23.6094L30.1875 21.1719C30.416 20.9434 30.416 20.5371 30.1875 20.3086L29.6035 19.7246C29.375 19.4961 28.9941 19.4961 28.7402 19.7246L25.2871 23.1777Z" fill="#0D99FF"/>
<rect x="51.5" y="10.4844" width="24" height="24" rx="6" fill="#0D99FF"/>
<path d="M63.2522 27.4844H64.4482V18.0854H62.0042V19.1644H63.2522V27.4844Z" fill="white"/>
<path d="M87.6742 27.3804H93.9272V26.3924H89.4552C91.1322 25.0274 93.6542 23.0384 93.6542 20.6984C93.6542 18.9564 92.5102 17.9164 90.7422 17.9164C89.0522 17.9164 87.7912 18.9564 87.7132 20.9584H88.8572C88.9092 19.7754 89.5332 18.9304 90.7552 18.9304C92.0292 18.9304 92.4842 19.7104 92.4842 20.7504C92.4842 22.6744 90.1442 24.5464 87.6742 26.5354V27.3804Z" fill="#0D99FF"/>
<path d="M130.188 24.041C130.416 23.8125 130.416 23.4316 130.188 23.1777L126.734 19.7246C126.48 19.4961 126.1 19.4961 125.871 19.7246L125.287 20.3086C125.059 20.5625 125.059 20.9434 125.287 21.1719L127.75 23.6348L125.287 26.0723C125.059 26.3008 125.059 26.6816 125.287 26.9355L125.871 27.4941C126.1 27.748 126.48 27.748 126.734 27.4941L130.188 24.041Z" fill="#0D99FF"/>
</svg>
