<svg width="41" height="40" viewBox="0 0 41 40" fill="none" xmlns="http://www.w3.org/2000/svg">
<rect x="0.8125" width="40" height="40" rx="10" fill="#FF5E5E" fill-opacity="0.05"/>
<g clip-path="url(#clip0_1_131)">
<path d="M26.2767 23.8637C26.2884 22.2815 25.6629 21.0301 24.4153 20.1463C23.4517 19.4659 22.2823 19.111 21.1513 18.7699C18.7952 18.0557 18.1118 17.6795 18.1118 16.5528C18.1118 15.2977 19.7428 14.8512 21.1391 14.8512C22.1559 14.8512 23.3258 15.1673 24.0524 15.6359L25.4927 13.4051C24.5432 12.7895 23.2436 12.3697 21.9603 12.2394V10.1562H19.3033V12.3854C16.9413 12.905 15.4534 14.4487 15.4534 16.5528C15.4534 18.0263 16.0658 19.1949 17.27 20.0191C18.1858 20.6483 19.3028 20.9862 20.3818 21.3134C22.6928 22.0119 23.6312 22.4375 23.6206 23.8472L23.6205 23.8576C23.6205 25.0407 22.0526 25.4614 20.7093 25.4614C19.4404 25.4614 18.0605 24.9053 17.2783 24.0785L15.348 25.9044C16.3386 26.952 17.7777 27.6926 19.3032 27.983V30.1563H21.9603V28.0298C24.5849 27.6541 26.2741 26.0739 26.2767 23.8637Z" fill="#FF5E5E"/>
</g>
<defs>
<clipPath id="clip0_1_131">
<rect width="12" height="20" fill="white" transform="translate(14.8125 10.1562)"/>
</clipPath>
</defs>
</svg>
