<svg width="41" height="40" viewBox="0 0 41 40" fill="none" xmlns="http://www.w3.org/2000/svg">
<rect x="0.25" width="40" height="40" rx="10" fill="#0D99FF" fill-opacity="0.1"/>
<g clip-path="url(#clip0_1_147)">
<path d="M26.6287 12.0312H25.875V11.4062C25.875 11.2405 25.8092 11.0815 25.6919 10.9643C25.5747 10.8471 25.4158 10.7812 25.25 10.7812C25.0842 10.7812 24.9253 10.8471 24.8081 10.9643C24.6908 11.0815 24.625 11.2405 24.625 11.4062V12.0312H20.875V11.4062C20.875 11.2405 20.8092 11.0815 20.6919 10.9643C20.5747 10.8471 20.4158 10.7812 20.25 10.7812C20.0842 10.7812 19.9253 10.8471 19.8081 10.9643C19.6908 11.0815 19.625 11.2405 19.625 11.4062V12.0312H15.875V11.4062C15.875 11.2405 15.8091 11.0815 15.6919 10.9643C15.5747 10.8471 15.4158 10.7812 15.25 10.7812C15.0842 10.7812 14.9253 10.8471 14.8081 10.9643C14.6909 11.0815 14.625 11.2405 14.625 11.4062V12.0312H13.8712C13.2427 12.0322 12.6401 12.2824 12.1956 12.7269C11.7511 13.1714 11.501 13.7739 11.5 14.4025V27.16C11.501 27.7885 11.7511 28.3911 12.1956 28.8356C12.6401 29.2801 13.2427 29.5303 13.8712 29.5312H26.6287C27.2573 29.5303 27.8599 29.2801 28.3044 28.8356C28.7489 28.3911 28.999 27.7885 29 27.16V14.4025C28.999 13.7739 28.7489 13.1714 28.3044 12.7269C27.8599 12.2824 27.2573 12.0322 26.6287 12.0312ZM27.75 27.16C27.749 27.4571 27.6306 27.7416 27.4205 27.9517C27.2104 28.1618 26.9258 28.2803 26.6287 28.2812H13.8712C13.5742 28.2803 13.2896 28.1618 13.0795 27.9517C12.8694 27.7416 12.751 27.4571 12.75 27.16V14.4025C12.751 14.1054 12.8694 13.8208 13.0795 13.6107C13.2896 13.4007 13.5742 13.2822 13.8712 13.2812H14.625V13.9062C14.625 14.072 14.6909 14.231 14.8081 14.3482C14.9253 14.4654 15.0842 14.5312 15.25 14.5312C15.4158 14.5312 15.5747 14.4654 15.6919 14.3482C15.8091 14.231 15.875 14.072 15.875 13.9062V13.2812H19.625V13.9062C19.625 14.072 19.6908 14.231 19.8081 14.3482C19.9253 14.4654 20.0842 14.5312 20.25 14.5312C20.4158 14.5312 20.5747 14.4654 20.6919 14.3482C20.8092 14.231 20.875 14.072 20.875 13.9062V13.2812H24.625V13.9062C24.625 14.072 24.6908 14.231 24.8081 14.3482C24.9253 14.4654 25.0842 14.5312 25.25 14.5312C25.4158 14.5312 25.5747 14.4654 25.6919 14.3482C25.8092 14.231 25.875 14.072 25.875 13.9062V13.2812H26.6287C26.9258 13.2822 27.2104 13.4007 27.4205 13.6107C27.6306 13.8208 27.749 14.1054 27.75 14.4025V27.16Z" fill="#0D99FF"/>
<path d="M17.9331 17.2144L16.5 18.6475L15.6919 17.8394C15.6342 17.7797 15.5652 17.7321 15.489 17.6993C15.4127 17.6666 15.3307 17.6493 15.2477 17.6486C15.1648 17.6479 15.0825 17.6637 15.0056 17.6951C14.9288 17.7265 14.8591 17.773 14.8004 17.8316C14.7417 17.8903 14.6953 17.9601 14.6639 18.0369C14.6324 18.1137 14.6166 18.196 14.6173 18.279C14.6181 18.362 14.6353 18.444 14.6681 18.5203C14.7008 18.5965 14.7484 18.6655 14.8081 18.7231L16.0581 19.9731C16.1753 20.0903 16.3343 20.1561 16.5 20.1561C16.6657 20.1561 16.8247 20.0903 16.9419 19.9731L18.8169 18.0981C18.9307 17.9803 18.9937 17.8224 18.9923 17.6585C18.9909 17.4946 18.9251 17.3379 18.8093 17.222C18.6934 17.1061 18.5366 17.0404 18.3727 17.039C18.2089 17.0375 18.051 17.1005 17.9331 17.2144Z" fill="#0D99FF"/>
<path d="M25.25 18.2812H20.875C20.7092 18.2812 20.5503 18.3471 20.4331 18.4643C20.3158 18.5815 20.25 18.7405 20.25 18.9062C20.25 19.072 20.3158 19.231 20.4331 19.3482C20.5503 19.4654 20.7092 19.5312 20.875 19.5312H25.25C25.4158 19.5312 25.5747 19.4654 25.6919 19.3482C25.8092 19.231 25.875 19.072 25.875 18.9062C25.875 18.7405 25.8092 18.5815 25.6919 18.4643C25.5747 18.3471 25.4158 18.2812 25.25 18.2812Z" fill="#0D99FF"/>
<path d="M17.9331 22.8394L16.5 24.2725L15.6919 23.4644C15.6342 23.4047 15.5652 23.3571 15.489 23.3244C15.4127 23.2916 15.3307 23.2744 15.2477 23.2736C15.1648 23.2729 15.0825 23.2887 15.0056 23.3202C14.9288 23.3516 14.8591 23.398 14.8004 23.4567C14.7417 23.5154 14.6953 23.5851 14.6639 23.6619C14.6324 23.7388 14.6166 23.8211 14.6173 23.904C14.6181 23.987 14.6353 24.069 14.6681 24.1453C14.7008 24.2216 14.7484 24.2905 14.8081 24.3482L16.0581 25.5982C16.1753 25.7153 16.3343 25.7812 16.5 25.7812C16.6657 25.7812 16.8247 25.7153 16.9419 25.5982L18.8169 23.7232C18.9307 23.6053 18.9937 23.4474 18.9923 23.2835C18.9909 23.1197 18.9251 22.9629 18.8093 22.847C18.6934 22.7312 18.5366 22.6654 18.3727 22.664C18.2089 22.6626 18.051 22.7256 17.9331 22.8394Z" fill="#0D99FF"/>
<path d="M25.25 23.9062H20.875C20.7092 23.9062 20.5503 23.972 20.4331 24.0893C20.3158 24.2065 20.25 24.3654 20.25 24.5312C20.25 24.697 20.3158 24.856 20.4331 24.9732C20.5503 25.0905 20.7092 25.1562 20.875 25.1562H25.25C25.4158 25.1562 25.5747 25.0905 25.6919 24.9732C25.8092 24.856 25.875 24.697 25.875 24.5312C25.875 24.3654 25.8092 24.2065 25.6919 24.0893C25.5747 23.972 25.4158 23.9062 25.25 23.9062Z" fill="#0D99FF"/>
</g>
<defs>
<clipPath id="clip0_1_147">
<rect width="20" height="20" fill="white" transform="translate(10.25 10.1562)"/>
</clipPath>
</defs>
</svg>
