<svg width="369" height="357" viewBox="0 0 369 357" fill="none" xmlns="http://www.w3.org/2000/svg">
<rect x="14.2344" y="7.1875" width="32" height="32" rx="6" fill="#0D99FF" fill-opacity="0.1"/>
<path d="M26.8891 22.5C26.643 22.7461 26.643 23.1562 26.8891 23.4023L32.1937 28.7344C32.4672 28.9805 32.8773 28.9805 33.1234 28.7344L33.7523 28.1055C33.9984 27.8594 33.9984 27.4492 33.7523 27.1758L29.5414 22.9375L33.7523 18.7266C33.9984 18.4531 33.9984 18.043 33.7523 17.7969L33.1234 17.168C32.8773 16.9219 32.4672 16.9219 32.1937 17.168L26.8891 22.5Z" fill="#0D99FF"/>
<path d="M141.319 28.1875H143.029V21.0475L146.224 28.1875H147.409L150.589 21.0475V28.1875H152.299V17.7625H150.469L146.824 25.9375L143.164 17.7625H141.319V28.1875ZM153.976 24.0175C153.976 26.5675 155.701 28.3225 157.846 28.3225C159.226 28.3225 160.216 27.6625 160.741 26.9575V28.1875H162.466V19.9225H160.741V21.1225C160.231 20.4475 159.271 19.7875 157.876 19.7875C155.701 19.7875 153.976 21.4675 153.976 24.0175ZM160.741 24.0475C160.741 25.8325 159.526 26.8375 158.236 26.8375C156.961 26.8375 155.731 25.8025 155.731 24.0175C155.731 22.2325 156.961 21.2725 158.236 21.2725C159.526 21.2725 160.741 22.2775 160.741 24.0475ZM166.422 23.8375C166.422 22.0825 167.202 21.5575 168.462 21.5575H168.897V19.7875C167.727 19.7875 166.902 20.2975 166.422 21.1225V19.9225H164.712V28.1875H166.422V23.8375ZM169.899 24.0475C169.899 26.6425 171.579 28.3225 173.949 28.3225C175.974 28.3225 177.294 27.1975 177.759 25.5775H175.914C175.599 26.4325 174.969 26.8825 173.949 26.8825C172.569 26.8825 171.654 25.8625 171.654 24.0475C171.654 22.2475 172.569 21.2275 173.949 21.2275C174.969 21.2275 175.629 21.7375 175.914 22.5325H177.759C177.294 20.7925 175.974 19.7875 173.949 19.7875C171.579 19.7875 169.899 21.4675 169.899 24.0475ZM179.463 28.1875H181.173V23.5675C181.173 22.0525 181.998 21.2725 183.258 21.2725C184.503 21.2725 185.328 22.0525 185.328 23.5675V28.1875H187.023V23.3125C187.023 21.0025 185.583 19.7875 183.738 19.7875C182.673 19.7875 181.743 20.1925 181.173 20.8825V17.0875H179.463V28.1875ZM192.741 28.0375H200.031V26.6125H195.276C197.031 25.0075 199.731 22.9825 199.731 20.3275C199.731 18.3625 198.471 17.0275 196.251 17.0275C194.316 17.0275 192.786 18.1825 192.726 20.5525H194.376C194.421 19.3225 195.066 18.4825 196.266 18.4825C197.541 18.4825 198.036 19.2625 198.036 20.4025C198.036 22.5475 195.321 24.5275 192.741 26.7925V28.0375ZM201.533 22.5775C201.533 25.7575 202.373 28.1575 205.433 28.1575C208.493 28.1575 209.333 25.7575 209.333 22.5775C209.333 19.4575 208.493 17.0575 205.433 17.0575C202.373 17.0575 201.533 19.4575 201.533 22.5775ZM207.653 22.5775C207.653 24.7225 207.428 26.5975 205.433 26.5975C203.438 26.5975 203.213 24.7225 203.213 22.5775C203.213 20.5375 203.438 18.6175 205.433 18.6175C207.428 18.6175 207.653 20.5375 207.653 22.5775ZM211.008 28.0375H218.298V26.6125H213.543C215.298 25.0075 217.998 22.9825 217.998 20.3275C217.998 18.3625 216.738 17.0275 214.518 17.0275C212.583 17.0275 211.053 18.1825 210.993 20.5525H212.643C212.688 19.3225 213.333 18.4825 214.533 18.4825C215.808 18.4825 216.303 19.2625 216.303 20.4025C216.303 22.5475 213.588 24.5275 211.008 26.7925V28.0375ZM219.77 19.9525H221.435C221.54 19.1875 222.095 18.4675 223.295 18.4675C224.465 18.4675 225.08 19.0975 225.08 20.0425C225.08 21.2125 224.135 21.6625 222.59 21.6775H222.185V23.0875H222.575C224.36 23.0875 225.29 23.5825 225.29 25.0225C225.29 26.0425 224.66 26.8225 223.385 26.8225C222.095 26.8225 221.345 26.0425 221.27 25.0225H219.62C219.725 27.1675 221.33 28.2475 223.4 28.2475C225.68 28.2475 226.91 26.9275 226.91 25.1875C226.91 23.6725 226.175 22.7275 225.035 22.3825V22.3225C225.89 22.0375 226.715 21.1525 226.715 19.8475C226.715 18.2575 225.53 16.9975 223.355 16.9975C221.36 16.9975 219.89 18.0625 219.77 19.9525Z" fill="#828690"/>
<rect x="323.438" y="7.1875" width="32" height="32" rx="6" fill="#0D99FF" fill-opacity="0.1"/>
<path d="M342.955 23.4023C343.202 23.1562 343.202 22.7461 342.955 22.5L337.651 17.168C337.377 16.9219 336.967 16.9219 336.721 17.168L336.092 17.7969C335.846 18.043 335.846 18.4531 336.092 18.7266L340.303 22.9375L336.092 27.1758C335.846 27.4492 335.846 27.8594 336.092 28.1055L336.721 28.7344C336.967 28.9805 337.377 28.9805 337.651 28.7344L342.955 23.4023Z" fill="#0D99FF"/>
<rect width="59.0156" height="34" transform="translate(0.734375 46.1875)" fill="#1E1E1E"/>
<path d="M29.1684 65.5275C29.1684 61.9155 23.9044 63.4835 23.9044 60.9635C23.9044 59.9135 24.7304 59.3675 25.7804 59.3955C26.9704 59.4095 27.5864 60.1515 27.6704 60.8095H29.0704C28.9164 59.3255 27.6984 58.3035 25.8364 58.3035C23.9044 58.3035 22.6024 59.3955 22.6024 61.0055C22.6024 64.6315 27.8804 62.9515 27.8804 65.5835C27.8804 66.5075 27.1524 67.2075 25.9204 67.2075C24.5624 67.2075 23.9884 66.3955 23.9044 65.5835H22.5464C22.5744 67.1935 23.9604 68.2855 25.9204 68.2855C28.0344 68.2855 29.1684 66.9135 29.1684 65.5275ZM37.8472 60.5155H36.5732V64.7295C36.5732 66.3815 35.6912 67.1935 34.3752 67.1935C33.0872 67.1935 32.2332 66.3955 32.2332 64.8415V60.5155H30.9732V65.0095C30.9732 67.2075 32.3592 68.2995 34.1232 68.2995C35.1452 68.2995 36.0832 67.8515 36.5732 67.0535V68.1875H37.8472V60.5155Z" fill="#828690"/>
<rect width="50.0312" height="34" transform="translate(59.75 46.1875)" fill="#1E1E1E"/>
<path d="M75.429 68.1875H76.703V60.9495L79.937 68.1875H80.833L84.053 60.9635V68.1875H85.327V58.4995H83.969L80.385 66.5075L76.801 58.4995H75.429V68.1875ZM94.7676 64.3375C94.7676 61.9155 93.0736 60.3895 90.8896 60.3895C88.7196 60.3895 87.0116 61.9155 87.0116 64.3375C87.0116 66.7735 88.6636 68.3135 90.8336 68.3135C93.0176 68.3135 94.7676 66.7735 94.7676 64.3375ZM88.3136 64.3375C88.3136 62.4055 89.5316 61.4955 90.8756 61.4955C92.1916 61.4955 93.4656 62.4055 93.4656 64.3375C93.4656 66.2835 92.1636 67.1935 90.8336 67.1935C89.5036 67.1935 88.3136 66.2835 88.3136 64.3375Z" fill="#828690"/>
<rect width="50.0312" height="34" transform="translate(109.781 46.1875)" fill="#1E1E1E"/>
<path d="M127.1 59.4655H129.774V68.1875H131.048V59.4655H133.708V58.4295H127.1V59.4655ZM142.081 60.5155H140.807V64.7295C140.807 66.3815 139.925 67.1935 138.609 67.1935C137.321 67.1935 136.467 66.3955 136.467 64.8415V60.5155H135.207V65.0095C135.207 67.2075 136.593 68.2995 138.357 68.2995C139.379 68.2995 140.317 67.8515 140.807 67.0535V68.1875H142.081V60.5155Z" fill="#828690"/>
<rect width="50.0312" height="34" transform="translate(159.812 46.1875)" fill="#1E1E1E"/>
<path d="M176.802 68.2015L178.216 68.1875L180.568 60.3335L182.836 68.1875H184.264L187.092 58.4295H185.72L183.578 66.6755L181.338 58.4295H179.91L177.558 66.7035L175.43 58.4295H174.072L176.802 68.2015ZM191.749 61.4675C193.065 61.4675 194.185 62.2935 194.171 63.7915H189.327C189.467 62.2935 190.503 61.4675 191.749 61.4675ZM195.333 65.8215H193.961C193.681 66.6475 192.953 67.2355 191.805 67.2355C190.503 67.2355 189.411 66.3815 189.313 64.8275H195.445C195.473 64.5615 195.487 64.3375 195.487 64.0575C195.487 61.9575 194.031 60.3895 191.805 60.3895C189.565 60.3895 188.011 61.9155 188.011 64.3375C188.011 66.7735 189.621 68.3135 191.805 68.3135C193.709 68.3135 194.941 67.2215 195.333 65.8215Z" fill="#828690"/>
<rect width="50.0312" height="34" transform="translate(209.844 46.1875)" fill="#1E1E1E"/>
<path d="M227.163 59.4655H229.837V68.1875H231.111V59.4655H233.771V58.4295H227.163V59.4655ZM235.339 68.1875H236.613V63.9455C236.613 62.2935 237.509 61.4815 238.811 61.4815C240.099 61.4815 240.953 62.2795 240.953 63.8475V68.1875H242.213V63.6655C242.213 61.4675 240.855 60.3755 239.147 60.3755C238.069 60.3755 237.117 60.8095 236.613 61.6215V57.8275H235.339V68.1875Z" fill="#828690"/>
<rect width="50.0312" height="34" transform="translate(259.875 46.1875)" fill="#1E1E1E"/>
<path d="M279.93 68.1875H281.204V63.7915H284.648V62.7555H281.204V59.4655H285.446V58.4295H279.93V68.1875ZM288.259 64.0155C288.259 62.2375 289.183 61.6915 290.401 61.6915H290.737V60.3755C289.519 60.3755 288.693 60.9075 288.259 61.7615V60.5155H286.985V68.1875H288.259V64.0155Z" fill="#828690"/>
<rect width="59.0781" height="34" transform="translate(309.906 46.1875)" fill="#1E1E1E"/>
<path d="M338.119 65.5275C338.119 61.9155 332.855 63.4835 332.855 60.9635C332.855 59.9135 333.681 59.3675 334.731 59.3955C335.921 59.4095 336.537 60.1515 336.621 60.8095H338.021C337.867 59.3255 336.649 58.3035 334.787 58.3035C332.855 58.3035 331.553 59.3955 331.553 61.0055C331.553 64.6315 336.831 62.9515 336.831 65.5835C336.831 66.5075 336.103 67.2075 334.871 67.2075C333.513 67.2075 332.939 66.3955 332.855 65.5835H331.497C331.525 67.1935 332.911 68.2855 334.871 68.2855C336.985 68.2855 338.119 66.9135 338.119 65.5275ZM339.517 64.3235C339.517 66.7035 341.099 68.3135 343.143 68.3135C344.557 68.3135 345.551 67.5855 346.013 66.7595V68.1875H347.301V60.5155H346.013V61.9155C345.565 61.1175 344.585 60.3895 343.157 60.3895C341.099 60.3895 339.517 61.9295 339.517 64.3235ZM346.013 64.3375C346.013 66.1435 344.809 67.1935 343.409 67.1935C342.009 67.1935 340.819 66.1295 340.819 64.3235C340.819 62.5175 342.009 61.4955 343.409 61.4955C344.809 61.4955 346.013 62.5595 346.013 64.3375Z" fill="#828690"/>
<path d="M22.5099 108.075H29.2439V107.011H24.4279C26.2339 105.541 28.9499 103.399 28.9499 100.879C28.9499 99.0035 27.7179 97.8835 25.8139 97.8835C23.9939 97.8835 22.6359 99.0035 22.5519 101.159H23.7839C23.8399 99.8855 24.5119 98.9755 25.8279 98.9755C27.1999 98.9755 27.6899 99.8155 27.6899 100.935C27.6899 103.007 25.1699 105.023 22.5099 107.165V108.075ZM37.5346 100.474C37.3666 99.0595 36.3866 97.8555 34.4546 97.8555C31.8926 97.8555 30.8706 99.8155 30.8706 102.993C30.8706 106.059 31.5846 108.216 34.5806 108.216C36.7926 108.216 37.8846 106.703 37.8846 104.855C37.8846 102.727 36.6106 101.481 34.7206 101.481C33.5166 101.481 32.4106 102.041 31.9766 103.035C31.9626 100.025 32.8306 98.9195 34.4406 98.9195C35.5886 98.9195 36.1626 99.4935 36.3586 100.474H37.5346ZM34.4546 102.559C35.9106 102.559 36.6526 103.469 36.6526 104.897C36.6526 106.269 35.8266 107.151 34.5106 107.151C32.9146 107.151 32.1306 106.101 32.1306 104.757C32.1306 103.245 33.2926 102.559 34.4546 102.559Z" fill="#FF5E5E"/>
<path d="M76.7726 108.075H83.5066V107.011H78.6906C80.4966 105.541 83.2126 103.399 83.2126 100.879C83.2126 99.0035 81.9806 97.8835 80.0766 97.8835C78.2566 97.8835 76.8986 99.0035 76.8146 101.159H78.0466C78.1026 99.8855 78.7746 98.9755 80.0906 98.9755C81.4626 98.9755 81.9526 99.8155 81.9526 100.935C81.9526 103.007 79.4326 105.023 76.7726 107.165V108.075ZM84.5733 98.0935V99.1855H89.9773L86.0293 108.188H87.3173L91.2093 99.0595V98.0935H84.5733Z" fill="#828690"/>
<path d="M127.115 108.075H133.849V107.011H129.033C130.839 105.541 133.555 103.399 133.555 100.879C133.555 99.0035 132.323 97.8835 130.419 97.8835C128.599 97.8835 127.241 99.0035 127.157 101.159H128.389C128.445 99.8855 129.117 98.9755 130.433 98.9755C131.805 98.9755 132.295 99.8155 132.295 100.935C132.295 103.007 129.775 105.023 127.115 107.165V108.075ZM137.17 102.923C136.036 103.259 135.294 104.183 135.294 105.457C135.294 107.291 136.736 108.468 138.864 108.468C141.006 108.468 142.462 107.291 142.462 105.457C142.462 104.197 141.72 103.273 140.572 102.923C141.566 102.531 142.196 101.691 142.196 100.599C142.196 99.1295 141.062 97.9115 138.864 97.9115C136.666 97.9115 135.546 99.1155 135.546 100.599C135.546 101.733 136.134 102.517 137.17 102.923ZM138.864 102.503C137.632 102.503 136.778 101.817 136.778 100.767C136.778 99.5775 137.618 98.9755 138.864 98.9755C140.138 98.9755 140.964 99.5915 140.964 100.753C140.964 101.803 140.11 102.503 138.864 102.503ZM138.864 103.483C140.194 103.483 141.202 104.113 141.202 105.415C141.202 106.591 140.306 107.403 138.864 107.403C137.422 107.403 136.512 106.605 136.512 105.415C136.512 104.072 137.562 103.483 138.864 103.483Z" fill="#828690"/>
<path d="M184.712 108.188H186V98.0655H183.368V99.2275H184.712V108.188Z" fill="#828690"/>
<path d="M232.016 108.075H238.75V107.011H233.934C235.74 105.541 238.456 103.399 238.456 100.879C238.456 99.0035 237.224 97.8835 235.32 97.8835C233.5 97.8835 232.142 99.0035 232.058 101.159H233.29C233.346 99.8855 234.018 98.9755 235.334 98.9755C236.706 98.9755 237.196 99.8155 237.196 100.935C237.196 103.007 234.676 105.023 232.016 107.165V108.075Z" fill="#828690"/>
<path d="M281.984 100.613H283.23C283.356 99.6335 284.07 98.9615 285.26 98.9615C286.478 98.9615 287.122 99.6335 287.122 100.599C287.122 101.775 286.212 102.293 284.518 102.307H284.182V103.371H284.504C286.324 103.371 287.318 103.917 287.318 105.345C287.318 106.381 286.674 107.179 285.316 107.179C283.972 107.179 283.188 106.353 283.062 105.275H281.83C281.984 107.235 283.412 108.258 285.33 108.258C287.444 108.258 288.536 107.025 288.536 105.457C288.536 104.001 287.738 103.133 286.562 102.853V102.783C287.626 102.545 288.354 101.635 288.354 100.474C288.354 99.0175 287.276 97.8695 285.302 97.8695C283.426 97.8695 282.11 98.8775 281.984 100.613Z" fill="#828690"/>
<path d="M340.869 108.188H342.129V105.933H343.529V104.827H342.129V98.1635H340.603L335.689 104.967V105.933H340.869V108.188ZM337.159 104.827L340.925 99.4935V104.827H337.159Z" fill="#828690"/>
<path d="M27.1802 144.051V149.763H28.3842C28.7202 148.965 29.4622 148.433 30.4842 148.433C31.9542 148.433 32.6962 149.273 32.6962 150.715C32.6962 152.101 32.0102 153.137 30.4702 153.137C29.2802 153.137 28.4542 152.507 28.2162 151.443H26.9702C27.2222 153.081 28.4402 154.216 30.4562 154.216C32.8222 154.216 33.9142 152.647 33.9142 150.688C33.9142 149.119 33.1302 147.341 30.6662 147.341C29.6722 147.341 28.7762 147.789 28.3562 148.363V145.171H33.2702V144.051H27.1802Z" fill="#FF5E5E"/>
<path d="M130.609 144.093V145.185H136.013L132.065 154.188H133.353L137.245 145.059V144.093H130.609Z" fill="#828690"/>
<path d="M183.206 148.923C182.072 149.259 181.33 150.183 181.33 151.457C181.33 153.291 182.772 154.468 184.9 154.468C187.042 154.468 188.498 153.291 188.498 151.457C188.498 150.197 187.756 149.273 186.608 148.923C187.602 148.531 188.232 147.691 188.232 146.599C188.232 145.129 187.098 143.911 184.9 143.911C182.702 143.911 181.582 145.115 181.582 146.599C181.582 147.733 182.17 148.517 183.206 148.923ZM184.9 148.503C183.668 148.503 182.814 147.817 182.814 146.767C182.814 145.577 183.654 144.975 184.9 144.975C186.174 144.975 187 145.591 187 146.753C187 147.803 186.146 148.503 184.9 148.503ZM184.9 149.483C186.23 149.483 187.238 150.113 187.238 151.415C187.238 152.591 186.342 153.403 184.9 153.403C183.458 153.403 182.548 152.605 182.548 151.415C182.548 150.072 183.598 149.483 184.9 149.483Z" fill="#828690"/>
<path d="M231.858 151.471C231.998 152.955 232.978 154.202 234.994 154.202C237.654 154.202 238.424 152.311 238.424 148.937C238.424 145.801 237.626 143.869 234.882 143.869C232.698 143.869 231.55 145.269 231.55 147.201C231.55 149.343 232.936 150.505 234.798 150.505C235.89 150.505 236.898 150.015 237.304 149.161C237.346 152.13 236.548 153.137 235.064 153.137C233.888 153.137 233.216 152.521 233.034 151.471H231.858ZM235.008 149.427C233.496 149.427 232.768 148.475 232.768 147.173C232.768 145.829 233.594 144.933 234.91 144.933C236.366 144.933 237.15 145.899 237.15 147.271C237.15 148.629 236.226 149.427 235.008 149.427Z" fill="#828690"/>
<path d="M279.488 154.188H280.776V144.065H278.144V145.227H279.488V154.188ZM282.965 149.021C282.965 151.961 283.693 154.188 286.493 154.188C289.279 154.188 290.007 151.961 290.007 149.021C290.007 146.123 289.279 143.911 286.493 143.911C283.693 143.911 282.965 146.123 282.965 149.021ZM288.747 149.021C288.747 151.205 288.481 153.025 286.493 153.025C284.491 153.025 284.225 151.205 284.225 149.021C284.225 146.921 284.491 145.073 286.493 145.073C288.481 145.073 288.747 146.921 288.747 149.021Z" fill="#828690"/>
<path d="M336.845 154.188H338.133V144.065H335.501V145.227H336.845V154.188ZM341.329 154.188H342.617V144.065H339.985V145.227H341.329V154.188Z" fill="#828690"/>
<rect x="59.75" y="126.188" width="50.0312" height="46" rx="6" fill="#0D99FF"/>
<rect x="99.7812" y="125.188" width="11" height="11" rx="5.5" fill="#FF5E5E" stroke="white" stroke-width="2"/>
<path d="M88.1005 146.474C87.9325 145.059 86.9525 143.855 85.0205 143.855C82.4585 143.855 81.4365 145.815 81.4365 148.993C81.4365 152.059 82.1505 154.216 85.1465 154.216C87.3585 154.216 88.4505 152.703 88.4505 150.855C88.4505 148.727 87.1765 147.481 85.2865 147.481C84.0825 147.481 82.9765 148.041 82.5425 149.035C82.5285 146.025 83.3965 144.919 85.0065 144.919C86.1545 144.919 86.7285 145.493 86.9245 146.474H88.1005ZM85.0205 148.559C86.4765 148.559 87.2185 149.469 87.2185 150.897C87.2185 152.269 86.3925 153.151 85.0765 153.151C83.4805 153.151 82.6965 152.101 82.6965 150.757C82.6965 149.245 83.8585 148.559 85.0205 148.559Z" fill="white"/>
<path d="M26.0762 200.188H27.3642V190.065H24.7322V191.227H26.0762V200.188ZM29.3986 200.075H36.1326V199.011H31.3166C33.1226 197.541 35.8386 195.399 35.8386 192.879C35.8386 191.003 34.6066 189.883 32.7026 189.883C30.8826 189.883 29.5246 191.003 29.4406 193.159H30.6726C30.7286 191.885 31.4006 190.975 32.7166 190.975C34.0886 190.975 34.5786 191.815 34.5786 192.935C34.5786 195.007 32.0586 197.023 29.3986 199.165V200.075Z" fill="#FF5E5E"/>
<path d="M80.4024 200.188H81.6904V190.065H79.0584V191.227H80.4024V200.188ZM83.8507 192.613H85.0967C85.2227 191.633 85.9367 190.961 87.1267 190.961C88.3447 190.961 88.9887 191.633 88.9887 192.599C88.9887 193.775 88.0787 194.293 86.3847 194.307H86.0487V195.371H86.3707C88.1907 195.371 89.1847 195.917 89.1847 197.345C89.1847 198.381 88.5407 199.179 87.1827 199.179C85.8387 199.179 85.0547 198.353 84.9287 197.275H83.6967C83.8507 199.235 85.2787 200.258 87.1967 200.258C89.3107 200.258 90.4027 199.025 90.4027 197.457C90.4027 196.001 89.6047 195.133 88.4287 194.853V194.783C89.4927 194.545 90.2207 193.635 90.2207 192.474C90.2207 191.017 89.1427 189.869 87.1687 189.869C85.2927 189.869 83.9767 190.877 83.8507 192.613Z" fill="#828690"/>
<path d="M129.372 200.188H130.66V190.065H128.028V191.227H129.372V200.188ZM137.72 200.188H138.98V197.933H140.38V196.827H138.98V190.163H137.454L132.54 196.967V197.933H137.72V200.188ZM134.01 196.827L137.776 191.493V196.827H134.01Z" fill="#828690"/>
<path d="M179.426 200.188H180.714V190.065H178.082V191.227H179.426V200.188ZM183.266 190.051V195.763H184.47C184.806 194.965 185.548 194.433 186.57 194.433C188.04 194.433 188.782 195.273 188.782 196.715C188.782 198.101 188.096 199.137 186.556 199.137C185.366 199.137 184.54 198.507 184.302 197.443H183.056C183.308 199.081 184.526 200.216 186.542 200.216C188.908 200.216 190 198.647 190 196.688C190 195.119 189.216 193.341 186.752 193.341C185.758 193.341 184.862 193.789 184.442 194.363V191.171H189.356V190.051H183.266Z" fill="#828690"/>
<path d="M229.362 200.188H230.65V190.065H228.018V191.227H229.362V200.188ZM239.657 192.474C239.489 191.059 238.509 189.855 236.577 189.855C234.015 189.855 232.993 191.815 232.993 194.993C232.993 198.059 233.707 200.216 236.703 200.216C238.915 200.216 240.007 198.703 240.007 196.855C240.007 194.727 238.733 193.481 236.843 193.481C235.639 193.481 234.533 194.041 234.099 195.035C234.085 192.025 234.953 190.919 236.563 190.919C237.711 190.919 238.285 191.493 238.481 192.474H239.657ZM236.577 194.559C238.033 194.559 238.775 195.469 238.775 196.897C238.775 198.269 237.949 199.151 236.633 199.151C235.037 199.151 234.253 198.101 234.253 196.757C234.253 195.245 235.415 194.559 236.577 194.559Z" fill="#828690"/>
<path d="M281.141 200.188H282.429V190.065H279.797V191.227H281.141V200.188ZM284.211 190.093V191.185H289.615L285.667 200.188H286.955L290.847 191.059V190.093H284.211Z" fill="#828690"/>
<path d="M333.999 200.188H335.287V190.065H332.655V191.227H333.999V200.188ZM339.323 194.923C338.189 195.259 337.447 196.183 337.447 197.457C337.447 199.291 338.889 200.468 341.017 200.468C343.159 200.468 344.615 199.291 344.615 197.457C344.615 196.197 343.873 195.273 342.725 194.923C343.719 194.531 344.349 193.691 344.349 192.599C344.349 191.129 343.215 189.911 341.017 189.911C338.819 189.911 337.699 191.115 337.699 192.599C337.699 193.733 338.287 194.517 339.323 194.923ZM341.017 194.503C339.785 194.503 338.931 193.817 338.931 192.767C338.931 191.577 339.771 190.975 341.017 190.975C342.291 190.975 343.117 191.591 343.117 192.753C343.117 193.803 342.263 194.503 341.017 194.503ZM341.017 195.483C342.347 195.483 343.355 196.113 343.355 197.415C343.355 198.591 342.459 199.403 341.017 199.403C339.575 199.403 338.665 198.605 338.665 197.415C338.665 196.072 339.715 195.483 341.017 195.483Z" fill="#828690"/>
<path d="M24.8028 246.188H26.0908V236.065H23.4588V237.227H24.8028V246.188ZM28.7411 243.471C28.8811 244.955 29.8611 246.202 31.8771 246.202C34.5371 246.202 35.3071 244.311 35.3071 240.937C35.3071 237.801 34.5091 235.869 31.7651 235.869C29.5811 235.869 28.4331 237.269 28.4331 239.201C28.4331 241.343 29.8191 242.505 31.6811 242.505C32.7731 242.505 33.7811 242.015 34.1871 241.161C34.2291 244.13 33.4311 245.137 31.9471 245.137C30.7711 245.137 30.0991 244.521 29.9171 243.471H28.7411ZM31.8911 241.427C30.3791 241.427 29.6511 240.475 29.6511 239.173C29.6511 237.829 30.4771 236.933 31.7931 236.933C33.2491 236.933 34.0331 237.899 34.0331 239.271C34.0331 240.629 33.1091 241.427 31.8911 241.427Z" fill="#FF5E5E"/>
<path d="M77.1359 246.075H83.8699V245.011H79.0539C80.8599 243.541 83.5759 241.399 83.5759 238.879C83.5759 237.003 82.3439 235.883 80.4399 235.883C78.6199 235.883 77.2619 237.003 77.1779 239.159H78.4099C78.4659 237.885 79.1379 236.975 80.4539 236.975C81.8259 236.975 82.3159 237.815 82.3159 238.935C82.3159 241.007 79.7959 243.023 77.1359 245.165V246.075ZM85.3426 241.021C85.3426 243.961 86.0706 246.188 88.8706 246.188C91.6566 246.188 92.3846 243.961 92.3846 241.021C92.3846 238.123 91.6566 235.911 88.8706 235.911C86.0706 235.911 85.3426 238.123 85.3426 241.021ZM91.1246 241.021C91.1246 243.205 90.8586 245.025 88.8706 245.025C86.8686 245.025 86.6026 243.205 86.6026 241.021C86.6026 238.921 86.8686 237.073 88.8706 237.073C90.8586 237.073 91.1246 238.921 91.1246 241.021Z" fill="#828690"/>
<path d="M129.477 246.075H136.211V245.011H131.395C133.201 243.541 135.917 241.399 135.917 238.879C135.917 237.003 134.685 235.883 132.781 235.883C130.961 235.883 129.603 237.003 129.519 239.159H130.751C130.807 237.885 131.479 236.975 132.795 236.975C134.167 236.975 134.657 237.815 134.657 238.935C134.657 241.007 132.137 243.023 129.477 245.165V246.075ZM138.691 246.188H139.979V236.065H137.347V237.227H138.691V246.188Z" fill="#828690"/>
<path d="M177.927 246.075H184.661V245.011H179.845C181.651 243.541 184.367 241.399 184.367 238.879C184.367 237.003 183.135 235.883 181.231 235.883C179.411 235.883 178.053 237.003 177.969 239.159H179.201C179.257 237.885 179.929 236.975 181.245 236.975C182.617 236.975 183.107 237.815 183.107 238.935C183.107 241.007 180.587 243.023 177.927 245.165V246.075ZM185.98 246.075H192.714V245.011H187.898C189.704 243.541 192.42 241.399 192.42 238.879C192.42 237.003 191.188 235.883 189.284 235.883C187.464 235.883 186.106 237.003 186.022 239.159H187.254C187.31 237.885 187.982 236.975 189.298 236.975C190.67 236.975 191.16 237.815 191.16 238.935C191.16 241.007 188.64 243.023 185.98 245.165V246.075Z" fill="#828690"/>
<path d="M227.769 246.075H234.503V245.011H229.687C231.493 243.541 234.209 241.399 234.209 238.879C234.209 237.003 232.977 235.883 231.073 235.883C229.253 235.883 227.895 237.003 227.811 239.159H229.043C229.099 237.885 229.771 236.975 231.087 236.975C232.459 236.975 232.949 237.815 232.949 238.935C232.949 241.007 230.429 243.023 227.769 245.165V246.075ZM235.947 238.613H237.193C237.319 237.633 238.033 236.961 239.223 236.961C240.441 236.961 241.085 237.633 241.085 238.599C241.085 239.775 240.175 240.293 238.481 240.307H238.145V241.371H238.467C240.287 241.371 241.281 241.917 241.281 243.345C241.281 244.381 240.637 245.179 239.279 245.179C237.935 245.179 237.151 244.353 237.025 243.275H235.793C235.947 245.235 237.375 246.258 239.293 246.258C241.407 246.258 242.499 245.025 242.499 243.457C242.499 242.001 241.701 241.133 240.525 240.853V240.783C241.589 240.545 242.317 239.635 242.317 238.474C242.317 237.017 241.239 235.869 239.265 235.869C237.389 235.869 236.073 236.877 235.947 238.613Z" fill="#828690"/>
<path d="M277.238 246.075H283.972V245.011H279.156C280.962 243.541 283.678 241.399 283.678 238.879C283.678 237.003 282.446 235.883 280.542 235.883C278.722 235.883 277.364 237.003 277.28 239.159H278.512C278.568 237.885 279.24 236.975 280.556 236.975C281.928 236.975 282.418 237.815 282.418 238.935C282.418 241.007 279.898 243.023 277.238 245.165V246.075ZM290.317 246.188H291.577V243.933H292.977V242.827H291.577V236.163H290.051L285.137 242.967V243.933H290.317V246.188ZM286.607 242.827L290.373 237.493V242.827H286.607Z" fill="#828690"/>
<path d="M331.808 246.075H338.542V245.011H333.726C335.532 243.541 338.248 241.399 338.248 238.879C338.248 237.003 337.016 235.883 335.112 235.883C333.292 235.883 331.934 237.003 331.85 239.159H333.082C333.138 237.885 333.81 236.975 335.126 236.975C336.498 236.975 336.988 237.815 336.988 238.935C336.988 241.007 334.468 243.023 331.808 245.165V246.075ZM340.378 236.051V241.763H341.582C341.918 240.965 342.66 240.433 343.682 240.433C345.152 240.433 345.894 241.273 345.894 242.715C345.894 244.101 345.208 245.137 343.668 245.137C342.478 245.137 341.652 244.507 341.414 243.443H340.168C340.42 245.081 341.638 246.216 343.654 246.216C346.02 246.216 347.112 244.647 347.112 242.688C347.112 241.119 346.328 239.341 343.864 239.341C342.87 239.341 341.974 239.789 341.554 240.363V237.171H346.468V236.051H340.378Z" fill="#828690"/>
<path d="M22.5099 292.075H29.2439V291.011H24.4279C26.2339 289.541 28.9499 287.399 28.9499 284.879C28.9499 283.003 27.7179 281.883 25.8139 281.883C23.9939 281.883 22.6359 283.003 22.5519 285.159H23.7839C23.8399 283.885 24.5119 282.975 25.8279 282.975C27.1999 282.975 27.6899 283.815 27.6899 284.935C27.6899 287.007 25.1699 289.023 22.5099 291.165V292.075ZM37.5346 284.474C37.3666 283.059 36.3866 281.855 34.4546 281.855C31.8926 281.855 30.8706 283.815 30.8706 286.993C30.8706 290.059 31.5846 292.216 34.5806 292.216C36.7926 292.216 37.8846 290.703 37.8846 288.855C37.8846 286.727 36.6106 285.481 34.7206 285.481C33.5166 285.481 32.4106 286.041 31.9766 287.035C31.9626 284.025 32.8306 282.919 34.4406 282.919C35.5886 282.919 36.1626 283.493 36.3586 284.474H37.5346ZM34.4546 286.559C35.9106 286.559 36.6526 287.469 36.6526 288.897C36.6526 290.269 35.8266 291.151 34.5106 291.151C32.9146 291.151 32.1306 290.101 32.1306 288.757C32.1306 287.245 33.2926 286.559 34.4546 286.559Z" fill="#FF5E5E"/>
<path d="M76.7726 292.075H83.5066V291.011H78.6906C80.4966 289.541 83.2126 287.399 83.2126 284.879C83.2126 283.003 81.9806 281.883 80.0766 281.883C78.2566 281.883 76.8986 283.003 76.8146 285.159H78.0466C78.1026 283.885 78.7746 282.975 80.0906 282.975C81.4626 282.975 81.9526 283.815 81.9526 284.935C81.9526 287.007 79.4326 289.023 76.7726 291.165V292.075ZM84.5733 282.093V283.185H89.9773L86.0293 292.188H87.3173L91.2093 283.059V282.093H84.5733Z" fill="#828690"/>
<path d="M127.115 292.075H133.849V291.011H129.033C130.839 289.541 133.555 287.399 133.555 284.879C133.555 283.003 132.323 281.883 130.419 281.883C128.599 281.883 127.241 283.003 127.157 285.159H128.389C128.445 283.885 129.117 282.975 130.433 282.975C131.805 282.975 132.295 283.815 132.295 284.935C132.295 287.007 129.775 289.023 127.115 291.165V292.075ZM137.17 286.923C136.036 287.259 135.294 288.183 135.294 289.457C135.294 291.291 136.736 292.468 138.864 292.468C141.006 292.468 142.462 291.291 142.462 289.457C142.462 288.197 141.72 287.273 140.572 286.923C141.566 286.531 142.196 285.691 142.196 284.599C142.196 283.129 141.062 281.911 138.864 281.911C136.666 281.911 135.546 283.115 135.546 284.599C135.546 285.733 136.134 286.517 137.17 286.923ZM138.864 286.503C137.632 286.503 136.778 285.817 136.778 284.767C136.778 283.577 137.618 282.975 138.864 282.975C140.138 282.975 140.964 283.591 140.964 284.753C140.964 285.803 140.11 286.503 138.864 286.503ZM138.864 287.483C140.194 287.483 141.202 288.113 141.202 289.415C141.202 290.591 140.306 291.403 138.864 291.403C137.422 291.403 136.512 290.605 136.512 289.415C136.512 288.072 137.562 287.483 138.864 287.483Z" fill="#828690"/>
<path d="M177.169 292.075H183.903V291.011H179.087C180.893 289.541 183.609 287.399 183.609 284.879C183.609 283.003 182.377 281.883 180.473 281.883C178.653 281.883 177.295 283.003 177.211 285.159H178.443C178.499 283.885 179.171 282.975 180.487 282.975C181.859 282.975 182.349 283.815 182.349 284.935C182.349 287.007 179.829 289.023 177.169 291.165V292.075ZM185.838 289.471C185.978 290.955 186.958 292.202 188.974 292.202C191.634 292.202 192.404 290.311 192.404 286.937C192.404 283.801 191.606 281.869 188.862 281.869C186.678 281.869 185.53 283.269 185.53 285.201C185.53 287.343 186.916 288.505 188.778 288.505C189.87 288.505 190.878 288.015 191.284 287.161C191.326 290.13 190.528 291.137 189.044 291.137C187.868 291.137 187.196 290.521 187.014 289.471H185.838ZM188.988 287.427C187.476 287.427 186.748 286.475 186.748 285.173C186.748 283.829 187.574 282.933 188.89 282.933C190.346 282.933 191.13 283.899 191.13 285.271C191.13 286.629 190.206 287.427 188.988 287.427Z" fill="#828690"/>
<path d="M226.651 284.613H227.897C228.023 283.633 228.737 282.961 229.927 282.961C231.145 282.961 231.789 283.633 231.789 284.599C231.789 285.775 230.879 286.293 229.185 286.307H228.849V287.371H229.171C230.991 287.371 231.985 287.917 231.985 289.345C231.985 290.381 231.341 291.179 229.983 291.179C228.639 291.179 227.855 290.353 227.729 289.275H226.497C226.651 291.235 228.079 292.258 229.997 292.258C232.111 292.258 233.203 291.025 233.203 289.457C233.203 288.001 232.405 287.133 231.229 286.853V286.783C232.293 286.545 233.021 285.635 233.021 284.474C233.021 283.017 231.943 281.869 229.969 281.869C228.093 281.869 226.777 282.877 226.651 284.613ZM234.923 287.021C234.923 289.961 235.651 292.188 238.451 292.188C241.237 292.188 241.965 289.961 241.965 287.021C241.965 284.123 241.237 281.911 238.451 281.911C235.651 281.911 234.923 284.123 234.923 287.021ZM240.705 287.021C240.705 289.205 240.439 291.025 238.451 291.025C236.449 291.025 236.183 289.205 236.183 287.021C236.183 284.921 236.449 283.073 238.451 283.073C240.439 283.073 240.705 284.921 240.705 287.021Z" fill="#828690"/>
<path d="M279.491 284.613H280.737C280.863 283.633 281.577 282.961 282.767 282.961C283.985 282.961 284.629 283.633 284.629 284.599C284.629 285.775 283.719 286.293 282.025 286.307H281.689V287.371H282.011C283.831 287.371 284.825 287.917 284.825 289.345C284.825 290.381 284.181 291.179 282.823 291.179C281.479 291.179 280.695 290.353 280.569 289.275H279.337C279.491 291.235 280.919 292.258 282.837 292.258C284.951 292.258 286.043 291.025 286.043 289.457C286.043 288.001 285.245 287.133 284.069 286.853V286.783C285.133 286.545 285.861 285.635 285.861 284.474C285.861 283.017 284.783 281.869 282.809 281.869C280.933 281.869 279.617 282.877 279.491 284.613ZM288.772 292.188H290.06V282.065H287.428V283.227H288.772V292.188Z" fill="#828690"/>
<path d="M339.337 292.188H340.625V282.065H337.993V283.227H339.337V292.188Z" fill="#828690"/>
<path d="M27.3908 338.075H34.1248V337.011H29.3088C31.1148 335.541 33.8308 333.399 33.8308 330.879C33.8308 329.003 32.5988 327.883 30.6948 327.883C28.8748 327.883 27.5168 329.003 27.4328 331.159H28.6648C28.7208 329.885 29.3928 328.975 30.7088 328.975C32.0808 328.975 32.5708 329.815 32.5708 330.935C32.5708 333.007 30.0508 335.023 27.3908 337.165V338.075Z" fill="#FF5E5E"/>
<path d="M81.8586 330.613H83.1046C83.2306 329.633 83.9446 328.961 85.1346 328.961C86.3526 328.961 86.9966 329.633 86.9966 330.599C86.9966 331.775 86.0866 332.293 84.3926 332.307H84.0566V333.371H84.3786C86.1986 333.371 87.1926 333.917 87.1926 335.345C87.1926 336.381 86.5486 337.179 85.1906 337.179C83.8466 337.179 83.0626 336.353 82.9366 335.275H81.7046C81.8586 337.235 83.2866 338.258 85.2046 338.258C87.3186 338.258 88.4106 337.025 88.4106 335.457C88.4106 334.001 87.6126 333.133 86.4366 332.853V332.783C87.5006 332.545 88.2286 331.635 88.2286 330.474C88.2286 329.017 87.1506 327.869 85.1766 327.869C83.3006 327.869 81.9846 328.877 81.8586 330.613Z" fill="#828690"/>
<path d="M136.228 338.188H137.488V335.933H138.888V334.827H137.488V328.163H135.962L131.048 334.967V335.933H136.228V338.188ZM132.518 334.827L136.284 329.493V334.827H132.518Z" fill="#828690"/>
<path d="M181.758 328.051V333.763H182.962C183.298 332.965 184.04 332.433 185.062 332.433C186.532 332.433 187.274 333.273 187.274 334.715C187.274 336.101 186.588 337.137 185.048 337.137C183.858 337.137 183.032 336.507 182.794 335.443H181.548C181.8 337.081 183.018 338.216 185.034 338.216C187.4 338.216 188.492 336.647 188.492 334.688C188.492 333.119 187.708 331.341 185.244 331.341C184.25 331.341 183.354 331.789 182.934 332.363V329.171H187.848V328.051H181.758Z" fill="#828690"/>
<path d="M238.149 330.474C237.981 329.059 237.001 327.855 235.069 327.855C232.507 327.855 231.485 329.815 231.485 332.993C231.485 336.059 232.199 338.216 235.195 338.216C237.407 338.216 238.499 336.703 238.499 334.855C238.499 332.727 237.225 331.481 235.335 331.481C234.131 331.481 233.025 332.041 232.591 333.035C232.577 330.025 233.445 328.919 235.055 328.919C236.203 328.919 236.777 329.493 236.973 330.474H238.149ZM235.069 332.559C236.525 332.559 237.267 333.469 237.267 334.897C237.267 336.269 236.441 337.151 235.125 337.151C233.529 337.151 232.745 336.101 232.745 334.757C232.745 333.245 233.907 332.559 235.069 332.559Z" fill="#828690"/>
<path d="M280.703 328.093V329.185H286.107L282.159 338.188H283.447L287.339 329.059V328.093H280.703Z" fill="#828690"/>
<path d="M337.816 332.923C336.682 333.259 335.94 334.183 335.94 335.457C335.94 337.291 337.382 338.468 339.51 338.468C341.652 338.468 343.108 337.291 343.108 335.457C343.108 334.197 342.366 333.273 341.218 332.923C342.212 332.531 342.842 331.691 342.842 330.599C342.842 329.129 341.708 327.911 339.51 327.911C337.312 327.911 336.192 329.115 336.192 330.599C336.192 331.733 336.78 332.517 337.816 332.923ZM339.51 332.503C338.278 332.503 337.424 331.817 337.424 330.767C337.424 329.577 338.264 328.975 339.51 328.975C340.784 328.975 341.61 329.591 341.61 330.753C341.61 331.803 340.756 332.503 339.51 332.503ZM339.51 333.483C340.84 333.483 341.848 334.113 341.848 335.415C341.848 336.591 340.952 337.403 339.51 337.403C338.068 337.403 337.158 336.605 337.158 335.415C337.158 334.072 338.208 333.483 339.51 333.483Z" fill="#828690"/>
</svg>
