<svg width="510" height="305" viewBox="0 0 510 305" fill="none" xmlns="http://www.w3.org/2000/svg">
<g clip-path="url(#clip0_1_680)">
<g clip-path="url(#clip1_1_680)">
<path d="M419.033 178.638L417.796 183.285L411.087 185.55L409.079 183.194L408.105 183.462L409.925 190.487L412.65 190.792L416.286 192.168V193.544L417.951 193.239L420.377 189.882V187.135L421.742 184.388L423.257 184.693L421.437 180.876L421.158 178.418L419.033 178.638ZM387.335 174.981L387.185 176.201L390.821 182.311H391.881L399.457 194.984L402.488 195.289L404.003 190.861L401.578 189.335L401.123 186.894L387.335 174.981ZM423.236 191.868L424.446 193.351L423.659 195.578V196.001H425.447L426.079 190.433L426.657 190.594L427.707 195.68L428.708 195.948L429.656 193.774L428.708 190.487L427.921 189.057L430.394 187.253L429.816 186.455L427.45 187.991H426.818L425.661 186.294L426.031 185.55L427.98 184.597L430.924 185.496L431.819 185.443L434.03 183.376L433.136 182.477L431.085 184.067H429.768L427.771 183.114L426.352 183.167L424.772 185.711L423.771 190.112L423.236 191.868ZM436.439 181.904L435.438 184.34L437.018 186.407H437.542L438.228 185.031L438.597 184.554L437.912 183.81L436.911 183.44L436.439 181.904ZM439.545 189.908L437.387 190.385L436.755 191.076L437.28 191.975L438.699 191.445L439.593 190.915L440.91 191.975L441.488 191.499L440.439 190.224L439.545 189.908ZM403.768 196.799L402.295 197.806L402.611 198.652L407.296 199.712L409.663 200.135L410.664 201.195L413.346 201.409L414.61 202.469L415.767 202.202L416.821 201.249L414.872 200.349L413.191 198.92L408.822 197.859L403.768 196.799ZM419.081 201.409L417.924 202.046L418.61 202.791L420.291 202.154L419.081 201.409ZM421.078 200.933L421.287 201.939L422.497 202.255L422.968 201.672L422.443 200.874L421.078 200.933ZM423.975 203.583L422.502 203.797L423.819 204.911H424.869L423.975 203.583ZM424.392 201.832L424.076 202.469L426.443 202.839L428.285 201.779L427.235 201.463L425.554 201.939L424.922 201.409L424.392 201.832ZM445.938 186.637L443.705 186.888L442.27 187.938L442.864 189.137L445.295 189.587V190.037L443.759 191.284L444.503 193.881L445.247 193.929L445.89 191.381H447.078L447.576 193.876L453.375 198.673L453.525 202.421L455.506 204.568L456.4 204.52L456.598 191.284L453.23 188.939L450.055 191.086L448.915 191.788L447.03 190.588L446.982 186.792L445.938 186.637Z" fill="#EFF2F4" stroke="#EFF2F4" stroke-opacity="0.25" stroke-width="0.535427" stroke-linecap="round" stroke-linejoin="round"/>
<path d="M457.091 191.429L456.893 204.515L458.777 204.413L461.256 201.516L463.339 201.618L464.678 202.817L465.122 206.512L469.384 208.761L470.476 208.359V207.01L467.055 204.161L465.368 200.263L466.707 199.616L465.717 197.468L463.735 197.42L463.237 195.123L457.985 191.579L457.091 191.429ZM471.933 191.809L471.462 192.478L474.037 194.759L474.39 196.098L475.092 196.017L475.172 194.641L474.39 193.935L471.933 191.809ZM473.223 195.038L472.715 195.155L472.404 196.531L471.43 197.163L468.501 197.677L468.619 198.78L471.703 198.625L473.657 197.404L473.539 195.279L473.223 195.038ZM476.698 197.436L477.362 199.284L478.535 200.424L478.888 200.108L478.77 198.887L477.442 197.276L476.698 197.436Z" fill="#EFF2F4" stroke="#EFF2F4" stroke-opacity="0.25" stroke-width="0.535427" stroke-linecap="round" stroke-linejoin="round"/>
<path d="M74.1158 125.646L76.702 133.79L75.4972 134.465L75.6311 136.082L77.9067 137.833V141.072L80.7177 143.771L79.5129 135.814L77.9067 130.551L78.3082 126.91L79.6468 127.044L80.1822 128.259L79.6468 131.359L86.6074 144.981V149.837L92.2293 156.444L98.3868 159.276L100.93 157.793L104.544 160.76L106.686 158.602L105.749 156.171L108.828 155.229L109.765 155.769L110.702 154.827H112.174L114.851 150.105L113.513 148.889L108.292 150.105L107.087 153.612L104.009 154.152L100.395 152.669L98.7883 147.545L100.004 141.083L97.5194 139.535L96.3361 133.33L95.3455 132.907L93.5358 134.743L91.4583 133.635L90.6445 129.496L82.415 128.634L78.1637 125.438L74.1158 125.646Z" fill="#EFF2F4" stroke="#EFF2F4" stroke-opacity="0.25" stroke-width="0.535427" stroke-linecap="round" stroke-linejoin="round"/>
<path d="M277.728 81.8644L274.73 81.7573L272.829 82.9192L272.802 83.7812L274.034 84.9431L277.862 85.591L277.728 81.8644ZM271.833 83.9954L271.003 83.9686L270.521 84.4559L270.869 84.9699L271.699 85.0234L272.128 84.4023L271.833 83.9954Z" fill="#EFF2F4" stroke="#EFF2F4" stroke-opacity="0.25" stroke-width="0.535427" stroke-linecap="round" stroke-linejoin="round"/>
<path d="M254.228 126.749L252.044 126.016L242.952 127.724L240.971 129.228L242.181 135.477L238.567 135.621L236.393 139.118L231.216 140.36L231.232 142.903L248.285 155.941L251.192 156.187L260.889 148.611L259.92 147.39L258.099 147.144L257.007 145.313V137.736L256.279 137.003L256.402 135.048L254.464 133.094L254.223 131.017L255.069 130.406L254.705 128.206L254.228 126.749Z" fill="#EFF2F4" stroke="#EFF2F4" stroke-opacity="0.25" stroke-width="0.535427" stroke-linecap="round" stroke-linejoin="round"/>
<path d="M240.527 129.314H234.342L233.132 132.002L230.343 133.346L228.04 139.578L223.554 142.266L217.252 152.648L223.436 152.525L223.677 149.473H225.251V145.318H230.707L230.83 139.942L236.045 138.721L238.23 135.177L241.624 135.054L240.527 129.314Z" fill="#EFF2F4" stroke="#EFF2F4" stroke-opacity="0.25" stroke-width="0.535427" stroke-linecap="round" stroke-linejoin="round"/>
<path d="M217.294 153.076L218.462 154.602L218.221 161.199L219.918 159.978L221.128 159.732L222.825 160.342L224.764 163.03L226.584 161.809L235.435 161.686L233.25 146.903L235.595 146.892L231.226 143.546L231.232 145.72L225.701 145.725L225.674 149.874L224.084 149.869L223.88 152.932L217.294 153.076Z" fill="#EFF2F4" stroke="#EFF2F4" stroke-opacity="0.25" stroke-width="0.535427" stroke-linecap="round" stroke-linejoin="round"/>
<path d="M221.112 160.133L220.089 160.385L217.98 161.922L217.498 162.778L217.348 163.63L218.114 164.181L220.71 164.149L222.381 163.699L222.568 164.518L222.413 165.605L222.451 165.621L218.301 165.686L218.97 167.292L219.334 166.307L224.308 166.724L224.341 166.756L224.86 166.778L226.45 166.842L226.514 165.905L224.592 163.597L222.451 160.685L221.112 160.133Z" fill="#EFF2F4" stroke="#EFF2F4" stroke-opacity="0.25" stroke-width="0.535427" stroke-linecap="round" stroke-linejoin="round"/>
<path d="M218.36 164.684L218.29 165.279L221.995 165.225L222.183 164.674L222.103 164.117L221.037 164.55L218.36 164.684Z" fill="#EFF2F4" stroke="#EFF2F4" stroke-opacity="0.25" stroke-width="0.535427" stroke-linecap="round" stroke-linejoin="round"/>
<path d="M219.276 167.999L220.025 169.482L222.129 167.672L222.151 167.115L219.672 166.756L219.276 167.999Z" fill="#EFF2F4" stroke="#EFF2F4" stroke-opacity="0.25" stroke-width="0.535427" stroke-linecap="round" stroke-linejoin="round"/>
<path d="M220.25 169.824L221.878 172.33L223.998 170.488L226.172 170.392L227.982 172.796L229.518 173.808L230.096 172.684L230.61 172.394L230.573 169.921L229.55 166.987L226.413 167.335L222.531 167.024L222.51 168.02L220.25 169.824Z" fill="#EFF2F4" stroke="#EFF2F4" stroke-opacity="0.25" stroke-width="0.535427" stroke-linecap="round" stroke-linejoin="round"/>
<path d="M222.129 172.603L225.154 175.527L227.312 172.908L225.963 170.793L224.105 170.981L222.129 172.603Z" fill="#EFF2F4" stroke="#EFF2F4" stroke-opacity="0.25" stroke-width="0.535427" stroke-linecap="round" stroke-linejoin="round"/>
<path d="M225.47 175.848L231.349 179.778L231.21 176.801L229.433 174.707L227.698 173.171L225.47 175.848Z" fill="#EFF2F4" stroke="#EFF2F4" stroke-opacity="0.25" stroke-width="0.535427" stroke-linecap="round" stroke-linejoin="round"/>
<path d="M231.842 179.896L234.134 178.273L236.982 177.776L239.889 178.402L238.406 176.159L237.973 174.788L238.406 170.735L235.81 170.858L234.632 169.733L232.158 169.798L230.98 169.985L231.103 172.726L230.482 172.978L229.738 174.349L231.655 176.592L231.842 179.896Z" fill="#EFF2F4" stroke="#EFF2F4" stroke-opacity="0.25" stroke-width="0.535427" stroke-linecap="round" stroke-linejoin="round"/>
<path d="M225.09 163.346L226.739 162.216L235.906 162.162L233.786 147.417L236.206 147.347L247.915 156.283L249.49 156.508L248.895 161.477L241.533 162.146L235.852 166.387L234.819 169.289L230.873 169.455L229.866 166.558L226.841 166.772L226.959 165.825L225.09 163.346Z" fill="#EFF2F4" stroke="#EFF2F4" stroke-opacity="0.25" stroke-width="0.535427" stroke-linecap="round" stroke-linejoin="round"/>
<path d="M241.758 162.511L243.707 162.355L246.904 166.874L243.937 169.112L241.79 168.561L238.904 168.598L238.438 170.29L236.018 170.408L235.354 169.503L236.211 166.751L241.758 162.511Z" fill="#EFF2F4" stroke="#EFF2F4" stroke-opacity="0.25" stroke-width="0.535427" stroke-linecap="round" stroke-linejoin="round"/>
<path d="M247.273 166.644L248.638 166.612L249.87 164.765L251.937 164.395L254.137 165.739L258.833 165.873L262.463 164.395L263.828 163.223L263.93 161.68L266.463 159.126L267.132 153.488L265.467 149.997L261.205 148.959L251.342 156.647L249.945 156.514L249.345 161.852L244.312 162.355L247.273 166.644Z" fill="#EFF2F4" stroke="#EFF2F4" stroke-opacity="0.25" stroke-width="0.535427" stroke-linecap="round" stroke-linejoin="round"/>
<path d="M238.412 174.702L239.011 176.11L240.575 178.562L241.442 178.53L243.809 177.186L243.643 169.535L241.812 169L239.247 169.069L238.412 174.702Z" fill="#EFF2F4" stroke="#EFF2F4" stroke-opacity="0.25" stroke-width="0.535427" stroke-linecap="round" stroke-linejoin="round"/>
<path d="M244.237 176.951L245.672 176.11L245.64 170.569L244.708 169.059L244.109 169.562L244.237 176.951Z" fill="#EFF2F4" stroke="#EFF2F4" stroke-opacity="0.25" stroke-width="0.535427" stroke-linecap="round" stroke-linejoin="round"/>
<path d="M246.106 176.009H247.241L247.305 172.785L248.74 170.702L248.676 167.078L247.375 167.046L245.142 168.791L246.074 170.569L246.106 176.009Z" fill="#EFF2F4" stroke="#EFF2F4" stroke-opacity="0.25" stroke-width="0.535427" stroke-linecap="round" stroke-linejoin="round"/>
<path d="M247.637 175.944L249.736 176.046L252.269 178.868L253.5 179.205L254.464 178.734L255.931 178.53L256.429 176.485L258.426 175.173L260.589 175.072L264.551 167.784L264.487 166.141L262.656 164.732L258.993 166.344L254.094 166.274L251.76 164.797L250.095 165.166L249.227 166.676L249.163 170.938L247.766 172.919L247.637 175.944Z" fill="#EFF2F4" stroke="#EFF2F4" stroke-opacity="0.25" stroke-width="0.535427" stroke-linecap="round" stroke-linejoin="round"/>
<path d="M254.78 126.664L257.741 125.47L258.715 126.101L258.753 126.872L258.297 127.467L258.367 128.522L258.822 128.768V130.663L258.297 131.541L258.367 132.104L260.353 132.805L258.753 135.295L258.126 135.257L258.019 137.26L257.323 137.367L256.729 136.842L256.868 134.807L254.919 132.912L254.673 131.263L255.615 130.524L254.78 126.664Z" fill="#EFF2F4" stroke="#EFF2F4" stroke-opacity="0.25" stroke-width="0.535427" stroke-linecap="round" stroke-linejoin="round"/>
<path d="M257.532 137.747L258.367 137.608L258.613 135.68H259.031L260.739 132.875L264.953 134.101L266.104 135.889L270.248 137.784L272.406 136.874L272.197 135.964L271.255 135.054L271.362 134.422L272.893 133.126H275.924L277.075 134.668L279.511 135.022L279.827 154.773L278.017 154.704L267.084 149.018L265.9 149.687L261.408 148.563L260.187 146.951L258.41 146.705L257.505 145.093L257.532 137.747Z" fill="#EFF2F4" stroke="#EFF2F4" stroke-opacity="0.25" stroke-width="0.535427" stroke-linecap="round" stroke-linejoin="round"/>
<path d="M279.955 135.086L281.385 135.123L284.169 135.894L285.492 135.932L287.13 134.561H287.896L289.288 135.332H291.05L291.365 135.311L292.479 138.513L292.795 139.546L293.089 141.093L292.565 141.479L291.66 141.024L290.616 137.618L289.673 137.549L289.604 138.705L290.23 140.708L295.247 146.919L295.354 149.585L293.893 151.272L280.164 151.117L279.955 135.086Z" fill="#EFF2F4" stroke="#EFF2F4" stroke-opacity="0.25" stroke-width="0.535427" stroke-linecap="round" stroke-linejoin="round"/>
<path d="M264.353 163.431L264.423 161.852L266.961 159.384L267.641 153.323L265.949 150.089L267.132 149.484L278.59 155.454L278.52 161.311L276.502 163.03V166.05L277.824 168.609H275.49L271.624 172.432L271.522 173.588L268.669 173.551L268.631 174.076L267.003 173.862L265.89 171.757L265.054 171.345L265.162 170.702L266.211 169.899V166.141L264.76 165.916L263.009 164.615L264.353 163.431Z" fill="#EFF2F4" stroke="#EFF2F4" stroke-opacity="0.25" stroke-width="0.535427" stroke-linecap="round" stroke-linejoin="round"/>
<path d="M279.002 161.52L279.099 155.186L280.416 155.223L280.266 151.706L294.08 151.829L296.056 149.837L300.318 156.653L297.983 159.405V163.608L294.31 171.506L293.047 172.062L293.448 174.263H295.022L297.159 177.363L295.445 177.583L295.006 178.381L294.963 179.532L289.823 179.441L289.299 178.643L285.706 178.439L279.109 171.65L279.768 171.254L279.945 169.658L278.365 168.727L276.925 165.884L277.005 163.239L279.002 161.52Z" fill="#EFF2F4" stroke="#EFF2F4" stroke-opacity="0.25" stroke-width="0.535427" stroke-linecap="round" stroke-linejoin="round"/>
<path d="M256.338 178.573L258.062 180.158L257.939 182.61L267.394 182.391L268.165 181.523L265.456 178.605L265.055 177.551L266.779 174.322L265.606 172.18L264.621 171.65V170.563L265.761 169.819L265.826 166.435L264.921 166.333L264.905 168.111L260.932 175.527L258.501 175.65L256.836 176.796L256.338 178.573Z" fill="#EFF2F4" stroke="#EFF2F4" stroke-opacity="0.25" stroke-width="0.535427" stroke-linecap="round" stroke-linejoin="round"/>
<path d="M298.578 162.735L298.444 159.582L300.564 157.108L301.137 157.547L302.181 161.038L307.193 164.77L306.282 165.889L302.615 162.735H298.578Z" fill="#EFF2F4" stroke="#EFF2F4" stroke-opacity="0.25" stroke-width="0.535427" stroke-linecap="round" stroke-linejoin="round"/>
<path d="M306.486 166.398L306.181 168.197L308.301 168.165L308.333 165.519L307.557 165.043L306.486 166.398Z" fill="#EFF2F4" stroke="#EFF2F4" stroke-opacity="0.25" stroke-width="0.535427" stroke-linecap="round" stroke-linejoin="round"/>
<path d="M294.712 171.87L298.61 163.196L302.481 163.217L305.913 166.2L305.672 168.657H308.333L308.606 170.135L312.911 172.71L315.567 172.844L310.518 178.268L303.584 180.404H301.865L298.802 177.792L297.592 177.283L295.247 173.829L293.7 173.851L293.518 172.266L294.712 171.87Z" fill="#EFF2F4" stroke="#EFF2F4" stroke-opacity="0.25" stroke-width="0.535427" stroke-linecap="round" stroke-linejoin="round"/>
<path d="M308.767 168.272L310.951 169.76L311.599 169.728L317.023 167.865L317.639 169.851L317.205 171.527L316.033 172.459L313.104 172.271L308.911 169.696L308.767 168.272ZM317.457 167.742L319.797 166.842L320.627 167.34L320.535 169.417L318.378 175.564L306.7 188.072L305.345 187.14L305.254 181.861L307.011 179.842L310.737 178.691L316.204 172.919L317.633 171.645L318.035 169.782L317.457 167.742Z" fill="#EFF2F4" stroke="#EFF2F4" stroke-opacity="0.25" stroke-width="0.535427" stroke-linecap="round" stroke-linejoin="round"/>
<path d="M321.553 165.386L322.693 166.66L324.235 165.728L324.792 165.541L324.085 164.856L322.731 165.257L321.553 165.386ZM306.759 159.806L307.53 162.098V164.336L309.383 166.017L322.436 160.701L322.559 159.239L320.466 155.48L315.213 157.156L312.199 160.122L308.703 158.056L306.759 159.806Z" fill="#EFF2F4" stroke="#EFF2F4" stroke-opacity="0.25" stroke-width="0.535427" stroke-linecap="round" stroke-linejoin="round"/>
<path d="M265.89 178.45L268.385 181.149L269.37 179.874L270.939 179.939L271.276 178.696L272.818 177.733L276.02 179.939L277.867 178.107L285.037 178.423L278.387 171.559L279.281 171.002L279.404 169.792L277.894 169.08H275.677L272.106 172.619L271.983 174.076L269.151 173.985L269.06 174.606L267.212 174.418L265.547 177.583L265.89 178.45Z" fill="#EFF2F4" stroke="#EFF2F4" stroke-opacity="0.25" stroke-width="0.535427" stroke-linecap="round" stroke-linejoin="round"/>
<path d="M252.547 185.464L253.163 185.154L253.623 185.528L253.163 186.241L252.606 186.021L252.547 185.464ZM253.784 183.51L254.71 183.355L255.021 183.944L254.56 184.442L254.1 184.377L253.784 183.51Z" fill="#EFF2F4" stroke="#EFF2F4" stroke-opacity="0.25" stroke-width="0.535427" stroke-linecap="round" stroke-linejoin="round"/>
<path d="M255.813 180.249L255.567 181.304L256.306 181.706L257.012 181.175L256.766 180.089L255.813 180.249ZM258.035 183.076L258.003 183.82L260.434 183.944L260.402 183.103L258.035 183.076Z" fill="#EFF2F4" stroke="#EFF2F4" stroke-opacity="0.25" stroke-width="0.535427" stroke-linecap="round" stroke-linejoin="round"/>
<path d="M260.926 183.044L260.862 184.377L257.842 184.313L255.995 187.884L260.337 192.634L261.414 191.734L261.382 190.802L260.643 190.46V189.806L262.308 188.752L263.786 189.871L265.419 189.903L265.387 184.286L262.8 184.163L262.768 182.985L260.926 183.044Z" fill="#EFF2F4" stroke="#EFF2F4" stroke-opacity="0.25" stroke-width="0.535427" stroke-linecap="round" stroke-linejoin="round"/>
<path d="M263.395 182.985L263.362 183.762L265.922 183.826L266.013 190.471L263.673 190.406L262.318 189.351L261.269 189.94L261.221 190.235L261.762 190.497L261.917 191.863L260.471 193.105L260.782 193.758L262.383 192.516H263.154L263.4 193.26L264.417 193.694L267.683 190.931L267.619 188.912L268.299 187.269L270.393 185.716L270.955 180.463L269.466 180.469L267.742 182.83L263.395 182.985Z" fill="#EFF2F4" stroke="#EFF2F4" stroke-opacity="0.25" stroke-width="0.535427" stroke-linecap="round" stroke-linejoin="round"/>
<path d="M261.012 194.074L261.944 195.284L263.148 194.143L262.795 192.96L262.495 192.939L261.012 194.074ZM262.12 195.937L263.946 202.753L263.903 204.906L261.232 207.775L260.83 212.439L271.11 212.53L274.451 213.74L277.209 213.381L275.602 211.368L275.608 205.618L278.767 205.484V203.24L276.202 203.133L275.688 197.822L274.606 197.838L274.023 197.313L273.386 197.345L272.54 198.984H269.284L268.529 198.223L268.754 197.147L267.865 195.846L262.12 195.937Z" fill="#EFF2F4" stroke="#EFF2F4" stroke-opacity="0.25" stroke-width="0.535427" stroke-linecap="round" stroke-linejoin="round"/>
<path d="M262.527 195.402L268.048 195.305L269.167 196.896L269.124 198.068L269.536 198.443H272.277L273.065 196.896H274.184L274.639 197.356L276.175 197.313L276.63 202.71L279.286 202.796V203.214L286.423 206.431L286.755 207.058H288.249L288.083 204.798L285.385 203.503L285.551 201.789L286.713 199.069L289.368 198.984L287.087 191.413L287.13 188.195L290.739 182.551L290.782 181.759L290.241 181.464L290.262 179.933L289.604 179.874L288.94 179.028L278.044 178.536L276.047 180.479L272.775 178.327L271.624 179.034L270.789 186.064L268.722 187.659L268.101 189.073L268.214 191.166L264.487 194.213L263.496 193.763L263.63 194.347L262.527 195.402Z" fill="#EFF2F4" stroke="#EFF2F4" stroke-opacity="0.25" stroke-width="0.535427" stroke-linecap="round" stroke-linejoin="round"/>
<path d="M288.463 186.937L289.968 188.323L289.904 189.807L287.569 189.855V188.216L288.463 186.937Z" fill="#EFF2F4" stroke="#EFF2F4" stroke-opacity="0.25" stroke-width="0.535427" stroke-linecap="round" stroke-linejoin="round"/>
<path d="M287.601 190.315L289.888 190.267L289.293 192.269L288.715 192.773H288.008L287.505 191.418L287.601 190.315Z" fill="#EFF2F4" stroke="#EFF2F4" stroke-opacity="0.25" stroke-width="0.535427" stroke-linecap="round" stroke-linejoin="round"/>
<path d="M288.72 186.503L290.343 188.024L291.36 187.376L294.112 186.926L294.583 186.974L294.76 185.93L296.313 182.664L295.006 179.944L290.771 179.971L290.744 181.09L291.312 181.636L291.226 182.755L288.72 186.503Z" fill="#EFF2F4" stroke="#EFF2F4" stroke-opacity="0.25" stroke-width="0.535427" stroke-linecap="round" stroke-linejoin="round"/>
<path d="M295.429 179.773L296.854 182.552L295.146 186.134L294.921 187.22L303.45 192.494L306.095 188.339L304.756 187.253L304.73 181.78L306.406 179.949L303.734 180.838L301.715 180.865L298.556 178.198L297.56 177.77L295.713 177.941L295.386 178.488L295.429 179.773Z" fill="#EFF2F4" stroke="#EFF2F4" stroke-opacity="0.25" stroke-width="0.535427" stroke-linecap="round" stroke-linejoin="round"/>
<path d="M295.29 203.813L304.644 202.667L302.54 198.598L302.427 194.7L303.107 192.837L294.208 187.247L291.419 187.708L290.45 188.425L290.364 190.058L289.738 192.323L289.084 193.099L288.147 193.185L289.941 199.401L292.87 200.777L294.889 200.836L295.29 203.813Z" fill="#EFF2F4" stroke="#EFF2F4" stroke-opacity="0.25" stroke-width="0.535427" stroke-linecap="round" stroke-linejoin="round"/>
<path d="M276.004 210.924L277.701 213.28L280.33 213.44L281.262 213.954L284.014 213.986L286.386 210.661L293.015 207.695L293.593 205.082L292.822 201.34L289.363 199.369L287.055 199.53L285.904 202.079L285.936 203.24L288.656 204.563L288.817 207.438L286.477 207.567L285.899 206.598L279.399 203.824L279.206 205.955L276.133 206.051L276.004 210.924Z" fill="#EFF2F4" stroke="#EFF2F4" stroke-opacity="0.25" stroke-width="0.535427" stroke-linecap="round" stroke-linejoin="round"/>
<path d="M293.464 208.086L295.129 209.826L295.097 212.054L295.419 212.991L297.63 210.603L297.373 207.567L296.19 206.662L295.135 201.334L293.309 201.27L294.139 205.109L293.464 208.086Z" fill="#EFF2F4" stroke="#EFF2F4" stroke-opacity="0.25" stroke-width="0.535427" stroke-linecap="round" stroke-linejoin="round"/>
<path d="M290.257 226.226L291.697 227.42L295.092 225.353L295.638 222.285V217.22L301.083 212.766L302.015 212.798L305.313 209.633L304.799 203.112L296.056 204.215L296.313 206.185L297.817 207.347L298.171 210.897L295.226 213.772L294.519 212.161L294.648 210.03L292.95 208.188L288.785 210.126L292.661 212.096L292.79 217.841L290.225 221.648L290.257 226.226Z" fill="#EFF2F4" stroke="#EFF2F4" stroke-opacity="0.25" stroke-width="0.535427" stroke-linecap="round" stroke-linejoin="round"/>
<path d="M281.417 214.993L286.22 220.417L289.904 221.354L292.372 217.483L292.179 212.353L288.174 210.287L286.67 210.967L284.426 214.388L281.321 214.356L281.417 214.993Z" fill="#EFF2F4" stroke="#EFF2F4" stroke-opacity="0.25" stroke-width="0.535427" stroke-linecap="round" stroke-linejoin="round"/>
<path d="M266.366 230.874L268.16 231.002L269.215 232.068L271.715 232.1L272.326 225V220.353L273.927 220.031L274.537 215.159L278.606 215.031L280.046 213.837L277.61 213.74L274.312 214.19L270.757 212.9H260.766L261.023 215.737L264.353 220.642L263.775 223.158L263.807 224.481L266.366 230.874Z" fill="#EFF2F4" stroke="#EFF2F4" stroke-opacity="0.25" stroke-width="0.535427" stroke-linecap="round" stroke-linejoin="round"/>
<path d="M272.77 225.129L273.921 225.482L273.761 228.775L274.944 228.936L277.664 226.483L280.93 226.837L281.797 224.641L285.931 220.867L280.967 215.154L280.903 214.217L280.357 214.056L278.852 215.443L274.944 215.539L274.398 220.412L272.861 220.765L272.77 225.129Z" fill="#EFF2F4" stroke="#EFF2F4" stroke-opacity="0.25" stroke-width="0.535427" stroke-linecap="round" stroke-linejoin="round"/>
<path d="M290.096 226.612L288.753 226.837L288.174 228.416L289.202 229.353H290.45L291.505 227.838L290.096 226.612Z" fill="#EFF2F4" stroke="#EFF2F4" stroke-opacity="0.25" stroke-width="0.535427" stroke-linecap="round" stroke-linejoin="round"/>
<path d="M282.89 232.71L284.523 231.452L285.294 231.484L286.225 232.646L286.129 233.808L284.56 234.386V234.836L282.831 234.74L282.413 233.481L282.89 232.71Z" fill="#EFF2F4" stroke="#EFF2F4" stroke-opacity="0.25" stroke-width="0.535427" stroke-linecap="round" stroke-linejoin="round"/>
<path d="M286.504 221.059L282.274 224.968L281.267 227.383L277.916 226.965L275.126 229.444L273.273 229.262L273.423 225.835L272.765 225.605L272.304 232.614L269.017 232.582L268.026 231.414L266.575 231.398L267.898 235.195L270.259 237.427L268.572 239.392L269.665 241.855L272.192 242.819L274.205 241.106L279.972 241.138L280.384 240.624L282.943 240.174L291.601 231.554L291.569 228.839L290.643 230.038H289.256L287.569 228.625L288.426 226.494L289.898 226.194L289.765 221.814L286.504 221.059ZM284.475 230.965L285.283 230.933L286.595 232.357L286.557 234.006L285.021 234.782L284.924 235.328L282.579 235.355L281.846 233.588L282.515 232.293L284.475 230.965Z" fill="#EFF2F4" stroke="#EFF2F4" stroke-opacity="0.25" stroke-width="0.535427" stroke-linecap="round" stroke-linejoin="round"/>
<path d="M172.442 31.7539L171.714 32.9157L173.025 34.2275L172.442 35.5393L174.337 38.013L176.666 37.2848L179.724 36.9957L183.22 40.7812L185.549 47.0403L183.659 50.9703L186.277 50.5313L187.733 51.404L187.878 53.2994L184.676 53.444L186.422 55.1895L188.606 55.6286L183.803 62.0323L183.22 65.9623L184.237 69.1642L183.509 71.0596L184.821 75.1342L187.294 77.9023L188.023 77.7578L189.624 77.3187L189.768 79.6478L190.785 81.1042L192.675 80.9596L194.132 75.5732L198.501 70.1868L205.055 67.5686L209.129 62.4713L211.019 63.3441H214.949L218.151 60.1422L222.081 58.5413L222.52 56.0676L220.047 53.8831L217.862 53.1549L216.695 50.0976L219.463 48.4967L223.832 50.8258L225.288 49.2248L222.959 47.9131L227.912 41.2149L227.039 38.3021L224.71 38.1576L225.583 35.5393L228.496 34.2275L234.466 28.9857L232.72 27.0956L226.022 27.6793L222.526 31.1756L224.566 26.662L222.236 26.0783L220.925 28.4074L219.035 26.8065L213.793 27.3901L215.249 25.061L223.837 24.7719L221.653 21.8592L212.336 20.1137L208.551 20.6973L208.695 22.5927L204.765 21.2809L204.91 19.9691L202.142 20.5527L201.558 22.0091L204.471 23.0264L201.414 25.2109L199.229 22.7373L196.172 21.8645L195.733 24.1936H192.675L191.508 21.72L186.705 20.9918L184.087 22.3036L183.943 24.0491L180.596 23.61L178.556 24.4828L178.701 26.5227V27.5401L174.915 28.2682L173.17 27.1064L172.003 28.9964L173.748 30.8918L177.389 30.4528L177.678 31.62L174.91 32.9318L172.442 31.7539ZM184.093 54.4667L184.965 55.7785L184.526 57.3794H183.654L182.486 56.0676L182.775 55.0503L184.093 54.4667ZM220.491 50.8258L222.965 51.554L222.82 53.5939L220.202 52.2821L219.618 51.554L220.491 50.8258Z" fill="#EFF2F4" stroke="#EFF2F4" stroke-opacity="0.25" stroke-width="0.535427" stroke-linecap="round" stroke-linejoin="round"/>
<path d="M408.051 234.097L407.864 247.686L405.775 249.218L405.588 250.556L408.436 252.468L415.467 251.129H419.075L420.403 249.212L428.381 247.681L434.078 249.405L433.698 251.702L434.458 253.999L438.827 253.233L439.015 254.379L436.166 256.483L437.114 257.249L439.202 256.483L438.635 262.801L442.623 265.864L444.904 265.098L446.045 266.244L452.695 265.286L458.965 255.139L461.246 254.566L465.802 246.144L466.943 238.873L464.094 235.238L465.235 234.472L462.954 227.388L460.485 225.664L460.865 216.096L458.585 214.372L458.017 209.012H456.877L453.075 221.643L450.987 221.836L446.238 217.049L448.899 209.965L443.962 209.007L438.453 210.538L436.932 214.939L434.464 215.512L434.276 212.45L424.21 218.575L424.398 220.872L422.877 222.976H419.075L410.905 226.419L408.051 234.097ZM442.623 270.656L441.676 274.484L441.863 277.161L444.712 276.969L447.94 271.995L442.623 270.656Z" fill="#EFF2F4" stroke="#EFF2F4" stroke-opacity="0.25" stroke-width="0.535427" stroke-linecap="round" stroke-linejoin="round"/>
<path d="M489.356 262.999L489.923 269.317L489.163 272.187L486.314 274.292L486.502 276.781V279.458L487.262 280.417L495.053 273.719V272.187H493.152L490.491 263.192L489.356 262.999ZM483.659 276.781L485.179 279.651L480.998 283.672L480.617 285.776L477.769 286.157L473.02 290.558L468.651 288.454L468.271 286.922L476.248 283.479L483.659 276.781Z" fill="#EFF2F4" stroke="#EFF2F4" stroke-opacity="0.25" stroke-width="0.535427" stroke-linecap="round" stroke-linejoin="round"/>
<path d="M485.94 230.076L485.752 231.034L488.221 234.477L489.548 235.05L489.736 233.711L485.94 230.076Z" fill="#EFF2F4" stroke="#EFF2F4" stroke-opacity="0.25" stroke-width="0.535427" stroke-linecap="round" stroke-linejoin="round"/>
<path d="M409.641 183.199L411.258 185.068L417.458 182.921L418.685 178.188L421.447 177.99L423.975 176.159L420.698 173.771L419.948 172.459L418.331 175.441L418.925 177.154L417.94 178.584L416.082 178.108L411.579 181.411L411.697 183.323L409.641 183.199ZM392.813 173.846L393.889 176.26L394.13 179.398L395.57 181.631L399.045 183.74L400.362 183.863L400.121 181.69L398.981 178.916L397.31 175.366L397.171 175.987L395.158 175.896L393.712 173.819L392.813 173.846Z" fill="#EFF2F4" stroke="#EFF2F4" stroke-opacity="0.25" stroke-width="0.535427" stroke-linecap="round" stroke-linejoin="round"/>
<path d="M418.01 175.88L416.468 177.749L417.731 178.145L418.444 177.149L418.01 175.88Z" fill="#EFF2F4" stroke="#EFF2F4" stroke-opacity="0.25" stroke-width="0.535427" stroke-linecap="round" stroke-linejoin="round"/>
<path d="M432.129 202.207L429.393 204.488L429.655 205.072L430.812 204.857L432.177 203.583L434.86 203.214L434.335 202.314L432.129 202.207Z" fill="#EFF2F4" stroke="#EFF2F4" stroke-opacity="0.25" stroke-width="0.535427" stroke-linecap="round" stroke-linejoin="round"/>
<path d="M479.938 200.188L480.018 201.409L480.762 202.116L481.463 201.682L480.837 200.381L479.938 200.188ZM480.874 203.219L480.248 203.888L480.912 205.109L481.694 205.345L481.656 204.52L480.874 203.219ZM482.4 202.512L482.947 203.851L484.001 205.109L484.585 204.167L483.803 202.828L482.4 202.512ZM485.137 204.52L485.447 206.175L486.191 207.197L486.818 205.901L485.137 204.52ZM485.993 208.22L485.72 208.691L486.62 209.874L487.246 209.912L486.855 208.375L485.993 208.22ZM484.001 210.576L483.064 211.009L483.884 212.15L484.585 211.754L484.001 210.576Z" fill="#EFF2F4" stroke="#EFF2F4" stroke-opacity="0.25" stroke-width="0.535427" stroke-linecap="round" stroke-linejoin="round"/>
<path d="M493.559 217.627L492.895 218.516L493.173 219.517L493.505 219.742L494.11 218.961L493.559 217.627ZM493.891 220.353L493.944 221.075L494.662 221.3L495.16 221.022L494.662 220.24L493.891 220.353ZM494.94 226.81L494.608 227.313L495.106 227.87L495.936 227.592L494.94 226.81Z" fill="#EFF2F4" stroke="#EFF2F4" stroke-opacity="0.25" stroke-width="0.535427" stroke-linecap="round" stroke-linejoin="round"/>
<path d="M508.417 225.696L507.753 226.585L507.699 227.586L508.47 228.368L508.417 225.696Z" fill="#EFF2F4" stroke="#EFF2F4" stroke-opacity="0.25" stroke-width="0.535427" stroke-linecap="round" stroke-linejoin="round"/>
<path d="M423.15 164.251L422.69 165.129L422.433 166.21L419.873 169.46L420.029 170.13L421.105 169.974L424.43 166.258L423.15 164.251ZM427.294 163.014L427.241 165.696L428.215 166.676L428.574 168.582L429.548 168.791L430.009 167.602L429.243 167.035L429.04 163.683L427.294 163.014ZM430.062 164.047L430.009 166.419L430.571 167.345L431.546 166.21L431.289 164.149L430.062 164.047ZM430.673 161.98L431.647 163.271L432.108 164.508H432.981L432.825 162.393L431.851 161.723L430.673 161.98ZM432.568 166.831L432.772 168.379L430.978 169.824L429.495 169.98L427.91 171.682L427.964 172.459L429.447 171.993L430.469 171.324L431.342 173.54L432.879 174.622L433.495 174.413L434.057 173.744L432.831 172.507L433.548 171.939L434.367 172.609L434.929 171.682L434.367 170.547L434.266 168.02L432.568 166.831ZM424.226 151.1L422.845 152.08L422.69 155.175L424.842 159.351L425.56 159.919L426.48 159.298L428.065 159.555L428.371 160.947L429.548 161.049L430.111 160.278L429.393 159.298L428.52 158.473L426.679 158.27L425.704 156.669L426.828 154.966L426.93 153.472L426.165 151.566L424.226 151.1ZM424.944 160.331L425.351 161.777L426.068 162.243L426.582 161.573L425.763 160.438L424.944 160.331Z" fill="#EFF2F4" stroke="#EFF2F4" stroke-opacity="0.25" stroke-width="0.535427" stroke-linecap="round" stroke-linejoin="round"/>
<path d="M407.334 149.601L406.054 149.96L405.133 151.095L405.899 152.589L407.023 152.691L408.303 151.556L408.608 150.062L407.334 149.601ZM359.45 96.0051L357.598 100.663L355.044 100.529L352.351 106.425L354.637 109.337L349.925 115.843L347.505 115.436L345.888 117.47L346.29 118.691L348.174 118.825L349.117 120.993L351.001 121.4L356.789 128.859V132.655L359.616 134.417L362.711 133.876L366.614 136.178L371.326 137.533L373.612 137.26L376.172 136.987L381.553 133.464L383.304 133.737L383.973 135.327L385.456 135.771L387.475 138.754L386.131 141.736L386.939 143.771L389.225 144.584L389.627 147.026L392.32 147.299L392.722 146.078L396.625 144.044L399.045 144.177L401.872 147.294L403.757 146.48L404.967 146.614L405.508 148.108L406.45 148.241L407.794 146.346L413.175 144.311L418.021 138.481L419.638 132.923L419.504 129.26L417.485 128.854L418.695 127.499L418.428 125.33L413.314 120.18V117.604L414.792 115.709L416.27 115.029L416.404 113.535H412.634L411.96 115.57L410.209 115.163L408.056 112.86L409.4 109.337L411.285 107.303L413.036 107.436L412.768 110.553L413.71 111.367L415.997 109.064L416.805 108.93L416.538 107.169L418.69 104.593L420.307 104.727L421.249 101.745L422.352 101.161L422.465 99.3033L421.394 98.1789L421.303 95.2448L423.364 95.1109L423.23 87.5454L421.785 88.4128L421.244 90.351L418.829 90.3456L411.831 86.4102L406.777 80.3171L401.647 80.2635L400.341 81.3987L402.001 85.2002L401.422 88.7661L399.356 89.6228L398.194 89.5318L398.108 93.0603L399.318 93.3333L401.471 92.3856L404.298 93.7402V95.0949L402.279 95.2287L400.662 98.7518L399.184 98.8857L393.937 105.798L388.422 108.24L384.653 108.513L382.099 106.751L378.463 108.652L374.56 107.431L373.618 104.856L367.027 104.449L363.53 98.7572H362.052L360.864 96.1175L359.45 96.0051Z" fill="#EFF2F4" stroke="#EFF2F4" stroke-opacity="0.25" stroke-width="0.535427" stroke-linecap="round" stroke-linejoin="round"/>
<path d="M422.127 137.897L420.232 139.343L420.13 142.127L421.769 144.033L422.176 143.674L422.127 137.897Z" fill="#EFF2F4" stroke="#EFF2F4" stroke-opacity="0.25" stroke-width="0.535427" stroke-linecap="round" stroke-linejoin="round"/>
<path d="M430.571 120.822L429.698 121.7L430.057 122.937L430.823 122.991L431.337 125.673L431.952 126.342L433.029 125.363L433.489 123.606L432.156 121.7L430.571 120.822ZM435.283 119.071L433.8 120.463L433.746 122.064L434.105 122.53L436.102 120.827L435.947 119.125L435.283 119.071ZM433.232 115.768L430.619 118.761L431.08 119.484L432.359 119.639L434.763 117.781L436.455 117.47L437.992 119.275L439.17 118.862L439.63 117.106L441.831 117.053L443.983 114.472L442.859 110.189L442.345 107.918L443.469 106.992L440.91 103.126L440.246 103.18L438.865 104.727V106.018L439.481 106.74L439.684 110.146L438.099 112.105L437.178 111.538L436.461 113.139L436.305 114.633L436.868 115.511L436.509 116.18L435.331 115.2H434.512L433.794 115.612L433.232 115.768ZM437.639 92.4552L436.819 93.178L437.232 94.7254L437.949 95.4482L437.896 97.8202L436.975 98.1789L436.257 99.7798L438.356 102.666L439.737 102.2L439.995 101.477L438.511 100.139L439.432 98.9499L440.407 99.1052L441.172 99.9298L441.226 98.2271L443.325 96.5244L444.503 96.2139L443.528 94.5648L443.068 93.842L442.302 94.356L441.638 95.1805L440.203 94.87L438.72 93.8901L437.639 92.4552Z" fill="#EFF2F4" stroke="#EFF2F4" stroke-opacity="0.25" stroke-width="0.535427" stroke-linecap="round" stroke-linejoin="round"/>
<path d="M271.753 86.18L270.95 86.0997L269.504 87.8291V88.6376L269.986 88.825L270.923 88.8518L272.476 87.5828L272.69 87.1491L271.753 86.18ZM445.365 90.8543L443.93 92.8675L444.032 93.8473L444.749 93.5368L446.436 91.4218L445.365 90.8543ZM447.26 87.9148L446.746 89.3069L446.8 90.2332L447.673 89.6656L448.492 88.0165V87.4007L447.26 87.9148ZM450.28 75.6374L449.616 76.462L449.67 77.7524L450.285 77.6988L451.308 75.8944L450.28 75.6374ZM449.054 78.7857V81.0559L449.771 81.313L450.285 80.4884V78.7375L449.054 78.7857ZM428.113 70.583L428.065 73.8866L432.209 80.2849L433.693 85.8534L436.305 90.8061L437.328 91.1648L438.201 90.442L438.608 89.2533L434.871 85.1787L434.972 83.0638L435.791 82.7051L435.995 81.4682L428.676 71.1024L428.113 70.583ZM456.989 60.3189L455.966 60.4206L456.582 61.2987L457.862 62.1768L458.221 61.7645L456.989 60.3189ZM458.981 60.9399L459.136 61.8181L460.721 62.2839L460.876 61.6628L458.981 60.9399ZM293.818 25.7142L294.739 26.0837L294.091 27.1973V28.7768L292.709 29.6121H291.237L290.407 28.5895L290.498 27.4758L291.146 26.6405H292.436L293.818 25.7142ZM297.319 24.6915V25.8052L298.24 26.5495L299.531 26.4585L300.639 25.4358V24.6915H299.627L298.797 24.97L298.149 24.2257L297.319 24.6915ZM302.577 24.7879L303.225 26.18L304.515 26.2711L305.436 25.9016L304.976 24.6005L303.777 24.3221L302.577 24.7879ZM307.83 22.93L306.818 22.7426L305.897 23.6742L306.357 24.5095L306.636 25.8106L307.835 24.8843L308.114 23.8616L307.83 22.93ZM313.452 32.7765L313.173 34.0776L311.053 35.9355L306.534 36.9582L302.845 43.0888L302.197 44.8557L305.886 45.7874L306.438 43.56L307.546 40.1225L310.405 38.6341L312.804 36.7761L314.555 36.0319H315.476V33.5261L313.452 32.7765ZM301.56 46.3389L304.05 46.6173L304.88 49.4979L307 51.7253L306.261 53.2137H304.971L303.771 51.8216L301.099 51.7306L299.991 50.2421V49.2195L301.651 48.7536L301.56 46.3389ZM340.469 14.663L339.27 13.9188H337.889L337.61 14.754L336.138 15.5893L335.029 15.9587L334.847 17.0724L337.428 17.2598L340.469 14.663ZM343.323 14.9414L342.675 16.3335L341.385 16.2425L339.356 17.731L338.804 19.5889H340.095L340.833 18.3789L342.584 19.6799L344.244 18.9357L345.444 17.913L344.983 16.3335L344.335 15.2198L343.323 14.9414ZM346 15.9641L346.648 18.5663L347.66 20.981L348.769 19.0321L350.889 18.5663V17.1741L349.507 16.1515L346 15.9641ZM396.588 11.7985L398.028 13.0085L399.05 12.5855L399.35 10.8882L397.251 9.43723L395.87 10.3475L392.508 10.6526V12.1679L388.963 12.2268V14.7058L393.107 17.7899L394.189 17.0028L393.948 14.8236L396.593 14.1597L396.052 13.1317L395.094 12.1626L396.588 11.7985ZM400.432 10.3475L401.39 12.1626L405.117 11.7396L406.14 10.4064L405.899 9.25518L404.876 8.8322L403.918 9.56038L401.155 10.1654L400.432 10.3475ZM400.191 17.4258L398.328 16.9439L397.251 18.0951L396.77 19.6692L399.291 19.4283L401.214 18.4592L400.191 17.4258ZM448.481 6.9582L446.918 6.47632L445.119 7.14025L444.219 8.47346L445.36 9.98872L448.363 8.65551L448.963 7.99158L448.481 6.9582ZM438.463 43.9937L439.406 47.2491L441.29 47.7899L443.175 44.8075L442.099 42.7729L442.5 41.0114H445.327L444.653 42.366L444.921 47.2491L440.883 57.283L441.285 59.4515L441.151 63.1138L448.685 74.0954L450.162 74.5023L450.296 65.5553L451.774 64.2007L450.157 60.6776L451.501 59.1838L448.54 55.2537L446.923 55.3876L446.388 48.8821L450.559 47.7952L450.826 45.8945L452.979 45.3537L454.189 46.4406L455.667 40.4759L458.221 36.139L460.239 35.0521L461.99 35.1859V33.1513L459.163 32.6105L455.26 29.3551L457.144 27.1866L455.527 23.5243L456.871 22.1697L458.488 24.3382L462.525 25.832L466.964 26.2389L467.505 24.3435L465.219 22.0412L467.773 18.5181L461.985 16.4834L460.507 19.4658L458.622 17.0242L447.994 13.3619L437.901 15.1235L436.423 15.9373V16.7512L438.576 17.8381L438.308 20.4135L434.405 18.7858L425.795 22.175L424.317 19.0589H418.395L415.702 21.9073L406.15 19.7388L397.407 21.5004L396.331 24.2097L397.674 24.6166L397.541 26.6512L389.065 27.5989L389.606 30.3082L381.799 28.9535L383.684 25.4304L375.743 25.0235L376.418 28.6858L373.864 29.9066L371.712 27.872L362.968 29.3658L359.606 32.482L359.472 34.3774L357.319 34.5113L357.052 32.3428L363.916 26.3781V22.3089L359.477 21.0881L353.689 22.9835L351.269 20.542H350.193L348.849 23.2512L349.925 24.472L342.252 28.6751L335.661 33.6921L331.624 39.2498V41.5521L335.929 43.3137L333.777 44.9414L329.204 43.3137L327.319 44.9414L324.492 41.686L323.951 42.9068L327.046 52.6676L327.855 52.9407L330.007 51.8538L331.083 52.6676V54.4292L329.065 53.6153L327.855 54.563L328.663 56.3246L327.989 60.9346L323.818 61.3415L323.55 59.8477L325.97 58.3538L326.511 54.2846L323.818 50.7615L322.875 44.663L318.57 43.983L318.169 46.1515L318.977 47.2384L317.227 48.7322L317.901 52.8015L320.455 53.8884L320.996 56.8707L318.437 55.243L311.845 54.0222L311.037 56.1907L305.79 58.0861L304.981 56.7315L298.117 60.5277L297.983 63.1031L295.29 63.51L296.099 61.6146V59.7192L293.405 58.7715L291.655 59.4515L293.132 62.2999L294.209 64.1953V65.6892L292.19 65.2823L291.788 64.8753L289.77 67.0438L290.846 68.9392L286.273 68.8054L287.751 70.7061L287.35 71.52H284.93L283.179 70.2992L282.777 66.91L279.95 65.823V64.4684L285.872 65.6892L289.101 65.9623L290.444 63.9276L289.234 61.7592L280.625 58.3699L277.653 59.1088L276.636 59.9815L276.952 61.9894L278.215 62.2089L277.921 65.3679L281.819 74.5237L279.002 78.9892L278.81 79.9958L280.239 81.0024L278.949 81.8537L278.092 81.8698L278.253 85.8052L279.436 87.4811L279.452 89.1088L280.967 89.248L283.286 90.1314L285.738 93.5046L285.765 94.3934L284.967 95.7588L286.798 95.657L288.581 96.1711L290.991 99.5817L296.923 100.122L296.666 104.181L294.621 105.932L295.044 106.617L293.025 108.786L292.49 110.82L293.7 112.582L297.603 113.937L299.22 112.989L309.581 116.919L309.982 115.832L307.83 113.797V111.222L306.486 110.815L306.754 108.646L308.906 106.071L305.046 103.18L305.313 99.1587L309.441 96.4441L314.287 96.7172L315.096 98.211L320.075 98.4841L323.711 96.4495L321.826 94.4148L322.227 90.6187L331.646 86.0086L338.89 89.2747L341.31 87.1063L348.442 93.8848L353.823 93.344L355.708 95.2394L360.821 95.7802L364.183 91.1702L368.488 93.0709L370.775 93.4779L373.061 91.4432L371.042 90.0886L372.793 87.3793L377.773 89.007L378.849 91.1755L381.001 91.3094L382.345 90.3617L385.981 90.2278L386.382 91.1755L390.553 91.4486L393.38 88.4663L399.168 89.1462L400.919 88.4663L401.455 85.2109L399.704 81.2808L401.455 79.787H406.969L412.217 86.0247L418.942 89.8209H420.96L421.228 88.1932L423.648 86.6993L423.916 95.5125L421.763 95.6463V97.8148L422.973 99.3086L422.748 101.247L423.643 101.616L424.183 100.262L424.992 100.535L425.527 101.076L427.947 100.535L430.368 93.4832L430.635 84.6701L427.541 77.6185L423.637 72.8746L421.753 73.1477V74.6415L417.18 72.88L418.931 69.0838L420.409 59.0499L426.598 57.1545L429.559 55.2591H432.788L431.979 56.346L432.788 57.7006L435.615 54.7183L437.232 54.8521L436.964 53.0906L434.405 52.5498L436.156 46.1782L438.463 43.9937Z" fill="#EFF2F4" stroke="#EFF2F4" stroke-opacity="0.25" stroke-width="0.535427" stroke-linecap="round" stroke-linejoin="round"/>
<path d="M37.5355 33.51L39.3881 36.9742L40.5767 36.7065V35.5072L37.5355 33.51ZM27.0893 63.9812L26.9983 65.5928L28.1548 65.3251V64.6076L27.0893 63.9812ZM25.3117 64.6986L22.9987 65.8659L23.3574 67.1188L24.2462 66.4013L26.0238 65.5928L25.3117 64.6986ZM15.7008 66.2193L14.0999 65.8605L13.8322 66.578L14.0089 67.9219L15.7008 66.2193ZM12.3169 66.1336L10.8016 65.5071L10.2662 66.4923L11.2461 67.4775L12.3169 66.1336ZM7.06972 64.6986L6.3576 63.7135L5.64548 63.9812V65.3251L6.44863 65.8605L7.06972 64.6986ZM1.28711 58.3324L2.17592 58.9589L1.9082 59.6763H1.28711V58.3324ZM5.8543 138.106L5.77934 139.353L6.87161 140.087L7.52483 139.503L5.8543 138.106ZM8.68671 139.942L7.6694 140.676L8.54214 141.773L9.55946 140.895L8.68671 139.942ZM10.7267 141.698L9.85394 142.871L10.1431 143.605L11.3799 143.021L10.7267 141.698ZM12.1777 143.969L11.669 146.897L12.1777 147.995L13.8482 147.481L14.721 146.014L12.9005 144.327L12.1777 143.969ZM145.628 155.432L144.214 154.956L143.079 155.668L143.646 156.332L145.579 156.615L145.628 155.432ZM50.3536 28.9803L45.8614 30.0458L46.7877 35.1056L51.6761 36.4388L51.9385 37.5043L44.6728 39.7692L40.5767 46.5584L42.0277 53.7492L44.405 55.3447L46.2576 53.6153L46.7877 54.6808L44.5389 57.3419L35.8168 61.3362L30.2644 62.6694L30.1306 64.6665L42.9487 60.9399L48.2333 59.4729L53.1218 53.4814L58.5403 49.8887L55.7668 54.5469L58.808 54.9485L63.9642 52.6837L64.8905 56.4102L68.4564 57.208L72.1562 60.8007L72.4186 63.4618L71.8885 64.1257L72.5471 66.653H73.4734L73.6072 62.391H74.662L74.9244 72.9067L77.5694 70.6419L75.7168 59.7245H72.9433L69.9021 55.8641L84.8351 30.5652L70.0359 18.9839L53.518 22.1804L52.8594 27.2402L56.4254 29.3712L55.1029 32.8354L50.3536 28.9803ZM80.1501 89.7245L79.6147 91.8769L77.7461 90.6669H76.8144L76.279 92.9531L69.7415 107.602L71.4762 120.367L73.6126 121.443L74.0142 124.94H78.4154L82.6827 128.163L91.0836 128.971L92.0152 133.271L93.3484 134.213L95.2171 132.334L96.6841 133.003L98.0173 139.182L100.282 140.66L102.151 137.163L107.885 132.998L111.617 134.743L114.819 135.011L114.953 132.998L121.619 133.132L122.952 134.609L123.22 137.966L122.422 139.846L123.354 143.069H125.356L127.359 139.98L126.561 138.502L125.763 135.279L126.963 131.648L132.429 126.947L136.563 125.737L136.027 121.839L141.762 115.655L147.496 114.713L146.564 111.495L152.165 108.272V103.972L151.63 103.704L149.627 104.374L149.359 107.008L142.704 107.088L137.489 110.553L129.302 113.23L127.996 111.629L131.712 106.007L129.875 104.256L128.628 101.879L126.042 99.8012L123.231 99.5656L117.919 95.9408L80.1501 89.7245Z" fill="#EFF2F4" stroke="#EFF2F4" stroke-opacity="0.25" stroke-width="0.535427" stroke-linecap="round" stroke-linejoin="round"/>
<path d="M328.722 218.575L327.908 219.64L328.069 220.792L329.782 219.394L328.722 218.575Z" fill="#EFF2F4" stroke="#EFF2F4" stroke-opacity="0.25" stroke-width="0.535427" stroke-linecap="round" stroke-linejoin="round"/>
<path d="M325.708 220.385L324.487 220.465L324.407 221.531L325.22 221.697L326.441 221.124L325.708 220.385Z" fill="#EFF2F4" stroke="#EFF2F4" stroke-opacity="0.25" stroke-width="0.535427" stroke-linecap="round" stroke-linejoin="round"/>
<path d="M317.633 204.616L316.493 207.326L314.539 210.774L311.117 211.02L309.65 212.744L309.897 218.002L307.776 220.465L308.023 224.652L309.816 226.703L311.936 226.456L314.057 224.893L313.57 222.43L318.458 213.97L317.478 212.905L318.458 210.854L319.518 211.181L319.845 210.362L318.865 206.175L318.292 204.45L317.633 204.616Z" fill="#EFF2F4" stroke="#EFF2F4" stroke-opacity="0.25" stroke-width="0.535427" stroke-linecap="round" stroke-linejoin="round"/>
<path d="M309.811 203.712L310.057 204.531L311.117 204.697L311.524 203.631L309.811 203.712ZM311.358 205.355L311.765 206.26H312.418L312.745 205.109L311.358 205.355Z" fill="#EFF2F4" stroke="#EFF2F4" stroke-opacity="0.25" stroke-width="0.535427" stroke-linecap="round" stroke-linejoin="round"/>
<path d="M323.014 196.81L322.688 197.469L323.582 198.207L324.235 197.469L323.014 196.81ZM327.582 191.884L326.602 192.543L327.335 193.694H328.315L327.582 191.884ZM327.989 194.759L327.335 195.498L327.823 196.237L328.717 196.403L328.797 194.84L327.989 194.759Z" fill="#EFF2F4" stroke="#EFF2F4" stroke-opacity="0.25" stroke-width="0.535427" stroke-linecap="round" stroke-linejoin="round"/>
<path d="M351.954 176.689L352.115 178.086L353.009 178.413L353.17 177.181L351.954 176.689ZM353.095 179.644L353.014 181.368L353.668 181.695L354.241 180.544L353.095 179.644ZM353.261 183.012L352.688 183.585L353.341 184.158L354.155 183.585L353.261 183.012Z" fill="#EFF2F4" stroke="#EFF2F4" stroke-opacity="0.25" stroke-width="0.535427" stroke-linecap="round" stroke-linejoin="round"/>
<path d="M200.022 121.143L199.293 121.877L200.6 122.61L200.744 121.588L200.022 121.143ZM203.946 120.704L203.073 121.288L203.802 121.872L204.964 121.577L203.946 120.704ZM204.524 122.755L204.091 123.928L204.669 124.661L205.397 124.077L204.524 122.755ZM208.01 125.095L207.721 125.828L208.155 126.267L209.317 125.534L208.01 125.095ZM219.051 131.531L218.472 132.264L219.051 132.998L219.923 132.559L219.051 131.531ZM231.232 118.049L230.9 122.68L229.952 123.537L230.048 124.061L230.712 125.159L230.284 126.498L230.996 126.739L232.656 126.546L232.559 125.207L233.646 119.002L233.411 118.145L231.232 118.049Z" fill="#EFF2F4" stroke="#EFF2F4" stroke-opacity="0.25" stroke-width="0.535427" stroke-linecap="round" stroke-linejoin="round"/>
<path d="M223.034 140.799L222.097 141.34L222.531 141.779L223.034 140.799ZM219.779 140.901L218.617 141.195L219.195 142.073H220.068L219.779 140.901ZM217.016 140.023L216.288 140.756L217.305 141.634L217.883 140.317L217.016 140.023ZM240.564 114.708H233.743L232.367 114.086L231.703 114.135L230.9 115.805L231.183 117.524L233.791 117.765L234.123 118.862L232.988 125.261L233.036 126.407L234.883 127.408L237.014 127.552L241.276 126.503L243.359 123.879L243.407 121.208L247.102 117.867L247.289 116.389L243.927 116.341L240.564 114.708ZM247.385 121.245L246.534 121.534L246.722 122.3H247.953L248.472 121.727L247.385 121.245Z" fill="#EFF2F4" stroke="#EFF2F4" stroke-opacity="0.25" stroke-width="0.535427" stroke-linecap="round" stroke-linejoin="round"/>
<path d="M208.01 160.508L206.993 161.092L207.721 161.675L208.594 161.236L208.01 160.508ZM210.511 161.686L209.847 162.275L210.318 163.148L211.453 162.639L210.511 161.686ZM209.06 163.34L208.208 163.849L209.124 165.075L209.847 164.695L209.06 163.34Z" fill="#EFF2F4" stroke="#EFF2F4" stroke-opacity="0.25" stroke-width="0.535427" stroke-linecap="round" stroke-linejoin="round"/>
<path d="M15.0904 220.551L14.0731 220.476L13.9982 221.429L14.796 221.943L15.7437 221.359L15.0904 220.551ZM18.5814 221.579L17.1251 222.532L18.2173 223.849L19.165 223.629L19.6737 222.971L18.5814 221.579Z" fill="#EFF2F4" stroke="#EFF2F4" stroke-opacity="0.25" stroke-width="0.535427" stroke-linecap="round" stroke-linejoin="round"/>
<path d="M148.599 156.669L147.796 157.001L148.08 157.713L149.022 157.097L148.835 156.905L148.599 156.669Z" fill="#EFF2F4" stroke="#EFF2F4" stroke-opacity="0.25" stroke-width="0.535427" stroke-linecap="round" stroke-linejoin="round"/>
<path d="M149.922 157.477L149.45 158.479L150.018 159.239L150.725 158.623L149.922 157.477Z" fill="#EFF2F4" stroke="#EFF2F4" stroke-opacity="0.25" stroke-width="0.535427" stroke-linecap="round" stroke-linejoin="round"/>
<path d="M151.528 160.235L150.96 160.76L151.383 161.616L152.186 161.381L151.528 160.235Z" fill="#EFF2F4" stroke="#EFF2F4" stroke-opacity="0.25" stroke-width="0.535427" stroke-linecap="round" stroke-linejoin="round"/>
<path d="M151.48 162.377L151.1 163.185L151.715 163.849L152.519 163.421L151.48 162.377Z" fill="#EFF2F4" stroke="#EFF2F4" stroke-opacity="0.25" stroke-width="0.535427" stroke-linecap="round" stroke-linejoin="round"/>
<path d="M151.528 164.422L150.869 164.898L151.389 165.851L152.24 165.375L151.528 164.422Z" fill="#EFF2F4" stroke="#EFF2F4" stroke-opacity="0.25" stroke-width="0.535427" stroke-linecap="round" stroke-linejoin="round"/>
<path d="M150.725 166.275L150.109 166.89L150.345 167.27H151.1L151.335 166.649L150.725 166.275Z" fill="#EFF2F4" stroke="#EFF2F4" stroke-opacity="0.25" stroke-width="0.535427" stroke-linecap="round" stroke-linejoin="round"/>
<path d="M151.619 168.132L151.051 168.657L150.436 168.754V169.514L151.571 170.558L152.042 169.798L152.326 168.941L152.229 168.229L151.619 168.132Z" fill="#EFF2F4" stroke="#EFF2F4" stroke-opacity="0.25" stroke-width="0.535427" stroke-linecap="round" stroke-linejoin="round"/>
<path d="M141.376 155.1L138.544 153.248L137.205 152.792L136.755 156.005L137.227 156.91L137.842 156.198L139.636 155.721L141.194 156.053L141.376 155.1Z" fill="#EFF2F4" stroke="#EFF2F4" stroke-opacity="0.25" stroke-width="0.535427" stroke-linecap="round" stroke-linejoin="round"/>
<path d="M134.817 152.391L136.659 152.584L136.44 154.843L136.258 156.032L134.11 155.914L133.73 156.487L133.072 156.439L132.836 155.202L135.101 155.014L134.962 153.729L133.923 153.301L134.817 152.391Z" fill="#EFF2F4" stroke="#EFF2F4" stroke-opacity="0.25" stroke-width="0.535427" stroke-linecap="round" stroke-linejoin="round"/>
<path d="M165.385 277.038L163.977 276.883L162.574 277.825L163.591 278.928L165.385 277.038ZM166.788 276.332L166.322 277.825L164.994 279.003L165.074 279.394L167.339 278.527L168.276 277.349L166.788 276.332Z" fill="#EFF2F4" stroke="#EFF2F4" stroke-opacity="0.25" stroke-width="0.535427" stroke-linecap="round" stroke-linejoin="round"/>
<path d="M218.076 67.7559L217.027 67.1616L215.613 68.0558L214.398 69.1802L214.43 69.8066L216.004 70.0047L215.908 71.1291L215.351 71.6913L215.485 72.0554L217.059 72.1572V73.9776L219.324 74.3738L220.668 75.1341L222.177 75.1984L224.769 73.908L226.771 71.263L226.804 69.4747L225.588 68.4466L224.571 67.5846L224.11 67.9166L223.42 68.8107L222.633 68.709L221.845 67.847L220.828 67.9433L219.35 69.1695L218.462 70.1279L217.969 69.6995L217.937 68.6394L218.429 68.3074L218.076 67.7559Z" fill="#EFF2F4" stroke="#EFF2F4" stroke-opacity="0.25" stroke-width="0.535427" stroke-linecap="round" stroke-linejoin="round"/>
<path d="M261.928 33.8367L261.044 32.9479L259.084 33.9009H255.486L254.919 35.9998L256.937 37.7828L257.821 37.6543L259.084 35.4912L260.155 36.2568L259.395 37.7828L259.015 40.0102L259.898 41.4076L261.794 38.2272L264.257 35.2342L263.309 34.4096L261.928 33.8367ZM262.998 30.0191L261.419 31.4808L262.367 32.9425H264.069L264.765 33.8956L266.848 34.9772L269.247 33.5797L270.891 32.1822L270.323 31.0364L268.679 30.0834L267.48 31.1649L266.661 30.1476L266.029 30.2119L265.21 31.9948L264.01 30.7848L263.882 29.9602L262.998 30.0191ZM266.597 36.5727L265.333 37.7185L264.262 38.5431L264.765 39.4319L265.777 39.7478L267.421 38.9821L268.181 38.0291L267.485 36.8833L266.597 36.5727ZM276.491 59.6336L277.573 58.8411L277.476 57.9523L276.791 57.5561L276.887 56.4692H277.476V55.8749L274.922 55.1842L271.094 55.5804L270.703 57.2616L269.82 56.9671L269.231 55.9766L267.362 56.073L267.164 57.9523L266.281 58.3485L265.788 57.358L261.858 60.5224L262.645 61.4112L261.173 62.1019L257.832 68.7305L256.654 69.5229L256.75 70.1172L257.928 70.7116L257.633 71.9966L255.668 71.8948L255.079 71.2041L253.805 72.6873L253.018 73.2816L252.82 74.6684L252.135 75.0646L250.368 75.4608L249.484 78.2343L250.073 82.7854L250.759 84.8629L251.546 85.6553L253.313 85.5589L255.867 83.0853L256.846 81.404L257.141 83.8777L258.811 80.9114L258.908 72.5963L260.268 71.7396L260.675 67.151L264.797 61.2131L266.762 60.5224L267.646 59.4355L270.591 60.1262L272.063 61.015L272.556 58.5413L275.013 57.0582L276.491 59.6336Z" fill="#EFF2F4" stroke="#EFF2F4" stroke-opacity="0.25" stroke-width="0.535427" stroke-linecap="round" stroke-linejoin="round"/>
<path d="M364.879 169.883L365.013 171.34L365.147 172.4L364.36 172.534L364.756 174.916L365.94 175.58L367.776 174.52L367.251 172.009L367.385 171.083L365.677 169.498L364.879 169.883Z" fill="#EFF2F4" stroke="#EFF2F4" stroke-opacity="0.25" stroke-width="0.535427" stroke-linecap="round" stroke-linejoin="round"/>
<path d="M118.749 147.861V148.541L121.597 148.595L122.941 147.813L123.15 148.386L125.945 149.066L128.43 151.309L127.862 152.091L127.964 152.98L130.036 153.499L132.108 152.562L133.04 151.625L131.696 150.945L124.762 146.876L122.331 146.614L118.749 147.861Z" fill="#EFF2F4" stroke="#EFF2F4" stroke-opacity="0.25" stroke-width="0.535427" stroke-linecap="round" stroke-linejoin="round"/>
<path d="M128.794 143.69L128.119 143.481L128.066 144.782L128.895 145.618L129.463 144.782L128.794 143.69ZM130.138 145.725L129.206 146.244L130.084 147.497L130.55 146.871L130.138 145.725ZM133.141 146.662L132.156 146.608L132.258 147.235L132.981 148.279L133.602 147.599L133.141 146.662ZM132.676 145.414L131.069 144.734L130.759 143.117L131.38 142.855L132.001 144.108L132.622 144.579L132.676 145.414ZM131.123 142.127L130.293 141.918L130.138 140.874L129.26 140.563L129.827 139.99L130.86 140.354L131.637 140.826L131.123 142.127Z" fill="#EFF2F4" stroke="#EFF2F4" stroke-opacity="0.25" stroke-width="0.535427" stroke-linecap="round" stroke-linejoin="round"/>
<path d="M128.43 154.645L126.566 155.116V155.636L127.653 156.262H128.794L129.516 155.427L128.43 154.645Z" fill="#EFF2F4" stroke="#EFF2F4" stroke-opacity="0.25" stroke-width="0.535427" stroke-linecap="round" stroke-linejoin="round"/>
<path d="M123.755 184.768L121.223 186.342L121.041 188.677L120.532 189.442L122.128 190.974L121.437 191.729L121.598 193.656L124.451 194.336L128.772 189.223L128.762 187.44L126.69 187.306L123.755 184.768Z" fill="#EFF2F4" stroke="#EFF2F4" stroke-opacity="0.25" stroke-width="0.535427" stroke-linecap="round" stroke-linejoin="round"/>
<path d="M109.583 24.1615L109.7 26.3139L105.428 30.7419L106.499 34.3293L109.583 33.494L111.366 30.8597L115.874 29.1838L119.552 28.9429L116.704 25.832L115.28 26.9083L114.209 26.5495L113.614 25.2324L112.308 23.9152L109.583 24.1615ZM115.162 17.8221L114.214 19.4979L118.845 21.1738L120.505 18.6627L121.217 20.3386H122.406L124.66 17.8274L121.93 17.1099L120.859 16.2747L119.434 17.7096L115.162 17.8221ZM123.236 21.1738L119.558 22.7266V23.9206L124.307 25.7143L123.236 26.9083L123.948 28.461L126.914 27.1438H129.409L130.598 29.0553L132.617 27.0207L132.14 25.1039L130.48 25.7035L130.245 23.3102L131.075 21.8752H130.245L128.938 22.7105L128.344 23.187L128.703 24.8629L127.755 25.5804L126.331 25.4626L125.972 23.3102L123.236 21.1738ZM128.103 17.4633L127.744 18.6573L129.998 19.7335L131.658 18.7751L131.54 18.0576L128.103 17.4633ZM129.881 15.4287L128.221 16.0284L128.339 16.8636L132.017 16.6227L131.899 15.7874L129.881 15.4287ZM137.837 17.4633L137.602 18.2986L137.007 19.1339V20.3279L139.261 19.9691L141.633 22.0037H142.463V19.9691L140.091 17.3348L137.837 17.4633ZM143.893 19.8567L144.84 20.9329L144.011 22.3678L144.605 23.9206L147.218 22.4856V21.4094L145.676 19.6157L143.893 19.8567ZM147.336 17.1046L147.453 19.0161H150.661L151.49 19.7335L151.373 20.5688L148.524 20.9275L150.543 23.6796L153.273 24.1562L157.07 22.4803L151.608 14.224L149.948 15.3002L150.066 16.7351L148.165 16.0177L147.336 17.1046ZM119.675 30.6241L115.167 31.8181L112.554 34.0937L112.79 36.6048L117.539 38.0398L116.468 40.4331L113.025 38.2807L112.078 40.0744L114.332 41.6271L114.214 44.1383L117.657 45.0967L121.812 44.8558L122.524 43.5386L125.608 47.0082L127.744 46.2907L128.103 43.8974L129.645 44.9736L129.881 42.5802L127.98 41.3862L128.098 33.8527L126.438 32.5356L124.66 34.929L119.675 30.6241ZM134.159 35.8874L132.617 35.1699L131.787 36.2461L133.447 38.8804L133.564 41.3916L137.125 39.2391V36.1283L138.431 34.8112L137.125 33.8527H134.989L134.159 35.8874ZM141.756 34.8112L139.261 36.8458L139.856 39.3569H141.398L142.11 38.0398L143.181 39.116L144.252 38.9982L147.1 36.6048L141.756 34.8112ZM141.515 30.8597L140.921 32.0537L143.534 33.0121L144.246 31.9359L141.515 30.8597ZM139.973 26.3139L137.361 26.6727L135.819 28.1076L138.667 28.2254L137.837 30.3778L138.431 31.3362L139.261 31.2184L141.28 27.9898L139.973 26.3139ZM144.487 25.4787L143.063 25.9552L143.298 27.8667L145.67 29.4194L145.788 30.6134L145.076 31.3309L145.435 33.7242L154.575 36.7119L157.07 37.5472L159.565 35.3948L156.598 33.0014L153.868 33.7189L150.072 33.3602L148.647 31.9252L148.289 27.9791L145.917 26.7851L144.487 25.4787ZM151.962 37.922L149.349 37.681L146.265 38.8751L144.605 41.1453L145.081 47.3669L150.184 47.6079L155.051 50.0012L158.494 53.9473L161.107 53.8295L160.395 57.5347L158.023 61.4808L155.41 62.6748L153.509 62.316L152.561 61.4808L151.137 63.3923L151.731 65.3037L153.75 65.4215L156.245 64.2275L158.381 69.7317L163.725 73.2013L167.403 68.5377L164.319 63.5154L166.102 61.4808L168.597 65.6678L173.106 61.7217L172.276 59.928L169.192 60.8865L167.055 55.0235L169.074 51.6771L165.037 47.3723L162.783 48.925L160.646 44.2614L156.138 44.8611L154.949 39.2391L151.271 41.7503L150.912 44.8611H148.894L149.129 42.109L151.962 37.922ZM157.305 40.0744L156.358 41.0328L157.187 42.35L161.107 42.8265L158.612 40.1922L157.305 40.0744ZM153.509 26.5549V27.6311L150.896 28.2308L151.608 29.4248L154.575 30.6188L157.9 30.9775L160.271 32.6534L162.643 31.3362L160.984 29.6604H163.12L164.426 28.2254L167.634 27.7489V27.0314L165.851 25.8374L166.086 24.5203L171.071 25.3555L178.433 22.4856L175.702 21.6504L176.415 20.6919H182.112L183.059 19.7335L171.542 15.6643L168.812 14.7059L165.845 16.8583L162.52 14.1062L160.737 13.9884L160.379 16.264L158.124 14.2293L155.512 15.0646L155.988 16.3818L159.907 17.217L159.672 19.1285L161.808 20.4457L167.034 19.1285L167.152 20.9222L162.879 22.9568L160.266 20.9222L157.894 21.1631L160.266 24.5149L159.077 25.1146L157.295 23.5618L155.988 24.3971L157.177 26.6673H159.195L158.719 28.8197L157.059 28.5788L154.923 26.3032L153.509 26.5549ZM142.929 59.4783L140.664 62.3268L140.525 65.4644L142.506 64.3239H144.91L146.607 65.8927L148.165 64.6077L142.929 59.4783ZM170.509 96.5298L164.849 101.948L165.417 103.233L172.345 105.798L173.336 104.09L172.768 101.242L170.504 101.525L169.229 100.101L171.349 97.9648L170.509 96.5298ZM85.2153 30.9989L86.2808 32.6106L86.8163 34.763L89.4827 35.4323L91.3513 33.4191L92.9522 34.2275L97.4873 34.6291L100.689 33.2852L101.225 37.7185H103.093V35.8392L104.962 35.973L109.631 41.4826L112.699 43.3619L111.098 45.9159L111.767 46.5852L117.759 47.7953L117.892 50.4831L119.493 50.7508L119.895 46.7191L122.428 46.0498L124.296 48.8715L128.296 50.7508L130.298 51.1524L131.631 49.5408L131.765 46.9868L134.164 45.509L134.962 47.6614L132.825 51.4255L133.093 53.3048L134.293 51.4255L136.691 49.273L136.825 46.4513L135.492 44.2989L135.893 42.5534L139.095 40.9418L140.562 42.018L140.83 51.4255L143.095 49.4123L144.428 50.2207L142.56 53.444L144.958 53.9795L148.428 48.6038L151.362 51.6932L150.163 57.2027L147.228 58.8144L144.428 57.4704L139.363 58.5466L139.898 60.2921L138.565 62.4445L134.432 63.3869L129.763 67.0171L125.629 72.5266L125.094 74.2721L127.894 75.3483L128.96 78.0362L132.825 81.9341L138.961 84.6219L137.628 90.8008L137.494 92.5463L139.095 93.6225L141.232 90.8008L141.499 85.4251L144.835 85.2912L146.436 82.2018L146.704 77.5008L150.971 69.1695L156.304 71.0489L159.104 74.9468L157.905 78.8447L160.041 80.0547L165.24 76.5584L166.707 86.0997L171.51 91.877L171.644 94.8325L166.311 96.1765L163.779 98.8643L158.446 97.6542L155.779 97.5204L151.11 101.151L153.911 100.481L157.38 99.812L158.049 100.62L157.118 103.576L157.252 106.264L158.853 107.34L160.454 106.939L161.257 105.728H162.322L160.587 108.952L157.252 109.086L155.785 111.238H153.916L153.381 109.626L156.047 106.939L152.845 108.015L152.701 103.448L151.78 102.912L148.979 104.122L148.712 106.408H142.308L136.841 110.173L129.506 112.593L128.708 111.516L132.403 106.002L130.304 103.983L128.97 101.424L126.256 99.3515L123.343 99.1106L118.123 95.4536L80.2626 89.232L79.6362 86.6673L76.1666 83.444V80.7561L76.702 78.336L76.4343 76.9921L75.1011 75.6482L74.8334 73.4958L78.303 71.0756L76.1666 59.5211L73.2325 59.3873L70.566 55.8909L85.2153 30.9989ZM72.1563 73.6992L71.246 75.4447L71.5619 76.6816L72.1563 77.051L72.0171 77.5543L71.3799 77.7363L71.5619 79.5729L72.2473 80.2636L72.7934 79.6692L72.1081 77.8809L72.515 76.4567L73.5162 75.1235L72.7881 73.8866L72.1563 73.6992ZM75.1654 84.1615L74.3462 84.4827L75.8507 86.2282L76.2148 88.295L77.7193 89.9012L78.9937 89.671V87.5614L77.4463 86.5977L75.1654 84.1615Z" fill="#EFF2F4" stroke="#EFF2F4" stroke-opacity="0.25" stroke-width="0.535427" stroke-linecap="round" stroke-linejoin="round"/>
<path d="M104.844 161.033L108.019 163.356L111.221 159.378L110.675 158.554L109.583 158.516V156.187L108.763 155.689L106.284 156.428L107.232 158.613L104.844 161.033Z" fill="#EFF2F4" stroke="#EFF2F4" stroke-opacity="0.25" stroke-width="0.535427" stroke-linecap="round" stroke-linejoin="round"/>
<path d="M111.628 159.566L116.575 159.378L118.042 161.124L117.127 160.915L115.365 160.99L113.063 163.153L112.078 165.343L111.43 165L111.424 162.601L110 161.648L111.628 159.566Z" fill="#EFF2F4" stroke="#EFF2F4" stroke-opacity="0.25" stroke-width="0.535427" stroke-linecap="round" stroke-linejoin="round"/>
<path d="M108.469 163.576L110.985 164.829L110.948 162.842L109.658 162.055L108.469 163.576Z" fill="#EFF2F4" stroke="#EFF2F4" stroke-opacity="0.25" stroke-width="0.535427" stroke-linecap="round" stroke-linejoin="round"/>
<path d="M117.084 161.349L118.256 161.584L118.294 163.988L116.929 167.886L113.25 167.522L112.431 165.643L113.523 163.362L115.595 161.434L117.084 161.349Z" fill="#EFF2F4" stroke="#EFF2F4" stroke-opacity="0.25" stroke-width="0.535427" stroke-linecap="round" stroke-linejoin="round"/>
<path d="M116.891 168.239L117.635 169.696L118.24 170.499L117.427 172.914L115.874 171.821L113.336 169.498V167.961L116.891 168.239Z" fill="#EFF2F4" stroke="#EFF2F4" stroke-opacity="0.25" stroke-width="0.535427" stroke-linecap="round" stroke-linejoin="round"/>
<path d="M118.61 170.719L117.828 173.16L120.409 173.829L122.01 174.145L122.283 172.255L124.002 171.388L125.528 172.175L126.127 173.133L126.855 173.048L127.428 171.308L125.522 170.52L124.077 169.733L122.631 170.719L120.912 171.586L119.156 170.879L118.61 170.719Z" fill="#EFF2F4" stroke="#EFF2F4" stroke-opacity="0.25" stroke-width="0.535427" stroke-linecap="round" stroke-linejoin="round"/>
<path d="M136.354 165.455L135.251 165.343L127.958 171.356L127.187 173.471L126.192 173.583L126.636 178.257L124.093 184.495L126.855 186.835L130.395 187.06L132.825 190.626L136.359 190.738L136.247 193.41H137.569L139.004 188.511L137.676 186.84L138.008 183.724L140.771 183.499L140.439 176.26L134.25 174.258L132.815 170.36L136.354 165.455Z" fill="#EFF2F4" stroke="#EFF2F4" stroke-opacity="0.25" stroke-width="0.535427" stroke-linecap="round" stroke-linejoin="round"/>
<path d="M134.603 168.743L134.839 170.13L136.579 170.681L136.975 168.127L138.811 166.226L140.648 168.379L144.873 169.53L148.449 168.78L150.885 171.784L152.722 172.935L150.709 176.003L151.383 178.327L150.232 179.751L149.038 180.752L146.452 179.451L145.858 180.051V181.904L147.748 182.803L146.356 184.308L144.964 185.812L143.127 185.662L141.28 183.633L140.889 175.998L134.582 173.845L133.436 170.488L134.603 168.743Z" fill="#EFF2F4" stroke="#EFF2F4" stroke-opacity="0.25" stroke-width="0.535427" stroke-linecap="round" stroke-linejoin="round"/>
<path d="M153.123 173.139L156.989 176.64L155.453 178.418L155.329 179.473L157.348 181.556L157.3 183.558L153.787 184.897L151.683 182.054L152.133 178.638L151.233 176.094L153.123 173.139Z" fill="#EFF2F4" stroke="#EFF2F4" stroke-opacity="0.25" stroke-width="0.535427" stroke-linecap="round" stroke-linejoin="round"/>
<path d="M157.45 176.892L158.542 177.893L160.234 176.844L161.776 176.892L161.578 177.492L160.93 178.841L160.828 182.198L157.75 183.451L157.9 181.299L155.913 179.446L156.015 178.493L157.45 176.892Z" fill="#EFF2F4" stroke="#EFF2F4" stroke-opacity="0.25" stroke-width="0.535427" stroke-linecap="round" stroke-linejoin="round"/>
<path d="M162.269 177.245L165.401 179.2L163.762 182.455L163.168 183.205L161.428 182.203L161.476 178.696L162.269 177.245Z" fill="#EFF2F4" stroke="#EFF2F4" stroke-opacity="0.25" stroke-width="0.535427" stroke-linecap="round" stroke-linejoin="round"/>
<path d="M120.987 192.087L119.948 193.137L120.018 194.813L129.088 211.347L138.506 217.419L139.963 214.977L140.311 209.607L139.55 206.26L136.986 201.934L135.46 202.421L134.769 203.187L131.723 199.696L132.483 195.578L136.017 193.276L135.738 191.113L132.14 190.974L130.272 187.836L129.233 187.488L129.302 189.373L124.666 194.882L121.201 194.047L120.987 192.087Z" fill="#EFF2F4" stroke="#EFF2F4" stroke-opacity="0.25" stroke-width="0.535427" stroke-linecap="round" stroke-linejoin="round"/>
<path d="M139.02 204.547L143.427 202.625L144.883 202.764L145.852 206.812L152.567 209.044L153.675 212.466L156.443 212.814L157.621 215.743L156.791 218.393L152.288 218.741L150.628 222.998L147.095 222.928L145.986 222.719L143.946 224.7L142.94 224.604L139.476 216.578L140.434 215.143L140.771 209.467L139.915 206.089L139.02 204.547Z" fill="#EFF2F4" stroke="#EFF2F4" stroke-opacity="0.25" stroke-width="0.535427" stroke-linecap="round" stroke-linejoin="round"/>
<path d="M156.716 218.853L157.894 220.138L157.755 222.858L161.15 222.65L163.714 225.932L163.505 228.861L161.846 231.372L158.451 231.511L158.312 230.113L159.281 227.811L155.956 225.718H153.188L151.11 223.485L152.62 219.169L156.716 218.853Z" fill="#EFF2F4" stroke="#EFF2F4" stroke-opacity="0.25" stroke-width="0.535427" stroke-linecap="round" stroke-linejoin="round"/>
<path d="M161.321 236.212L160.223 237.385L160.678 243.692L164.127 244.693L168.512 240.297L161.321 236.212Z" fill="#EFF2F4" stroke="#EFF2F4" stroke-opacity="0.25" stroke-width="0.535427" stroke-linecap="round" stroke-linejoin="round"/>
<path d="M164.057 228.861L165.096 229.835L161.15 235.698L159.763 237.235L160.245 243.933L163.291 247.633L160.732 252.098L158.794 252.933H156.577L157.198 256.419L153.734 257.608L154.564 260.536L152.486 267.165L155.051 269.259L153.664 272.675L151.308 276.374L152.556 278.955L149.509 279.442L147.014 276.374L146.597 266.817L142.72 250.583L143.893 244.907L141.398 237.652L143.058 228.234L144.584 226.419L144.209 225.043L146.168 223.255L150.537 223.554L152.979 226.162L155.801 226.21L158.692 227.977L157.841 229.969L158.044 231.982L162.14 231.789L164.057 228.861ZM155.196 282.719L155.335 285.787L157.691 285.578L159.699 284.25L156.304 283.554L155.196 282.719Z" fill="#EFF2F4" stroke="#EFF2F4" stroke-opacity="0.25" stroke-width="0.535427" stroke-linecap="round" stroke-linejoin="round"/>
<path d="M153.118 280.208L150.832 285.23L154.778 285.648L154.848 282.302L153.118 280.208ZM152.342 279.421L150.623 281.322L150.414 283.554L147.089 281.67L143.555 276.578L142.517 274.763L143.973 272.878L143.834 270.506L142.174 269.81L140.857 268.836L141.135 267.508L142.865 267.02L143.213 259.348L140.514 257.811L138.753 217.874L139.208 217.081L142.656 225.032L143.759 225.054L144.118 226.323L142.651 228.1L140.964 237.668L143.363 245.036L142.254 250.615L146.163 267.02L146.575 276.615L149.376 279.855L152.342 279.421ZM140.932 259.348L140.241 260.392L140.589 262.207L141.28 262.277L141.628 259.974L140.932 259.348Z" fill="#EFF2F4" stroke="#EFF2F4" stroke-opacity="0.25" stroke-width="0.535427" stroke-linecap="round" stroke-linejoin="round"/>
<path d="M168.753 239.917L172.099 233.481L172.222 228.074L178.465 224.047H181.962L184.708 219.394L185.206 210.463L184.082 208.075L190.7 202.036L190.951 195.37L181.962 190.968L171.103 187.574L165.984 187.07L167.361 184.179L166.986 179.778L165.867 179.409L164.212 182.696L163.345 183.783L161.117 182.798L153.627 185.437L151.132 182.294L151.533 179.012L149.177 181.411L146.575 180.008L146.313 180.378L146.318 181.518L148.562 182.723L145.194 186.273L143.068 186.251L140.916 184.061L138.48 184.136L138.18 186.739L139.577 188.436L137.928 193.721L136.001 193.87L132.933 195.809L132.183 199.616L134.844 202.464L135.331 201.913L137.2 201.409L138.796 204.097L143.363 202.137L145.135 202.239L146.356 206.56L152.872 208.627L153.996 212.075L156.77 212.407L158.092 215.7L157.198 218.629L158.365 220.16L158.194 222.441L161.321 222.146L164.185 225.766L163.961 228.309L165.658 229.744L161.589 235.907L168.753 239.917Z" fill="#EFF2F4" stroke="#EFF2F4" stroke-opacity="0.25" stroke-width="0.535427" stroke-linecap="round" stroke-linejoin="round"/>
<path d="M110.027 156.15L110 158.104H110.45L111.981 155.245H110.943L110.027 156.15Z" fill="#EFF2F4" stroke="#EFF2F4" stroke-opacity="0.25" stroke-width="0.535427" stroke-linecap="round" stroke-linejoin="round"/>
<path d="M361.271 96.0586L364.387 91.9251L368.13 93.6546L370.673 94.3346L373.789 91.4754L371.674 89.9173L373.066 87.9523L377.221 89.4193L378.661 91.7806L381.264 91.8502L382.624 90.8382L385.424 90.7258L386.034 91.7645L390.687 92.0001L393.632 88.9964L397.707 89.4247L397.471 93.5154L399.254 93.9223L401.444 92.9264L403.762 94.0722L403.709 94.6505L402.027 94.6987L400.277 98.3717L398.917 98.5055L393.627 105.418L388.224 107.801L384.846 108.063L382.04 106.253L378.453 108.17L374.919 107.072L373.918 104.508L367.225 104.037L363.798 98.2271L362.133 98.12L361.271 96.0586Z" fill="#EFF2F4" stroke="#EFF2F4" stroke-opacity="0.25" stroke-width="0.535427" stroke-linecap="round" stroke-linejoin="round"/>
<path d="M417.212 108.962L418.197 109.375L418.497 112.823L420.452 112.935L422.293 110.777L421.656 110.21L421.731 107.897L423.423 105.852L422.561 104.299L423.123 103.656L423.434 102.05L422.454 101.606L421.619 102.029L420.585 105.166L418.915 105.022L416.982 107.303L417.212 108.962Z" fill="#EFF2F4" stroke="#EFF2F4" stroke-opacity="0.25" stroke-width="0.535427" stroke-linecap="round" stroke-linejoin="round"/>
<path d="M422.599 111.067L425.908 113.765L426.47 116.378L426.357 117.781L424.74 119.601L423.348 119.676L421.769 116.266L421.169 114.638L421.806 114.145L421.656 113.465L420.869 113.112L422.599 111.067Z" fill="#EFF2F4" stroke="#EFF2F4" stroke-opacity="0.25" stroke-width="0.535427" stroke-linecap="round" stroke-linejoin="round"/>
<path d="M309.275 105.937L311.471 105L313.923 104.915L314.094 108.663H312.659L311.562 110.451L312.997 112.834L315.112 114.028L315.304 115.393L316.081 115.136L316.798 114.285L317.982 114.542L318.576 115.736H320.096V114.204L319.165 111.479L318.742 109.268L321.446 108.074L325.081 108.668L327.362 110.965L332.518 110.456L335.394 114.542L338.772 114.713L339.704 113.182L340.887 112.925L341.058 111.222L342.831 111.136L343.762 112.245L344.694 110.033L352.72 111.142L354.069 109.353L351.788 106.542L354.83 99.903L357.282 100.074L358.974 95.989L355.595 95.6463L353.652 93.7723L348.297 94.3934L341.401 87.7273L338.97 89.8851L331.597 86.5387L322.554 90.9667L322.302 94.115L324.417 96.5833L320.295 98.9124L314.946 98.7946L313.827 97.1509L309.634 96.9206L305.661 99.4746L305.576 102.966L309.275 105.937Z" fill="#EFF2F4" stroke="#EFF2F4" stroke-opacity="0.25" stroke-width="0.535427" stroke-linecap="round" stroke-linejoin="round"/>
<path d="M318.463 116.094L318.131 117.502H315.909V119.409L318.297 120.983L317.559 123.14V124.136L318.549 124.302L319.866 122.562L322.832 121.898L329.172 124.302L329.252 126.042L332.791 126.374L336.743 122.225L336.25 120.897L333.616 120.319L326.206 115.505L325.874 113.765H323.073L321.837 116.089H320.6L318.463 116.094Z" fill="#EFF2F4" stroke="#EFF2F4" stroke-opacity="0.25" stroke-width="0.535427" stroke-linecap="round" stroke-linejoin="round"/>
<path d="M337.241 122.236L338.89 122.321V119.5L337.326 118.589L339.961 115.27H341.032L342.102 116.517L344.903 115.441L341.032 114.113L340.882 113.31L339.961 113.535L339.056 115.109L335.153 114.981L332.288 110.927L327.255 111.425L324.856 109.048L321.537 108.486L319.127 109.466L320.525 114.113L320.541 115.677L321.558 115.698L322.806 113.321L326.125 113.364L326.618 115.189L333.734 119.912L336.486 120.544L337.241 122.236Z" fill="#EFF2F4" stroke="#EFF2F4" stroke-opacity="0.25" stroke-width="0.535427" stroke-linecap="round" stroke-linejoin="round"/>
<path d="M337.921 118.37L340.121 115.639H340.951L341.24 116.25L340.223 116.988V117.599L340.892 118.081L344.11 118.273L345.16 117.824L345.636 117.92L345.958 118.948L347.869 119.141L348.827 121.165L348.538 121.775L348.158 121.807L347.778 121.036L346.948 120.972L345.513 121.165L345.417 122.514L343.982 122.418L344.046 120.715L342.997 119.687L341.401 121.004L341.433 121.872L340.03 122.353H339.2L339.265 119.366L337.921 118.37Z" fill="#EFF2F4" stroke="#EFF2F4" stroke-opacity="0.25" stroke-width="0.535427" stroke-linecap="round" stroke-linejoin="round"/>
<path d="M341.465 111.607L341.299 112.962L341.433 113.797L346.091 115.361L342.001 117.01L341.535 116.624L340.651 117.192L340.694 117.502L341.165 117.717L344.035 117.792L345.492 117.353L347.36 114.997L349.7 115.404L352.522 111.495L344.972 110.467L343.928 112.999L342.611 111.586L341.465 111.607Z" fill="#EFF2F4" stroke="#EFF2F4" stroke-opacity="0.25" stroke-width="0.535427" stroke-linecap="round" stroke-linejoin="round"/>
<path d="M329.316 126.514L330.168 133.185L332.288 133.651L332.486 134.85L330.966 136.119L333.798 138.405L339.302 136.424L339.741 134.079L343.205 131.916L344.533 126.905L345.524 125.839L344.496 124.051L347.848 121.979L347.419 121.379L345.872 121.475L345.733 122.9L343.655 122.878L343.618 120.977L342.948 120.18L341.824 121.202L341.856 122.139L340.159 122.782L337.027 122.584L332.957 126.846L329.316 126.514Z" fill="#EFF2F4" stroke="#EFF2F4" stroke-opacity="0.25" stroke-width="0.535427" stroke-linecap="round" stroke-linejoin="round"/>
<path d="M334.141 138.716L335.533 140.783L335.399 141.848L333.546 142.582L333.412 144.317H335.533L336.261 143.717H340.298L343.939 146.919L344.405 145.382H347.119L347.184 143.449L344.405 140.783L344.999 139.316L347.848 139.118L351.687 131.113L349.566 129.448L348.774 126.648L353.935 126.182L350.889 121.845L349.266 121.406L348.603 122.209L348.105 122.246L345.058 124.179L346.054 125.85L344.93 127.049L343.537 132.184L340.095 134.385L339.629 136.789L334.141 138.716Z" fill="#EFF2F4" stroke="#EFF2F4" stroke-opacity="0.25" stroke-width="0.535427" stroke-linecap="round" stroke-linejoin="round"/>
<path d="M359.761 172.539L362.213 171.34L363.669 166.071L363.605 159.603L371.947 150.597V148.461L373.666 147.792L373.602 145.323L371.749 141.72L372.809 139.787L375.128 141.923L378.105 142.057V143.256L377.178 144.258L377.376 144.793L378.967 144.857L379.299 146.656H379.764L380.958 144.52L381.553 138.92L383.539 137.517L383.603 135.584L382.811 134.047L381.553 133.983L376.627 137.238L376.937 139.332L373.478 139.321L372.258 137.827L371.594 137.913L371.819 139.99L364.339 139.455L359.702 137.388L359.456 134.845L356.366 132.928L356.329 128.982L354.208 126.557L349.336 127.022L349.866 129.143L352.254 131.076L348.126 139.525L345.363 139.733L344.908 140.751L347.628 143.267L347.494 145.81L344.715 145.768L344.416 147.031L346.723 146.93L346.787 147.931L345.133 148.798L346.193 150.801L348.244 151.47L349.502 150.538L350.096 148.873L350.825 148.541L351.687 149.409L351.424 151.545L350.83 152.546L350.964 154.281L359.761 172.539Z" fill="#EFF2F4" stroke="#EFF2F4" stroke-opacity="0.25" stroke-width="0.535427" stroke-linecap="round" stroke-linejoin="round"/>
<path d="M359.873 134.818L360.12 137.104L364.446 139.064L371.38 139.578L371.117 137.902L366.486 136.628L362.556 134.288L359.873 134.818Z" fill="#EFF2F4" stroke="#EFF2F4" stroke-opacity="0.25" stroke-width="0.535427" stroke-linecap="round" stroke-linejoin="round"/>
<path d="M372.836 137.774L373.666 138.909L376.471 138.93L376.188 137.377L372.836 137.774Z" fill="#EFF2F4" stroke="#EFF2F4" stroke-opacity="0.25" stroke-width="0.535427" stroke-linecap="round" stroke-linejoin="round"/>
<path d="M372.927 140.467L372.226 141.736L374.046 145.195L374.1 147.893L374.432 148.616L376.568 148.654L377.778 147.492L378.656 148.022L378.833 149.666L379.534 149.227L379.577 147.128L378.988 147.058L378.619 145.275L377.13 145.222L376.761 144.231L377.671 143.016L377.687 142.416H375.042L372.927 140.467Z" fill="#EFF2F4" stroke="#EFF2F4" stroke-opacity="0.25" stroke-width="0.535427" stroke-linecap="round" stroke-linejoin="round"/>
<path d="M391.062 167.527L389.579 165.15L390.655 163.64L389.638 161.772L388.679 161.589L388.497 158.452L387.062 155.673L386.645 156.337L385.686 157.965L384.487 158.147L383.887 157.36L383.587 155.245L382.688 153.553L379.026 150.099L379.925 149.505L380.091 147.004L381.43 144.756L382.008 139.16L383.946 137.838L384.01 135.798L385.172 136.183L387.003 138.834L385.643 141.747L386.559 144.033L388.824 144.922L389.236 147.411L392.277 147.883L391.437 149.334L387.603 150.843L387.185 153.317L390.002 156.937L390.12 158.87L389.461 159.533L389.52 160.138L391.619 163.217L391.678 166.414L391.062 167.527Z" fill="#EFF2F4" stroke="#EFF2F4" stroke-opacity="0.25" stroke-width="0.535427" stroke-linecap="round" stroke-linejoin="round"/>
<path d="M391.378 149.762L393.113 151.995V154.709L393.712 155.009L396.47 153.681L397.01 153.863L400.303 157.665L400.186 160.262L399.109 160.08L398.151 159.475L397.433 159.534L396.175 161.643L396.416 162.789L397.433 163.33L397.375 164.599L396.657 164.963L394.199 163.271V161.761L393.182 161.702L392.765 162.366L392.55 169.123L394.141 172.025L396.957 174.74L396.839 175.527L395.34 175.468L393.964 173.417H392.524L390.725 171.966L390.184 170.456L390.96 169.187L391.228 168.041L392.074 166.542L392.036 163.094L389.97 160.106L389.884 159.742L390.553 159.068L390.398 156.696L387.646 153.21L387.967 151.202L391.378 149.762Z" fill="#EFF2F4" stroke="#EFF2F4" stroke-opacity="0.25" stroke-width="0.535427" stroke-linecap="round" stroke-linejoin="round"/>
<path d="M396.973 165.289L399.163 167.629L403.238 164.609L403.596 159.844L401.492 161.295L400.4 160.685L398.917 160.487L398.087 159.903L397.685 159.924L396.598 161.707L396.775 162.532L397.878 163.148L397.744 164.823L396.973 165.289Z" fill="#EFF2F4" stroke="#EFF2F4" stroke-opacity="0.25" stroke-width="0.535427" stroke-linecap="round" stroke-linejoin="round"/>
<path d="M394.291 145.725L392.995 146.383L391.919 149.521L393.718 151.813L393.418 154.345L393.718 154.468L396.711 153.017L400.726 157.504L400.63 160.331L401.503 160.802L403.66 159.052L403.484 157.665L397.257 151.748L397.316 150.844L398.092 150.303L397.551 148.793L394.976 148.37L394.291 145.725Z" fill="#EFF2F4" stroke="#EFF2F4" stroke-opacity="0.25" stroke-width="0.535427" stroke-linecap="round" stroke-linejoin="round"/>
<path d="M399.425 167.956L400.062 168.957L400.18 170.103L401.856 170.285L403.891 167.57L405.808 167.029L406.825 164.256L406.348 159.79L404.373 157.076L402.29 155.411L399.639 150.86L401.54 147.679L398.82 144.558L396.641 144.461L394.681 145.516L395.265 148.038L397.878 148.498L398.579 150.442L397.658 151.042L397.717 151.523L403.848 157.52L404.089 159.282L403.719 164.85L399.425 167.956Z" fill="#EFF2F4" stroke="#EFF2F4" stroke-opacity="0.25" stroke-width="0.535427" stroke-linecap="round" stroke-linejoin="round"/>
<path d="M297.908 114.258L299.659 116.544L301.844 117.551L303.188 117.545L305.495 116.919L306.074 116.014L299.247 113.46L297.908 114.258Z" fill="#EFF2F4" stroke="#EFF2F4" stroke-opacity="0.25" stroke-width="0.535427" stroke-linecap="round" stroke-linejoin="round"/>
<path d="M305.543 117.326L308.113 120.678L307.359 121.561L305.538 121.245L303.279 119.221L303.402 117.893L305.543 117.326Z" fill="#EFF2F4" stroke="#EFF2F4" stroke-opacity="0.25" stroke-width="0.535427" stroke-linecap="round" stroke-linejoin="round"/>
<path d="M306.448 116.164L305.908 117.085L308.429 120.394L309.308 120.11L310.753 121.625L311.38 118.97L312.948 119.221L312.884 118.461L310.303 116.201L309.811 117.529L306.448 116.164Z" fill="#EFF2F4" stroke="#EFF2F4" stroke-opacity="0.25" stroke-width="0.535427" stroke-linecap="round" stroke-linejoin="round"/>
<path d="M305.506 121.641L304.853 122.321L304.917 123.398L305.731 124.538L308.617 127.697L308.178 128.961H307.674L307.423 130.224L309.056 132.312L310.56 132.441L313.575 136.612L315.267 136.74L316.584 137.688L316.648 139.584L321.858 142.619H323.802L324.996 141.607L326.5 141.543L327.378 143.567L333.006 144.349L333.172 142.282L335.035 141.607L335.12 140.869L333.637 138.845L330.334 136.189L332.069 134.609L331.945 133.913L329.772 133.576L328.851 126.241L328.744 124.554L322.848 122.3L320.236 122.889L318.774 124.683L317.478 124.597L317.103 124.913L314.217 124.725L310.576 122.07L309.222 120.587L308.601 120.736L307.482 122.016L305.506 121.641Z" fill="#EFF2F4" stroke="#EFF2F4" stroke-opacity="0.25" stroke-width="0.535427" stroke-linecap="round" stroke-linejoin="round"/>
<path d="M299.643 116.951L298.449 118.215L294.059 118.086L291.424 116.507L288.854 116.442L285.904 118.531L283.141 118.659L282.889 120.239H279.752L278.499 121.379V122.011L279.254 122.643V123.339L278.938 124.163L279.254 124.859L280.261 124.356L281.267 125.432L281.016 126.193L280.641 126.701L281.203 127.333L283.966 127.901L285.909 127.076V125.877L286.852 126.064L289.111 127.392L291.558 127.012L292.624 126L293.314 126.251V127.392H294.257L295.07 125.812L302.224 125.052L305.345 124.672L304.521 123.59L304.505 122.129L305.131 121.379L302.85 119.548L302.973 117.968H301.72L299.643 116.951ZM280.539 117.224L280.453 119.125L282.113 118.616L282.873 118.108L282.649 117.283L281.861 116.657L280.539 117.224Z" fill="#EFF2F4" stroke="#EFF2F4" stroke-opacity="0.25" stroke-width="0.535427" stroke-linecap="round" stroke-linejoin="round"/>
<path d="M320.889 155.314L324.846 153.033L325.547 149.687L324.68 149.189L325.038 145.602L325.793 145.163L326.602 146.432L331.415 148.948V150.346L325.585 158.928L322.902 159.019L320.889 155.314Z" fill="#EFF2F4" stroke="#EFF2F4" stroke-opacity="0.25" stroke-width="0.535427" stroke-linecap="round" stroke-linejoin="round"/>
<path d="M318.549 146.801L319.015 148.664L324.294 149.13L324.664 145.307L325.681 144.75L325.959 143.353L324.294 143.819L322.442 146.619L318.549 146.801Z" fill="#EFF2F4" stroke="#EFF2F4" stroke-opacity="0.25" stroke-width="0.535427" stroke-linecap="round" stroke-linejoin="round"/>
<path d="M317.81 143.631L317.532 145.778L318.356 146.405L319.106 146.335L319.384 143.631L318.736 143.166L317.81 143.631Z" fill="#EFF2F4" stroke="#EFF2F4" stroke-opacity="0.25" stroke-width="0.535427" stroke-linecap="round" stroke-linejoin="round"/>
<path d="M312.809 137.287L311.605 136.633L310.769 137.474L310.86 139.155L312.804 139.899L312.809 137.287Z" fill="#EFF2F4" stroke="#EFF2F4" stroke-opacity="0.25" stroke-width="0.535427" stroke-linecap="round" stroke-linejoin="round"/>
<path d="M313.189 140.537L316.943 145.768L318.153 146.731L318.694 149.077L324.471 149.532L325.124 149.874L324.476 152.766L320.68 155.004L315.128 156.685L312.167 159.576L308.649 157.526L306.518 159.389L303.552 154.543L301.517 153.612L300.778 152.493V150.067L293.373 141.115L293.095 139.53H295.226L297.817 137.292L297.908 136.173L297.169 135.429L298.653 134.219L301.801 134.406L307.171 138.882L310.341 138.738L310.544 139.519L313.189 140.537Z" fill="#EFF2F4" stroke="#EFF2F4" stroke-opacity="0.25" stroke-width="0.535427" stroke-linecap="round" stroke-linejoin="round"/>
<path d="M293.202 127.627L293.015 128.987L294.524 129.619L294.46 133.389L295.97 133.356L297.48 132.216L298.048 132.12L301.474 129.394L302.165 125.438L295.317 126.134L294.594 127.718L293.202 127.627Z" fill="#EFF2F4" stroke="#EFF2F4" stroke-opacity="0.25" stroke-width="0.535427" stroke-linecap="round" stroke-linejoin="round"/>
<path d="M302.647 125.432L301.812 129.56L298.353 132.441L298.572 133.801L301.951 134.031L307.332 138.411L310.341 138.325L310.421 137.313L311.524 136.13L313.066 137.003L313.27 136.81L310.287 132.842L308.874 132.757L306.994 130.342L307.369 128.564L307.942 128.489L308.14 127.702L305.581 125.009L302.647 125.432Z" fill="#EFF2F4" stroke="#EFF2F4" stroke-opacity="0.25" stroke-width="0.535427" stroke-linecap="round" stroke-linejoin="round"/>
<path d="M294.396 133.865L293.079 138.459L293.02 139.16H295.092L297.41 137.115L297.469 136.339L296.522 135.37L298.219 133.961L297.973 132.655L297.507 132.762L296.093 133.774L294.396 133.865Z" fill="#EFF2F4" stroke="#EFF2F4" stroke-opacity="0.25" stroke-width="0.535427" stroke-linecap="round" stroke-linejoin="round"/>
<path d="M292.95 129.4L292.982 130.444L292.543 132.029L294.053 132.157L294.15 129.908L292.95 129.4Z" fill="#EFF2F4" stroke="#EFF2F4" stroke-opacity="0.25" stroke-width="0.535427" stroke-linecap="round" stroke-linejoin="round"/>
<path d="M292.479 132.409L291.633 135.102L292.731 138.331L293.989 133.613V132.601L292.479 132.409Z" fill="#EFF2F4" stroke="#EFF2F4" stroke-opacity="0.25" stroke-width="0.535427" stroke-linecap="round" stroke-linejoin="round"/>
<path d="M291.349 128.008L292.008 128.484L289.968 130.417L288.993 130.385L288.271 129.876L288.367 128.929L289.845 128.832L291.349 128.008Z" fill="#EFF2F4" stroke="#EFF2F4" stroke-opacity="0.25" stroke-width="0.535427" stroke-linecap="round" stroke-linejoin="round"/>
<path d="M239.365 84.7664L238.385 86.2495L238.776 86.8439H241.035V87.8344L240.446 88.6268L240.837 90.7043L242.111 93.178L243.091 95.4535L244.66 96.0478L245.345 97.2365L245.249 98.3234L244.269 98.9177L244.173 99.4103L244.858 99.8065L244.269 100.599L242.893 101.193L240.243 100.899L236.115 102.778L234.739 102.087L238.669 99.8119L238.176 99.5174L236.115 99.3193L237.389 97.44L237.587 95.8551L239.258 95.657L238.963 92.589L236.998 92.4926L236.409 91.8019L236.506 89.5263L235.328 89.6227L236.506 85.6659L238.669 84.0811L239.365 84.7664ZM235.242 91.4003L233.475 91.5984L233.379 93.1833L234.557 93.9757L235.831 93.6813L236.324 92.7925L235.242 91.4003Z" fill="#EFF2F4" stroke="#EFF2F4" stroke-opacity="0.25" stroke-width="0.535427" stroke-linecap="round" stroke-linejoin="round"/>
<path d="M235.826 94.1204L235.338 97.333L231.017 98.9178H229.641L228.661 98.2271V97.6328L230.825 96.2461L230.236 95.0574L230.332 93.3762L232.201 93.4726L233.057 91.4594L232.945 93.2477L234.396 94.3988L235.826 94.1204Z" fill="#EFF2F4" stroke="#EFF2F4" stroke-opacity="0.25" stroke-width="0.535427" stroke-linecap="round" stroke-linejoin="round"/>
<path d="M266.993 60.9399L268.042 61.9091H270.007L271.089 63.9865L271.383 67.5471L268.733 69.4265V71.3058L266.864 73.8812L265.783 73.9776L264.31 76.4513L264.407 78.8286L266.961 80.7079L266.763 81.7948L265.783 83.278L264.31 84.563L264.407 88.8196L262.147 89.6121L261.36 91.2933H260.279L259.69 88.327L257.232 84.5576L259.251 81.1791L259.39 72.8318L260.782 72.0661L261.119 67.2901L265.087 61.6092L266.993 60.9399ZM267.405 85.3501L266.275 86.2442L266.843 87.556L267.844 86.5815L267.405 85.3501Z" fill="#EFF2F4" stroke="#EFF2F4" stroke-opacity="0.25" stroke-width="0.535427" stroke-linecap="round" stroke-linejoin="round"/>
<path d="M271.849 67.5579L272.957 68.0451L273.643 69.3302L272.957 70.219L269.52 73.9777L268.931 75.9587L269.718 78.8286L272.368 80.8097L275.902 79.1285L278.751 78.7322L281.401 74.4756L279.436 69.8227L277.567 65.368L277.862 62.4981L276.684 62.3L276.379 60.2065L274.794 57.6204L273.038 58.8358L272.347 61.6575L270.484 60.5384L267.892 59.9066L267.314 60.5813L268.31 61.4808L270.125 61.4487L271.587 63.8099L271.849 67.5579Z" fill="#EFF2F4" stroke="#EFF2F4" stroke-opacity="0.25" stroke-width="0.535427" stroke-linecap="round" stroke-linejoin="round"/>
<path d="M277.889 85.9925L274.221 85.3982L274.301 87.4489L277.701 89.5263L279.093 89.1194L279.013 87.556L277.889 85.9925Z" fill="#EFF2F4" stroke="#EFF2F4" stroke-opacity="0.25" stroke-width="0.535427" stroke-linecap="round" stroke-linejoin="round"/>
<path d="M274.002 87.7756L272.85 87.7488L271.271 89.2587H269.932L270.013 91.1487L269.209 92.6319L272.101 92.6587L272.931 92.5516L273.761 93.5528L275.661 93.4725L277.482 91.1541L277.375 89.7781L274.002 87.7756Z" fill="#EFF2F4" stroke="#EFF2F4" stroke-opacity="0.25" stroke-width="0.535427" stroke-linecap="round" stroke-linejoin="round"/>
<path d="M273.921 93.9811L274.724 95.3036L274.403 96.3584L274.457 97.1937L274.751 98.1949L276.411 97.2526L278.472 97.3061L279.918 97.9004H283.586L284.656 95.3357L285.299 94.3666V93.7188L282.997 90.4794L280.962 89.6709L279.302 89.4835L277.857 89.944L277.91 91.4004L275.902 93.9383L273.921 93.9811Z" fill="#EFF2F4" stroke="#EFF2F4" stroke-opacity="0.25" stroke-width="0.535427" stroke-linecap="round" stroke-linejoin="round"/>
<path d="M274.349 98.5163L274.805 99.3515L274.912 100.24L274.537 101.102L273.68 102.751L272.957 103.078L272.02 102.671L271.458 102.698L270.093 103.212L268.54 102.751L266.024 100.969L263.561 99.646L262.57 98.1361L262.383 94.5755L264.31 92.8996L266.827 92.0644L267.764 91.9573L267.389 92.7122L267.63 93.0067L271.865 93.087L272.775 93.0603L274.275 95.3572L273.9 96.2996L274.06 97.4079L274.349 98.5163Z" fill="#EFF2F4" stroke="#EFF2F4" stroke-opacity="0.25" stroke-width="0.535427" stroke-linecap="round" stroke-linejoin="round"/>
<path d="M256.199 119.194L254.78 119.912L254.967 122.68L256.102 122.873L256.954 122.059V119.435L256.199 119.194ZM253.366 110.413L253.034 111.254L253.125 112.17L254.405 113.663L256.418 113.594L260.862 118.755L263.636 119.558L265.274 121.106L265.665 124.634L266.543 124.12L267.303 122.198L267.116 120.817L268.417 120.699L268.604 119.917L264.937 118.161L261.456 114.74L260.07 112.694L259.732 110.751L261.505 110.328L261.05 109.048L259.963 108.132L259.026 108.09L257.719 108.448L256.488 110.172L255.743 110.665L254.592 109.958L253.366 110.413ZM264.166 124.356L263.389 123.938L260.739 124.356L260.83 125.073L263.213 126.273L263.571 126.664L264.198 126.755L264.166 124.356Z" fill="#EFF2F4" stroke="#EFF2F4" stroke-opacity="0.25" stroke-width="0.535427" stroke-linecap="round" stroke-linejoin="round"/>
<path d="M256.343 115.757L255.299 116.806L255.203 117.76L256.054 118.284L256.386 118.236L256.573 116.849L256.343 115.757ZM247.011 100.626L245.827 100.915L243.461 103.49L242.749 103.539L241.801 102.869L241.185 103.014L240.714 104.492L237.255 104.588L237.351 105.354L239.718 106.928L242.465 109.123L242.417 111.747L240.95 114.322L244.125 115.848L247.348 115.944L248.344 114.799L250.378 114.847L250.946 115.372L252.981 115.227L254.025 113.888L252.697 112.314L252.6 111.313L252.884 110.215L252.22 109.262L251.085 109.594L250.941 108.738L253.452 105.969V104.299L251.792 103.346L250.941 103.201L247.011 100.626Z" fill="#EFF2F4" stroke="#EFF2F4" stroke-opacity="0.25" stroke-width="0.535427" stroke-linecap="round" stroke-linejoin="round"/>
<path d="M252.199 95.0413L249.773 96.2353L250.287 96.7011L250.341 97.8951L249.827 97.7934L249.259 96.9099L247.905 99.057L249.988 99.4907L250.764 100.31L251.176 100.321L251.449 98.468L252.761 97.9165L252.199 95.0413Z" fill="#EFF2F4" stroke="#EFF2F4" stroke-opacity="0.25" stroke-width="0.535427" stroke-linecap="round" stroke-linejoin="round"/>
<path d="M247.658 99.4586L247.316 100.315L251 102.746L252.06 102.998L252.097 101.847L251.171 100.808H250.603L249.827 99.9244L247.658 99.4586Z" fill="#EFF2F4" stroke="#EFF2F4" stroke-opacity="0.25" stroke-width="0.535427" stroke-linecap="round" stroke-linejoin="round"/>
<path d="M252.761 94.8325L254.673 94.5219V93.1726L256.273 92.9103L257.152 93.7937L258.078 93.8955L259.524 93.269L260.814 93.6331L261.949 94.6183L262.104 98.3074L263.239 99.8173L261.746 100.026L259.267 101.584L259.475 102.104L261.692 104.181L261.537 105.22L259.475 106.258L257.564 106.312L257.098 107.297H256.118L255.652 106.258L253.95 105.841L253.896 104.127L252.451 103.142L252.606 101.895L251.626 100.545L251.883 98.7786L253.222 98.1521L252.761 94.8325Z" fill="#EFF2F4" stroke="#EFF2F4" stroke-opacity="0.25" stroke-width="0.535427" stroke-linecap="round" stroke-linejoin="round"/>
<path d="M255.776 86.0621L253.554 88.5197L253.473 90.1207L254.485 92.7603L256.07 92.4605L255.872 90.3027L256.964 89.0819L256.943 88.1235L256.172 86.1264L255.776 86.0621ZM258.276 90.4205L257.778 90.3991L257.125 90.9988L257.205 91.9358L258.753 91.9786L258.833 90.9185L258.276 90.4205Z" fill="#EFF2F4" stroke="#EFF2F4" stroke-opacity="0.25" stroke-width="0.535427" stroke-linecap="round" stroke-linejoin="round"/>
<path d="M253.709 106.344L251.374 108.828L251.423 109.08L252.381 108.78L253.243 109.98L254.699 109.466L255.706 110.247L256.118 110.012L257.36 108.063L257.045 107.763L255.818 107.731L255.224 106.515L253.709 106.344Z" fill="#EFF2F4" stroke="#EFF2F4" stroke-opacity="0.25" stroke-width="0.535427" stroke-linecap="round" stroke-linejoin="round"/>
<path d="M262.019 103.929H263.609H264.391L265.66 104.834L268.01 102.88L265.729 101.252L263.47 100.16L261.922 100.438L259.823 101.788L262.019 103.929Z" fill="#EFF2F4" stroke="#EFF2F4" stroke-opacity="0.25" stroke-width="0.535427" stroke-linecap="round" stroke-linejoin="round"/>
<path d="M265.986 105.139L266.356 105.466L266.404 106.023L270.489 105.932L273.509 104.631L273.461 103.308L272.882 103.565L272.052 103.121L271.544 103.099L270.205 103.635L268.385 103.196L265.986 105.139Z" fill="#EFF2F4" stroke="#EFF2F4" stroke-opacity="0.25" stroke-width="0.535427" stroke-linecap="round" stroke-linejoin="round"/>
<path d="M257.842 106.74L257.494 107.463L257.794 107.977L259.042 107.72H260.102L261.253 108.695L263.7 108.25L265.499 107.179L265.959 106.457L265.89 105.525L264.273 104.315L262.104 104.336L261.922 105.568L259.641 106.682L257.842 106.74Z" fill="#EFF2F4" stroke="#EFF2F4" stroke-opacity="0.25" stroke-width="0.535427" stroke-linecap="round" stroke-linejoin="round"/>
<path d="M266.468 106.462L265.847 107.436L265.895 108.925L266.886 109.434L269.932 109.525L274.178 105.948L274.2 105.156L273.739 104.925L270.671 106.317L266.468 106.462Z" fill="#EFF2F4" stroke="#EFF2F4" stroke-opacity="0.25" stroke-width="0.535427" stroke-linecap="round" stroke-linejoin="round"/>
<path d="M265.429 107.742L264.069 108.555L261.531 109.112L262.04 110.579L263.818 110.601L265.456 109.23L265.429 107.742Z" fill="#EFF2F4" stroke="#EFF2F4" stroke-opacity="0.25" stroke-width="0.535427" stroke-linecap="round" stroke-linejoin="round"/>
<path d="M265.868 109.439L263.978 110.997H262.062L261.831 112.346L262.709 112.577L263.148 111.923L263.839 112.528L264.391 114.456L268.176 116.223L268.551 115.794L264.712 111.832L265.103 111.109L268.749 110.97L269.118 109.808L266.741 109.878L265.868 109.439Z" fill="#EFF2F4" stroke="#EFF2F4" stroke-opacity="0.25" stroke-width="0.535427" stroke-linecap="round" stroke-linejoin="round"/>
<path d="M265.429 111.463L265.231 111.789L268.824 115.495L270.141 113.556L270.093 112.791L268.942 111.393L265.429 111.463Z" fill="#EFF2F4" stroke="#EFF2F4" stroke-opacity="0.25" stroke-width="0.535427" stroke-linecap="round" stroke-linejoin="round"/>
<path d="M264.257 128.345L263.363 128.527L263.395 129.517L264.198 129.785L264.557 129.485L264.257 128.345Z" fill="#EFF2F4" stroke="#EFF2F4" stroke-opacity="0.25" stroke-width="0.535427" stroke-linecap="round" stroke-linejoin="round"/>
<path d="M276.55 97.6541L274.997 98.5269L275.383 100.176L273.948 103.201L273.959 104.534L274.633 104.963L278.96 105.177L280.17 104.176L281.465 104.609L283.323 107.088L281.963 109.53L283.58 110.001L285.695 107.565L286.905 107.784L288.03 108.566L287.039 109.873L288.378 111.961H289.802L290.536 110.569L292.045 110.263L292.088 109.134L289.283 108.7L289.368 107.485H292.088L295.022 105.134L296.318 104.004L296.532 100.438L290.75 99.919L288.378 96.5726L286.739 96.0104L284.753 96.096L283.859 98.3074L279.79 98.3609L278.467 97.7505L276.55 97.6541Z" fill="#EFF2F4" stroke="#EFF2F4" stroke-opacity="0.25" stroke-width="0.535427" stroke-linecap="round" stroke-linejoin="round"/>
<path d="M279.324 105.45L280.983 108.004L280.844 109.45L281.439 109.476L282.847 107.094L281.155 104.995L280.196 104.599L279.324 105.45Z" fill="#EFF2F4" stroke="#EFF2F4" stroke-opacity="0.25" stroke-width="0.535427" stroke-linecap="round" stroke-linejoin="round"/>
<path d="M274.735 105.391L274.596 106.184L271.496 108.764L274.087 112.566L275.747 113.728H278.735L279.72 112.903L281.042 112.732L282.028 113.326L283.773 111.34L283.436 110.344L281.663 109.889L280.453 109.83L280.512 108.127L278.906 105.6L274.735 105.391Z" fill="#EFF2F4" stroke="#EFF2F4" stroke-opacity="0.25" stroke-width="0.535427" stroke-linecap="round" stroke-linejoin="round"/>
<path d="M271.185 109.107L270.088 109.931H269.552L269.188 111.067L270.484 112.571L270.569 113.765L268.963 116.035L269.188 116.715L270.12 116.887L270.853 115.891L271.249 115.864L271.924 116.517L273.98 115.891L273.809 112.967L271.185 109.107Z" fill="#EFF2F4" stroke="#EFF2F4" stroke-opacity="0.25" stroke-width="0.535427" stroke-linecap="round" stroke-linejoin="round"/>
<path d="M274.339 113.31L274.425 115.976L275.324 117.85L278.703 117.909L280.223 116.833L281.717 116.239L281.353 114.536L281.69 113.626L280.93 113.23L279.886 113.315L279.067 114.14L275.629 114.167L274.339 113.31Z" fill="#EFF2F4" stroke="#EFF2F4" stroke-opacity="0.25" stroke-width="0.535427" stroke-linecap="round" stroke-linejoin="round"/>
<path d="M270.366 117.256V119.724L271.073 121.058L271.581 120.999L272.454 119.409L271.945 118.696L271.747 116.935L271.073 116.308L270.366 117.256Z" fill="#EFF2F4" stroke="#EFF2F4" stroke-opacity="0.25" stroke-width="0.535427" stroke-linecap="round" stroke-linejoin="round"/>
<path d="M274.06 116.319L272.256 116.914L272.342 118.445L272.765 118.986L274.906 117.99L274.06 116.319Z" fill="#EFF2F4" stroke="#EFF2F4" stroke-opacity="0.25" stroke-width="0.535427" stroke-linecap="round" stroke-linejoin="round"/>
<path d="M271.806 121.454L271.747 122.166L274.226 123.414L275.41 123.869L274.789 124.522L273.407 124.661L273.209 125.288L273.686 126.364L275.233 127.188L275.908 127.247L275.993 125.4L277.005 124.179L274.242 120.913L274.606 119.805L275.254 119.778L276.24 120.57L276.861 120.26L277.059 119.152L279.961 119.178L280.073 117.476L278.863 118.327L275.313 118.241L273.006 119.435L271.806 121.454ZM277.187 128.409L278.06 128.436L278.424 128.977H279.693L280.539 128.666L280.823 129.009L280.261 129.748L277.782 129.833L277.332 129.239L276.855 128.955L277.187 128.409Z" fill="#EFF2F4" stroke="#EFF2F4" stroke-opacity="0.25" stroke-width="0.535427" stroke-linecap="round" stroke-linejoin="round"/>
</g>
<rect x="10.5" y="10.1875" width="17" height="17" rx="3" fill="black"/>
<path d="M18.5077 14.4935V17.5315H15.5397V18.6095H18.5077V21.6335H19.6977V18.6095H22.6797V17.5315H19.6977V14.4935H18.5077Z" fill="white"/>
<rect x="10.5" y="30.1875" width="17" height="17" rx="3" fill="black"/>
<path d="M16.3085 38.5955H21.8945V37.5175H16.3085V38.5955Z" fill="white"/>
</g>
<defs>
<clipPath id="clip0_1_680">
<rect width="508.656" height="304" fill="white" transform="translate(0.5 0.1875)"/>
</clipPath>
<clipPath id="clip1_1_680">
<rect width="508.641" height="304" fill="white" transform="translate(0.5 0.1875)"/>
</clipPath>
</defs>
</svg>
