<svg width="94" height="21" viewBox="0 0 94 21" fill="none" xmlns="http://www.w3.org/2000/svg">
<g clip-path="url(#clip0_1_592)">
<rect x="0.34375" y="8.4375" width="62.25" height="5" rx="2.5" fill="#1E1E1E"/>
<rect x="0.34375" y="8.4375" width="33.1406" height="5" rx="2.5" fill="#0D99FF"/>
</g>
<path d="M68.7378 5.5255V10.8295H69.8558C70.1678 10.0885 70.8568 9.5945 71.8058 9.5945C73.1708 9.5945 73.8598 10.3745 73.8598 11.7135C73.8598 13.0005 73.2228 13.9625 71.7928 13.9625C70.6878 13.9625 69.9208 13.3775 69.6998 12.3895H68.5428C68.7768 13.9105 69.9078 14.9635 71.7798 14.9635C73.9768 14.9635 74.9908 13.5075 74.9908 11.6875C74.9908 10.2315 74.2628 8.5805 71.9748 8.5805C71.0518 8.5805 70.2198 8.9965 69.8298 9.5295V6.5655H74.3928V5.5255H68.7378ZM76.5368 7.9045H77.6938C77.8108 6.9945 78.4738 6.3705 79.5788 6.3705C80.7098 6.3705 81.3078 6.9945 81.3078 7.8915C81.3078 8.9835 80.4628 9.4645 78.8898 9.4775H78.5778V10.4655H78.8768C80.5668 10.4655 81.4898 10.9725 81.4898 12.2985C81.4898 13.2605 80.8918 14.0015 79.6308 14.0015C78.3828 14.0015 77.6548 13.2345 77.5378 12.2335H76.3938C76.5368 14.0535 77.8628 15.0025 79.6438 15.0025C81.6068 15.0025 82.6208 13.8585 82.6208 12.4025C82.6208 11.0505 81.8798 10.2445 80.7878 9.9845V9.9195C81.7758 9.6985 82.4518 8.8535 82.4518 7.7745C82.4518 6.4225 81.4508 5.3565 79.6178 5.3565C77.8758 5.3565 76.6538 6.2925 76.5368 7.9045ZM83.9581 7.6575C83.9581 8.8795 84.7771 9.6075 85.8561 9.6075C86.9481 9.6075 87.7541 8.8795 87.7541 7.6575C87.7541 6.4485 86.9481 5.7205 85.8561 5.7205C84.7771 5.7205 83.9581 6.4485 83.9581 7.6575ZM85.8561 6.4485C86.4281 6.4485 86.8181 6.8385 86.8181 7.6575C86.8181 8.4635 86.4281 8.8795 85.8561 8.8795C85.2841 8.8795 84.9071 8.4635 84.9071 7.6575C84.9071 6.8385 85.2841 6.4485 85.8561 6.4485ZM85.1151 14.9375H86.2851L91.5501 5.8635H90.3801L85.1151 14.9375ZM88.9371 13.1435C88.9371 14.3525 89.7431 15.0935 90.8351 15.0935C91.9141 15.0935 92.7201 14.3525 92.7201 13.1435C92.7201 11.9215 91.9141 11.1935 90.8351 11.1935C89.7431 11.1935 88.9371 11.9215 88.9371 13.1435ZM90.8221 11.9345C91.3941 11.9345 91.7841 12.3245 91.7841 13.1435C91.7841 13.9495 91.3941 14.3395 90.8221 14.3395C90.2501 14.3395 89.8601 13.9495 89.8601 13.1435C89.8601 12.3245 90.2501 11.9345 90.8221 11.9345Z" fill="#0D99FF"/>
<defs>
<clipPath id="clip0_1_592">
<rect x="0.34375" y="8.4375" width="62.25" height="5" rx="2.5" fill="white"/>
</clipPath>
</defs>
</svg>
