<svg width="101" height="22" viewBox="0 0 101 22" fill="none" xmlns="http://www.w3.org/2000/svg">
<path d="M6.04688 7.76562V4.3125H0.96875C0.613281 4.3125 0.359375 4.5918 0.359375 4.92188V16.7031C0.359375 17.0586 0.613281 17.3125 0.96875 17.3125H9.5C9.83008 17.3125 10.1094 17.0586 10.1094 16.7031V8.375H6.65625C6.30078 8.375 6.04688 8.12109 6.04688 7.76562ZM7.57031 10.4824L6.04688 12.8438L7.57031 15.2305C7.69727 15.4336 7.54492 15.6875 7.31641 15.6875H6.42773C6.30078 15.6875 6.19922 15.6367 6.14844 15.5352C5.64062 14.6211 5.23438 13.7832 5.23438 13.7832C5.05664 14.1641 4.98047 14.291 4.29492 15.5352C4.24414 15.6367 4.14258 15.7129 4.01562 15.7129H3.15234C2.89844 15.7129 2.74609 15.4336 2.87305 15.2305L4.42188 12.8691L2.87305 10.4824C2.74609 10.2793 2.89844 10.0254 3.15234 10.0254H4.01562C4.14258 10.0254 4.24414 10.0762 4.29492 10.1777C4.95508 11.4219 4.80273 11.0156 5.23438 11.9043C5.23438 11.9043 5.38672 11.625 6.14844 10.1777C6.19922 10.0762 6.30078 10.0254 6.42773 10.0254H7.31641C7.54492 10 7.69727 10.2793 7.57031 10.4824ZM10.1094 7.41016C10.1094 7.25781 10.0332 7.10547 9.93164 6.97852L7.44336 4.49023C7.31641 4.38867 7.16406 4.3125 7.01172 4.3125H6.85938V7.5625H10.1094V7.41016Z" fill="#0D99FF"/>
<path d="M18.0137 6.6135H13.1387V15.6875H18.0137V14.7125H14.3217V11.5925H17.6237V10.6175H14.3217V7.5885H18.0137V6.6135ZM23.5217 15.6875H24.8607L22.5597 12.0865L24.8477 8.5635H23.6127L22.0007 11.2025L20.3107 8.5635H18.9717L21.2727 12.1515L18.9717 15.6875H20.2067L21.8317 13.0355L23.5217 15.6875ZM27.2074 9.8765V8.5635H26.0244V19.0675H27.2074V14.3745C27.6494 15.1025 28.5724 15.8045 29.8724 15.8045C31.7834 15.8045 33.2524 14.3095 33.2524 12.0995C33.2524 9.8765 31.7834 8.4465 29.8724 8.4465C28.5724 8.4465 27.6364 9.1225 27.2074 9.8765ZM32.0434 12.0995C32.0434 13.7765 30.9384 14.7645 29.6254 14.7645C28.3384 14.7645 27.2074 13.7895 27.2074 12.1125C27.2074 10.4615 28.3384 9.4735 29.6254 9.4735C30.9384 9.4735 32.0434 10.4225 32.0434 12.0995ZM41.5696 12.1125C41.5696 9.8635 39.9966 8.4465 37.9686 8.4465C35.9536 8.4465 34.3676 9.8635 34.3676 12.1125C34.3676 14.3745 35.9016 15.8045 37.9166 15.8045C39.9446 15.8045 41.5696 14.3745 41.5696 12.1125ZM35.5766 12.1125C35.5766 10.3185 36.7076 9.4735 37.9556 9.4735C39.1776 9.4735 40.3606 10.3185 40.3606 12.1125C40.3606 13.9195 39.1516 14.7645 37.9166 14.7645C36.6816 14.7645 35.5766 13.9195 35.5766 12.1125ZM44.308 11.8135C44.308 10.1625 45.166 9.6555 46.297 9.6555H46.609V8.4335C45.478 8.4335 44.711 8.9275 44.308 9.7205V8.5635H43.125V15.6875H44.308V11.8135ZM48.2346 13.7375C48.2346 15.1675 48.9496 15.6875 50.2106 15.6875H51.2766V14.6865H50.4056C49.6776 14.6865 49.4176 14.4395 49.4176 13.7375V9.5385H51.2766V8.5635H49.4176V6.7695H48.2346V8.5635H47.3116V9.5385H48.2346V13.7375ZM61.0248 9.2915C61.0248 10.3055 60.4398 11.0335 59.1008 11.0335H57.3588V7.6015H59.1008C60.4528 7.6015 61.0248 8.2645 61.0248 9.2915ZM56.1758 6.6265V15.6875H57.3588V11.9825H58.7888L60.9468 15.6875H62.3638L60.0888 11.8915C61.6098 11.5535 62.2468 10.4485 62.2468 9.2915C62.2468 7.8095 61.2328 6.6265 59.1008 6.6265H56.1758ZM67.114 9.4475C68.336 9.4475 69.376 10.2145 69.363 11.6055H64.865C64.995 10.2145 65.957 9.4475 67.114 9.4475ZM70.442 13.4905H69.168C68.908 14.2575 68.232 14.8035 67.166 14.8035C65.957 14.8035 64.943 14.0105 64.852 12.5675H70.546C70.572 12.3205 70.585 12.1125 70.585 11.8525C70.585 9.9025 69.233 8.4465 67.166 8.4465C65.086 8.4465 63.643 9.8635 63.643 12.1125C63.643 14.3745 65.138 15.8045 67.166 15.8045C68.934 15.8045 70.078 14.7905 70.442 13.4905ZM73.3295 9.8765V8.5635H72.1465V19.0675H73.3295V14.3745C73.7715 15.1025 74.6945 15.8045 75.9945 15.8045C77.9055 15.8045 79.3745 14.3095 79.3745 12.0995C79.3745 9.8765 77.9055 8.4465 75.9945 8.4465C74.6945 8.4465 73.7585 9.1225 73.3295 9.8765ZM78.1655 12.0995C78.1655 13.7765 77.0605 14.7645 75.7475 14.7645C74.4605 14.7645 73.3295 13.7895 73.3295 12.1125C73.3295 10.4615 74.4605 9.4735 75.7475 9.4735C77.0605 9.4735 78.1655 10.4225 78.1655 12.0995ZM87.6917 12.1125C87.6917 9.8635 86.1187 8.4465 84.0907 8.4465C82.0757 8.4465 80.4897 9.8635 80.4897 12.1125C80.4897 14.3745 82.0237 15.8045 84.0387 15.8045C86.0667 15.8045 87.6917 14.3745 87.6917 12.1125ZM81.6987 12.1125C81.6987 10.3185 82.8297 9.4735 84.0777 9.4735C85.2997 9.4735 86.4827 10.3185 86.4827 12.1125C86.4827 13.9195 85.2737 14.7645 84.0387 14.7645C82.8037 14.7645 81.6987 13.9195 81.6987 12.1125ZM90.4301 11.8135C90.4301 10.1625 91.2881 9.6555 92.4191 9.6555H92.7311V8.4335C91.6001 8.4335 90.8331 8.9275 90.4301 9.7205V8.5635H89.2471V15.6875H90.4301V11.8135ZM94.3567 13.7375C94.3567 15.1675 95.0717 15.6875 96.3327 15.6875H97.3987V14.6865H96.5277C95.7997 14.6865 95.5397 14.4395 95.5397 13.7375V9.5385H97.3987V8.5635H95.5397V6.7695H94.3567V8.5635H93.4337V9.5385H94.3567V13.7375Z" fill="#0D99FF"/>
</svg>
