<svg width="385" height="315" viewBox="0 0 385 315" fill="none" xmlns="http://www.w3.org/2000/svg">
<path d="M60.962 302.428H62.632L65.1046 309.705L67.5597 302.428H69.212V311.036H68.1046V305.955C68.1046 305.78 68.1085 305.489 68.1163 305.082C68.1241 304.676 68.1281 304.241 68.1281 303.776L65.673 311.036H64.5187L62.046 303.776V304.039C62.046 304.25 62.0499 304.573 62.0577 305.006C62.0695 305.436 62.0753 305.752 62.0753 305.955V311.036H60.962V302.428ZM71.6554 309.366C71.6554 309.67 71.7667 309.911 71.9894 310.086C72.212 310.262 72.4757 310.35 72.7804 310.35C73.1515 310.35 73.5109 310.264 73.8585 310.092C74.4445 309.807 74.7374 309.34 74.7374 308.692V307.842C74.6085 307.924 74.4425 307.993 74.2394 308.047C74.0363 308.102 73.837 308.141 73.6417 308.164L73.0031 308.246C72.6202 308.297 72.3331 308.377 72.1417 308.487C71.8175 308.67 71.6554 308.963 71.6554 309.366ZM74.2101 307.233C74.4523 307.202 74.6144 307.1 74.6964 306.928C74.7433 306.834 74.7667 306.7 74.7667 306.524C74.7667 306.164 74.6378 305.905 74.38 305.745C74.1261 305.58 73.7609 305.498 73.2843 305.498C72.7335 305.498 72.3429 305.647 72.1124 305.944C71.9835 306.108 71.8995 306.352 71.8605 306.676H70.8761C70.8956 305.903 71.1456 305.366 71.6261 305.065C72.1105 304.76 72.671 304.608 73.3077 304.608C74.046 304.608 74.6456 304.748 75.1066 305.03C75.5636 305.311 75.7921 305.748 75.7921 306.342V309.957C75.7921 310.067 75.8136 310.155 75.8566 310.221C75.9034 310.287 75.9991 310.321 76.1437 310.321C76.1906 310.321 76.2433 310.319 76.3019 310.315C76.3605 310.307 76.423 310.297 76.4894 310.286V311.065C76.3253 311.112 76.2003 311.141 76.1144 311.153C76.0284 311.164 75.9113 311.17 75.7628 311.17C75.3995 311.17 75.1359 311.041 74.9718 310.784C74.8859 310.647 74.8253 310.453 74.7902 310.203C74.5753 310.485 74.2667 310.729 73.8644 310.936C73.462 311.143 73.0187 311.246 72.5343 311.246C71.9523 311.246 71.4757 311.071 71.1046 310.719C70.7374 310.364 70.5538 309.92 70.5538 309.389C70.5538 308.807 70.7355 308.356 71.0988 308.036C71.462 307.715 71.9386 307.518 72.5284 307.444L74.2101 307.233ZM81.4464 304.76H82.6124C82.464 305.162 82.1339 306.08 81.6222 307.514C81.2394 308.592 80.9191 309.471 80.6613 310.151C80.0519 311.752 79.6222 312.729 79.3722 313.08C79.1222 313.432 78.6925 313.608 78.0831 313.608C77.9347 313.608 77.8195 313.602 77.7374 313.59C77.6593 313.578 77.5616 313.557 77.4445 313.526V312.565C77.6281 312.616 77.7609 312.647 77.8429 312.659C77.9249 312.67 77.9972 312.676 78.0597 312.676C78.255 312.676 78.3976 312.643 78.4874 312.577C78.5812 312.514 78.6593 312.436 78.7218 312.342C78.7413 312.311 78.8116 312.151 78.9327 311.862C79.0538 311.573 79.1417 311.358 79.1964 311.217L76.8761 304.76H78.0714L79.7531 309.87L81.4464 304.76Z" fill="#828690"/>
<path d="M118.34 308.469C118.34 309.196 118.233 309.76 118.018 310.162C117.619 310.897 116.862 311.264 115.744 311.264C115.1 311.264 114.549 311.09 114.092 310.743C113.635 310.391 113.406 309.768 113.406 308.873V308.258H114.502V308.873C114.502 309.342 114.606 309.696 114.813 309.934C115.024 310.168 115.35 310.286 115.791 310.286C116.412 310.286 116.819 310.073 117.01 309.647C117.127 309.385 117.186 308.891 117.186 308.164V302.428H118.34V308.469ZM121.03 304.76V308.926C121.03 309.246 121.08 309.508 121.182 309.711C121.369 310.086 121.719 310.274 122.231 310.274C122.965 310.274 123.465 309.946 123.731 309.289C123.875 308.938 123.948 308.455 123.948 307.842V304.76H125.002V311.036H124.006L124.018 310.11C123.881 310.348 123.711 310.549 123.508 310.713C123.106 311.041 122.617 311.205 122.043 311.205C121.149 311.205 120.539 310.907 120.215 310.309C120.039 309.989 119.951 309.561 119.951 309.026V304.76H121.03ZM126.655 304.76H127.656V305.651C127.953 305.284 128.268 305.02 128.6 304.86C128.932 304.7 129.301 304.62 129.707 304.62C130.598 304.62 131.199 304.93 131.512 305.551C131.684 305.891 131.77 306.377 131.77 307.01V311.036H130.698V307.08C130.698 306.698 130.641 306.389 130.528 306.155C130.34 305.764 130 305.569 129.508 305.569C129.258 305.569 129.053 305.594 128.893 305.645C128.604 305.731 128.35 305.903 128.131 306.161C127.955 306.368 127.84 306.582 127.785 306.805C127.735 307.024 127.709 307.338 127.709 307.748V311.036H126.655V304.76ZM135.948 304.62C136.393 304.62 136.824 304.725 137.242 304.936C137.66 305.143 137.979 305.412 138.198 305.745C138.408 306.061 138.549 306.43 138.619 306.852C138.682 307.141 138.713 307.602 138.713 308.235H134.114C134.133 308.871 134.283 309.383 134.565 309.77C134.846 310.153 135.281 310.344 135.871 310.344C136.422 310.344 136.862 310.162 137.19 309.799C137.377 309.588 137.51 309.344 137.588 309.067H138.625C138.598 309.297 138.506 309.555 138.35 309.84C138.198 310.121 138.026 310.352 137.834 310.532C137.514 310.844 137.117 311.055 136.645 311.164C136.391 311.227 136.104 311.258 135.783 311.258C135.002 311.258 134.34 310.975 133.797 310.409C133.254 309.838 132.983 309.041 132.983 308.018C132.983 307.01 133.256 306.192 133.803 305.563C134.35 304.934 135.065 304.62 135.948 304.62ZM137.629 307.397C137.586 306.94 137.487 306.575 137.33 306.301C137.041 305.793 136.559 305.539 135.883 305.539C135.399 305.539 134.992 305.715 134.664 306.067C134.336 306.414 134.162 306.858 134.143 307.397H137.629Z" fill="#828690"/>
<path d="M174.99 308.469C174.99 309.196 174.882 309.76 174.667 310.162C174.269 310.897 173.511 311.264 172.394 311.264C171.75 311.264 171.199 311.09 170.742 310.743C170.285 310.391 170.056 309.768 170.056 308.873V308.258H171.152V308.873C171.152 309.342 171.255 309.696 171.462 309.934C171.673 310.168 172 310.286 172.441 310.286C173.062 310.286 173.468 310.073 173.66 309.647C173.777 309.385 173.835 308.891 173.835 308.164V302.428H174.99V308.469ZM177.679 304.76V308.926C177.679 309.246 177.73 309.508 177.832 309.711C178.019 310.086 178.369 310.274 178.88 310.274C179.615 310.274 180.115 309.946 180.38 309.289C180.525 308.938 180.597 308.455 180.597 307.842V304.76H181.652V311.036H180.656L180.667 310.11C180.531 310.348 180.361 310.549 180.158 310.713C179.755 311.041 179.267 311.205 178.693 311.205C177.798 311.205 177.189 310.907 176.865 310.309C176.689 309.989 176.601 309.561 176.601 309.026V304.76H177.679ZM183.333 302.428H184.388V311.036H183.333V302.428ZM189.896 304.76H191.062C190.914 305.162 190.583 306.08 190.072 307.514C189.689 308.592 189.369 309.471 189.111 310.151C188.501 311.752 188.072 312.729 187.822 313.08C187.572 313.432 187.142 313.608 186.533 313.608C186.384 313.608 186.269 313.602 186.187 313.59C186.109 313.578 186.011 313.557 185.894 313.526V312.565C186.078 312.616 186.21 312.647 186.292 312.659C186.375 312.67 186.447 312.676 186.509 312.676C186.705 312.676 186.847 312.643 186.937 312.577C187.031 312.514 187.109 312.436 187.171 312.342C187.191 312.311 187.261 312.151 187.382 311.862C187.503 311.573 187.591 311.358 187.646 311.217L185.326 304.76H186.521L188.203 309.87L189.896 304.76Z" fill="#828690"/>
<path d="M229.983 307.508L228.676 303.705L227.288 307.508H229.983ZM228.067 302.428H229.385L232.508 311.036H231.231L230.358 308.457H226.954L226.022 311.036H224.827L228.067 302.428ZM234.483 304.76V308.926C234.483 309.246 234.534 309.508 234.635 309.711C234.823 310.086 235.172 310.274 235.684 310.274C236.419 310.274 236.919 309.946 237.184 309.289C237.329 308.938 237.401 308.455 237.401 307.842V304.76H238.456V311.036H237.46L237.471 310.11C237.335 310.348 237.165 310.549 236.962 310.713C236.559 311.041 236.071 311.205 235.497 311.205C234.602 311.205 233.993 310.907 233.669 310.309C233.493 309.989 233.405 309.561 233.405 309.026V304.76H234.483ZM242.323 304.649C242.815 304.649 243.245 304.77 243.612 305.012C243.811 305.149 244.014 305.348 244.221 305.61V304.819H245.194V310.526C245.194 311.323 245.077 311.952 244.842 312.412C244.405 313.264 243.579 313.69 242.364 313.69C241.688 313.69 241.12 313.537 240.659 313.233C240.198 312.932 239.94 312.459 239.885 311.815H240.958C241.008 312.096 241.11 312.313 241.262 312.465C241.501 312.7 241.876 312.817 242.387 312.817C243.196 312.817 243.725 312.532 243.975 311.961C244.124 311.625 244.192 311.026 244.18 310.162C243.969 310.483 243.715 310.721 243.419 310.877C243.122 311.034 242.729 311.112 242.241 311.112C241.561 311.112 240.965 310.871 240.454 310.391C239.946 309.907 239.692 309.108 239.692 307.995C239.692 306.944 239.948 306.123 240.46 305.534C240.975 304.944 241.596 304.649 242.323 304.649ZM244.221 307.871C244.221 307.094 244.061 306.518 243.741 306.143C243.421 305.768 243.012 305.58 242.516 305.58C241.774 305.58 241.266 305.928 240.993 306.623C240.848 306.995 240.776 307.481 240.776 308.082C240.776 308.789 240.919 309.328 241.204 309.7C241.493 310.067 241.88 310.25 242.364 310.25C243.122 310.25 243.655 309.909 243.964 309.225C244.135 308.838 244.221 308.387 244.221 307.871Z" fill="#828690"/>
<path d="M281.133 308.258C281.16 308.746 281.275 309.143 281.478 309.448C281.865 310.018 282.547 310.303 283.523 310.303C283.961 310.303 284.359 310.241 284.719 310.116C285.414 309.873 285.761 309.44 285.761 308.815C285.761 308.346 285.615 308.012 285.322 307.813C285.025 307.618 284.56 307.448 283.927 307.303L282.761 307.039C282 306.868 281.461 306.678 281.144 306.471C280.597 306.112 280.324 305.575 280.324 304.86C280.324 304.086 280.592 303.452 281.127 302.955C281.662 302.459 282.42 302.211 283.4 302.211C284.302 302.211 285.068 302.43 285.697 302.868C286.33 303.301 286.646 303.996 286.646 304.953H285.551C285.492 304.493 285.367 304.139 285.176 303.893C284.82 303.444 284.217 303.219 283.365 303.219C282.677 303.219 282.183 303.364 281.883 303.653C281.582 303.942 281.431 304.278 281.431 304.661C281.431 305.082 281.607 305.391 281.959 305.586C282.189 305.711 282.711 305.868 283.523 306.055L284.73 306.33C285.312 306.463 285.761 306.645 286.078 306.875C286.625 307.278 286.898 307.862 286.898 308.627C286.898 309.58 286.551 310.262 285.855 310.672C285.164 311.082 284.359 311.287 283.441 311.287C282.371 311.287 281.533 311.014 280.927 310.467C280.322 309.924 280.025 309.188 280.037 308.258H281.133ZM290.847 304.62C291.293 304.62 291.724 304.725 292.142 304.936C292.56 305.143 292.879 305.412 293.097 305.745C293.308 306.061 293.449 306.43 293.519 306.852C293.582 307.141 293.613 307.602 293.613 308.235H289.013C289.033 308.871 289.183 309.383 289.465 309.77C289.746 310.153 290.181 310.344 290.771 310.344C291.322 310.344 291.761 310.162 292.09 309.799C292.277 309.588 292.41 309.344 292.488 309.067H293.525C293.498 309.297 293.406 309.555 293.25 309.84C293.097 310.121 292.926 310.352 292.734 310.532C292.414 310.844 292.017 311.055 291.545 311.164C291.291 311.227 291.004 311.258 290.683 311.258C289.902 311.258 289.24 310.975 288.697 310.409C288.154 309.838 287.883 309.041 287.883 308.018C287.883 307.01 288.156 306.192 288.703 305.563C289.25 304.934 289.965 304.62 290.847 304.62ZM292.529 307.397C292.486 306.94 292.386 306.575 292.23 306.301C291.941 305.793 291.459 305.539 290.783 305.539C290.299 305.539 289.892 305.715 289.564 306.067C289.236 306.414 289.062 306.858 289.043 307.397H292.529ZM297.562 310.327C298.054 310.327 298.463 310.121 298.787 309.711C299.115 309.297 299.279 308.68 299.279 307.86C299.279 307.36 299.207 306.93 299.062 306.571C298.789 305.879 298.289 305.534 297.562 305.534C296.832 305.534 296.332 305.899 296.062 306.629C295.918 307.02 295.845 307.516 295.845 308.118C295.845 308.602 295.918 309.014 296.062 309.354C296.336 310.002 296.836 310.327 297.562 310.327ZM294.832 304.789H295.857V305.621C296.068 305.336 296.299 305.116 296.549 304.959C296.904 304.725 297.322 304.608 297.802 304.608C298.513 304.608 299.117 304.881 299.613 305.428C300.109 305.971 300.357 306.748 300.357 307.76C300.357 309.127 300 310.104 299.285 310.69C298.832 311.061 298.304 311.246 297.703 311.246C297.23 311.246 296.834 311.143 296.513 310.936C296.326 310.819 296.117 310.618 295.886 310.332V313.537H294.832V304.789Z" fill="#828690"/>
<path d="M340.733 302.194C342.253 302.194 343.378 302.682 344.108 303.659C344.679 304.42 344.964 305.395 344.964 306.582C344.964 307.868 344.638 308.936 343.985 309.787C343.22 310.787 342.128 311.287 340.71 311.287C339.386 311.287 338.345 310.85 337.587 309.975C336.911 309.131 336.573 308.065 336.573 306.776C336.573 305.612 336.862 304.616 337.44 303.787C338.182 302.725 339.28 302.194 340.733 302.194ZM340.85 310.245C341.878 310.245 342.62 309.877 343.077 309.143C343.538 308.405 343.768 307.557 343.768 306.6C343.768 305.588 343.503 304.774 342.972 304.157C342.444 303.539 341.722 303.231 340.804 303.231C339.913 303.231 339.186 303.537 338.624 304.151C338.061 304.76 337.78 305.661 337.78 306.852C337.78 307.805 338.02 308.61 338.501 309.266C338.985 309.918 339.768 310.245 340.85 310.245ZM348.638 304.578C349.345 304.578 349.919 304.75 350.36 305.094C350.806 305.438 351.073 306.03 351.163 306.87H350.138C350.075 306.483 349.932 306.162 349.71 305.909C349.487 305.651 349.13 305.522 348.638 305.522C347.966 305.522 347.485 305.85 347.196 306.506C347.009 306.932 346.915 307.457 346.915 308.082C346.915 308.711 347.048 309.241 347.313 309.67C347.579 310.1 347.997 310.315 348.567 310.315C349.005 310.315 349.35 310.182 349.604 309.916C349.862 309.647 350.04 309.28 350.138 308.815H351.163C351.046 309.647 350.753 310.256 350.284 310.643C349.815 311.026 349.216 311.217 348.485 311.217C347.665 311.217 347.011 310.918 346.522 310.321C346.034 309.719 345.79 308.969 345.79 308.071C345.79 306.969 346.057 306.112 346.593 305.498C347.128 304.885 347.809 304.578 348.638 304.578ZM352.429 303.008H353.495V304.76H354.497V305.621H353.495V309.717C353.495 309.936 353.569 310.082 353.718 310.157C353.8 310.2 353.936 310.221 354.128 310.221C354.179 310.221 354.233 310.221 354.292 310.221C354.35 310.217 354.419 310.211 354.497 310.203V311.036C354.376 311.071 354.249 311.096 354.116 311.112C353.987 311.127 353.847 311.135 353.694 311.135C353.202 311.135 352.868 311.01 352.692 310.76C352.516 310.506 352.429 310.178 352.429 309.776V305.621H351.579V304.76H352.429V303.008Z" fill="#828690"/>
<path d="M1.10938 4.6875V287.035" stroke="#444444"/>
<path d="M77.8375 4.6875V287.035" stroke="#444444"/>
<path d="M154.566 4.6875V287.035" stroke="#444444"/>
<path d="M231.294 4.6875V287.035" stroke="#444444"/>
<path d="M308.022 4.6875V287.035" stroke="#444444"/>
<path d="M384.75 4.6875V287.035" stroke="#444444"/>
<mask id="mask0_1_513" style="mask-type:luminance" maskUnits="userSpaceOnUse" x="-2" y="3" width="390" height="286">
<path d="M387.75 3.6875H-1.89062V288.035H387.75V3.6875Z" fill="white"/>
</mask>
<g mask="url(#mask0_1_513)">
<path d="M1.10938 287.036V39.981L55.9152 57.6278L110.721 47.0397L165.527 75.2745L220.333 39.981L275.138 71.7452L329.944 36.4517L384.75 68.2158V287.036" fill="url(#paint0_linear_1_513)"/>
</g>
<mask id="mask1_1_513" style="mask-type:luminance" maskUnits="userSpaceOnUse" x="-2" y="3" width="390" height="286">
<path d="M387.75 3.6875H-1.89062V288.035H387.75V3.6875Z" fill="white"/>
</mask>
<g mask="url(#mask1_1_513)">
<path d="M1.10938 39.981L55.9152 57.6278L110.721 47.0397L165.527 75.2745L220.333 39.981L275.138 71.7452L329.944 36.4517L384.75 68.2158" stroke="#0D99FF" stroke-width="2"/>
</g>
<defs>
<linearGradient id="paint0_linear_1_513" x1="1.10938" y1="36.4517" x2="1.10938" y2="287.036" gradientUnits="userSpaceOnUse">
<stop offset="0.006" stop-opacity="0.15"/>
<stop offset="1" stop-color="white" stop-opacity="0"/>
</linearGradient>
</defs>
</svg>
