<svg width="797" height="301" viewBox="0 0 797 301" fill="none" xmlns="http://www.w3.org/2000/svg">
<g clip-path="url(#clip0_1_168)">
<path d="M61.6872 258.45C61.6872 259.237 61.5708 259.848 61.338 260.284C60.9064 261.08 60.0854 261.478 58.8752 261.478C58.1769 261.478 57.5802 261.289 57.0851 260.913C56.59 260.532 56.3424 259.857 56.3424 258.888V258.221H57.5294V258.888C57.5294 259.396 57.6416 259.778 57.8659 260.037C58.0944 260.291 58.4477 260.417 58.9259 260.417C59.5988 260.417 60.0389 260.187 60.2462 259.726C60.3732 259.442 60.4367 258.907 60.4367 258.12V251.905H61.6872V258.45ZM64.3341 259.421C64.3341 259.751 64.4547 260.011 64.696 260.202C64.9372 260.392 65.2228 260.487 65.5529 260.487C65.9549 260.487 66.3442 260.394 66.7209 260.208C67.3556 259.899 67.673 259.393 67.673 258.691V257.771C67.5334 257.859 67.3535 257.933 67.1335 257.993C66.9134 258.052 66.6976 258.094 66.486 258.12L65.7941 258.208C65.3794 258.264 65.0683 258.35 64.861 258.469C64.5098 258.668 64.3341 258.985 64.3341 259.421ZM67.1017 257.11C67.3641 257.076 67.5397 256.966 67.6286 256.78C67.6794 256.679 67.7047 256.533 67.7047 256.342C67.7047 255.953 67.5651 255.672 67.2858 255.498C67.0107 255.32 66.6151 255.231 66.0988 255.231C65.5021 255.231 65.0789 255.392 64.8293 255.714C64.6896 255.892 64.5986 256.156 64.5563 256.507H63.4899C63.5111 255.669 63.7819 255.088 64.3024 254.762C64.8271 254.432 65.4344 254.267 66.1242 254.267C66.924 254.267 67.5736 254.419 68.0729 254.724C68.568 255.028 68.8156 255.502 68.8156 256.146V260.062C68.8156 260.181 68.8389 260.276 68.8854 260.348C68.9362 260.42 69.0399 260.456 69.1964 260.456C69.2472 260.456 69.3044 260.453 69.3678 260.449C69.4313 260.441 69.499 260.43 69.571 260.417V261.262C69.3932 261.312 69.2578 261.344 69.1647 261.357C69.0716 261.37 68.9447 261.376 68.7838 261.376C68.3903 261.376 68.1046 261.236 67.9269 260.957C67.8338 260.809 67.7682 260.599 67.7301 260.329C67.4974 260.633 67.1631 260.898 66.7272 261.122C66.2913 261.346 65.811 261.458 65.2863 261.458C64.6558 261.458 64.1395 261.268 63.7375 260.887C63.3397 260.502 63.1408 260.022 63.1408 259.446C63.1408 258.816 63.3376 258.327 63.7311 257.98C64.1247 257.633 64.6409 257.419 65.2799 257.339L67.1017 257.11ZM70.6945 254.432H71.7799V255.396C72.1016 254.999 72.4422 254.713 72.8019 254.54C73.1616 254.366 73.5615 254.279 74.0016 254.279C74.9665 254.279 75.6182 254.616 75.9567 255.289C76.1429 255.657 76.236 256.184 76.236 256.869V261.23H75.0744V256.945C75.0744 256.531 75.013 256.196 74.8903 255.942C74.6872 255.519 74.319 255.308 73.7858 255.308C73.515 255.308 73.2928 255.335 73.1193 255.39C72.8061 255.483 72.5311 255.669 72.2941 255.949C72.1037 256.173 71.9788 256.406 71.9196 256.647C71.8646 256.884 71.8371 257.225 71.8371 257.669V261.23H70.6945V254.432Z" fill="#828690"/>
<path d="M120.024 251.905H126.492V253.048H121.287V255.879H125.864V256.99H121.287V261.23H120.024V251.905ZM130.529 254.279C131.012 254.279 131.479 254.394 131.932 254.622C132.385 254.846 132.73 255.138 132.967 255.498C133.195 255.841 133.348 256.241 133.424 256.698C133.492 257.011 133.525 257.51 133.525 258.196H128.542C128.564 258.886 128.727 259.44 129.031 259.859C129.336 260.274 129.808 260.481 130.447 260.481C131.043 260.481 131.52 260.284 131.875 259.891C132.078 259.662 132.222 259.398 132.307 259.097H133.43C133.401 259.347 133.301 259.626 133.132 259.935C132.967 260.24 132.781 260.489 132.573 260.684C132.226 261.023 131.797 261.251 131.285 261.37C131.01 261.437 130.699 261.471 130.352 261.471C129.505 261.471 128.788 261.164 128.2 260.551C127.611 259.933 127.317 259.07 127.317 257.961C127.317 256.869 127.614 255.983 128.206 255.301C128.799 254.62 129.573 254.279 130.529 254.279ZM132.351 257.288C132.305 256.793 132.197 256.397 132.027 256.101C131.714 255.551 131.192 255.276 130.459 255.276C129.935 255.276 129.495 255.466 129.139 255.847C128.784 256.224 128.595 256.704 128.574 257.288H132.351ZM134.846 251.874H135.957V255.257C136.206 254.931 136.505 254.683 136.852 254.514C137.199 254.341 137.575 254.254 137.981 254.254C138.828 254.254 139.513 254.546 140.038 255.13C140.567 255.71 140.832 256.567 140.832 257.701C140.832 258.776 140.571 259.668 140.051 260.379C139.53 261.09 138.809 261.446 137.886 261.446C137.37 261.446 136.934 261.321 136.579 261.071C136.367 260.923 136.141 260.686 135.899 260.36V261.23H134.846V251.874ZM137.816 260.437C138.434 260.437 138.896 260.191 139.2 259.7C139.509 259.209 139.664 258.562 139.664 257.758C139.664 257.043 139.509 256.45 139.2 255.98C138.896 255.511 138.445 255.276 137.848 255.276C137.328 255.276 136.871 255.468 136.477 255.854C136.088 256.239 135.893 256.873 135.893 257.758C135.893 258.397 135.973 258.915 136.134 259.313C136.435 260.062 136.995 260.437 137.816 260.437Z" fill="#828690"/>
<path d="M183.401 251.905H185.21L187.888 259.789L190.548 251.905H192.338V261.23H191.138V255.727C191.138 255.536 191.143 255.221 191.151 254.781C191.16 254.341 191.164 253.869 191.164 253.365L188.504 261.23H187.254L184.575 253.365V253.651C184.575 253.879 184.579 254.229 184.588 254.698C184.6 255.164 184.607 255.507 184.607 255.727V261.23H183.401V251.905ZM194.985 259.421C194.985 259.751 195.106 260.011 195.347 260.202C195.588 260.392 195.874 260.487 196.204 260.487C196.606 260.487 196.995 260.394 197.372 260.208C198.007 259.899 198.324 259.393 198.324 258.691V257.771C198.184 257.859 198.005 257.933 197.784 257.993C197.564 258.052 197.349 258.094 197.137 258.12L196.445 258.208C196.03 258.264 195.719 258.35 195.512 258.469C195.161 258.668 194.985 258.985 194.985 259.421ZM197.753 257.11C198.015 257.076 198.191 256.966 198.28 256.78C198.33 256.679 198.356 256.533 198.356 256.342C198.356 255.953 198.216 255.672 197.937 255.498C197.662 255.32 197.266 255.231 196.75 255.231C196.153 255.231 195.73 255.392 195.48 255.714C195.341 255.892 195.25 256.156 195.207 256.507H194.141C194.162 255.669 194.433 255.088 194.953 254.762C195.478 254.432 196.085 254.267 196.775 254.267C197.575 254.267 198.225 254.419 198.724 254.724C199.219 255.028 199.467 255.502 199.467 256.146V260.062C199.467 260.181 199.49 260.276 199.536 260.348C199.587 260.42 199.691 260.456 199.847 260.456C199.898 260.456 199.955 260.453 200.019 260.449C200.082 260.441 200.15 260.43 200.222 260.417V261.262C200.044 261.312 199.909 261.344 199.816 261.357C199.723 261.37 199.596 261.376 199.435 261.376C199.041 261.376 198.756 261.236 198.578 260.957C198.485 260.809 198.419 260.599 198.381 260.329C198.148 260.633 197.814 260.898 197.378 261.122C196.942 261.346 196.462 261.458 195.937 261.458C195.307 261.458 194.791 261.268 194.388 260.887C193.991 260.502 193.792 260.022 193.792 259.446C193.792 258.816 193.989 258.327 194.382 257.98C194.776 257.633 195.292 257.419 195.931 257.339L197.753 257.11ZM201.377 254.432H202.463V255.606C202.552 255.377 202.77 255.1 203.117 254.774C203.464 254.444 203.863 254.279 204.316 254.279C204.337 254.279 204.373 254.281 204.424 254.286C204.475 254.29 204.562 254.298 204.684 254.311V255.517C204.617 255.504 204.553 255.496 204.494 255.492C204.439 255.487 204.378 255.485 204.31 255.485C203.734 255.485 203.292 255.672 202.983 256.044C202.674 256.412 202.52 256.837 202.52 257.32V261.23H201.377V254.432Z" fill="#828690"/>
<path d="M252.814 257.409L251.399 253.289L249.894 257.409H252.814ZM250.738 251.905H252.167L255.55 261.23H254.166L253.22 258.437H249.532L248.523 261.23H247.228L250.738 251.905ZM259.416 260.462C259.949 260.462 260.391 260.24 260.742 259.795C261.098 259.347 261.276 258.678 261.276 257.79C261.276 257.248 261.197 256.782 261.041 256.393C260.744 255.644 260.203 255.27 259.416 255.27C258.624 255.27 258.083 255.665 257.791 256.457C257.634 256.88 257.556 257.417 257.556 258.069C257.556 258.594 257.634 259.04 257.791 259.408C258.087 260.111 258.629 260.462 259.416 260.462ZM256.458 254.463H257.568V255.365C257.797 255.056 258.047 254.817 258.318 254.647C258.703 254.394 259.155 254.267 259.676 254.267C260.446 254.267 261.1 254.563 261.637 255.155C262.175 255.743 262.443 256.586 262.443 257.682C262.443 259.163 262.056 260.221 261.282 260.855C260.791 261.257 260.22 261.458 259.568 261.458C259.056 261.458 258.626 261.346 258.279 261.122C258.076 260.995 257.85 260.777 257.6 260.468V263.94H256.458V254.463ZM263.815 254.432H264.9V255.606C264.989 255.377 265.207 255.1 265.554 254.774C265.901 254.444 266.301 254.279 266.754 254.279C266.775 254.279 266.811 254.281 266.861 254.286C266.912 254.29 266.999 254.298 267.122 254.311V255.517C267.054 255.504 266.991 255.496 266.931 255.492C266.876 255.487 266.815 255.485 266.747 255.485C266.172 255.485 265.729 255.672 265.421 256.044C265.112 256.412 264.957 256.837 264.957 257.32V261.23H263.815V254.432Z" fill="#828690"/>
<path d="M309.348 251.905H311.157L313.836 259.789L316.496 251.905H318.286V261.23H317.086V255.727C317.086 255.536 317.09 255.221 317.099 254.781C317.107 254.341 317.111 253.869 317.111 253.365L314.452 261.23H313.201L310.522 253.365V253.651C310.522 253.879 310.527 254.229 310.535 254.698C310.548 255.164 310.554 255.507 310.554 255.727V261.23H309.348V251.905ZM320.933 259.421C320.933 259.751 321.053 260.011 321.294 260.202C321.536 260.392 321.821 260.487 322.151 260.487C322.553 260.487 322.943 260.394 323.319 260.208C323.954 259.899 324.271 259.393 324.271 258.691V257.771C324.132 257.859 323.952 257.933 323.732 257.993C323.512 258.052 323.296 258.094 323.084 258.12L322.393 258.208C321.978 258.264 321.667 258.35 321.459 258.469C321.108 258.668 320.933 258.985 320.933 259.421ZM323.7 257.11C323.963 257.076 324.138 256.966 324.227 256.78C324.278 256.679 324.303 256.533 324.303 256.342C324.303 255.953 324.164 255.672 323.884 255.498C323.609 255.32 323.214 255.231 322.697 255.231C322.101 255.231 321.677 255.392 321.428 255.714C321.288 255.892 321.197 256.156 321.155 256.507H320.088C320.11 255.669 320.38 255.088 320.901 254.762C321.426 254.432 322.033 254.267 322.723 254.267C323.522 254.267 324.172 254.419 324.671 254.724C325.167 255.028 325.414 255.502 325.414 256.146V260.062C325.414 260.181 325.437 260.276 325.484 260.348C325.535 260.42 325.638 260.456 325.795 260.456C325.846 260.456 325.903 260.453 325.966 260.449C326.03 260.441 326.097 260.43 326.169 260.417V261.262C325.992 261.312 325.856 261.344 325.763 261.357C325.67 261.37 325.543 261.376 325.382 261.376C324.989 261.376 324.703 261.236 324.525 260.957C324.432 260.809 324.367 260.599 324.329 260.329C324.096 260.633 323.762 260.898 323.326 261.122C322.89 261.346 322.41 261.458 321.885 261.458C321.254 261.458 320.738 261.268 320.336 260.887C319.938 260.502 319.739 260.022 319.739 259.446C319.739 258.816 319.936 258.327 320.33 257.98C320.723 257.633 321.239 257.419 321.878 257.339L323.7 257.11ZM331.54 254.432H332.803C332.642 254.868 332.284 255.862 331.73 257.415C331.315 258.583 330.968 259.535 330.689 260.271C330.029 262.007 329.563 263.064 329.292 263.445C329.022 263.826 328.556 264.017 327.896 264.017C327.735 264.017 327.61 264.01 327.521 263.998C327.437 263.985 327.331 263.962 327.204 263.928V262.887C327.403 262.942 327.547 262.976 327.636 262.988C327.725 263.001 327.803 263.007 327.871 263.007C328.082 263.007 328.237 262.971 328.334 262.899C328.436 262.832 328.52 262.747 328.588 262.646C328.609 262.612 328.685 262.438 328.816 262.125C328.948 261.812 329.043 261.579 329.102 261.427L326.588 254.432H327.883L329.705 259.967L331.54 254.432Z" fill="#828690"/>
<path d="M379.269 258.45C379.269 259.237 379.153 259.848 378.92 260.284C378.489 261.08 377.668 261.478 376.457 261.478C375.759 261.478 375.162 261.289 374.667 260.913C374.172 260.532 373.925 259.857 373.925 258.888V258.221H375.112V258.888C375.112 259.396 375.224 259.778 375.448 260.037C375.677 260.291 376.03 260.417 376.508 260.417C377.181 260.417 377.621 260.187 377.828 259.726C377.955 259.442 378.019 258.907 378.019 258.12V251.905H379.269V258.45ZM382.183 254.432V258.945C382.183 259.292 382.238 259.575 382.348 259.795C382.551 260.202 382.93 260.405 383.484 260.405C384.28 260.405 384.821 260.049 385.109 259.338C385.266 258.958 385.344 258.435 385.344 257.771V254.432H386.487V261.23H385.408L385.42 260.227C385.272 260.485 385.088 260.703 384.868 260.881C384.432 261.236 383.903 261.414 383.281 261.414C382.312 261.414 381.652 261.09 381.301 260.443C381.11 260.096 381.015 259.632 381.015 259.053V254.432H382.183ZM388.277 254.432H389.362V255.396C389.684 254.999 390.024 254.713 390.384 254.54C390.744 254.366 391.144 254.279 391.584 254.279C392.549 254.279 393.2 254.616 393.539 255.289C393.725 255.657 393.818 256.184 393.818 256.869V261.23H392.657V256.945C392.657 256.531 392.595 256.196 392.472 255.942C392.269 255.519 391.901 255.308 391.368 255.308C391.097 255.308 390.875 255.335 390.701 255.39C390.388 255.483 390.113 255.669 389.876 255.949C389.686 256.173 389.561 256.406 389.502 256.647C389.447 256.884 389.419 257.225 389.419 257.669V261.23H388.277V254.432Z" fill="#828690"/>
<path d="M444.957 258.45C444.957 259.237 444.84 259.848 444.608 260.284C444.176 261.08 443.355 261.478 442.145 261.478C441.446 261.478 440.85 261.289 440.355 260.913C439.859 260.532 439.612 259.857 439.612 258.888V258.221H440.799V258.888C440.799 259.396 440.911 259.778 441.135 260.037C441.364 260.291 441.717 260.417 442.195 260.417C442.868 260.417 443.308 260.187 443.516 259.726C443.643 259.442 443.706 258.907 443.706 258.12V251.905H444.957V258.45ZM447.87 254.432V258.945C447.87 259.292 447.925 259.575 448.035 259.795C448.238 260.202 448.617 260.405 449.172 260.405C449.967 260.405 450.509 260.049 450.797 259.338C450.953 258.958 451.031 258.435 451.031 257.771V254.432H452.174V261.23H451.095L451.108 260.227C450.959 260.485 450.775 260.703 450.555 260.881C450.119 261.236 449.59 261.414 448.968 261.414C447.999 261.414 447.339 261.09 446.988 260.443C446.797 260.096 446.702 259.632 446.702 259.053V254.432H447.87ZM453.996 251.905H455.138V261.23H453.996V251.905Z" fill="#828690"/>
<path d="M504.926 257.409L503.511 253.289L502.006 257.409H504.926ZM502.851 251.905H504.279L507.662 261.23H506.278L505.333 258.437H501.645L500.635 261.23H499.34L502.851 251.905ZM509.801 254.432V258.945C509.801 259.292 509.856 259.575 509.966 259.795C510.169 260.202 510.548 260.405 511.103 260.405C511.898 260.405 512.44 260.049 512.728 259.338C512.884 258.958 512.962 258.435 512.962 257.771V254.432H514.105V261.23H513.026L513.039 260.227C512.89 260.485 512.706 260.703 512.486 260.881C512.05 261.236 511.521 261.414 510.899 261.414C509.93 261.414 509.27 261.09 508.919 260.443C508.729 260.096 508.633 259.632 508.633 259.053V254.432H509.801ZM518.294 254.311C518.828 254.311 519.293 254.442 519.691 254.705C519.907 254.853 520.127 255.069 520.351 255.352V254.495H521.405V260.678C521.405 261.541 521.278 262.222 521.024 262.722C520.55 263.644 519.655 264.105 518.339 264.105C517.607 264.105 516.991 263.94 516.492 263.61C515.992 263.285 515.713 262.772 515.654 262.074H516.815C516.87 262.379 516.98 262.614 517.146 262.779C517.404 263.033 517.81 263.16 518.364 263.16C519.24 263.16 519.814 262.851 520.084 262.233C520.245 261.869 520.319 261.219 520.307 260.284C520.078 260.631 519.803 260.889 519.481 261.059C519.16 261.228 518.735 261.312 518.206 261.312C517.469 261.312 516.824 261.052 516.27 260.532C515.719 260.007 515.444 259.142 515.444 257.936C515.444 256.797 515.722 255.909 516.276 255.27C516.834 254.631 517.507 254.311 518.294 254.311ZM520.351 257.802C520.351 256.96 520.178 256.336 519.831 255.93C519.484 255.523 519.041 255.32 518.504 255.32C517.7 255.32 517.15 255.697 516.854 256.45C516.697 256.852 516.619 257.379 516.619 258.031C516.619 258.797 516.773 259.381 517.082 259.783C517.395 260.181 517.814 260.379 518.339 260.379C519.16 260.379 519.737 260.009 520.072 259.269C520.258 258.85 520.351 258.361 520.351 257.802Z" fill="#828690"/>
<path d="M564.482 258.221C564.511 258.75 564.636 259.18 564.856 259.51C565.275 260.128 566.014 260.437 567.072 260.437C567.545 260.437 567.977 260.369 568.366 260.233C569.12 259.971 569.496 259.501 569.496 258.824C569.496 258.316 569.338 257.955 569.02 257.739C568.699 257.527 568.195 257.343 567.51 257.187L566.246 256.901C565.421 256.715 564.837 256.509 564.494 256.285C563.902 255.896 563.606 255.314 563.606 254.54C563.606 253.702 563.896 253.014 564.475 252.477C565.055 251.939 565.876 251.67 566.938 251.67C567.916 251.67 568.745 251.907 569.427 252.381C570.112 252.851 570.455 253.604 570.455 254.641H569.268C569.204 254.142 569.069 253.759 568.862 253.492C568.476 253.006 567.823 252.762 566.9 252.762C566.155 252.762 565.62 252.919 565.294 253.232C564.968 253.545 564.805 253.909 564.805 254.324C564.805 254.781 564.996 255.115 565.377 255.327C565.626 255.462 566.191 255.631 567.072 255.834L568.379 256.133C569.01 256.277 569.496 256.473 569.839 256.723C570.432 257.159 570.728 257.792 570.728 258.621C570.728 259.654 570.351 260.392 569.598 260.836C568.849 261.281 567.977 261.503 566.983 261.503C565.823 261.503 564.915 261.207 564.26 260.614C563.604 260.026 563.282 259.228 563.295 258.221H564.482ZM575.006 254.279C575.489 254.279 575.956 254.394 576.409 254.622C576.862 254.846 577.207 255.138 577.444 255.498C577.672 255.841 577.824 256.241 577.901 256.698C577.968 257.011 578.002 257.51 578.002 258.196H573.019C573.04 258.886 573.203 259.44 573.508 259.859C573.813 260.274 574.285 260.481 574.924 260.481C575.52 260.481 575.996 260.284 576.352 259.891C576.555 259.662 576.699 259.398 576.783 259.097H577.907C577.877 259.347 577.778 259.626 577.609 259.935C577.444 260.24 577.257 260.489 577.05 260.684C576.703 261.023 576.274 261.251 575.761 261.37C575.486 261.437 575.175 261.471 574.828 261.471C573.982 261.471 573.265 261.164 572.677 260.551C572.088 259.933 571.794 259.07 571.794 257.961C571.794 256.869 572.09 255.983 572.683 255.301C573.275 254.62 574.05 254.279 575.006 254.279ZM576.828 257.288C576.781 256.793 576.673 256.397 576.504 256.101C576.191 255.551 575.668 255.276 574.936 255.276C574.412 255.276 573.971 255.466 573.616 255.847C573.26 256.224 573.072 256.704 573.051 257.288H576.828ZM582.281 260.462C582.814 260.462 583.256 260.24 583.607 259.795C583.963 259.347 584.14 258.678 584.14 257.79C584.14 257.248 584.062 256.782 583.906 256.393C583.609 255.644 583.068 255.27 582.281 255.27C581.489 255.27 580.948 255.665 580.656 256.457C580.499 256.88 580.421 257.417 580.421 258.069C580.421 258.594 580.499 259.04 580.656 259.408C580.952 260.111 581.493 260.462 582.281 260.462ZM579.323 254.463H580.433V255.365C580.662 255.056 580.912 254.817 581.182 254.647C581.567 254.394 582.02 254.267 582.541 254.267C583.311 254.267 583.965 254.563 584.502 255.155C585.04 255.743 585.308 256.586 585.308 257.682C585.308 259.163 584.921 260.221 584.147 260.855C583.656 261.257 583.085 261.458 582.433 261.458C581.921 261.458 581.491 261.346 581.144 261.122C580.941 260.995 580.715 260.777 580.465 260.468V263.94H579.323V254.463Z" fill="#828690"/>
<path d="M633.151 251.651C634.797 251.651 636.016 252.18 636.807 253.238C637.425 254.063 637.734 255.119 637.734 256.406C637.734 257.798 637.381 258.955 636.674 259.878C635.845 260.961 634.662 261.503 633.126 261.503C631.691 261.503 630.563 261.029 629.742 260.081C629.01 259.167 628.644 258.012 628.644 256.615C628.644 255.354 628.957 254.275 629.584 253.378C630.388 252.227 631.577 251.651 633.151 251.651ZM633.278 260.373C634.391 260.373 635.195 259.975 635.69 259.18C636.189 258.38 636.439 257.462 636.439 256.425C636.439 255.329 636.151 254.446 635.576 253.778C635.005 253.109 634.222 252.775 633.227 252.775C632.262 252.775 631.475 253.107 630.866 253.771C630.256 254.432 629.952 255.407 629.952 256.698C629.952 257.73 630.212 258.602 630.733 259.313C631.257 260.02 632.106 260.373 633.278 260.373ZM641.714 254.235C642.48 254.235 643.102 254.421 643.58 254.793C644.063 255.166 644.352 255.807 644.45 256.717H643.339C643.271 256.298 643.117 255.951 642.876 255.676C642.634 255.396 642.247 255.257 641.714 255.257C640.986 255.257 640.466 255.612 640.152 256.323C639.949 256.785 639.848 257.354 639.848 258.031C639.848 258.712 639.992 259.285 640.279 259.751C640.567 260.216 641.02 260.449 641.638 260.449C642.112 260.449 642.486 260.305 642.761 260.018C643.041 259.726 643.233 259.328 643.339 258.824H644.45C644.323 259.726 644.005 260.386 643.498 260.805C642.99 261.219 642.34 261.427 641.549 261.427C640.66 261.427 639.951 261.103 639.422 260.456C638.894 259.804 638.629 258.991 638.629 258.018C638.629 256.825 638.919 255.896 639.499 255.231C640.078 254.567 640.817 254.235 641.714 254.235ZM645.821 252.534H646.976V254.432H648.062V255.365H646.976V259.802C646.976 260.039 647.057 260.197 647.217 260.278C647.306 260.324 647.454 260.348 647.662 260.348C647.717 260.348 647.776 260.348 647.839 260.348C647.903 260.343 647.977 260.337 648.062 260.329V261.23C647.93 261.268 647.793 261.296 647.649 261.312C647.509 261.329 647.357 261.338 647.192 261.338C646.659 261.338 646.297 261.202 646.107 260.932C645.916 260.657 645.821 260.301 645.821 259.865V255.365H644.901V254.432H645.821V252.534Z" fill="#828690"/>
<path d="M690.696 251.905H692.188L696.897 259.459V251.905H698.097V261.23H696.682L691.902 253.683V261.23H690.696V251.905ZM702.636 260.494C703.393 260.494 703.912 260.208 704.191 259.637C704.474 259.061 704.616 258.422 704.616 257.72C704.616 257.085 704.515 256.569 704.312 256.171C703.99 255.545 703.436 255.231 702.648 255.231C701.95 255.231 701.442 255.498 701.125 256.031C700.808 256.564 700.649 257.208 700.649 257.961C700.649 258.685 700.808 259.288 701.125 259.77C701.442 260.252 701.946 260.494 702.636 260.494ZM702.68 254.235C703.556 254.235 704.297 254.527 704.902 255.111C705.507 255.695 705.81 256.554 705.81 257.688C705.81 258.784 705.543 259.69 705.01 260.405C704.477 261.12 703.649 261.478 702.528 261.478C701.593 261.478 700.85 261.162 700.3 260.532C699.75 259.897 699.475 259.046 699.475 257.98C699.475 256.837 699.764 255.928 700.344 255.25C700.924 254.573 701.703 254.235 702.68 254.235ZM707.733 254.432L709.548 259.967L711.446 254.432H712.697L710.132 261.23H708.914L706.406 254.432H707.733Z" fill="#828690"/>
<path d="M757.792 260.151C758.22 260.151 758.571 260.106 758.846 260.018C759.337 259.853 759.739 259.535 760.052 259.065C760.302 258.689 760.482 258.206 760.592 257.618C760.655 257.267 760.687 256.941 760.687 256.641C760.687 255.485 760.456 254.588 759.995 253.949C759.538 253.31 758.799 252.991 757.78 252.991H755.539V260.151H757.792ZM754.269 251.905H758.046C759.328 251.905 760.323 252.36 761.03 253.27C761.66 254.091 761.975 255.143 761.975 256.425C761.975 257.415 761.789 258.31 761.417 259.11C760.761 260.523 759.633 261.23 758.033 261.23H754.269V251.905ZM766.285 254.279C766.768 254.279 767.235 254.394 767.688 254.622C768.141 254.846 768.486 255.138 768.723 255.498C768.951 255.841 769.104 256.241 769.18 256.698C769.248 257.011 769.281 257.51 769.281 258.196H764.299C764.32 258.886 764.483 259.44 764.787 259.859C765.092 260.274 765.564 260.481 766.203 260.481C766.8 260.481 767.276 260.284 767.631 259.891C767.834 259.662 767.978 259.398 768.063 259.097H769.186C769.157 259.347 769.057 259.626 768.888 259.935C768.723 260.24 768.537 260.489 768.329 260.684C767.982 261.023 767.553 261.251 767.041 261.37C766.766 261.437 766.455 261.471 766.108 261.471C765.261 261.471 764.544 261.164 763.956 260.551C763.368 259.933 763.073 259.07 763.073 257.961C763.073 256.869 763.37 255.983 763.962 255.301C764.555 254.62 765.329 254.279 766.285 254.279ZM768.107 257.288C768.061 256.793 767.953 256.397 767.783 256.101C767.47 255.551 766.948 255.276 766.216 255.276C765.691 255.276 765.251 255.466 764.895 255.847C764.54 256.224 764.351 256.704 764.33 257.288H768.107ZM773.312 254.235C774.078 254.235 774.7 254.421 775.178 254.793C775.661 255.166 775.951 255.807 776.048 256.717H774.937C774.87 256.298 774.715 255.951 774.474 255.676C774.233 255.396 773.845 255.257 773.312 255.257C772.584 255.257 772.064 255.612 771.751 256.323C771.548 256.785 771.446 257.354 771.446 258.031C771.446 258.712 771.59 259.285 771.878 259.751C772.165 260.216 772.618 260.449 773.236 260.449C773.71 260.449 774.085 260.305 774.36 260.018C774.639 259.726 774.831 259.328 774.937 258.824H776.048C775.921 259.726 775.604 260.386 775.096 260.805C774.588 261.219 773.939 261.427 773.147 261.427C772.259 261.427 771.55 261.103 771.021 260.456C770.492 259.804 770.227 258.991 770.227 258.018C770.227 256.825 770.517 255.896 771.097 255.231C771.677 254.567 772.415 254.235 773.312 254.235Z" fill="#828690"/>
<path d="M53.2031 238.23H777.691" stroke="#444444"/>
<path d="M53.2031 30.5H777.691" stroke="#444444"/>
<path d="M53.2031 82.1825H777.691" stroke="#444444"/>
<path d="M53.2031 133.865H777.691" stroke="#444444"/>
<path d="M53.2031 185.547H777.691" stroke="#444444"/>
<path d="M53.2031 237.23H777.691" stroke="#444444"/>
<path d="M66.1066 238.23V244.23" stroke="#444444"/>
<path d="M129.623 238.23V244.23" stroke="#444444"/>
<path d="M193.139 238.23V244.23" stroke="#444444"/>
<path d="M256.656 238.23V244.23" stroke="#444444"/>
<path d="M320.172 238.23V244.23" stroke="#444444"/>
<path d="M383.689 238.23V244.23" stroke="#444444"/>
<path d="M447.205 238.23V244.23" stroke="#444444"/>
<path d="M510.722 238.23V244.23" stroke="#444444"/>
<path d="M574.238 238.23V244.23" stroke="#444444"/>
<path d="M637.755 238.23V244.23" stroke="#444444"/>
<path d="M701.271 238.23V244.23" stroke="#444444"/>
<path d="M764.787 238.23V244.23" stroke="#444444"/>
<path d="M66.1066 237.23H764.787" stroke="#444444"/>
<path d="M66.1066 31.5V237.23" stroke="#444444"/>
<mask id="mask0_1_168" style="mask-type:luminance" maskUnits="userSpaceOnUse" x="50" y="30" width="731" height="208">
<path d="M780.191 30H50.7031V237.73H780.191V30Z" fill="white"/>
</mask>
<g mask="url(#mask0_1_168)">
<path d="M66.1066 237.23V146.269L129.623 102.855L193.139 123.528L256.656 82.1825L320.172 144.201L383.689 123.528L447.205 154.538L510.722 113.192L574.238 82.1825L637.754 144.201L701.271 133.865L764.787 150.403V237.23" fill="url(#paint0_linear_1_168)"/>
</g>
<mask id="mask1_1_168" style="mask-type:luminance" maskUnits="userSpaceOnUse" x="50" y="30" width="731" height="208">
<path d="M780.191 30H50.7031V237.73H780.191V30Z" fill="white"/>
</mask>
<g mask="url(#mask1_1_168)">
<path d="M66.1066 146.269L129.623 102.855L193.139 123.528L256.656 82.1825L320.172 144.201L383.689 123.528L447.205 154.538L510.722 113.192L574.238 82.1825L637.754 144.201L701.271 133.865L764.787 150.403" stroke="#3AC977"/>
</g>
<mask id="mask2_1_168" style="mask-type:luminance" maskUnits="userSpaceOnUse" x="50" y="30" width="731" height="208">
<path d="M780.191 30H50.7031V237.73H780.191V30Z" fill="white"/>
</mask>
<g mask="url(#mask2_1_168)">
<path d="M60.3901 237.23V88.1825C60.3901 84.1825 62.3901 82.1825 66.3901 82.1825H65.8231C69.8231 82.1825 71.8231 84.1825 71.8231 88.1825V237.23H60.3901Z" fill="url(#paint1_linear_1_168)"/>
</g>
<mask id="mask3_1_168" style="mask-type:luminance" maskUnits="userSpaceOnUse" x="50" y="30" width="731" height="208">
<path d="M780.191 30H50.7031V237.73H780.191V30Z" fill="white"/>
</mask>
<g mask="url(#mask3_1_168)">
<path d="M123.907 237.23V67.5095C123.907 63.5095 125.907 61.5095 129.907 61.5095H129.34C133.34 61.5095 135.34 63.5095 135.34 67.5095V237.23H123.907Z" fill="url(#paint2_linear_1_168)"/>
</g>
<mask id="mask4_1_168" style="mask-type:luminance" maskUnits="userSpaceOnUse" x="50" y="30" width="731" height="208">
<path d="M780.191 30H50.7031V237.73H780.191V30Z" fill="white"/>
</mask>
<g mask="url(#mask4_1_168)">
<path d="M187.423 237.23V94.3844C187.423 90.3844 189.423 88.3844 193.423 88.3844H192.856C196.856 88.3844 198.856 90.3844 198.856 94.3844V237.23H187.423Z" fill="url(#paint3_linear_1_168)"/>
</g>
<mask id="mask5_1_168" style="mask-type:luminance" maskUnits="userSpaceOnUse" x="50" y="30" width="731" height="208">
<path d="M780.191 30H50.7031V237.73H780.191V30Z" fill="white"/>
</mask>
<g mask="url(#mask5_1_168)">
<path d="M250.939 237.23V36.5C250.939 32.5 252.939 30.5 256.939 30.5H256.372C260.372 30.5 262.372 32.5 262.372 36.5V237.23H250.939Z" fill="url(#paint4_linear_1_168)"/>
</g>
<mask id="mask6_1_168" style="mask-type:luminance" maskUnits="userSpaceOnUse" x="50" y="30" width="731" height="208">
<path d="M780.191 30H50.7031V237.73H780.191V30Z" fill="white"/>
</mask>
<g mask="url(#mask6_1_168)">
<path d="M314.456 237.23V139.865C314.456 135.865 316.456 133.865 320.456 133.865H319.889C323.889 133.865 325.889 135.865 325.889 139.865V237.23H314.456Z" fill="url(#paint5_linear_1_168)"/>
</g>
<mask id="mask7_1_168" style="mask-type:luminance" maskUnits="userSpaceOnUse" x="50" y="30" width="731" height="208">
<path d="M780.191 30H50.7031V237.73H780.191V30Z" fill="white"/>
</mask>
<g mask="url(#mask7_1_168)">
<path d="M377.972 237.23V36.5C377.972 32.5 379.972 30.5 383.972 30.5H383.405C387.405 30.5 389.405 32.5 389.405 36.5V237.23H377.972Z" fill="url(#paint6_linear_1_168)"/>
</g>
<mask id="mask8_1_168" style="mask-type:luminance" maskUnits="userSpaceOnUse" x="50" y="30" width="731" height="208">
<path d="M780.191 30H50.7031V237.73H780.191V30Z" fill="white"/>
</mask>
<g mask="url(#mask8_1_168)">
<path d="M441.489 237.23V77.8459C441.489 73.8459 443.489 71.8459 447.489 71.8459H446.922C450.922 71.8459 452.922 73.8459 452.922 77.8459V237.23H441.489Z" fill="url(#paint7_linear_1_168)"/>
</g>
<mask id="mask9_1_168" style="mask-type:luminance" maskUnits="userSpaceOnUse" x="50" y="30" width="731" height="208">
<path d="M780.191 30H50.7031V237.73H780.191V30Z" fill="white"/>
</mask>
<g mask="url(#mask9_1_168)">
<path d="M505.005 237.23V88.1825C505.005 84.1825 507.005 82.1825 511.005 82.1825H510.438C514.438 82.1825 516.438 84.1825 516.438 88.1825V237.23H505.005Z" fill="url(#paint8_linear_1_168)"/>
</g>
<mask id="mask10_1_168" style="mask-type:luminance" maskUnits="userSpaceOnUse" x="50" y="30" width="731" height="208">
<path d="M780.191 30H50.7031V237.73H780.191V30Z" fill="white"/>
</mask>
<g mask="url(#mask10_1_168)">
<path d="M568.522 237.23V46.8365C568.522 42.8365 570.522 40.8365 574.522 40.8365H573.955C577.955 40.8365 579.955 42.8365 579.955 46.8365V237.23H568.522Z" fill="url(#paint9_linear_1_168)"/>
</g>
<mask id="mask11_1_168" style="mask-type:luminance" maskUnits="userSpaceOnUse" x="50" y="30" width="731" height="208">
<path d="M780.191 30H50.7031V237.73H780.191V30Z" fill="white"/>
</mask>
<g mask="url(#mask11_1_168)">
<path d="M632.038 237.23V170.875C632.038 166.875 634.038 164.875 638.038 164.875H637.471C641.471 164.875 643.471 166.875 643.471 170.875V237.23H632.038Z" fill="url(#paint10_linear_1_168)"/>
</g>
<mask id="mask12_1_168" style="mask-type:luminance" maskUnits="userSpaceOnUse" x="50" y="30" width="731" height="208">
<path d="M780.191 30H50.7031V237.73H780.191V30Z" fill="white"/>
</mask>
<g mask="url(#mask12_1_168)">
<path d="M695.554 237.23V88.1825C695.554 84.1825 697.554 82.1825 701.554 82.1825H700.987C704.987 82.1825 706.987 84.1825 706.987 88.1825V237.23H695.554Z" fill="url(#paint11_linear_1_168)"/>
</g>
<mask id="mask13_1_168" style="mask-type:luminance" maskUnits="userSpaceOnUse" x="50" y="30" width="731" height="208">
<path d="M780.191 30H50.7031V237.73H780.191V30Z" fill="white"/>
</mask>
<g mask="url(#mask13_1_168)">
<path d="M759.071 237.23V36.5C759.071 32.5 761.071 30.5 765.071 30.5H764.504C768.504 30.5 770.504 32.5 770.504 36.5V237.23H759.071Z" fill="url(#paint12_linear_1_168)"/>
</g>
<mask id="mask14_1_168" style="mask-type:luminance" maskUnits="userSpaceOnUse" x="50" y="30" width="731" height="208">
<path d="M780.191 30H50.7031V237.73H780.191V30Z" fill="white"/>
</mask>
<g mask="url(#mask14_1_168)">
<path d="M66.1066 175.211L129.623 185.548L193.139 144.202L256.656 175.211L320.172 185.548L383.689 164.875L447.205 195.884L510.722 144.202L574.238 164.875L637.754 195.884L701.271 164.875L764.787 195.884" stroke="url(#paint13_linear_1_168)" stroke-dasharray="5 5"/>
</g>
<path d="M18.7383 24.4635V23.5875C19.5634 23.5071 20.139 23.3738 20.4648 23.1876C20.7907 22.9972 21.034 22.5507 21.1948 21.8483H22.0962V30.9H20.8774V24.4635H18.7383ZM28.247 21.8102C29.4235 21.8102 30.2741 22.2947 30.7988 23.2638C31.205 24.0128 31.4082 25.039 31.4082 26.3424C31.4082 27.5781 31.2241 28.6001 30.8559 29.4083C30.3227 30.5678 29.451 31.1476 28.2407 31.1476C27.1489 31.1476 26.3364 30.6736 25.8032 29.7257C25.3589 28.9344 25.1367 27.8722 25.1367 26.5392C25.1367 25.5066 25.27 24.6201 25.5366 23.8795C26.0359 22.5 26.9394 21.8102 28.247 21.8102ZM28.2343 30.1066C28.8268 30.1066 29.2986 29.8442 29.6499 29.3195C30.0011 28.7947 30.1767 27.8172 30.1767 26.3868C30.1767 25.3543 30.0498 24.5058 29.7959 23.8414C29.542 23.1728 29.049 22.8385 28.3169 22.8385C27.644 22.8385 27.151 23.1559 26.8379 23.7906C26.5289 24.4212 26.3745 25.3522 26.3745 26.5836C26.3745 27.5104 26.4739 28.2552 26.6728 28.818C26.9775 29.677 27.498 30.1066 28.2343 30.1066ZM35.4834 21.8102C36.6598 21.8102 37.5104 22.2947 38.0351 23.2638C38.4414 24.0128 38.6445 25.039 38.6445 26.3424C38.6445 27.5781 38.4604 28.6001 38.0923 29.4083C37.5591 30.5678 36.6873 31.1476 35.477 31.1476C34.3852 31.1476 33.5727 30.6736 33.0395 29.7257C32.5952 28.9344 32.373 27.8722 32.373 26.5392C32.373 25.5066 32.5063 24.6201 32.7729 23.8795C33.2723 22.5 34.1758 21.8102 35.4834 21.8102ZM35.4707 30.1066C36.0631 30.1066 36.535 29.8442 36.8862 29.3195C37.2374 28.7947 37.4131 27.8172 37.4131 26.3868C37.4131 25.3543 37.2861 24.5058 37.0322 23.8414C36.7783 23.1728 36.2853 22.8385 35.5532 22.8385C34.8803 22.8385 34.3873 23.1559 34.0742 23.7906C33.7653 24.4212 33.6108 25.3522 33.6108 26.5836C33.6108 27.5104 33.7103 28.2552 33.9091 28.818C34.2138 29.677 34.7343 30.1066 35.4707 30.1066Z" fill="#828690"/>
<path d="M31.5288 73.645V74.6416C31.2368 74.9251 30.8475 75.4181 30.3608 76.1206C29.8784 76.8231 29.451 77.5806 29.0786 78.3931C28.7104 79.1844 28.4311 79.9059 28.2407 80.5576C28.118 80.9766 27.9593 81.6515 27.7646 82.5825H26.5014C26.7892 80.8475 27.424 79.1209 28.4057 77.4028C28.9855 76.3957 29.5949 75.526 30.2339 74.7939H25.2065V73.645H31.5288ZM33.5727 80.2656C33.6489 80.9173 33.9515 81.368 34.4804 81.6177C34.7513 81.7446 35.0644 81.8081 35.4199 81.8081C36.097 81.8081 36.5984 81.5923 36.9243 81.1606C37.2501 80.729 37.4131 80.2508 37.4131 79.7261C37.4131 79.0913 37.2184 78.6004 36.8291 78.2534C36.444 77.9064 35.9806 77.7329 35.4389 77.7329C35.0454 77.7329 34.7068 77.8091 34.4233 77.9614C34.144 78.1138 33.9049 78.3254 33.706 78.5962L32.7158 78.5391L33.4077 73.645H38.1303V74.7495H34.2646L33.8774 77.2759C34.089 77.1151 34.29 76.9945 34.4804 76.9141C34.819 76.7744 35.2104 76.7046 35.6548 76.7046C36.4884 76.7046 37.1951 76.9733 37.7749 77.5107C38.3546 78.0482 38.6445 78.7295 38.6445 79.5547C38.6445 80.4137 38.3779 81.1712 37.8447 81.8271C37.3157 82.4831 36.4694 82.811 35.3056 82.811C34.5651 82.811 33.9091 82.6037 33.3379 82.189C32.7708 81.77 32.4534 81.1289 32.3857 80.2656H33.5727Z" fill="#828690"/>
<path d="M26.3364 131.948C26.4126 132.6 26.7151 133.05 27.2441 133.3C27.5149 133.427 27.8281 133.491 28.1836 133.491C28.8606 133.491 29.3621 133.275 29.688 132.843C30.0138 132.411 30.1767 131.933 30.1767 131.409C30.1767 130.774 29.9821 130.283 29.5927 129.936C29.2077 129.589 28.7443 129.415 28.2026 129.415C27.8091 129.415 27.4705 129.492 27.187 129.644C26.9077 129.796 26.6686 130.008 26.4697 130.279L25.4795 130.222L26.1714 125.328H30.894V126.432H27.0283L26.6411 128.958C26.8527 128.798 27.0537 128.677 27.2441 128.597C27.5827 128.457 27.9741 128.387 28.4184 128.387C29.2521 128.387 29.9588 128.656 30.5385 129.193C31.1183 129.731 31.4082 130.412 31.4082 131.237C31.4082 132.096 31.1416 132.854 30.6084 133.51C30.0794 134.166 29.233 134.494 28.0693 134.494C27.3287 134.494 26.6728 134.286 26.1015 133.871C25.5345 133.453 25.2171 132.811 25.1494 131.948H26.3364ZM35.4834 125.175C36.6598 125.175 37.5104 125.66 38.0351 126.629C38.4414 127.378 38.6445 128.404 38.6445 129.707C38.6445 130.943 38.4604 131.965 38.0923 132.773C37.5591 133.933 36.6873 134.513 35.477 134.513C34.3852 134.513 33.5727 134.039 33.0395 133.091C32.5952 132.299 32.373 131.237 32.373 129.904C32.373 128.872 32.5063 127.985 32.7729 127.245C33.2723 125.865 34.1758 125.175 35.4834 125.175ZM35.4707 133.472C36.0631 133.472 36.535 133.209 36.8862 132.684C37.2374 132.16 37.4131 131.182 37.4131 129.752C37.4131 128.719 37.2861 127.871 37.0322 127.206C36.7783 126.538 36.2853 126.203 35.5532 126.203C34.8803 126.203 34.3873 126.521 34.0742 127.156C33.7653 127.786 33.6108 128.717 33.6108 129.949C33.6108 130.875 33.7103 131.62 33.9091 132.183C34.2138 133.042 34.7343 133.472 35.4707 133.472Z" fill="#828690"/>
<path d="M25.1367 185.948C25.179 185.165 25.3398 184.483 25.6191 183.904C25.9026 183.324 26.4528 182.797 27.2695 182.323L28.4883 181.618C29.0341 181.301 29.4171 181.03 29.6372 180.806C29.9842 180.455 30.1577 180.053 30.1577 179.6C30.1577 179.071 29.999 178.652 29.6816 178.343C29.3642 178.03 28.9411 177.873 28.4121 177.873C27.6292 177.873 27.0875 178.17 26.7871 178.762C26.6263 179.079 26.5374 179.519 26.5205 180.082H25.3589C25.3716 179.291 25.5175 178.646 25.7968 178.146C26.292 177.266 27.1658 176.826 28.4184 176.826C29.4594 176.826 30.219 177.107 30.6972 177.67C31.1797 178.233 31.4209 178.859 31.4209 179.549C31.4209 180.277 31.1648 180.899 30.6528 181.415C30.3566 181.716 29.8255 182.08 29.0595 182.507L28.1899 182.99C27.7752 183.218 27.4494 183.436 27.2124 183.643C26.7892 184.011 26.5226 184.42 26.4126 184.868H31.3764V185.948H25.1367ZM33.5727 183.631C33.6489 184.282 33.9515 184.733 34.4804 184.983C34.7513 185.11 35.0644 185.173 35.4199 185.173C36.097 185.173 36.5984 184.957 36.9243 184.526C37.2501 184.094 37.4131 183.616 37.4131 183.091C37.4131 182.456 37.2184 181.965 36.8291 181.618C36.444 181.271 35.9806 181.098 35.4389 181.098C35.0454 181.098 34.7068 181.174 34.4233 181.326C34.144 181.479 33.9049 181.69 33.706 181.961L32.7158 181.904L33.4077 177.01H38.1303V178.115H34.2646L33.8774 180.641C34.089 180.48 34.29 180.359 34.4804 180.279C34.819 180.139 35.2104 180.07 35.6548 180.07C36.4884 180.07 37.1951 180.338 37.7749 180.876C38.3546 181.413 38.6445 182.094 38.6445 182.92C38.6445 183.779 38.3779 184.536 37.8447 185.192C37.3157 185.848 36.4694 186.176 35.3056 186.176C34.5651 186.176 33.9091 185.969 33.3379 185.554C32.7708 185.135 32.4534 184.494 32.3857 183.631H33.5727Z" fill="#828690"/>
<path d="M35.4834 228.54C36.6598 228.54 37.5104 229.025 38.0351 229.994C38.4414 230.743 38.6445 231.769 38.6445 233.072C38.6445 234.308 38.4604 235.33 38.0923 236.138C37.5591 237.298 36.6873 237.878 35.477 237.878C34.3852 237.878 33.5727 237.404 33.0395 236.456C32.5952 235.664 32.373 234.602 32.373 233.269C32.373 232.237 32.5063 231.35 32.7729 230.609C33.2723 229.23 34.1758 228.54 35.4834 228.54ZM35.4707 236.837C36.0631 236.837 36.535 236.574 36.8862 236.049C37.2374 235.525 37.4131 234.547 37.4131 233.117C37.4131 232.084 37.2861 231.236 37.0322 230.571C36.7783 229.903 36.2853 229.568 35.5532 229.568C34.8803 229.568 34.3873 229.886 34.0742 230.521C33.7653 231.151 33.6108 232.082 33.6108 233.314C33.6108 234.24 33.7103 234.985 33.9091 235.548C34.2138 236.407 34.7343 236.837 35.4707 236.837Z" fill="#828690"/>
</g>
<defs>
<linearGradient id="paint0_linear_1_168" x1="66.1066" y1="82.1825" x2="66.1066" y2="237.23" gradientUnits="userSpaceOnUse">
<stop stop-color="#3AC977"/>
<stop offset="0.004" stop-color="#3AC977" stop-opacity="0.15"/>
<stop offset="1" stop-color="#3AC977" stop-opacity="0"/>
</linearGradient>
<linearGradient id="paint1_linear_1_168" x1="60.3901" y1="82.1825" x2="60.3901" y2="237.23" gradientUnits="userSpaceOnUse">
<stop/>
<stop offset="1"/>
</linearGradient>
<linearGradient id="paint2_linear_1_168" x1="123.907" y1="61.5095" x2="123.907" y2="237.23" gradientUnits="userSpaceOnUse">
<stop/>
<stop offset="1"/>
</linearGradient>
<linearGradient id="paint3_linear_1_168" x1="187.423" y1="88.3844" x2="187.423" y2="237.23" gradientUnits="userSpaceOnUse">
<stop/>
<stop offset="1"/>
</linearGradient>
<linearGradient id="paint4_linear_1_168" x1="250.939" y1="30.5" x2="250.939" y2="237.23" gradientUnits="userSpaceOnUse">
<stop/>
<stop offset="1"/>
</linearGradient>
<linearGradient id="paint5_linear_1_168" x1="314.456" y1="133.865" x2="314.456" y2="237.23" gradientUnits="userSpaceOnUse">
<stop/>
<stop offset="1"/>
</linearGradient>
<linearGradient id="paint6_linear_1_168" x1="377.972" y1="30.5" x2="377.972" y2="237.23" gradientUnits="userSpaceOnUse">
<stop/>
<stop offset="1"/>
</linearGradient>
<linearGradient id="paint7_linear_1_168" x1="441.489" y1="71.8459" x2="441.489" y2="237.23" gradientUnits="userSpaceOnUse">
<stop/>
<stop offset="1"/>
</linearGradient>
<linearGradient id="paint8_linear_1_168" x1="505.005" y1="82.1825" x2="505.005" y2="237.23" gradientUnits="userSpaceOnUse">
<stop/>
<stop offset="1"/>
</linearGradient>
<linearGradient id="paint9_linear_1_168" x1="568.522" y1="40.8365" x2="568.522" y2="237.23" gradientUnits="userSpaceOnUse">
<stop/>
<stop offset="1"/>
</linearGradient>
<linearGradient id="paint10_linear_1_168" x1="632.038" y1="164.875" x2="632.038" y2="237.23" gradientUnits="userSpaceOnUse">
<stop/>
<stop offset="1"/>
</linearGradient>
<linearGradient id="paint11_linear_1_168" x1="695.554" y1="82.1825" x2="695.554" y2="237.23" gradientUnits="userSpaceOnUse">
<stop/>
<stop offset="1"/>
</linearGradient>
<linearGradient id="paint12_linear_1_168" x1="759.071" y1="30.5" x2="759.071" y2="237.23" gradientUnits="userSpaceOnUse">
<stop/>
<stop offset="1"/>
</linearGradient>
<linearGradient id="paint13_linear_1_168" x1="66.1066" y1="144.202" x2="66.1066" y2="195.884" gradientUnits="userSpaceOnUse">
<stop stop-color="#FF5E5E"/>
<stop offset="1" stop-color="#FF5E5E"/>
</linearGradient>
<clipPath id="clip0_1_168">
<rect width="796" height="300" fill="white" transform="translate(0.5 0.5)"/>
</clipPath>
</defs>
</svg>
