<svg width="251" height="188" viewBox="0 0 251 188" fill="none" xmlns="http://www.w3.org/2000/svg">
<g clip-path="url(#clip0_1_1225)">
<path d="M126.125 9.12231C139.368 9.12231 152.423 12.2563 164.223 18.2682C176.023 24.28 186.232 32.9989 194.017 43.712C201.801 54.4251 206.939 66.8283 209.01 79.9074C211.082 92.9865 210.029 106.37 205.936 118.964L197.955 116.371C201.638 105.037 202.586 92.9913 200.722 81.2201C198.857 69.4489 194.233 58.286 187.227 48.6442C180.222 39.0024 171.033 31.1554 160.413 25.7447C149.794 20.3341 138.044 17.5135 126.125 17.5135V9.12231Z" fill="#FF9F00" stroke="white" stroke-width="2"/>
<path d="M205.936 118.964C200.46 135.817 189.788 150.504 175.451 160.92C161.114 171.336 143.847 176.946 126.125 176.946C108.403 176.946 91.1361 171.336 76.7988 160.92C62.4615 150.504 51.7899 135.817 46.3135 118.964L54.2947 116.371C59.2234 131.539 68.8278 144.757 81.7314 154.132C94.635 163.506 110.175 168.555 126.125 168.555C142.075 168.555 157.615 163.506 170.519 154.132C183.422 144.757 193.027 131.539 197.955 116.371L205.936 118.964Z" fill="#0D99FF" stroke="white" stroke-width="2"/>
<path d="M46.3135 118.964C40.8372 102.111 40.8372 83.957 46.3135 67.1038C51.7899 50.2507 62.4615 35.5638 76.7988 25.1479L81.7314 31.9366C68.8278 41.3108 59.2234 54.529 54.2947 69.6969C49.366 84.8647 49.366 101.203 54.2947 116.371L46.3135 118.964Z" fill="#3AC977" stroke="white" stroke-width="2"/>
<path d="M76.7988 25.148C91.1321 14.7352 108.393 9.12541 126.11 9.12231L126.112 17.5135C110.167 17.5163 94.6313 22.5651 81.7314 31.9366L76.7988 25.148Z" fill="#FF5E5E" stroke="white" stroke-width="2"/>
<path d="M96.5464 104.034V97.0891H93.9521V96.1599H100.193V97.0891H97.5883V104.034H96.5464ZM99.5595 101.182C99.5595 100.126 99.8532 99.3432 100.44 98.8347C100.931 98.4122 101.529 98.2009 102.234 98.2009C103.019 98.2009 103.659 98.4587 104.157 98.9744C104.655 99.4864 104.904 100.195 104.904 101.101C104.904 101.835 104.793 102.414 104.571 102.836C104.352 103.255 104.032 103.581 103.609 103.814C103.19 104.046 102.732 104.163 102.234 104.163C101.436 104.163 100.79 103.907 100.295 103.395C99.8048 102.883 99.5595 102.145 99.5595 101.182ZM100.553 101.182C100.553 101.912 100.713 102.46 101.031 102.825C101.35 103.187 101.751 103.368 102.234 103.368C102.714 103.368 103.113 103.185 103.432 102.82C103.751 102.455 103.91 101.898 103.91 101.15C103.91 100.444 103.749 99.9107 103.427 99.5491C103.108 99.1838 102.711 99.0012 102.234 99.0012C101.751 99.0012 101.35 99.182 101.031 99.5437C100.713 99.9054 100.553 100.451 100.553 101.182ZM108.153 103.169L108.293 104.023C108.021 104.08 107.777 104.109 107.562 104.109C107.212 104.109 106.939 104.054 106.746 103.943C106.553 103.832 106.417 103.687 106.338 103.508C106.259 103.325 106.22 102.944 106.22 102.364V99.0818H105.511V98.3298H106.22V96.9172L107.181 96.3372V98.3298H108.153V99.0818H107.181V102.417C107.181 102.693 107.197 102.87 107.229 102.949C107.265 103.028 107.321 103.09 107.396 103.137C107.475 103.184 107.586 103.207 107.729 103.207C107.836 103.207 107.978 103.194 108.153 103.169ZM112.826 103.33C112.468 103.635 112.123 103.85 111.79 103.975C111.46 104.1 111.106 104.163 110.726 104.163C110.099 104.163 109.618 104.011 109.281 103.706C108.945 103.398 108.776 103.006 108.776 102.53C108.776 102.251 108.839 101.997 108.964 101.767C109.093 101.535 109.26 101.348 109.464 101.209C109.672 101.069 109.904 100.963 110.162 100.892C110.352 100.842 110.638 100.793 111.021 100.747C111.802 100.654 112.377 100.543 112.746 100.414C112.749 100.281 112.751 100.197 112.751 100.161C112.751 99.7675 112.66 99.49 112.477 99.3289C112.23 99.1104 111.863 99.0012 111.376 99.0012C110.921 99.0012 110.585 99.0818 110.366 99.2429C110.151 99.4005 109.992 99.6816 109.888 100.086L108.943 99.9573C109.029 99.5527 109.17 99.2268 109.367 98.9797C109.564 98.7291 109.849 98.5375 110.221 98.405C110.594 98.269 111.025 98.2009 111.516 98.2009C112.003 98.2009 112.398 98.2582 112.703 98.3728C113.007 98.4874 113.231 98.6324 113.374 98.8079C113.517 98.9797 113.617 99.1982 113.675 99.4631C113.707 99.6278 113.723 99.925 113.723 100.355V101.644C113.723 102.543 113.743 103.112 113.782 103.352C113.825 103.588 113.908 103.816 114.029 104.034H113.02C112.919 103.833 112.855 103.599 112.826 103.33ZM112.746 101.171C112.395 101.314 111.868 101.436 111.166 101.536C110.769 101.594 110.488 101.658 110.323 101.73C110.158 101.801 110.031 101.907 109.942 102.047C109.852 102.183 109.808 102.335 109.808 102.503C109.808 102.761 109.904 102.976 110.098 103.148C110.295 103.32 110.581 103.406 110.957 103.406C111.329 103.406 111.661 103.325 111.951 103.164C112.241 102.999 112.454 102.775 112.59 102.492C112.694 102.274 112.746 101.952 112.746 101.526V101.171ZM115.206 104.034V96.1599H116.172V104.034H115.206ZM120.738 106.22V98.3298H121.619V99.071C121.826 98.781 122.061 98.5644 122.322 98.4211C122.584 98.2743 122.901 98.2009 123.273 98.2009C123.76 98.2009 124.19 98.3263 124.562 98.5769C124.934 98.8276 125.215 99.182 125.405 99.6404C125.595 100.095 125.69 100.595 125.69 101.139C125.69 101.723 125.584 102.249 125.373 102.718C125.165 103.184 124.861 103.542 124.46 103.792C124.062 104.039 123.644 104.163 123.203 104.163C122.881 104.163 122.591 104.095 122.333 103.959C122.079 103.823 121.869 103.651 121.705 103.443V106.22H120.738ZM121.613 101.214C121.613 101.948 121.762 102.491 122.059 102.842C122.356 103.192 122.716 103.368 123.139 103.368C123.568 103.368 123.935 103.187 124.24 102.825C124.548 102.46 124.702 101.896 124.702 101.134C124.702 100.407 124.551 99.8624 124.25 99.5007C123.953 99.1391 123.597 98.9583 123.182 98.9583C122.77 98.9583 122.405 99.1516 122.086 99.5383C121.771 99.9215 121.613 100.48 121.613 101.214ZM126.85 104.034V98.3298H127.72V99.1946C127.942 98.79 128.146 98.5232 128.332 98.3943C128.522 98.2654 128.73 98.2009 128.956 98.2009C129.281 98.2009 129.613 98.3048 129.949 98.5125L129.616 99.4094C129.38 99.2698 129.144 99.2 128.907 99.2C128.696 99.2 128.506 99.2644 128.338 99.3933C128.17 99.5186 128.05 99.6941 127.978 99.9197C127.871 100.263 127.817 100.639 127.817 101.048V104.034H126.85ZM130.164 101.182C130.164 100.126 130.458 99.3432 131.045 98.8347C131.535 98.4122 132.133 98.2009 132.839 98.2009C133.623 98.2009 134.264 98.4587 134.762 98.9744C135.259 99.4864 135.508 100.195 135.508 101.101C135.508 101.835 135.397 102.414 135.175 102.836C134.957 103.255 134.636 103.581 134.214 103.814C133.795 104.046 133.337 104.163 132.839 104.163C132.04 104.163 131.394 103.907 130.9 103.395C130.409 102.883 130.164 102.145 130.164 101.182ZM131.158 101.182C131.158 101.912 131.317 102.46 131.636 102.825C131.954 103.187 132.355 103.368 132.839 103.368C133.319 103.368 133.718 103.185 134.037 102.82C134.355 102.455 134.515 101.898 134.515 101.15C134.515 100.444 134.353 99.9107 134.031 99.5491C133.713 99.1838 133.315 99.0012 132.839 99.0012C132.355 99.0012 131.954 99.182 131.636 99.5437C131.317 99.9054 131.158 100.451 131.158 101.182ZM136.642 97.2825V96.1599H137.608V97.2825H136.642ZM135.417 106.247L135.6 105.425C135.793 105.475 135.945 105.5 136.056 105.5C136.253 105.5 136.4 105.434 136.497 105.302C136.593 105.173 136.642 104.847 136.642 104.324V98.3298H137.608V104.345C137.608 105.047 137.517 105.536 137.334 105.812C137.102 106.17 136.715 106.349 136.174 106.349C135.913 106.349 135.66 106.315 135.417 106.247ZM143.001 102.197L144 102.321C143.842 102.904 143.551 103.357 143.124 103.679C142.698 104.002 142.154 104.163 141.492 104.163C140.657 104.163 139.995 103.907 139.504 103.395C139.017 102.879 138.774 102.158 138.774 101.23C138.774 100.271 139.021 99.5258 139.515 98.9958C140.009 98.4659 140.65 98.2009 141.438 98.2009C142.201 98.2009 142.824 98.4605 143.307 98.9797C143.79 99.4989 144.032 100.229 144.032 101.171C144.032 101.228 144.03 101.314 144.027 101.429H139.773C139.809 102.056 139.986 102.535 140.305 102.868C140.623 103.201 141.021 103.368 141.497 103.368C141.852 103.368 142.154 103.275 142.405 103.089C142.655 102.902 142.854 102.605 143.001 102.197ZM139.827 100.634H143.012C142.969 100.154 142.847 99.7944 142.646 99.5544C142.339 99.182 141.939 98.9958 141.449 98.9958C141.005 98.9958 140.631 99.1444 140.326 99.4417C140.025 99.7389 139.859 100.136 139.827 100.634ZM148.941 101.945L149.892 102.068C149.788 102.723 149.521 103.237 149.092 103.61C148.666 103.978 148.141 104.163 147.518 104.163C146.737 104.163 146.109 103.909 145.633 103.4C145.16 102.888 144.924 102.156 144.924 101.203C144.924 100.587 145.026 100.049 145.23 99.5867C145.434 99.1248 145.744 98.7792 146.159 98.55C146.578 98.3173 147.033 98.2009 147.523 98.2009C148.143 98.2009 148.65 98.3585 149.043 98.6736C149.437 98.9851 149.69 99.4291 149.801 100.006L148.861 100.151C148.771 99.7675 148.612 99.4792 148.383 99.2859C148.157 99.0925 147.883 98.9958 147.561 98.9958C147.074 98.9958 146.678 99.1713 146.374 99.5222C146.07 99.8695 145.917 100.421 145.917 101.177C145.917 101.943 146.064 102.5 146.358 102.847C146.651 103.194 147.035 103.368 147.507 103.368C147.887 103.368 148.204 103.252 148.458 103.019C148.712 102.786 148.873 102.428 148.941 101.945ZM152.83 103.169L152.97 104.023C152.698 104.08 152.454 104.109 152.239 104.109C151.888 104.109 151.616 104.054 151.423 103.943C151.229 103.832 151.093 103.687 151.015 103.508C150.936 103.325 150.896 102.944 150.896 102.364V99.0818H150.187V98.3298H150.896V96.9172L151.858 96.3372V98.3298H152.83V99.0818H151.858V102.417C151.858 102.693 151.874 102.87 151.906 102.949C151.942 103.028 151.998 103.09 152.073 103.137C152.151 103.184 152.263 103.207 152.406 103.207C152.513 103.207 152.655 103.194 152.83 103.169ZM153.394 102.331L154.35 102.181C154.404 102.564 154.552 102.858 154.796 103.062C155.043 103.266 155.387 103.368 155.827 103.368C156.271 103.368 156.601 103.278 156.815 103.099C157.03 102.917 157.138 102.704 157.138 102.46C157.138 102.242 157.043 102.07 156.853 101.945C156.721 101.859 156.391 101.749 155.865 101.617C155.156 101.438 154.663 101.284 154.388 101.155C154.116 101.023 153.908 100.842 153.765 100.613C153.625 100.38 153.555 100.124 153.555 99.8445C153.555 99.5903 153.612 99.3557 153.727 99.1409C153.845 98.9224 154.005 98.7416 154.205 98.5984C154.355 98.4874 154.56 98.3943 154.817 98.3191C155.079 98.2403 155.358 98.2009 155.655 98.2009C156.103 98.2009 156.495 98.2654 156.832 98.3943C157.172 98.5232 157.422 98.6986 157.583 98.9207C157.745 99.1391 157.856 99.4327 157.916 99.8015L156.971 99.9304C156.928 99.6368 156.803 99.4076 156.595 99.2429C156.391 99.0782 156.101 98.9958 155.725 98.9958C155.281 98.9958 154.964 99.0693 154.774 99.2161C154.585 99.3629 154.49 99.5347 154.49 99.7317C154.49 99.857 154.529 99.9698 154.608 100.07C154.687 100.174 154.81 100.26 154.978 100.328C155.075 100.364 155.36 100.446 155.832 100.575C156.516 100.758 156.993 100.908 157.261 101.026C157.533 101.141 157.746 101.309 157.9 101.531C158.054 101.753 158.131 102.029 158.131 102.358C158.131 102.68 158.036 102.985 157.847 103.271C157.66 103.554 157.39 103.774 157.036 103.932C156.681 104.086 156.28 104.163 155.832 104.163C155.091 104.163 154.526 104.009 154.135 103.701C153.749 103.393 153.501 102.936 153.394 102.331Z" fill="#828690"/>
<path d="M96.5464 104.034H96.0464V104.534H96.5464V104.034ZM96.5464 97.0891H97.0464V96.5891H96.5464V97.0891ZM93.9521 97.0891H93.4521V97.5891H93.9521V97.0891ZM93.9521 96.1599V95.6599H93.4521V96.1599H93.9521ZM100.193 96.1599H100.693V95.6599H100.193V96.1599ZM100.193 97.0891V97.5891H100.693V97.0891H100.193ZM97.5883 97.0891V96.5891H97.0883V97.0891H97.5883ZM97.5883 104.034V104.534H98.0883V104.034H97.5883ZM97.0464 104.034V97.0891H96.0464V104.034H97.0464ZM96.5464 96.5891H93.9521V97.5891H96.5464V96.5891ZM94.4521 97.0891V96.1599H93.4521V97.0891H94.4521ZM93.9521 96.6599H100.193V95.6599H93.9521V96.6599ZM99.6933 96.1599V97.0891H100.693V96.1599H99.6933ZM100.193 96.5891H97.5883V97.5891H100.193V96.5891ZM97.0883 97.0891V104.034H98.0883V97.0891H97.0883ZM97.5883 103.534H96.5464V104.534H97.5883V103.534ZM100.44 98.8347L100.114 98.4559L100.113 98.4567L100.44 98.8347ZM104.157 98.9744L103.797 99.3216L103.799 99.3229L104.157 98.9744ZM104.571 102.836L104.128 102.604L104.127 102.605L104.571 102.836ZM103.609 103.814L103.368 103.376L103.367 103.377L103.609 103.814ZM100.295 103.395L99.9343 103.741L99.9356 103.742L100.295 103.395ZM101.031 102.825L100.654 103.154L100.656 103.156L101.031 102.825ZM103.432 102.82L103.055 102.491L103.432 102.82ZM103.427 99.5491L103.05 99.8778L103.053 99.8817L103.427 99.5491ZM100.06 101.182C100.06 100.216 100.326 99.5954 100.768 99.2127L100.113 98.4567C99.3806 99.091 99.0595 100.035 99.0595 101.182H100.06ZM100.767 99.2136C101.158 98.8764 101.637 98.7009 102.234 98.7009V97.7009C101.421 97.7009 100.704 97.948 100.114 98.4559L100.767 99.2136ZM102.234 98.7009C102.897 98.7009 103.403 98.9133 103.797 99.3216L104.517 98.6271C103.916 98.0041 103.14 97.7009 102.234 97.7009V98.7009ZM103.799 99.3229C104.183 99.7183 104.404 100.289 104.404 101.101H105.404C105.404 100.102 105.127 99.2545 104.516 98.6259L103.799 99.3229ZM104.404 101.101C104.404 101.794 104.298 102.281 104.128 102.604L105.013 103.069C105.288 102.546 105.404 101.877 105.404 101.101H104.404ZM104.127 102.605C103.956 102.935 103.706 103.189 103.368 103.376L103.851 104.252C104.357 103.972 104.749 103.576 105.014 103.067L104.127 102.605ZM103.367 103.377C103.025 103.567 102.65 103.663 102.234 103.663V104.663C102.814 104.663 103.356 104.526 103.852 104.251L103.367 103.377ZM102.234 103.663C101.553 103.663 101.043 103.45 100.655 103.048L99.9356 103.742C100.536 104.364 101.318 104.663 102.234 104.663V103.663ZM100.656 103.049C100.283 102.659 100.06 102.063 100.06 101.182H99.0595C99.0595 102.227 99.3266 103.106 99.9343 103.741L100.656 103.049ZM100.053 101.182C100.053 101.974 100.225 102.661 100.654 103.154L101.408 102.497C101.201 102.259 101.053 101.851 101.053 101.182H100.053ZM100.656 103.156C101.07 103.626 101.608 103.868 102.234 103.868V102.868C101.894 102.868 101.63 102.748 101.406 102.495L100.656 103.156ZM102.234 103.868C102.86 103.868 103.396 103.622 103.809 103.149L103.055 102.491C102.831 102.749 102.568 102.868 102.234 102.868V103.868ZM103.809 103.149C104.24 102.654 104.41 101.956 104.41 101.15H103.41C103.41 101.84 103.261 102.255 103.055 102.491L103.809 103.149ZM104.41 101.15C104.41 100.377 104.234 99.7038 103.8 99.2164L103.053 99.8817C103.264 100.118 103.41 100.512 103.41 101.15H104.41ZM103.803 99.2203C103.392 98.7485 102.858 98.5012 102.234 98.5012V99.5012C102.563 99.5012 102.824 99.6192 103.05 99.8778L103.803 99.2203ZM102.234 98.5012C101.608 98.5012 101.07 98.7434 100.656 99.2131L101.406 99.8743C101.63 99.6207 101.894 99.5012 102.234 99.5012V98.5012ZM100.656 99.2131C100.224 99.7031 100.053 100.39 100.053 101.182H101.053C101.053 100.513 101.201 100.108 101.406 99.8743L100.656 99.2131ZM108.153 103.169L108.647 103.089L108.568 102.605L108.083 102.674L108.153 103.169ZM108.293 104.023L108.396 104.512L108.863 104.414L108.786 103.943L108.293 104.023ZM106.338 103.508L105.879 103.706L105.88 103.709L106.338 103.508ZM106.22 99.0818H106.72V98.5818H106.22V99.0818ZM105.511 99.0818H105.011V99.5818H105.511V99.0818ZM105.511 98.3298V97.8298H105.011V98.3298H105.511ZM106.22 98.3298V98.8298H106.72V98.3298H106.22ZM106.22 96.9172L105.961 96.4891L105.72 96.635V96.9172H106.22ZM107.181 96.3372H107.681V95.4515L106.923 95.909L107.181 96.3372ZM107.181 98.3298H106.681V98.8298H107.181V98.3298ZM108.153 98.3298H108.653V97.8298H108.153V98.3298ZM108.153 99.0818V99.5818H108.653V99.0818H108.153ZM107.181 99.0818V98.5818H106.681V99.0818H107.181ZM107.229 102.949L106.767 103.138L106.77 103.147L106.774 103.156L107.229 102.949ZM107.396 103.137L107.133 103.562L107.142 103.567L107.396 103.137ZM107.66 103.25L107.799 104.104L108.786 103.943L108.647 103.089L107.66 103.25ZM108.19 103.534C107.942 103.586 107.734 103.609 107.562 103.609V104.609C107.82 104.609 108.099 104.575 108.396 104.512L108.19 103.534ZM107.562 103.609C107.253 103.609 107.081 103.558 106.995 103.509L106.497 104.376C106.798 104.549 107.17 104.609 107.562 104.609V103.609ZM106.995 103.509C106.881 103.443 106.825 103.374 106.796 103.306L105.88 103.709C106.008 103.999 106.225 104.22 106.497 104.376L106.995 103.509ZM106.797 103.31C106.789 103.29 106.765 103.211 106.747 103.033C106.729 102.866 106.72 102.644 106.72 102.364H105.72C105.72 102.663 105.73 102.922 105.752 103.136C105.773 103.339 105.808 103.542 105.879 103.706L106.797 103.31ZM106.72 102.364V99.0818H105.72V102.364H106.72ZM106.22 98.5818H105.511V99.5818H106.22V98.5818ZM106.011 99.0818V98.3298H105.011V99.0818H106.011ZM105.511 98.8298H106.22V97.8298H105.511V98.8298ZM106.72 98.3298V96.9172H105.72V98.3298H106.72ZM106.478 97.3453L107.439 96.7653L106.923 95.909L105.961 96.4891L106.478 97.3453ZM106.681 96.3372V98.3298H107.681V96.3372H106.681ZM107.181 98.8298H108.153V97.8298H107.181V98.8298ZM107.653 98.3298V99.0818H108.653V98.3298H107.653ZM108.153 98.5818H107.181V99.5818H108.153V98.5818ZM106.681 99.0818V102.417H107.681V99.0818H106.681ZM106.681 102.417C106.681 102.563 106.685 102.693 106.695 102.802C106.704 102.899 106.721 103.026 106.767 103.138L107.692 102.76C107.702 102.783 107.702 102.793 107.7 102.779C107.697 102.767 107.694 102.745 107.691 102.712C107.685 102.644 107.681 102.547 107.681 102.417H106.681ZM106.774 103.156C106.852 103.327 106.975 103.465 107.133 103.562L107.659 102.712C107.661 102.713 107.666 102.716 107.672 102.724C107.679 102.731 107.683 102.738 107.685 102.742L106.774 103.156ZM107.142 103.567C107.329 103.678 107.542 103.707 107.729 103.707V102.707C107.683 102.707 107.655 102.703 107.641 102.7C107.627 102.697 107.633 102.696 107.65 102.707L107.142 103.567ZM107.729 103.707C107.87 103.707 108.038 103.691 108.224 103.664L108.083 102.674C107.918 102.698 107.803 102.707 107.729 102.707V103.707ZM112.826 103.33L113.323 103.277L113.223 102.337L112.502 102.949L112.826 103.33ZM111.79 103.975L111.613 103.507L111.612 103.508L111.79 103.975ZM109.281 103.706L108.944 104.075L108.946 104.077L109.281 103.706ZM108.964 101.767L108.527 101.525L108.526 101.527L108.964 101.767ZM109.464 101.209L109.185 100.794L109.181 100.796L109.464 101.209ZM110.162 100.892L110.034 100.408L110.028 100.41L110.162 100.892ZM111.021 100.747L110.962 100.25L110.961 100.25L111.021 100.747ZM112.746 100.414L112.911 100.886L113.236 100.772L113.245 100.427L112.746 100.414ZM112.477 99.3289L112.146 99.7035L112.146 99.7038L112.477 99.3289ZM110.366 99.2429L110.662 99.6461L110.663 99.6453L110.366 99.2429ZM109.888 100.086L109.821 100.582L110.262 100.642L110.372 100.21L109.888 100.086ZM108.943 99.9573L108.454 99.8534L108.342 100.38L108.875 100.453L108.943 99.9573ZM109.367 98.9797L109.758 99.2914L109.76 99.2886L109.367 98.9797ZM110.221 98.405L110.389 98.8761L110.393 98.8747L110.221 98.405ZM113.374 98.8079L112.987 99.1241L112.99 99.128L113.374 98.8079ZM113.675 99.4631L114.166 99.3671L114.163 99.3575L113.675 99.4631ZM113.782 103.352L113.289 103.433L113.29 103.441L113.782 103.352ZM114.029 104.034V104.534H114.88L114.466 103.791L114.029 104.034ZM113.02 104.034L112.572 104.258L112.71 104.534H113.02V104.034ZM112.746 101.171H113.246V100.427L112.557 100.708L112.746 101.171ZM111.166 101.536L111.096 101.041L111.095 101.041L111.166 101.536ZM110.323 101.73L110.124 101.271L110.323 101.73ZM109.942 102.047L110.36 102.321L110.363 102.316L109.942 102.047ZM110.098 103.148L109.765 103.521L109.769 103.524L110.098 103.148ZM111.951 103.164L112.193 103.601L112.198 103.599L111.951 103.164ZM112.59 102.492L113.04 102.709L113.041 102.707L112.59 102.492ZM112.502 102.949C112.175 103.228 111.878 103.407 111.613 103.507L111.966 104.443C112.367 104.292 112.761 104.042 113.15 103.711L112.502 102.949ZM111.612 103.508C111.343 103.61 111.05 103.663 110.726 103.663V104.663C111.162 104.663 111.577 104.591 111.967 104.442L111.612 103.508ZM110.726 103.663C110.176 103.663 109.831 103.53 109.617 103.335L108.946 104.077C109.404 104.492 110.023 104.663 110.726 104.663V103.663ZM109.619 103.337C109.391 103.129 109.276 102.873 109.276 102.53H108.276C108.276 103.14 108.499 103.668 108.944 104.075L109.619 103.337ZM109.276 102.53C109.276 102.329 109.321 102.158 109.403 102.007L108.526 101.527C108.357 101.835 108.276 102.173 108.276 102.53H109.276ZM109.402 102.01C109.496 101.84 109.611 101.714 109.746 101.621L109.181 100.796C108.908 100.983 108.691 101.23 108.527 101.525L109.402 102.01ZM109.743 101.624C109.903 101.516 110.086 101.432 110.296 101.374L110.028 100.41C109.722 100.495 109.44 100.622 109.185 100.794L109.743 101.624ZM110.29 101.375C110.445 101.334 110.704 101.289 111.082 101.243L110.961 100.25C110.573 100.298 110.258 100.349 110.034 100.408L110.29 101.375ZM111.081 101.243C111.869 101.149 112.488 101.033 112.911 100.886L112.581 99.9418C112.265 100.052 111.735 100.158 110.962 100.25L111.081 101.243ZM113.245 100.427C113.249 100.297 113.251 100.205 113.251 100.161H112.251C112.251 100.189 112.249 100.266 112.246 100.4L113.245 100.427ZM113.251 100.161C113.251 99.7106 113.149 99.2552 112.808 98.9539L112.146 99.7038C112.17 99.7248 112.251 99.8244 112.251 100.161H113.251ZM112.808 98.9543C112.435 98.624 111.928 98.5012 111.376 98.5012V99.5012C111.798 99.5012 112.025 99.5969 112.146 99.7035L112.808 98.9543ZM111.376 98.5012C110.88 98.5012 110.415 98.5859 110.069 98.8406L110.663 99.6453C110.755 99.5777 110.963 99.5012 111.376 99.5012V98.5012ZM110.07 98.8397C109.722 99.095 109.521 99.5053 109.404 99.9619L110.372 100.21C110.463 99.8578 110.58 99.7059 110.662 99.6461L110.07 98.8397ZM109.956 99.5908L109.01 99.4619L108.875 100.453L109.821 100.582L109.956 99.5908ZM109.432 100.061C109.507 99.7099 109.622 99.462 109.758 99.2914L108.976 98.6681C108.718 98.9916 108.551 99.3954 108.454 99.8534L109.432 100.061ZM109.76 99.2886C109.886 99.1283 110.084 98.9845 110.389 98.8761L110.054 97.934C109.614 98.0905 109.242 98.3299 108.974 98.6708L109.76 99.2886ZM110.393 98.8747C110.699 98.7628 111.07 98.7009 111.516 98.7009V97.7009C110.98 97.7009 110.488 97.7751 110.05 97.9354L110.393 98.8747ZM111.516 98.7009C111.969 98.7009 112.299 98.7551 112.526 98.8407L112.879 97.9049C112.497 97.7613 112.036 97.7009 111.516 97.7009V98.7009ZM112.526 98.8407C112.782 98.937 112.918 99.0404 112.987 99.124L113.761 98.4917C113.543 98.2245 113.232 98.0378 112.879 97.9049L112.526 98.8407ZM112.99 99.128C113.072 99.226 113.142 99.3662 113.186 99.5688L114.163 99.3575C114.093 99.0302 113.963 98.7334 113.758 98.4878L112.99 99.128ZM113.184 99.5591C113.206 99.6704 113.223 99.9226 113.223 100.355H114.223C114.223 99.9275 114.208 99.5853 114.165 99.3671L113.184 99.5591ZM113.223 100.355V101.644H114.223V100.355H113.223ZM113.223 101.644C113.223 102.529 113.241 103.144 113.289 103.433L114.276 103.271C114.244 103.08 114.223 102.556 114.223 101.644H113.223ZM113.29 103.441C113.343 103.734 113.445 104.013 113.593 104.277L114.466 103.791C114.37 103.618 114.307 103.442 114.274 103.262L113.29 103.441ZM114.029 103.534H113.02V104.534H114.029V103.534ZM113.467 103.81C113.398 103.673 113.347 103.498 113.323 103.277L112.329 103.383C112.363 103.699 112.44 103.994 112.572 104.258L113.467 103.81ZM112.557 100.708C112.263 100.828 111.786 100.943 111.096 101.041L111.237 102.031C111.951 101.929 112.526 101.801 112.935 101.634L112.557 100.708ZM111.095 101.041C110.694 101.099 110.355 101.171 110.124 101.271L110.523 102.188C110.621 102.146 110.844 102.088 111.238 102.031L111.095 101.041ZM110.124 101.271C109.876 101.379 109.668 101.547 109.521 101.777L110.363 102.316C110.394 102.267 110.441 102.224 110.523 102.188L110.124 101.271ZM109.524 101.772C109.379 101.992 109.308 102.241 109.308 102.503H110.308C110.308 102.429 110.326 102.373 110.36 102.321L109.524 101.772ZM109.308 102.503C109.308 102.904 109.466 103.255 109.765 103.521L110.43 102.774C110.343 102.697 110.308 102.618 110.308 102.503H109.308ZM109.769 103.524C110.09 103.804 110.512 103.906 110.957 103.906V102.906C110.65 102.906 110.499 102.835 110.426 102.771L109.769 103.524ZM110.957 103.906C111.404 103.906 111.82 103.808 112.193 103.601L111.708 102.727C111.501 102.842 111.255 102.906 110.957 102.906V103.906ZM112.198 103.599C112.57 103.387 112.857 103.09 113.04 102.709L112.139 102.276C112.05 102.461 111.911 102.611 111.704 102.729L112.198 103.599ZM113.041 102.707C113.193 102.389 113.246 101.978 113.246 101.526H112.246C112.246 101.926 112.194 102.159 112.138 102.278L113.041 102.707ZM113.246 101.526V101.171H112.246V101.526H113.246ZM115.206 104.034H114.706V104.534H115.206V104.034ZM115.206 96.1599V95.6599H114.706V96.1599H115.206ZM116.172 96.1599H116.672V95.6599H116.172V96.1599ZM116.172 104.034V104.534H116.672V104.034H116.172ZM115.706 104.034V96.1599H114.706V104.034H115.706ZM115.206 96.6599H116.172V95.6599H115.206V96.6599ZM115.672 96.1599V104.034H116.672V96.1599H115.672ZM116.172 103.534H115.206V104.534H116.172V103.534ZM120.738 106.22H120.238V106.72H120.738V106.22ZM120.738 98.3298V97.8298H120.238V98.3298H120.738ZM121.619 98.3298H122.119V97.8298H121.619V98.3298ZM121.619 99.071H121.119V100.628L122.025 99.3621L121.619 99.071ZM122.322 98.4211L122.563 98.8597L122.567 98.8571L122.322 98.4211ZM124.562 98.5769L124.283 98.9917L124.562 98.5769ZM125.405 99.6404L124.943 99.8317L124.944 99.8329L125.405 99.6404ZM125.373 102.718L124.917 102.513L124.916 102.514L125.373 102.718ZM124.46 103.792L124.724 104.217L124.725 104.216L124.46 103.792ZM122.333 103.959L122.097 104.4L122.1 104.401L122.333 103.959ZM121.705 103.443L122.096 103.132L121.205 102.008V103.443H121.705ZM121.705 106.22V106.72H122.205V106.22H121.705ZM124.24 102.825L123.857 102.503L123.857 102.503L124.24 102.825ZM124.25 99.5007L123.864 99.8182L123.866 99.8205L124.25 99.5007ZM122.086 99.5383L121.7 99.2204L121.7 99.2207L122.086 99.5383ZM121.238 106.22V98.3298H120.238V106.22H121.238ZM120.738 98.8298H121.619V97.8298H120.738V98.8298ZM121.119 98.3298V99.071H122.119V98.3298H121.119ZM122.025 99.3621C122.198 99.1212 122.379 98.9604 122.563 98.8596L122.082 97.9827C121.743 98.1683 121.455 98.4408 121.212 98.78L122.025 99.3621ZM122.567 98.8571C122.738 98.7613 122.966 98.7009 123.273 98.7009V97.7009C122.835 97.7009 122.43 97.7874 122.077 97.9852L122.567 98.8571ZM123.273 98.7009C123.669 98.7009 124 98.8013 124.283 98.9917L124.841 98.1621C124.379 97.8512 123.851 97.7009 123.273 97.7009V98.7009ZM124.283 98.9917C124.565 99.1817 124.787 99.4543 124.943 99.8317L125.867 99.4491C125.644 98.9098 125.304 98.4734 124.841 98.1621L124.283 98.9917ZM124.944 99.8329C125.106 100.221 125.19 100.654 125.19 101.139H126.19C126.19 100.535 126.084 99.9697 125.867 99.4478L124.944 99.8329ZM125.19 101.139C125.19 101.661 125.096 102.116 124.917 102.513L125.829 102.923C126.073 102.382 126.19 101.784 126.19 101.139H125.19ZM124.916 102.514C124.746 102.896 124.505 103.174 124.195 103.368L124.725 104.216C125.217 103.909 125.585 103.471 125.83 102.922L124.916 102.514ZM124.196 103.368C123.873 103.569 123.544 103.663 123.203 103.663V104.663C123.743 104.663 124.252 104.51 124.724 104.217L124.196 103.368ZM123.203 103.663C122.953 103.663 122.745 103.611 122.566 103.517L122.1 104.401C122.437 104.579 122.808 104.663 123.203 104.663V103.663ZM122.569 103.518C122.37 103.411 122.215 103.282 122.096 103.132L121.313 103.754C121.524 104.02 121.788 104.234 122.097 104.4L122.569 103.518ZM121.205 103.443V106.22H122.205V103.443H121.205ZM121.705 105.72H120.738V106.72H121.705V105.72ZM121.113 101.214C121.113 102 121.27 102.683 121.678 103.165L122.441 102.518C122.254 102.298 122.113 101.896 122.113 101.214H121.113ZM121.678 103.165C122.06 103.617 122.555 103.868 123.139 103.868V102.868C122.877 102.868 122.652 102.768 122.441 102.518L121.678 103.165ZM123.139 103.868C123.732 103.868 124.234 103.609 124.622 103.147L123.857 102.503C123.637 102.765 123.405 102.868 123.139 102.868V103.868ZM124.622 103.148C125.04 102.652 125.202 101.948 125.202 101.134H124.202C124.202 101.844 124.055 102.268 123.857 102.503L124.622 103.148ZM125.202 101.134C125.202 100.35 125.042 99.6701 124.635 99.181L123.866 99.8205C124.061 100.055 124.202 100.463 124.202 101.134H125.202ZM124.637 99.1833C124.258 98.7226 123.767 98.4583 123.182 98.4583V99.4583C123.427 99.4583 123.648 99.5556 123.864 99.8182L124.637 99.1833ZM123.182 98.4583C122.588 98.4583 122.091 98.7459 121.7 99.2204L122.472 99.8563C122.718 99.5573 122.952 99.4583 123.182 99.4583V98.4583ZM121.7 99.2207C121.283 99.7275 121.113 100.418 121.113 101.214H122.113C122.113 100.542 122.259 100.115 122.472 99.8559L121.7 99.2207ZM126.85 104.034H126.35V104.534H126.85V104.034ZM126.85 98.3298V97.8298H126.35V98.3298H126.85ZM127.72 98.3298H128.22V97.8298H127.72V98.3298ZM127.72 99.1946H127.22L128.159 99.4351L127.72 99.1946ZM128.332 98.3943L128.052 97.9807L128.048 97.9832L128.332 98.3943ZM129.949 98.5125L130.418 98.6865L130.561 98.3022L130.212 98.0869L129.949 98.5125ZM129.616 99.4094L129.362 99.8399L129.877 100.144L130.085 99.5834L129.616 99.4094ZM128.338 99.3933L128.637 99.7944L128.642 99.7902L128.338 99.3933ZM127.978 99.9197L127.501 99.7684L127.501 99.7705L127.978 99.9197ZM127.817 104.034V104.534H128.317V104.034H127.817ZM127.35 104.034V98.3298H126.35V104.034H127.35ZM126.85 98.8298H127.72V97.8298H126.85V98.8298ZM127.22 98.3298V99.1946H128.22V98.3298H127.22ZM128.159 99.4351C128.374 99.042 128.532 98.8641 128.617 98.8054L128.048 97.9832C127.76 98.1822 127.51 98.5379 127.282 98.9541L128.159 99.4351ZM128.613 98.8079C128.722 98.7343 128.832 98.7009 128.956 98.7009V97.7009C128.628 97.7009 128.323 97.7965 128.052 97.9807L128.613 98.8079ZM128.956 98.7009C129.171 98.7009 129.412 98.7685 129.687 98.938L130.212 98.0869C129.813 97.841 129.392 97.7009 128.956 97.7009V98.7009ZM129.48 98.3384L129.147 99.2354L130.085 99.5834L130.418 98.6865L129.48 98.3384ZM129.871 98.979C129.57 98.8012 129.247 98.7 128.907 98.7V99.7C129.04 99.7 129.19 99.7383 129.362 99.8399L129.871 98.979ZM128.907 98.7C128.586 98.7 128.289 98.8009 128.034 98.9964L128.642 99.7902C128.723 99.7279 128.806 99.7 128.907 99.7V98.7ZM128.039 98.9923C127.776 99.188 127.601 99.4563 127.501 99.7684L128.455 100.071C128.499 99.9319 128.563 99.8492 128.636 99.7943L128.039 98.9923ZM127.501 99.7705C127.376 100.169 127.317 100.595 127.317 101.048H128.317C128.317 100.683 128.365 100.358 128.455 100.069L127.501 99.7705ZM127.317 101.048V104.034H128.317V101.048H127.317ZM127.817 103.534H126.85V104.534H127.817V103.534ZM131.045 98.8347L130.719 98.4559L130.718 98.4567L131.045 98.8347ZM134.762 98.9744L134.402 99.3216L134.403 99.3229L134.762 98.9744ZM135.175 102.836L134.733 102.604L134.732 102.605L135.175 102.836ZM134.214 103.814L133.973 103.376L133.971 103.377L134.214 103.814ZM130.9 103.395L130.539 103.741L130.54 103.742L130.9 103.395ZM131.636 102.825L131.259 103.154L131.261 103.156L131.636 102.825ZM134.037 102.82L133.66 102.491L134.037 102.82ZM134.031 99.5491L133.654 99.8778L133.658 99.8817L134.031 99.5491ZM130.664 101.182C130.664 100.216 130.93 99.5954 131.372 99.2127L130.718 98.4567C129.985 99.091 129.664 100.035 129.664 101.182H130.664ZM131.371 99.2136C131.763 98.8764 132.242 98.7009 132.839 98.7009V97.7009C132.025 97.7009 131.308 97.948 130.719 98.4559L131.371 99.2136ZM132.839 98.7009C133.501 98.7009 134.008 98.9133 134.402 99.3216L135.121 98.6271C134.52 98.0041 133.745 97.7009 132.839 97.7009V98.7009ZM134.403 99.3229C134.788 99.7183 135.008 100.289 135.008 101.101H136.008C136.008 100.102 135.731 99.2545 135.12 98.6259L134.403 99.3229ZM135.008 101.101C135.008 101.794 134.902 102.281 134.733 102.604L135.618 103.069C135.892 102.546 136.008 101.877 136.008 101.101H135.008ZM134.732 102.605C134.56 102.935 134.311 103.189 133.973 103.376L134.455 104.252C134.962 103.972 135.354 103.576 135.619 103.067L134.732 102.605ZM133.971 103.377C133.629 103.567 133.255 103.663 132.839 103.663V104.663C133.418 104.663 133.961 104.526 134.457 104.251L133.971 103.377ZM132.839 103.663C132.158 103.663 131.648 103.45 131.26 103.048L130.54 103.742C131.14 104.364 131.923 104.663 132.839 104.663V103.663ZM131.261 103.049C130.888 102.659 130.664 102.063 130.664 101.182H129.664C129.664 102.227 129.931 103.106 130.539 103.741L131.261 103.049ZM130.658 101.182C130.658 101.974 130.829 102.661 131.259 103.154L132.012 102.497C131.805 102.259 131.658 101.851 131.658 101.182H130.658ZM131.261 103.156C131.674 103.626 132.212 103.868 132.839 103.868V102.868C132.499 102.868 132.234 102.748 132.011 102.495L131.261 103.156ZM132.839 103.868C133.465 103.868 134.001 103.622 134.413 103.149L133.66 102.491C133.435 102.749 133.173 102.868 132.839 102.868V103.868ZM134.413 103.149C134.845 102.654 135.015 101.956 135.015 101.15H134.015C134.015 101.84 133.866 102.255 133.66 102.491L134.413 103.149ZM135.015 101.15C135.015 100.377 134.839 99.7038 134.405 99.2164L133.658 99.8817C133.868 100.118 134.015 100.512 134.015 101.15H135.015ZM134.408 99.2203C133.996 98.7485 133.462 98.5012 132.839 98.5012V99.5012C133.168 99.5012 133.429 99.6192 133.654 99.8778L134.408 99.2203ZM132.839 98.5012C132.212 98.5012 131.674 98.7434 131.261 99.2131L132.011 99.8743C132.234 99.6207 132.499 99.5012 132.839 99.5012V98.5012ZM131.261 99.2131C130.829 99.7031 130.658 100.39 130.658 101.182H131.658C131.658 100.513 131.805 100.108 132.011 99.8743L131.261 99.2131ZM136.642 97.2825H136.142V97.7825H136.642V97.2825ZM136.642 96.1599V95.6599H136.142V96.1599H136.642ZM137.608 96.1599H138.108V95.6599H137.608V96.1599ZM137.608 97.2825V97.7825H138.108V97.2825H137.608ZM135.417 106.247L134.929 106.138L134.826 106.601L135.282 106.728L135.417 106.247ZM135.6 105.425L135.725 104.941L135.224 104.811L135.111 105.317L135.6 105.425ZM136.497 105.302L136.097 105.001L136.093 105.007L136.497 105.302ZM136.642 98.3298V97.8298H136.142V98.3298H136.642ZM137.608 98.3298H138.108V97.8298H137.608V98.3298ZM137.334 105.812L136.918 105.536L136.915 105.539L137.334 105.812ZM137.142 97.2825V96.1599H136.142V97.2825H137.142ZM136.642 96.6599H137.608V95.6599H136.642V96.6599ZM137.108 96.1599V97.2825H138.108V96.1599H137.108ZM137.608 96.7825H136.642V97.7825H137.608V96.7825ZM135.905 106.355L136.088 105.534L135.111 105.317L134.929 106.138L135.905 106.355ZM135.474 105.909C135.681 105.963 135.882 106 136.056 106V105C136.008 105 135.904 104.988 135.725 104.941L135.474 105.909ZM136.056 106C136.377 106 136.69 105.884 136.9 105.596L136.093 105.007C136.093 105.007 136.094 105.004 136.098 105.001C136.103 104.998 136.106 104.996 136.108 104.995C136.112 104.993 136.099 105 136.056 105V106ZM136.897 105.602C137.024 105.431 137.074 105.21 137.1 105.034C137.129 104.837 137.142 104.597 137.142 104.324H136.142C136.142 104.573 136.13 104.758 136.111 104.887C136.101 104.951 136.091 104.992 136.084 105.016C136.075 105.043 136.075 105.03 136.097 105.002L136.897 105.602ZM137.142 104.324V98.3298H136.142V104.324H137.142ZM136.642 98.8298H137.608V97.8298H136.642V98.8298ZM137.108 98.3298V104.345H138.108V98.3298H137.108ZM137.108 104.345C137.108 105.037 137.012 105.393 136.918 105.536L137.751 106.088C138.022 105.679 138.108 105.057 138.108 104.345H137.108ZM136.915 105.539C136.799 105.717 136.597 105.849 136.174 105.849V106.849C136.833 106.849 137.404 106.622 137.754 106.084L136.915 105.539ZM136.174 105.849C135.957 105.849 135.75 105.821 135.552 105.765L135.282 106.728C135.571 106.809 135.869 106.849 136.174 106.849V105.849ZM143.001 102.197L143.062 101.701L142.666 101.652L142.53 102.028L143.001 102.197ZM144 102.321L144.483 102.451L144.633 101.895L144.061 101.824L144 102.321ZM139.504 103.395L139.141 103.738L139.143 103.741L139.504 103.395ZM143.307 98.9797L142.941 99.3204L143.307 98.9797ZM144.027 101.429V101.929H144.511L144.527 101.445L144.027 101.429ZM139.773 101.429V100.929H139.244L139.274 101.457L139.773 101.429ZM139.827 100.634L139.328 100.602L139.293 101.134H139.827V100.634ZM143.012 100.634V101.134H143.558L143.51 100.589L143.012 100.634ZM142.646 99.5544L142.261 99.8731L142.263 99.8751L142.646 99.5544ZM140.326 99.4417L139.977 99.0839L139.975 99.086L140.326 99.4417ZM142.94 102.693L143.939 102.817L144.061 101.824L143.062 101.701L142.94 102.693ZM143.517 102.19C143.385 102.682 143.149 103.034 142.823 103.281L143.426 104.078C143.952 103.68 144.3 103.127 144.483 102.451L143.517 102.19ZM142.823 103.281C142.503 103.523 142.072 103.663 141.492 103.663V104.663C142.236 104.663 142.894 104.481 143.426 104.078L142.823 103.281ZM141.492 103.663C140.768 103.663 140.245 103.445 139.865 103.049L139.143 103.741C139.745 104.369 140.547 104.663 141.492 104.663V103.663ZM139.868 103.051C139.493 102.654 139.274 102.07 139.274 101.23H138.274C138.274 102.245 138.542 103.104 139.141 103.738L139.868 103.051ZM139.274 101.23C139.274 100.355 139.498 99.7475 139.881 99.3368L139.149 98.6549C138.544 99.3041 138.274 100.186 138.274 101.23H139.274ZM139.881 99.3368C140.272 98.9178 140.775 98.7009 141.438 98.7009V97.7009C140.525 97.7009 139.747 98.014 139.149 98.6549L139.881 99.3368ZM141.438 98.7009C142.074 98.7009 142.56 98.9111 142.941 99.3204L143.673 98.639C143.087 98.01 142.328 97.7009 141.438 97.7009V98.7009ZM142.941 99.3204C143.313 99.7202 143.532 100.313 143.532 101.171H144.532C144.532 100.145 144.268 99.2777 143.673 98.639L142.941 99.3204ZM143.532 101.171C143.532 101.22 143.531 101.3 143.527 101.413L144.527 101.445C144.53 101.329 144.532 101.237 144.532 101.171H143.532ZM144.027 100.929H139.773V101.929H144.027V100.929ZM139.274 101.457C139.314 102.16 139.517 102.768 139.943 103.214L140.666 102.523C140.455 102.302 140.304 101.951 140.272 101.4L139.274 101.457ZM139.943 103.214C140.36 103.649 140.889 103.868 141.497 103.868V102.868C141.152 102.868 140.887 102.754 140.666 102.523L139.943 103.214ZM141.497 103.868C141.944 103.868 142.355 103.749 142.703 103.49L142.107 102.687C141.954 102.801 141.759 102.868 141.497 102.868V103.868ZM142.703 103.49C143.058 103.226 143.304 102.832 143.471 102.366L142.53 102.028C142.404 102.378 142.253 102.579 142.107 102.687L142.703 103.49ZM139.827 101.134H143.012V100.134H139.827V101.134ZM143.51 100.589C143.462 100.059 143.323 99.5838 143.03 99.2338L142.263 99.8751C142.371 100.005 142.475 100.249 142.514 100.679L143.51 100.589ZM143.032 99.2358C142.627 98.7465 142.086 98.4958 141.449 98.4958V99.4958C141.793 99.4958 142.05 99.6176 142.261 99.8731L143.032 99.2358ZM141.449 98.4958C140.88 98.4958 140.379 98.6912 139.977 99.0839L140.675 99.7994C140.882 99.5977 141.129 99.4958 141.449 99.4958V98.4958ZM139.975 99.086C139.572 99.4843 139.366 100.005 139.328 100.602L140.326 100.666C140.351 100.268 140.479 99.9934 140.678 99.7973L139.975 99.086ZM148.941 101.945L149.006 101.449L148.515 101.385L148.446 101.875L148.941 101.945ZM149.892 102.068L150.386 102.146L150.466 101.639L149.956 101.572L149.892 102.068ZM149.092 103.61L149.419 103.988L149.419 103.987L149.092 103.61ZM145.633 103.4L145.265 103.739L145.268 103.742L145.633 103.4ZM146.159 98.55L146.401 98.9878L146.402 98.9871L146.159 98.55ZM149.043 98.6736L148.731 99.064L148.733 99.0658L149.043 98.6736ZM149.801 100.006L149.877 100.5L150.39 100.421L150.292 99.9111L149.801 100.006ZM148.861 100.151L148.374 100.264L148.479 100.715L148.937 100.645L148.861 100.151ZM148.383 99.2859L148.057 99.6655L148.06 99.668L148.383 99.2859ZM146.374 99.5222L146.75 99.8517L146.752 99.8498L146.374 99.5222ZM146.358 102.847L145.976 103.17L146.358 102.847ZM148.458 103.019L148.12 102.65L148.458 103.019ZM148.877 102.44L149.828 102.564L149.956 101.572L149.006 101.449L148.877 102.44ZM149.398 101.99C149.31 102.549 149.09 102.949 148.764 103.232L149.419 103.987C149.952 103.525 150.267 102.898 150.386 102.146L149.398 101.99ZM148.765 103.232C148.439 103.513 148.035 103.663 147.518 103.663V104.663C148.248 104.663 148.892 104.444 149.419 103.988L148.765 103.232ZM147.518 103.663C146.857 103.663 146.368 103.453 145.998 103.058L145.268 103.742C145.851 104.364 146.618 104.663 147.518 104.663V103.663ZM146 103.061C145.64 102.671 145.424 102.077 145.424 101.203H144.424C144.424 102.235 144.68 103.106 145.265 103.739L146 103.061ZM145.424 101.203C145.424 100.642 145.517 100.175 145.687 99.7888L144.773 99.3846C144.535 99.9225 144.424 100.533 144.424 101.203H145.424ZM145.687 99.7888C145.85 99.42 146.087 99.1606 146.401 98.9878L145.918 98.1123C145.4 98.3978 145.018 98.8295 144.773 99.3846L145.687 99.7888ZM146.402 98.9871C146.745 98.7967 147.116 98.7009 147.523 98.7009V97.7009C146.95 97.7009 146.411 97.838 145.916 98.113L146.402 98.9871ZM147.523 98.7009C148.056 98.7009 148.445 98.8349 148.731 99.064L149.356 98.2831C148.854 97.8821 148.23 97.7009 147.523 97.7009V98.7009ZM148.733 99.0658C149.018 99.2907 149.217 99.6203 149.31 100.1L150.292 99.9111C150.162 99.2379 149.857 98.6795 149.354 98.2814L148.733 99.0658ZM149.725 99.5115L148.785 99.6565L148.937 100.645L149.877 100.5L149.725 99.5115ZM149.348 100.037C149.241 99.5816 149.039 99.1854 148.705 98.9037L148.06 99.668C148.185 99.7731 148.301 99.9534 148.374 100.264L149.348 100.037ZM148.708 98.9063C148.384 98.6284 147.992 98.4958 147.561 98.4958V99.4958C147.775 99.4958 147.93 99.5566 148.057 99.6655L148.708 98.9063ZM147.561 98.4958C146.937 98.4958 146.401 98.7283 145.996 99.1946L146.752 99.8498C146.956 99.6143 147.211 99.4958 147.561 99.4958V98.4958ZM145.998 99.1927C145.576 99.6738 145.417 100.372 145.417 101.177H146.417C146.417 100.47 146.563 100.065 146.75 99.8517L145.998 99.1927ZM145.417 101.177C145.417 101.987 145.569 102.688 145.976 103.17L146.74 102.524C146.56 102.311 146.417 101.899 146.417 101.177H145.417ZM145.976 103.17C146.369 103.634 146.894 103.868 147.507 103.868V102.868C147.175 102.868 146.934 102.754 146.74 102.524L145.976 103.17ZM147.507 103.868C147.998 103.868 148.44 103.714 148.796 103.388L148.12 102.65C147.968 102.79 147.776 102.868 147.507 102.868V103.868ZM148.796 103.388C149.165 103.049 149.359 102.566 149.436 102.014L148.446 101.875C148.388 102.29 148.259 102.523 148.12 102.65L148.796 103.388ZM152.83 103.169L153.323 103.089L153.244 102.605L152.759 102.674L152.83 103.169ZM152.97 104.023L153.073 104.512L153.54 104.414L153.463 103.943L152.97 104.023ZM151.015 103.508L150.556 103.706L150.557 103.709L151.015 103.508ZM150.896 99.0818H151.396V98.5818H150.896V99.0818ZM150.187 99.0818H149.687V99.5818H150.187V99.0818ZM150.187 98.3298V97.8298H149.687V98.3298H150.187ZM150.896 98.3298V98.8298H151.396V98.3298H150.896ZM150.896 96.9172L150.638 96.4891L150.396 96.635V96.9172H150.896ZM151.858 96.3372H152.358V95.4515L151.6 95.909L151.858 96.3372ZM151.858 98.3298H151.358V98.8298H151.858V98.3298ZM152.83 98.3298H153.33V97.8298H152.83V98.3298ZM152.83 99.0818V99.5818H153.33V99.0818H152.83ZM151.858 99.0818V98.5818H151.358V99.0818H151.858ZM151.906 102.949L151.443 103.138L151.447 103.147L151.451 103.156L151.906 102.949ZM152.073 103.137L151.809 103.562L151.818 103.567L152.073 103.137ZM152.337 103.25L152.476 104.104L153.463 103.943L153.323 103.089L152.337 103.25ZM152.867 103.534C152.619 103.586 152.411 103.609 152.239 103.609V104.609C152.497 104.609 152.776 104.575 153.073 104.512L152.867 103.534ZM152.239 103.609C151.93 103.609 151.758 103.558 151.672 103.509L151.174 104.376C151.475 104.549 151.846 104.609 152.239 104.609V103.609ZM151.672 103.509C151.557 103.443 151.502 103.374 151.472 103.306L150.557 103.709C150.685 103.999 150.901 104.22 151.174 104.376L151.672 103.509ZM151.474 103.31C151.465 103.29 151.442 103.211 151.423 103.033C151.406 102.866 151.396 102.644 151.396 102.364H150.396C150.396 102.663 150.407 102.922 150.429 103.136C150.45 103.339 150.485 103.542 150.556 103.706L151.474 103.31ZM151.396 102.364V99.0818H150.396V102.364H151.396ZM150.896 98.5818H150.187V99.5818H150.896V98.5818ZM150.687 99.0818V98.3298H149.687V99.0818H150.687ZM150.187 98.8298H150.896V97.8298H150.187V98.8298ZM151.396 98.3298V96.9172H150.396V98.3298H151.396ZM151.155 97.3453L152.116 96.7653L151.6 95.909L150.638 96.4891L151.155 97.3453ZM151.358 96.3372V98.3298H152.358V96.3372H151.358ZM151.858 98.8298H152.83V97.8298H151.858V98.8298ZM152.33 98.3298V99.0818H153.33V98.3298H152.33ZM152.83 98.5818H151.858V99.5818H152.83V98.5818ZM151.358 99.0818V102.417H152.358V99.0818H151.358ZM151.358 102.417C151.358 102.563 151.362 102.693 151.372 102.802C151.381 102.899 151.397 103.026 151.443 103.138L152.369 102.76C152.378 102.783 152.379 102.793 152.376 102.779C152.374 102.767 152.371 102.745 152.368 102.712C152.362 102.644 152.358 102.547 152.358 102.417H151.358ZM151.451 103.156C151.529 103.327 151.652 103.465 151.81 103.562L152.336 102.712C152.337 102.713 152.343 102.716 152.349 102.724C152.355 102.731 152.359 102.738 152.361 102.742L151.451 103.156ZM151.818 103.567C152.006 103.678 152.219 103.707 152.406 103.707V102.707C152.36 102.707 152.332 102.703 152.318 102.7C152.303 102.697 152.31 102.696 152.327 102.707L151.818 103.567ZM152.406 103.707C152.547 103.707 152.715 103.691 152.901 103.664L152.759 102.674C152.594 102.698 152.479 102.707 152.406 102.707V103.707ZM153.394 102.331L153.316 101.837L152.813 101.917L152.902 102.419L153.394 102.331ZM154.35 102.181L154.845 102.111L154.775 101.608L154.272 101.687L154.35 102.181ZM154.796 103.062L154.475 103.445L154.477 103.447L154.796 103.062ZM156.815 103.099L157.136 103.483L157.139 103.48L156.815 103.099ZM156.853 101.945L157.129 101.527L157.125 101.525L156.853 101.945ZM155.865 101.617L155.742 102.102L155.743 102.102L155.865 101.617ZM154.388 101.155L154.169 101.605L154.176 101.608L154.388 101.155ZM153.765 100.613L153.336 100.87L153.341 100.878L153.765 100.613ZM153.727 99.1409L153.287 98.903L153.286 98.9056L153.727 99.1409ZM154.205 98.5984L154.496 99.0053L154.502 99.0007L154.205 98.5984ZM154.817 98.3191L154.957 98.7991L154.962 98.7978L154.817 98.3191ZM156.832 98.3943L156.653 98.8612L156.654 98.8618L156.832 98.3943ZM157.583 98.9207L157.179 99.2144L157.181 99.2175L157.583 98.9207ZM157.916 99.8015L157.984 100.297L158.494 100.227L158.41 99.7201L157.916 99.8015ZM156.971 99.9304L156.476 100.003L156.548 100.493L157.039 100.426L156.971 99.9304ZM156.595 99.2429L156.281 99.632L156.284 99.6347L156.595 99.2429ZM154.608 100.07L155.006 99.7678L155.001 99.7612L154.608 100.07ZM154.978 100.328L154.791 100.791L154.798 100.794L154.805 100.797L154.978 100.328ZM155.832 100.575L155.701 101.057L155.703 101.058L155.832 100.575ZM157.261 101.026L157.06 101.484L157.067 101.487L157.261 101.026ZM157.847 103.271L157.43 102.995L157.429 102.996L157.847 103.271ZM157.036 103.932L157.235 104.391L157.239 104.389L157.036 103.932ZM154.135 103.701L153.824 104.092L153.826 104.093L154.135 103.701ZM153.472 102.825L154.428 102.675L154.272 101.687L153.316 101.837L153.472 102.825ZM153.855 102.25C153.922 102.728 154.117 103.145 154.475 103.445L155.117 102.679C154.988 102.57 154.886 102.4 154.845 102.111L153.855 102.25ZM154.477 103.447C154.843 103.749 155.314 103.868 155.827 103.868V102.868C155.46 102.868 155.243 102.783 155.114 102.676L154.477 103.447ZM155.827 103.868C156.323 103.868 156.791 103.77 157.135 103.483L156.495 102.715C156.41 102.786 156.219 102.868 155.827 102.868V103.868ZM157.139 103.48C157.446 103.219 157.638 102.874 157.638 102.46H156.638C156.638 102.533 156.614 102.614 156.492 102.718L157.139 103.48ZM157.638 102.46C157.638 102.066 157.452 101.741 157.129 101.527L156.577 102.362C156.616 102.387 156.626 102.404 156.629 102.409C156.631 102.413 156.638 102.426 156.638 102.46H157.638ZM157.125 101.525C157.001 101.445 156.833 101.38 156.664 101.324C156.483 101.264 156.256 101.2 155.987 101.132L155.743 102.102C156 102.167 156.201 102.224 156.349 102.273C156.423 102.297 156.48 102.319 156.522 102.336C156.567 102.355 156.582 102.365 156.581 102.364L157.125 101.525ZM155.987 101.132C155.278 100.953 154.828 100.809 154.599 100.702L154.176 101.608C154.499 101.759 155.033 101.923 155.742 102.102L155.987 101.132ZM154.607 100.705C154.408 100.609 154.276 100.488 154.189 100.348L153.341 100.878C153.539 101.196 153.823 101.436 154.169 101.605L154.607 100.705ZM154.193 100.355C154.102 100.203 154.055 100.036 154.055 99.8445H153.055C153.055 100.212 153.148 100.557 153.336 100.87L154.193 100.355ZM154.055 99.8445C154.055 99.6686 154.094 99.5154 154.168 99.3762L153.286 98.9056C153.131 99.1961 153.055 99.5119 153.055 99.8445H154.055ZM154.167 99.3788C154.249 99.2267 154.358 99.1039 154.496 99.0053L153.914 98.1915C153.651 98.3793 153.441 98.6181 153.287 98.903L154.167 99.3788ZM154.502 99.0007C154.589 98.9363 154.733 98.8644 154.957 98.7991L154.677 97.8391C154.386 97.9242 154.122 98.0385 153.908 98.1961L154.502 99.0007ZM154.962 98.7978C155.172 98.7343 155.403 98.7009 155.655 98.7009V97.7009C155.313 97.7009 154.985 97.7463 154.673 97.8404L154.962 98.7978ZM155.655 98.7009C156.056 98.7009 156.385 98.7587 156.653 98.8612L157.01 97.9274C156.605 97.772 156.15 97.7009 155.655 97.7009V98.7009ZM156.654 98.8618C156.932 98.9673 157.091 99.0932 157.179 99.2144L157.988 98.627C157.754 98.3041 157.411 98.0791 157.009 97.9267L156.654 98.8618ZM157.181 99.2175C157.281 99.3529 157.371 99.5643 157.423 99.8829L158.41 99.7201C158.341 99.3011 158.208 98.9252 157.986 98.6238L157.181 99.2175ZM157.849 99.3061L156.904 99.435L157.039 100.426L157.984 100.297L157.849 99.3061ZM157.466 99.858C157.407 99.4547 157.226 99.1047 156.906 98.8512L156.284 99.6347C156.38 99.7106 156.45 99.8189 156.476 100.003L157.466 99.858ZM156.909 98.8538C156.585 98.5919 156.167 98.4958 155.725 98.4958V99.4958C156.035 99.4958 156.197 99.5645 156.281 99.632L156.909 98.8538ZM155.725 98.4958C155.252 98.4958 154.794 98.5688 154.468 98.8206L155.08 99.6115C155.134 99.5697 155.31 99.4958 155.725 99.4958V98.4958ZM154.468 98.8206C154.186 99.0391 153.99 99.3459 153.99 99.7317H154.99C154.99 99.7175 154.992 99.7084 154.999 99.6967C155.007 99.6822 155.028 99.6522 155.08 99.6115L154.468 98.8206ZM153.99 99.7317C153.99 99.9711 154.068 100.192 154.215 100.379L155.001 99.7612C154.993 99.7514 154.992 99.7464 154.991 99.7454C154.991 99.7446 154.99 99.741 154.99 99.7317H153.99ZM154.21 100.372C154.36 100.571 154.571 100.702 154.791 100.791L155.166 99.8643C155.05 99.8174 155.013 99.7771 155.006 99.7679L154.21 100.372ZM154.805 100.797C154.928 100.842 155.239 100.931 155.701 101.057L155.964 100.093C155.481 99.9608 155.223 99.8852 155.152 99.859L154.805 100.797ZM155.703 101.058C156.387 101.241 156.83 101.383 157.06 101.484L157.463 100.568C157.155 100.433 156.645 100.274 155.961 100.092L155.703 101.058ZM157.067 101.487C157.26 101.568 157.395 101.679 157.49 101.816L158.311 101.246C158.098 100.939 157.806 100.713 157.455 100.565L157.067 101.487ZM157.49 101.816C157.574 101.937 157.631 102.108 157.631 102.358H158.631C158.631 101.95 158.535 101.569 158.311 101.246L157.49 101.816ZM157.631 102.358C157.631 102.576 157.569 102.785 157.43 102.995L158.263 103.547C158.504 103.185 158.631 102.785 158.631 102.358H157.631ZM157.429 102.996C157.303 103.188 157.113 103.351 156.833 103.475L157.239 104.389C157.668 104.198 158.018 103.92 158.264 103.546L157.429 102.996ZM156.836 103.473C156.554 103.596 156.222 103.663 155.832 103.663V104.663C156.338 104.663 156.808 104.576 157.235 104.39L156.836 103.473ZM155.832 103.663C155.151 103.663 154.713 103.52 154.445 103.308L153.826 104.093C154.338 104.498 155.032 104.663 155.832 104.663V103.663ZM154.447 103.31C154.177 103.095 153.978 102.759 153.886 102.244L152.902 102.419C153.025 103.113 153.32 103.691 153.824 104.092L154.447 103.31Z" fill="white"/>
<path d="M115.027 90.0361H112.918V76.5947C112.41 77.0791 111.742 77.5635 110.914 78.0479C110.094 78.5322 109.355 78.8955 108.699 79.1377V77.0986C109.879 76.5439 110.91 75.8721 111.793 75.083C112.676 74.2939 113.301 73.5283 113.668 72.7861H115.027V90.0361ZM120.441 81.5635C120.441 79.5322 120.648 77.8994 121.062 76.665C121.484 75.4229 122.105 74.4658 122.926 73.7939C123.754 73.1221 124.793 72.7861 126.043 72.7861C126.965 72.7861 127.773 72.9736 128.469 73.3486C129.164 73.7158 129.738 74.251 130.191 74.9541C130.645 75.6494 131 76.501 131.258 77.5088C131.516 78.5088 131.645 79.8604 131.645 81.5635C131.645 83.5791 131.437 85.208 131.023 86.4502C130.609 87.6846 129.988 88.6416 129.16 89.3213C128.34 89.9932 127.301 90.3291 126.043 90.3291C124.387 90.3291 123.086 89.7354 122.141 88.5479C121.008 87.1182 120.441 84.79 120.441 81.5635ZM122.609 81.5635C122.609 84.3838 122.937 86.2627 123.594 87.2002C124.258 88.1299 125.074 88.5947 126.043 88.5947C127.012 88.5947 127.824 88.126 128.48 87.1885C129.145 86.251 129.477 84.376 129.477 81.5635C129.477 78.7354 129.145 76.8564 128.48 75.9268C127.824 74.9971 127.004 74.5322 126.02 74.5322C125.051 74.5322 124.277 74.9424 123.699 75.7627C122.973 76.8096 122.609 78.7432 122.609 81.5635ZM133.801 81.5635C133.801 79.5322 134.008 77.8994 134.422 76.665C134.844 75.4229 135.465 74.4658 136.285 73.7939C137.113 73.1221 138.152 72.7861 139.402 72.7861C140.324 72.7861 141.133 72.9736 141.828 73.3486C142.523 73.7158 143.098 74.251 143.551 74.9541C144.004 75.6494 144.359 76.501 144.617 77.5088C144.875 78.5088 145.004 79.8604 145.004 81.5635C145.004 83.5791 144.797 85.208 144.383 86.4502C143.969 87.6846 143.348 88.6416 142.52 89.3213C141.699 89.9932 140.66 90.3291 139.402 90.3291C137.746 90.3291 136.445 89.7354 135.5 88.5479C134.367 87.1182 133.801 84.79 133.801 81.5635ZM135.969 81.5635C135.969 84.3838 136.297 86.2627 136.953 87.2002C137.617 88.1299 138.434 88.5947 139.402 88.5947C140.371 88.5947 141.184 88.126 141.84 87.1885C142.504 86.251 142.836 84.376 142.836 81.5635C142.836 78.7354 142.504 76.8564 141.84 75.9268C141.184 74.9971 140.363 74.5322 139.379 74.5322C138.41 74.5322 137.637 74.9424 137.059 75.7627C136.332 76.8096 135.969 78.7432 135.969 81.5635Z" fill="#828690"/>
<path d="M115.027 90.0361V90.5361H115.527V90.0361H115.027ZM112.918 90.0361H112.418V90.5361H112.918V90.0361ZM112.918 76.5947H113.418V75.4268L112.573 76.2329L112.918 76.5947ZM110.914 78.0479L110.662 77.6163L110.66 77.6173L110.914 78.0479ZM108.699 79.1377H108.199V79.8552L108.872 79.6068L108.699 79.1377ZM108.699 77.0986L108.486 76.6462L108.199 76.7812V77.0986H108.699ZM113.668 72.7861V72.2861H113.357L113.22 72.5644L113.668 72.7861ZM115.027 72.7861H115.527V72.2861H115.027V72.7861ZM115.027 89.5361H112.918V90.5361H115.027V89.5361ZM113.418 90.0361V76.5947H112.418V90.0361H113.418ZM112.573 76.2329C112.101 76.6828 111.468 77.1449 110.662 77.6163L111.166 78.4794C112.017 77.9821 112.719 77.4754 113.263 76.9565L112.573 76.2329ZM110.66 77.6173C109.857 78.0915 109.146 78.4398 108.526 78.6686L108.872 79.6068C109.565 79.3512 110.331 78.973 111.168 78.4784L110.66 77.6173ZM109.199 79.1377V77.0986H108.199V79.1377H109.199ZM108.912 77.5511C110.131 76.9779 111.204 76.2802 112.126 75.4558L111.46 74.7102C110.616 75.464 109.627 76.11 108.486 76.6462L108.912 77.5511ZM112.126 75.4558C113.038 74.641 113.711 73.8262 114.116 73.0079L113.22 72.5644C112.89 73.2304 112.314 73.9469 111.46 74.7102L112.126 75.4558ZM113.668 73.2861H115.027V72.2861H113.668V73.2861ZM114.527 72.7861V90.0361H115.527V72.7861H114.527ZM121.062 76.665L120.589 76.5042L120.588 76.506L121.062 76.665ZM122.926 73.7939L122.611 73.4057L122.609 73.4071L122.926 73.7939ZM128.469 73.3486L128.231 73.7887L128.235 73.7908L128.469 73.3486ZM130.191 74.9541L129.771 75.225L129.772 75.2271L130.191 74.9541ZM131.258 77.5088L130.773 77.6327L130.774 77.6336L131.258 77.5088ZM131.023 86.4502L131.497 86.6092L131.498 86.6083L131.023 86.4502ZM129.16 89.3213L129.477 89.7081L129.477 89.7078L129.16 89.3213ZM122.141 88.5479L121.749 88.8584L121.749 88.8593L122.141 88.5479ZM123.594 87.2002L123.184 87.4869L123.187 87.4908L123.594 87.2002ZM128.48 87.1885L128.072 86.8995L128.071 86.9017L128.48 87.1885ZM128.48 75.9268L128.072 76.2151L128.074 76.2174L128.48 75.9268ZM123.699 75.7627L123.29 75.4747L123.288 75.4776L123.699 75.7627ZM120.941 81.5635C120.941 79.5595 121.146 77.9868 121.537 76.8241L120.588 76.506C120.15 77.812 119.941 79.5049 119.941 81.5635H120.941ZM121.536 76.8258C121.935 75.6512 122.51 74.7808 123.243 74.1808L122.609 73.4071C121.701 74.1508 121.034 75.1945 120.589 76.5042L121.536 76.8258ZM123.241 74.1822C123.965 73.5947 124.887 73.2861 126.043 73.2861V72.2861C124.699 72.2861 123.543 72.6495 122.611 73.4057L123.241 74.1822ZM126.043 73.2861C126.896 73.2861 127.62 73.4591 128.231 73.7887L128.706 72.9086C127.927 72.4881 127.034 72.2861 126.043 72.2861V73.2861ZM128.235 73.7908C128.85 74.1153 129.361 74.5893 129.771 75.225L130.612 74.6833C130.115 73.9127 129.478 73.3164 128.702 72.9065L128.235 73.7908ZM129.772 75.2271C130.189 75.8667 130.526 76.665 130.773 77.6327L131.742 77.3849C131.474 76.337 131.1 75.4321 130.61 74.6811L129.772 75.2271ZM130.774 77.6336C131.016 78.5751 131.145 79.879 131.145 81.5635H132.145C132.145 79.8417 132.015 78.4425 131.742 77.384L130.774 77.6336ZM131.145 81.5635C131.145 83.5511 130.94 85.1206 130.549 86.2921L131.498 86.6083C131.935 85.2954 132.145 83.6071 132.145 81.5635H131.145ZM130.549 86.2912C130.159 87.4558 129.584 88.3264 128.843 88.9348L129.477 89.7078C130.392 88.9568 131.06 87.9134 131.497 86.6092L130.549 86.2912ZM128.843 88.9345C128.128 89.5201 127.208 89.8291 126.043 89.8291V90.8291C127.394 90.8291 128.551 90.4662 129.477 89.7081L128.843 88.9345ZM126.043 89.8291C124.523 89.8291 123.373 89.2929 122.532 88.2364L121.749 88.8593C122.799 90.1778 124.25 90.8291 126.043 90.8291V89.8291ZM122.532 88.2373C121.506 86.9419 120.941 84.7546 120.941 81.5635H119.941C119.941 84.8254 120.51 87.2945 121.749 88.8584L122.532 88.2373ZM122.109 81.5635C122.109 82.9902 122.192 84.1961 122.363 85.1739C122.532 86.1435 122.795 86.931 123.184 87.4869L124.003 86.9135C123.736 86.5319 123.507 85.9112 123.348 85.0019C123.191 84.1008 123.109 82.9571 123.109 81.5635H122.109ZM123.187 87.4908C123.926 88.525 124.882 89.0947 126.043 89.0947V88.0947C125.266 88.0947 124.59 87.7347 124.001 86.9096L123.187 87.4908ZM126.043 89.0947C127.206 89.0947 128.16 88.5186 128.89 87.4752L128.071 86.9017C127.489 87.7333 126.817 88.0947 126.043 88.0947V89.0947ZM128.888 87.4775C129.282 86.9215 129.548 86.1346 129.72 85.1663C129.893 84.1899 129.977 82.9865 129.977 81.5635H128.977C128.977 82.9529 128.894 84.0933 128.735 84.9919C128.575 85.8986 128.343 86.518 128.072 86.8995L128.888 87.4775ZM129.977 81.5635C129.977 80.1327 129.893 78.9245 129.72 77.9462C129.548 76.9763 129.282 76.1892 128.887 75.6361L128.074 76.2174C128.343 76.594 128.574 77.2112 128.735 78.1202C128.894 79.0208 128.977 80.1661 128.977 81.5635H129.977ZM128.889 75.6384C128.156 74.5998 127.193 74.0322 126.02 74.0322V75.0322C126.814 75.0322 127.493 75.3943 128.072 76.2151L128.889 75.6384ZM126.02 74.0322C124.881 74.0322 123.958 74.5271 123.29 75.4747L124.108 76.0507C124.596 75.3577 125.22 75.0322 126.02 75.0322V74.0322ZM123.288 75.4776C122.869 76.0817 122.579 76.9036 122.39 77.9057C122.201 78.9129 122.109 80.1344 122.109 81.5635H123.109C123.109 80.1722 123.199 79.0168 123.373 78.0904C123.548 77.1589 123.803 76.4905 124.11 76.0478L123.288 75.4776ZM134.422 76.665L133.948 76.5042L133.948 76.506L134.422 76.665ZM136.285 73.7939L135.97 73.4057L135.968 73.4071L136.285 73.7939ZM141.828 73.3486L141.591 73.7887L141.595 73.7908L141.828 73.3486ZM143.551 74.9541L143.13 75.225L143.132 75.2271L143.551 74.9541ZM144.617 77.5088L144.133 77.6327L144.133 77.6336L144.617 77.5088ZM144.383 86.4502L144.857 86.6092L144.857 86.6083L144.383 86.4502ZM142.52 89.3213L142.836 89.7081L142.837 89.7078L142.52 89.3213ZM135.5 88.5479L135.108 88.8584L135.109 88.8593L135.5 88.5479ZM136.953 87.2002L136.543 87.4869L136.546 87.4908L136.953 87.2002ZM141.84 87.1885L141.432 86.8995L141.43 86.9017L141.84 87.1885ZM141.84 75.9268L141.431 76.2151L141.433 76.2174L141.84 75.9268ZM137.059 75.7627L136.65 75.4747L136.648 75.4776L137.059 75.7627ZM134.301 81.5635C134.301 79.5595 134.506 77.9868 134.896 76.8241L133.948 76.506C133.51 77.812 133.301 79.5049 133.301 81.5635H134.301ZM134.895 76.8258C135.294 75.6512 135.869 74.7808 136.602 74.1808L135.968 73.4071C135.06 74.1508 134.393 75.1945 133.948 76.5042L134.895 76.8258ZM136.6 74.1822C137.324 73.5947 138.246 73.2861 139.402 73.2861V72.2861C138.058 72.2861 136.902 72.6495 135.97 73.4057L136.6 74.1822ZM139.402 73.2861C140.255 73.2861 140.98 73.4591 141.591 73.7887L142.065 72.9086C141.286 72.4881 140.393 72.2861 139.402 72.2861V73.2861ZM141.595 73.7908C142.209 74.1153 142.721 74.5893 143.13 75.225L143.971 74.6833C143.474 73.9127 142.838 73.3164 142.062 72.9065L141.595 73.7908ZM143.132 75.2271C143.549 75.8667 143.885 76.665 144.133 77.6327L145.102 77.3849C144.833 76.337 144.459 75.4321 143.97 74.6811L143.132 75.2271ZM144.133 77.6336C144.376 78.5751 144.504 79.879 144.504 81.5635H145.504C145.504 79.8417 145.374 78.4425 145.101 77.384L144.133 77.6336ZM144.504 81.5635C144.504 83.5511 144.299 85.1206 143.908 86.2921L144.857 86.6083C145.295 85.2954 145.504 83.6071 145.504 81.5635H144.504ZM143.909 86.2912C143.518 87.4558 142.944 88.3264 142.202 88.9348L142.837 89.7078C143.752 88.9568 144.419 87.9134 144.857 86.6092L143.909 86.2912ZM142.203 88.9345C141.488 89.5201 140.567 89.8291 139.402 89.8291V90.8291C140.753 90.8291 141.911 90.4662 142.836 89.7081L142.203 88.9345ZM139.402 89.8291C137.882 89.8291 136.732 89.2929 135.891 88.2364L135.109 88.8593C136.158 90.1778 137.61 90.8291 139.402 90.8291V89.8291ZM135.892 88.2373C134.865 86.9419 134.301 84.7546 134.301 81.5635H133.301C133.301 84.8254 133.869 87.2945 135.108 88.8584L135.892 88.2373ZM135.469 81.5635C135.469 82.9902 135.552 84.1961 135.722 85.1739C135.892 86.1435 136.154 86.931 136.543 87.4869L137.363 86.9135C137.096 86.5319 136.866 85.9112 136.707 85.0019C136.55 84.1008 136.469 82.9571 136.469 81.5635H135.469ZM136.546 87.4908C137.285 88.525 138.242 89.0947 139.402 89.0947V88.0947C138.625 88.0947 137.949 87.7347 137.36 86.9096L136.546 87.4908ZM139.402 89.0947C140.565 89.0947 141.519 88.5186 142.249 87.4752L141.43 86.9017C140.848 87.7333 140.177 88.0947 139.402 88.0947V89.0947ZM142.248 87.4775C142.642 86.9215 142.908 86.1346 143.079 85.1663C143.252 84.1899 143.336 82.9865 143.336 81.5635H142.336C142.336 82.9529 142.254 84.0933 142.095 84.9919C141.934 85.8986 141.702 86.518 141.432 86.8995L142.248 87.4775ZM143.336 81.5635C143.336 80.1327 143.252 78.9245 143.079 77.9462C142.908 76.9763 142.642 76.1892 142.247 75.6361L141.433 76.2174C141.702 76.594 141.934 77.2112 142.095 78.1202C142.254 79.0208 142.336 80.1661 142.336 81.5635H143.336ZM142.248 75.6384C141.515 74.5998 140.553 74.0322 139.379 74.0322V75.0322C140.174 75.0322 140.852 75.3943 141.431 76.2151L142.248 75.6384ZM139.379 74.0322C138.241 74.0322 137.318 74.5271 136.65 75.4747L137.467 76.0507C137.956 75.3577 138.58 75.0322 139.379 75.0322V74.0322ZM136.648 75.4776C136.229 76.0817 135.938 76.9036 135.75 77.9057C135.561 78.9129 135.469 80.1344 135.469 81.5635H136.469C136.469 80.1722 136.559 79.0168 136.733 78.0904C136.908 77.1589 137.162 76.4905 137.469 76.0478L136.648 75.4776Z" fill="white"/>
</g>
<defs>
<clipPath id="clip0_1_1225">
<rect width="250" height="187.016" fill="white" transform="translate(0.125 0.875)"/>
</clipPath>
</defs>
</svg>
