<svg width="345" height="21" viewBox="0 0 345 21" fill="none" xmlns="http://www.w3.org/2000/svg">
<g clip-path="url(#clip0_1_324)">
<path fill-rule="evenodd" clip-rule="evenodd" d="M3.61057 16.4838H14.3979C15.5844 16.4838 16.3291 15.2013 15.7396 14.1708L10.3501 4.74706C9.75682 3.70981 8.26132 3.70906 7.66732 4.74631L2.26882 14.1701C1.67932 15.2006 2.42332 16.4838 3.61057 16.4838Z" stroke="#FF9F00" stroke-width="1.5" stroke-linecap="round" stroke-linejoin="round"/>
<path d="M9.00183 11.2173V8.89233" stroke="#FF9F00" stroke-width="1.5" stroke-linecap="round" stroke-linejoin="round"/>
<path d="M8.99622 13.5312H9.00372" stroke="#FF9F00" stroke-width="2" stroke-linecap="round" stroke-linejoin="round"/>
</g>
<path d="M23.078 4.242V14H27.768V12.964H24.352V4.242H23.078ZM28.645 10.136C28.645 12.516 30.227 14.126 32.271 14.126C33.685 14.126 34.679 13.398 35.141 12.572V14H36.429V6.328H35.141V7.728C34.693 6.93 33.713 6.202 32.285 6.202C30.227 6.202 28.645 7.742 28.645 10.136ZM35.141 10.15C35.141 11.956 33.937 13.006 32.537 13.006C31.137 13.006 29.947 11.942 29.947 10.136C29.947 8.33 31.137 7.308 32.537 7.308C33.937 7.308 35.141 8.372 35.141 10.15ZM38.8619 11.9C38.8619 13.44 39.6319 14 40.9899 14H42.1379V12.922H41.1999C40.4159 12.922 40.1359 12.656 40.1359 11.9V7.378H42.1379V6.328H40.1359V4.396H38.8619V6.328H37.8679V7.378H38.8619V11.9ZM46.9435 7.28C48.2595 7.28 49.3795 8.106 49.3655 9.604H44.5215C44.6615 8.106 45.6975 7.28 46.9435 7.28ZM50.5275 11.634H49.1555C48.8755 12.46 48.1475 13.048 46.9995 13.048C45.6975 13.048 44.6055 12.194 44.5075 10.64H50.6395C50.6675 10.374 50.6815 10.15 50.6815 9.87C50.6815 7.77 49.2255 6.202 46.9995 6.202C44.7595 6.202 43.2055 7.728 43.2055 10.15C43.2055 12.586 44.8155 14.126 46.9995 14.126C48.9035 14.126 50.1355 13.034 50.5275 11.634ZM57.8792 11.914C57.8232 9.17 53.3712 10.164 53.3712 8.344C53.3712 7.728 53.9312 7.28 54.8692 7.28C55.8912 7.28 56.4792 7.84 56.5352 8.61H57.8092C57.7252 7.112 56.6052 6.202 54.9112 6.202C53.2032 6.202 52.0972 7.168 52.0972 8.344C52.0972 11.2 56.6332 10.206 56.6332 11.914C56.6332 12.544 56.0732 13.048 55.0652 13.048C53.9872 13.048 53.3292 12.488 53.2592 11.746H51.9432C52.0272 13.146 53.2872 14.126 55.0792 14.126C56.7732 14.126 57.8792 13.174 57.8792 11.914ZM59.9576 11.9C59.9576 13.44 60.7276 14 62.0856 14H63.2336V12.922H62.2956C61.5116 12.922 61.2316 12.656 61.2316 11.9V7.378H63.2336V6.328H61.2316V4.396H59.9576V6.328H58.9636V7.378H59.9576V11.9ZM68.7896 11.9C68.7896 13.44 69.5596 14 70.9176 14H72.0656V12.922H71.1276C70.3436 12.922 70.0636 12.656 70.0636 11.9V7.378H72.0656V6.328H70.0636V4.396H68.7896V6.328H67.7956V7.378H68.7896V11.9ZM80.8893 10.15C80.8893 7.728 79.1953 6.202 77.0113 6.202C74.8413 6.202 73.1333 7.728 73.1333 10.15C73.1333 12.586 74.7853 14.126 76.9553 14.126C79.1393 14.126 80.8893 12.586 80.8893 10.15ZM74.4353 10.15C74.4353 8.218 75.6533 7.308 76.9973 7.308C78.3133 7.308 79.5873 8.218 79.5873 10.15C79.5873 12.096 78.2853 13.006 76.9553 13.006C75.6253 13.006 74.4353 12.096 74.4353 10.15ZM85.8208 10.136C85.8208 12.516 87.4028 14.126 89.4608 14.126C90.8608 14.126 91.8548 13.412 92.3168 12.558V14H93.6048V3.64H92.3168V7.7C91.7848 6.818 90.6788 6.202 89.4748 6.202C87.4028 6.202 85.8208 7.742 85.8208 10.136ZM92.3168 10.15C92.3168 11.956 91.1128 13.006 89.7128 13.006C88.3128 13.006 87.1228 11.942 87.1228 10.136C87.1228 8.33 88.3128 7.308 89.7128 7.308C91.1128 7.308 92.3168 8.372 92.3168 10.15ZM103.038 10.15C103.038 7.728 101.344 6.202 99.1597 6.202C96.9897 6.202 95.2817 7.728 95.2817 10.15C95.2817 12.586 96.9337 14.126 99.1037 14.126C101.288 14.126 103.038 12.586 103.038 10.15ZM96.5837 10.15C96.5837 8.218 97.8017 7.308 99.1457 7.308C100.462 7.308 101.736 8.218 101.736 10.15C101.736 12.096 100.434 13.006 99.1037 13.006C97.7737 13.006 96.5837 12.096 96.5837 10.15ZM104.307 5.642H105.189L105.357 2.856H104.125L104.307 5.642ZM112.457 11.914C112.401 9.17 107.949 10.164 107.949 8.344C107.949 7.728 108.509 7.28 109.447 7.28C110.469 7.28 111.057 7.84 111.113 8.61H112.387C112.303 7.112 111.183 6.202 109.489 6.202C107.781 6.202 106.675 7.168 106.675 8.344C106.675 11.2 111.211 10.206 111.211 11.914C111.211 12.544 110.651 13.048 109.643 13.048C108.565 13.048 107.907 12.488 107.837 11.746H106.521C106.605 13.146 107.865 14.126 109.657 14.126C111.351 14.126 112.457 13.174 112.457 11.914Z" fill="#FF9F00"/>
<defs>
<clipPath id="clip0_1_324">
<rect width="18" height="18" fill="white" transform="translate(0 1.15625)"/>
</clipPath>
</defs>
</svg>
