<svg width="345" height="21" viewBox="0 0 345 21" fill="none" xmlns="http://www.w3.org/2000/svg">
<g clip-path="url(#clip0_1_373)">
<path d="M15 5.65625L6.75 13.9062L3 10.1562" stroke="#3AC977" stroke-width="2" stroke-linecap="round" stroke-linejoin="round"/>
</g>
<path d="M23.078 4.242V14H27.768V12.964H24.352V4.242H23.078ZM28.645 10.136C28.645 12.516 30.227 14.126 32.271 14.126C33.685 14.126 34.679 13.398 35.141 12.572V14H36.429V6.328H35.141V7.728C34.693 6.93 33.713 6.202 32.285 6.202C30.227 6.202 28.645 7.742 28.645 10.136ZM35.141 10.15C35.141 11.956 33.937 13.006 32.537 13.006C31.137 13.006 29.947 11.942 29.947 10.136C29.947 8.33 31.137 7.308 32.537 7.308C33.937 7.308 35.141 8.372 35.141 10.15ZM38.8619 11.9C38.8619 13.44 39.6319 14 40.9899 14H42.1379V12.922H41.1999C40.4159 12.922 40.1359 12.656 40.1359 11.9V7.378H42.1379V6.328H40.1359V4.396H38.8619V6.328H37.8679V7.378H38.8619V11.9ZM46.9435 7.28C48.2595 7.28 49.3795 8.106 49.3655 9.604H44.5215C44.6615 8.106 45.6975 7.28 46.9435 7.28ZM50.5275 11.634H49.1555C48.8755 12.46 48.1475 13.048 46.9995 13.048C45.6975 13.048 44.6055 12.194 44.5075 10.64H50.6395C50.6675 10.374 50.6815 10.15 50.6815 9.87C50.6815 7.77 49.2255 6.202 46.9995 6.202C44.7595 6.202 43.2055 7.728 43.2055 10.15C43.2055 12.586 44.8155 14.126 46.9995 14.126C48.9035 14.126 50.1355 13.034 50.5275 11.634ZM57.8792 11.914C57.8232 9.17 53.3712 10.164 53.3712 8.344C53.3712 7.728 53.9312 7.28 54.8692 7.28C55.8912 7.28 56.4792 7.84 56.5352 8.61H57.8092C57.7252 7.112 56.6052 6.202 54.9112 6.202C53.2032 6.202 52.0972 7.168 52.0972 8.344C52.0972 11.2 56.6332 10.206 56.6332 11.914C56.6332 12.544 56.0732 13.048 55.0652 13.048C53.9872 13.048 53.3292 12.488 53.2592 11.746H51.9432C52.0272 13.146 53.2872 14.126 55.0792 14.126C56.7732 14.126 57.8792 13.174 57.8792 11.914ZM59.9576 11.9C59.9576 13.44 60.7276 14 62.0856 14H63.2336V12.922H62.2956C61.5116 12.922 61.2316 12.656 61.2316 11.9V7.378H63.2336V6.328H61.2316V4.396H59.9576V6.328H58.9636V7.378H59.9576V11.9ZM68.7476 14H70.0216V7.378H71.6316V6.328H70.0216V5.782C70.0216 4.788 70.3996 4.368 71.5476 4.368V3.304C69.5876 3.304 68.7476 4.074 68.7476 5.782V6.328H67.7536V7.378H68.7476V14ZM73.1171 14H74.3911V6.328H73.1171V14ZM73.7751 5.082C74.2371 5.082 74.6151 4.704 74.6151 4.214C74.6151 3.724 74.2371 3.346 73.7751 3.346C73.2851 3.346 72.9071 3.724 72.9071 4.214C72.9071 4.704 73.2851 5.082 73.7751 5.082ZM82.1764 14H83.4364V9.478C83.4364 7.28 82.0784 6.188 80.3004 6.188C79.2644 6.188 78.3404 6.622 77.8364 7.42V6.328H76.5624V14H77.8364V9.758C77.8364 8.106 78.7324 7.294 80.0344 7.294C81.3224 7.294 82.1764 8.092 82.1764 9.66V14ZM85.5175 14H86.7915V6.328H85.5175V14ZM86.1755 5.082C86.6375 5.082 87.0155 4.704 87.0155 4.214C87.0155 3.724 86.6375 3.346 86.1755 3.346C85.6855 3.346 85.3075 3.724 85.3075 4.214C85.3075 4.704 85.6855 5.082 86.1755 5.082ZM94.4788 11.914C94.4228 9.17 89.9708 10.164 89.9708 8.344C89.9708 7.728 90.5308 7.28 91.4688 7.28C92.4908 7.28 93.0788 7.84 93.1348 8.61H94.4088C94.3248 7.112 93.2048 6.202 91.5108 6.202C89.8028 6.202 88.6968 7.168 88.6968 8.344C88.6968 11.2 93.2328 10.206 93.2328 11.914C93.2328 12.544 92.6728 13.048 91.6648 13.048C90.5868 13.048 89.9288 12.488 89.8588 11.746H88.5428C88.6268 13.146 89.8868 14.126 91.6788 14.126C93.3728 14.126 94.4788 13.174 94.4788 11.914ZM96.2772 14H97.5512V9.758C97.5512 8.106 98.4472 7.294 99.7492 7.294C101.037 7.294 101.891 8.092 101.891 9.66V14H103.151V9.478C103.151 7.28 101.793 6.188 100.085 6.188C99.0072 6.188 98.0552 6.622 97.5512 7.434V3.64H96.2772V14ZM108.494 7.28C109.81 7.28 110.93 8.106 110.916 9.604H106.072C106.212 8.106 107.248 7.28 108.494 7.28ZM112.078 11.634H110.706C110.426 12.46 109.698 13.048 108.55 13.048C107.248 13.048 106.156 12.194 106.058 10.64H112.19C112.218 10.374 112.232 10.15 112.232 9.87C112.232 7.77 110.776 6.202 108.55 6.202C106.31 6.202 104.756 7.728 104.756 10.15C104.756 12.586 106.366 14.126 108.55 14.126C110.454 14.126 111.686 13.034 112.078 11.634ZM113.438 10.136C113.438 12.516 115.02 14.126 117.078 14.126C118.478 14.126 119.472 13.412 119.934 12.558V14H121.222V3.64H119.934V7.7C119.402 6.818 118.296 6.202 117.092 6.202C115.02 6.202 113.438 7.742 113.438 10.136ZM119.934 10.15C119.934 11.956 118.73 13.006 117.33 13.006C115.93 13.006 114.74 11.942 114.74 10.136C114.74 8.33 115.93 7.308 117.33 7.308C118.73 7.308 119.934 8.372 119.934 10.15ZM127.387 11.9C127.387 13.44 128.157 14 129.515 14H130.663V12.922H129.725C128.941 12.922 128.661 12.656 128.661 11.9V7.378H130.663V6.328H128.661V4.396H127.387V6.328H126.393V7.378H127.387V11.9ZM139.487 10.15C139.487 7.728 137.793 6.202 135.609 6.202C133.439 6.202 131.731 7.728 131.731 10.15C131.731 12.586 133.383 14.126 135.553 14.126C137.737 14.126 139.487 12.586 139.487 10.15ZM133.033 10.15C133.033 8.218 134.251 7.308 135.595 7.308C136.911 7.308 138.185 8.218 138.185 10.15C138.185 12.096 136.883 13.006 135.553 13.006C134.223 13.006 133.033 12.096 133.033 10.15ZM144.418 10.136C144.418 12.516 146 14.126 148.058 14.126C149.458 14.126 150.452 13.412 150.914 12.558V14H152.202V3.64H150.914V7.7C150.382 6.818 149.276 6.202 148.072 6.202C146 6.202 144.418 7.742 144.418 10.136ZM150.914 10.15C150.914 11.956 149.71 13.006 148.31 13.006C146.91 13.006 145.72 11.942 145.72 10.136C145.72 8.33 146.91 7.308 148.31 7.308C149.71 7.308 150.914 8.372 150.914 10.15ZM161.635 10.15C161.635 7.728 159.941 6.202 157.757 6.202C155.587 6.202 153.879 7.728 153.879 10.15C153.879 12.586 155.531 14.126 157.701 14.126C159.885 14.126 161.635 12.586 161.635 10.15ZM155.181 10.15C155.181 8.218 156.399 7.308 157.743 7.308C159.059 7.308 160.333 8.218 160.333 10.15C160.333 12.096 159.031 13.006 157.701 13.006C156.371 13.006 155.181 12.096 155.181 10.15ZM162.904 5.642H163.786L163.954 2.856H162.722L162.904 5.642ZM171.055 11.914C170.999 9.17 166.547 10.164 166.547 8.344C166.547 7.728 167.107 7.28 168.045 7.28C169.067 7.28 169.655 7.84 169.711 8.61H170.985C170.901 7.112 169.781 6.202 168.087 6.202C166.379 6.202 165.273 7.168 165.273 8.344C165.273 11.2 169.809 10.206 169.809 11.914C169.809 12.544 169.249 13.048 168.241 13.048C167.163 13.048 166.505 12.488 166.435 11.746H165.119C165.203 13.146 166.463 14.126 168.255 14.126C169.949 14.126 171.055 13.174 171.055 11.914Z" fill="#3AC977"/>
<defs>
<clipPath id="clip0_1_373">
<rect width="18" height="18" fill="white" transform="translate(0 1.15625)"/>
</clipPath>
</defs>
</svg>
