<svg width="369" height="193" viewBox="0 0 369 193" fill="none" xmlns="http://www.w3.org/2000/svg">
<mask id="path-1-inside-1_1_1194" fill="white">
<path d="M0.734375 0.1875H368.984V40.1875H0.734375V0.1875Z"/>
</mask>
<path d="M0.734375 1.1875H368.984V-0.8125H0.734375V1.1875Z" fill="#444444" mask="url(#path-1-inside-1_1_1194)"/>
<path d="M27.1604 14.4435H21.7844V24.1875H27.1604V22.8855H23.3804V19.9035H26.7404V18.6015H23.3804V15.7455H27.1604V14.4435ZM32.9342 22.5495L30.0502 14.4575H28.3422L32.0102 24.1875H33.8582L37.5122 14.4575H35.8322L32.9342 22.5495ZM44.2229 14.4435H38.8469V24.1875H44.2229V22.8855H40.4429V19.9035H43.8029V18.6015H40.4429V15.7455H44.2229V14.4435ZM52.5867 14.4435V21.6955L47.7847 14.4435H46.1887V24.1875H47.7847V16.9215L52.5867 24.1875H54.1827V14.4435H52.5867ZM55.7745 15.7595H58.3785V24.1875H59.9745V15.7595H62.5645V14.4575H55.7745V15.7595ZM70.7469 21.4295C70.7469 17.8735 65.5949 19.2455 65.5949 17.0475C65.5949 16.1095 66.3089 15.6615 67.2329 15.6895C68.2409 15.7175 68.8149 16.3195 68.8709 16.9775H70.6349C70.4949 15.3115 69.1789 14.3315 67.3169 14.3315C65.3289 14.3315 63.9709 15.3955 63.9709 17.1035C63.9709 20.6875 69.1369 19.1615 69.1369 21.5135C69.1369 22.3395 68.5069 22.9415 67.3869 22.9415C66.2809 22.9415 65.7209 22.2975 65.6509 21.4995H63.9429C63.9429 23.2215 65.4409 24.2855 67.3869 24.2855C69.5569 24.2855 70.7469 22.8855 70.7469 21.4295Z" fill="white"/>
<g clip-path="url(#clip0_1_1194)">
<mask id="path-4-inside-2_1_1194" fill="white">
<path d="M20.7344 48.1875H348.984V124.188H20.7344V48.1875Z"/>
</mask>
<path d="M348.984 123.188H20.7344V125.188H348.984V123.188Z" fill="#444444" mask="url(#path-4-inside-2_1_1194)"/>
<rect x="20.7344" y="58.1875" width="55" height="55" rx="6" fill="#0D99FF" fill-opacity="0.1"/>
<path d="M37.0273 83.9875H46.9073V81.6675H41.0073C43.3273 79.7075 46.5873 77.0675 46.5873 73.6875C46.5873 71.1475 45.0073 69.2875 41.8673 69.2875C39.2473 69.2875 37.1073 70.8275 37.0073 74.1675H39.7273C39.7473 72.6275 40.4873 71.6675 41.8273 71.6675C43.2073 71.6675 43.7873 72.5475 43.7873 73.8475C43.7873 76.5275 40.3273 79.1075 37.0273 81.9075V83.9875ZM48.6717 76.7075C48.6717 80.9675 49.9517 84.1475 54.0717 84.1475C58.1917 84.1475 59.4717 80.9675 59.4717 76.7075C59.4717 72.4875 58.1917 69.3275 54.0717 69.3275C49.9517 69.3275 48.6717 72.4875 48.6717 76.7075ZM56.7117 76.7075C56.7117 79.3075 56.4317 81.5475 54.0717 81.5475C51.7117 81.5475 51.4317 79.3075 51.4317 76.7075C51.4317 74.2075 51.7117 71.9275 54.0717 71.9275C56.4317 71.9275 56.7117 74.2075 56.7117 76.7075Z" fill="white"/>
<path d="M34.4202 101.188H35.6942V93.9495L38.9282 101.188H39.8242L43.0442 93.9635V101.188H44.3182V91.4995H42.9602L39.3762 99.5075L35.7922 91.4995H34.4202V101.188ZM53.7588 97.3375C53.7588 94.9155 52.0648 93.3895 49.8808 93.3895C47.7108 93.3895 46.0028 94.9155 46.0028 97.3375C46.0028 99.7735 47.6548 101.314 49.8248 101.314C52.0088 101.314 53.7588 99.7735 53.7588 97.3375ZM47.3048 97.3375C47.3048 95.4055 48.5228 94.4955 49.8668 94.4955C51.1828 94.4955 52.4568 95.4055 52.4568 97.3375C52.4568 99.2835 51.1548 100.193 49.8248 100.193C48.4948 100.193 47.3048 99.2835 47.3048 97.3375ZM61.0479 101.188H62.3079V96.6655C62.3079 94.4675 60.9499 93.3755 59.1719 93.3755C58.1359 93.3755 57.2119 93.8095 56.7079 94.6075V93.5155H55.4339V101.188H56.7079V96.9455C56.7079 95.2935 57.6039 94.4815 58.9059 94.4815C60.1939 94.4815 61.0479 95.2795 61.0479 96.8475V101.188Z" fill="#828690"/>
<path d="M88.2644 69.5125H84.8594V79.9375H88.2644C91.6094 79.9375 93.7994 77.9725 93.7994 74.7625C93.7994 71.5375 91.6094 69.5125 88.2644 69.5125ZM86.5694 78.5425V70.9075H88.2644C90.7244 70.9075 92.0444 72.3775 92.0444 74.7625C92.0444 77.1325 90.7244 78.5425 88.2644 78.5425H86.5694ZM98.9741 72.9775C100.249 72.9775 101.254 73.7875 101.284 75.0625H96.7091C96.8891 73.7575 97.8191 72.9775 98.9741 72.9775ZM102.844 77.4775H100.999C100.684 78.1225 100.099 78.6325 99.0491 78.6325C97.7891 78.6325 96.8141 77.8075 96.6941 76.4425H103.009C103.054 76.1575 103.069 75.8875 103.069 75.6025C103.069 73.1725 101.404 71.5375 99.0491 71.5375C96.6041 71.5375 94.9241 73.2025 94.9241 75.7975C94.9241 78.3925 96.6791 80.0725 99.0491 80.0725C101.074 80.0725 102.379 78.9175 102.844 77.4775ZM103.777 71.6725L106.912 79.9375H108.952L112.102 71.6725H110.287L107.947 78.4075L105.607 71.6725H103.777ZM116.875 72.9775C118.15 72.9775 119.155 73.7875 119.185 75.0625H114.61C114.79 73.7575 115.72 72.9775 116.875 72.9775ZM120.745 77.4775H118.9C118.585 78.1225 118 78.6325 116.95 78.6325C115.69 78.6325 114.715 77.8075 114.595 76.4425H120.91C120.955 76.1575 120.97 75.8875 120.97 75.6025C120.97 73.1725 119.305 71.5375 116.95 71.5375C114.505 71.5375 112.825 73.2025 112.825 75.7975C112.825 78.3925 114.58 80.0725 116.95 80.0725C118.975 80.0725 120.28 78.9175 120.745 77.4775ZM122.652 79.9375H124.362V68.8375H122.652V79.9375ZM134.482 75.7975C134.482 73.2025 132.622 71.5375 130.267 71.5375C127.912 71.5375 126.052 73.2025 126.052 75.7975C126.052 78.3925 127.837 80.0725 130.192 80.0725C132.562 80.0725 134.482 78.3925 134.482 75.7975ZM127.792 75.7975C127.792 73.9225 128.947 73.0225 130.237 73.0225C131.512 73.0225 132.727 73.9225 132.727 75.7975C132.727 77.6725 131.467 78.5875 130.192 78.5875C128.902 78.5875 127.792 77.6725 127.792 75.7975ZM137.883 72.8875V71.6725H136.173V83.8675H137.883V78.7375C138.423 79.3825 139.398 80.0725 140.763 80.0725C142.938 80.0725 144.648 78.3175 144.648 75.7675C144.648 73.2175 142.938 71.5375 140.763 71.5375C139.413 71.5375 138.408 72.1975 137.883 72.8875ZM142.908 75.7675C142.908 77.5525 141.678 78.5875 140.388 78.5875C139.113 78.5875 137.883 77.5825 137.883 75.7975C137.883 74.0275 139.113 73.0225 140.388 73.0225C141.678 73.0225 142.908 73.9825 142.908 75.7675ZM158.054 79.9375H159.749V75.0625C159.749 72.7525 158.279 71.5375 156.344 71.5375C155.144 71.5375 153.974 72.1675 153.464 73.1725C152.894 72.0925 151.799 71.5375 150.494 71.5375C149.504 71.5375 148.604 71.9425 148.049 72.6175V71.6725H146.339V79.9375H148.049V75.3175C148.049 73.8025 148.874 73.0225 150.134 73.0225C151.379 73.0225 152.204 73.8025 152.204 75.3175V79.9375H153.899V75.3175C153.899 73.8025 154.724 73.0225 155.984 73.0225C157.229 73.0225 158.054 73.8025 158.054 75.3175V79.9375ZM165.405 72.9775C166.68 72.9775 167.685 73.7875 167.715 75.0625H163.14C163.32 73.7575 164.25 72.9775 165.405 72.9775ZM169.275 77.4775H167.43C167.115 78.1225 166.53 78.6325 165.48 78.6325C164.22 78.6325 163.245 77.8075 163.125 76.4425H169.44C169.485 76.1575 169.5 75.8875 169.5 75.6025C169.5 73.1725 167.835 71.5375 165.48 71.5375C163.035 71.5375 161.355 73.2025 161.355 75.7975C161.355 78.3925 163.11 80.0725 165.48 80.0725C167.505 80.0725 168.81 78.9175 169.275 77.4775ZM177.048 79.9375H178.743V75.0625C178.743 72.7525 177.288 71.5375 175.353 71.5375C174.363 71.5375 173.448 71.9425 172.893 72.6175V71.6725H171.183V79.9375H172.893V75.3175C172.893 73.8025 173.718 73.0225 174.978 73.0225C176.223 73.0225 177.048 73.8025 177.048 75.3175V79.9375ZM181.194 77.6425C181.194 79.3225 182.109 79.9375 183.579 79.9375H184.929V78.5125H183.879C183.159 78.5125 182.919 78.2575 182.919 77.6425V73.0675H184.929V71.6725H182.919V69.6175H181.194V71.6725H180.219V73.0675H181.194V77.6425ZM192.111 72.8875V71.6725H190.401V83.8675H192.111V78.7375C192.651 79.3825 193.626 80.0725 194.991 80.0725C197.166 80.0725 198.876 78.3175 198.876 75.7675C198.876 73.2175 197.166 71.5375 194.991 71.5375C193.641 71.5375 192.636 72.1975 192.111 72.8875ZM197.136 75.7675C197.136 77.5525 195.906 78.5875 194.616 78.5875C193.341 78.5875 192.111 77.5825 192.111 75.7975C192.111 74.0275 193.341 73.0225 194.616 73.0225C195.906 73.0225 197.136 73.9825 197.136 75.7675ZM200.567 79.9375H202.277V68.8375H200.567V79.9375ZM203.952 75.7675C203.952 78.3175 205.677 80.0725 207.822 80.0725C209.202 80.0725 210.192 79.4125 210.717 78.7075V79.9375H212.442V71.6725H210.717V72.8725C210.207 72.1975 209.247 71.5375 207.852 71.5375C205.677 71.5375 203.952 73.2175 203.952 75.7675ZM210.717 75.7975C210.717 77.5825 209.502 78.5875 208.212 78.5875C206.937 78.5875 205.707 77.5525 205.707 75.7675C205.707 73.9825 206.937 73.0225 208.212 73.0225C209.502 73.0225 210.717 74.0275 210.717 75.7975ZM220.553 79.9375H222.248V75.0625C222.248 72.7525 220.793 71.5375 218.858 71.5375C217.868 71.5375 216.953 71.9425 216.398 72.6175V71.6725H214.688V79.9375H216.398V75.3175C216.398 73.8025 217.223 73.0225 218.483 73.0225C219.728 73.0225 220.553 73.8025 220.553 75.3175V79.9375ZM230.295 79.9375H231.99V75.0625C231.99 72.7525 230.535 71.5375 228.6 71.5375C227.61 71.5375 226.695 71.9425 226.14 72.6175V71.6725H224.43V79.9375H226.14V75.3175C226.14 73.8025 226.965 73.0225 228.225 73.0225C229.47 73.0225 230.295 73.8025 230.295 75.3175V79.9375ZM234.171 79.9375H235.881V71.6725H234.171V79.9375ZM235.041 70.5775C235.641 70.5775 236.121 70.0975 236.121 69.4825C236.121 68.8675 235.641 68.3875 235.041 68.3875C234.426 68.3875 233.946 68.8675 233.946 69.4825C233.946 70.0975 234.426 70.5775 235.041 70.5775ZM243.991 79.9375H245.686V75.0625C245.686 72.7525 244.231 71.5375 242.296 71.5375C241.306 71.5375 240.391 71.9425 239.836 72.6175V71.6725H238.126V79.9375H239.836V75.3175C239.836 73.8025 240.661 73.0225 241.921 73.0225C243.166 73.0225 243.991 73.8025 243.991 75.3175V79.9375ZM247.297 75.7675C247.297 78.3175 249.022 80.0725 251.197 80.0725C252.547 80.0725 253.537 79.3975 254.062 78.6925V80.0725C254.062 81.7225 253.072 82.5325 251.752 82.5325C250.567 82.5325 249.652 81.9475 249.397 81.0925H247.702C247.912 82.9225 249.547 84.0175 251.752 84.0175C254.332 84.0175 255.787 82.3225 255.787 80.0725V71.6725H254.062V72.8725C253.552 72.1675 252.547 71.5375 251.197 71.5375C249.022 71.5375 247.297 73.2175 247.297 75.7675ZM254.062 75.7975C254.062 77.5825 252.847 78.5875 251.557 78.5875C250.282 78.5875 249.052 77.5525 249.052 75.7675C249.052 73.9825 250.282 73.0225 251.557 73.0225C252.847 73.0225 254.062 74.0275 254.062 75.7975Z" fill="white"/>
<path d="M86.1264 101.438H87.3484L89.0644 95.7825L90.7804 101.438H92.0024L94.2254 94.3135H93.0554L91.4434 100.306L89.7144 94.3135H88.5054L86.7374 100.293L85.0994 94.3135H83.8904L86.1264 101.438ZM95.1784 94.4045H96.3354C96.4524 93.4945 97.1154 92.8705 98.2204 92.8705C99.3514 92.8705 99.9494 93.4945 99.9494 94.3915C99.9494 95.4835 99.1044 95.9645 97.5314 95.9775H97.2194V96.9655H97.5184C99.2084 96.9655 100.131 97.4725 100.131 98.7985C100.131 99.7605 99.5334 100.501 98.2724 100.501C97.0244 100.501 96.2964 99.7345 96.1794 98.7335H95.0354C95.1784 100.553 96.5044 101.503 98.2854 101.503C100.248 101.503 101.262 100.358 101.262 98.9025C101.262 97.5505 100.521 96.7445 99.4294 96.4845V96.4195C100.417 96.1985 101.093 95.3535 101.093 94.2745C101.093 92.9225 100.092 91.8565 98.2594 91.8565C96.5174 91.8565 95.2954 92.7925 95.1784 94.4045ZM103.055 101.438H104.238V94.3135H103.055V101.438ZM103.666 93.1565C104.095 93.1565 104.446 92.8055 104.446 92.3505C104.446 91.8955 104.095 91.5445 103.666 91.5445C103.211 91.5445 102.86 91.8955 102.86 92.3505C102.86 92.8055 103.211 93.1565 103.666 93.1565ZM106.514 99.4875C106.514 100.917 107.229 101.438 108.49 101.438H109.556V100.436H108.685C107.957 100.436 107.697 100.189 107.697 99.4875V95.2885H109.556V94.3135H107.697V92.5195H106.514V94.3135H105.591V95.2885H106.514V99.4875ZM113.896 93.3385H116.379V101.438H117.562V93.3385H120.032V92.3765H113.896V93.3385ZM124.517 95.1975C125.739 95.1975 126.779 95.9645 126.766 97.3555H122.268C122.398 95.9645 123.36 95.1975 124.517 95.1975ZM127.845 99.2405H126.571C126.311 100.007 125.635 100.553 124.569 100.553C123.36 100.553 122.346 99.7605 122.255 98.3175H127.949C127.975 98.0705 127.988 97.8625 127.988 97.6025C127.988 95.6525 126.636 94.1965 124.569 94.1965C122.489 94.1965 121.046 95.6135 121.046 97.8625C121.046 100.124 122.541 101.555 124.569 101.555C126.337 101.555 127.481 100.54 127.845 99.2405ZM129.108 97.8625C129.108 100.124 130.551 101.555 132.579 101.555C134.347 101.555 135.504 100.566 135.868 99.1495H134.594C134.334 100.046 133.632 100.553 132.579 100.553C131.279 100.553 130.317 99.6305 130.317 97.8625C130.317 96.1205 131.279 95.1975 132.579 95.1975C133.632 95.1975 134.347 95.7435 134.594 96.6015H135.868C135.504 95.1065 134.347 94.1965 132.579 94.1965C130.551 94.1965 129.108 95.6265 129.108 97.8625ZM137.446 101.438H138.629V97.4985C138.629 95.9645 139.461 95.2105 140.67 95.2105C141.866 95.2105 142.659 95.9515 142.659 97.4075V101.438H143.829V97.2385C143.829 95.1975 142.568 94.1835 140.982 94.1835C139.981 94.1835 139.097 94.5865 138.629 95.3405V91.8175H137.446V101.438ZM150.975 101.438H152.145V97.2385C152.145 95.1975 150.884 94.1835 149.233 94.1835C148.271 94.1835 147.413 94.5865 146.945 95.3275V94.3135H145.762V101.438H146.945V97.4985C146.945 95.9645 147.777 95.2105 148.986 95.2105C150.182 95.2105 150.975 95.9515 150.975 97.4075V101.438ZM160.837 97.8625C160.837 95.6135 159.264 94.1965 157.236 94.1965C155.221 94.1965 153.635 95.6135 153.635 97.8625C153.635 100.124 155.169 101.555 157.184 101.555C159.212 101.555 160.837 100.124 160.837 97.8625ZM154.844 97.8625C154.844 96.0685 155.975 95.2235 157.223 95.2235C158.445 95.2235 159.628 96.0685 159.628 97.8625C159.628 99.6695 158.419 100.514 157.184 100.514C155.949 100.514 154.844 99.6695 154.844 97.8625ZM162.393 101.438H163.576V91.8175H162.393V101.438ZM172.352 97.8625C172.352 95.6135 170.779 94.1965 168.751 94.1965C166.736 94.1965 165.15 95.6135 165.15 97.8625C165.15 100.124 166.684 101.555 168.699 101.555C170.727 101.555 172.352 100.124 172.352 97.8625ZM166.359 97.8625C166.359 96.0685 167.49 95.2235 168.738 95.2235C169.96 95.2235 171.143 96.0685 171.143 97.8625C171.143 99.6695 169.934 100.514 168.699 100.514C167.464 100.514 166.359 99.6695 166.359 97.8625ZM173.465 97.8495C173.465 100.059 174.934 101.555 176.845 101.555C178.145 101.555 179.068 100.865 179.497 100.098V101.594C179.497 103.115 178.548 103.921 177.287 103.921C176.117 103.921 175.272 103.336 175.012 102.478H173.842C174.076 103.999 175.415 104.948 177.287 104.948C179.38 104.948 180.693 103.557 180.693 101.594V94.3135H179.497V95.6135C179.081 94.8465 178.145 94.1965 176.845 94.1965C174.934 94.1965 173.465 95.6265 173.465 97.8495ZM179.497 97.8625C179.497 99.5395 178.379 100.514 177.079 100.514C175.779 100.514 174.674 99.5265 174.674 97.8495C174.674 96.1725 175.779 95.2235 177.079 95.2235C178.379 95.2235 179.497 96.2115 179.497 97.8625ZM182.692 101.438H183.875V94.3135H182.692V101.438ZM183.303 93.1565C183.732 93.1565 184.083 92.8055 184.083 92.3505C184.083 91.8955 183.732 91.5445 183.303 91.5445C182.848 91.5445 182.497 91.8955 182.497 92.3505C182.497 92.8055 182.848 93.1565 183.303 93.1565ZM188.921 95.1975C190.143 95.1975 191.183 95.9645 191.17 97.3555H186.672C186.802 95.9645 187.764 95.1975 188.921 95.1975ZM192.249 99.2405H190.975C190.715 100.007 190.039 100.553 188.973 100.553C187.764 100.553 186.75 99.7605 186.659 98.3175H192.353C192.379 98.0705 192.392 97.8625 192.392 97.6025C192.392 95.6525 191.04 94.1965 188.973 94.1965C186.893 94.1965 185.45 95.6135 185.45 97.8625C185.45 100.124 186.945 101.555 188.973 101.555C190.741 101.555 191.885 100.54 192.249 99.2405ZM199.075 99.5005C199.023 96.9525 194.889 97.8755 194.889 96.1855C194.889 95.6135 195.409 95.1975 196.28 95.1975C197.229 95.1975 197.775 95.7175 197.827 96.4325H199.01C198.932 95.0415 197.892 94.1965 196.319 94.1965C194.733 94.1965 193.706 95.0935 193.706 96.1855C193.706 98.8375 197.918 97.9145 197.918 99.5005C197.918 100.085 197.398 100.553 196.462 100.553C195.461 100.553 194.85 100.033 194.785 99.3445H193.563C193.641 100.644 194.811 101.555 196.475 101.555C198.048 101.555 199.075 100.67 199.075 99.5005Z" fill="#828690"/>
<path d="M293.86 90.1875H295.148V80.0655H292.516V81.2275H293.86V90.1875ZM297.183 90.0755H303.917V89.0115H299.101C300.907 87.5415 303.623 85.3995 303.623 82.8795C303.623 81.0035 302.391 79.8835 300.487 79.8835C298.667 79.8835 297.309 81.0035 297.225 83.1595H298.457C298.513 81.8855 299.185 80.9755 300.501 80.9755C301.873 80.9755 302.363 81.8155 302.363 82.9355C302.363 85.0075 299.843 87.0235 297.183 89.1655V90.0755ZM306.845 89.4035C306.845 88.9135 306.467 88.5355 306.005 88.5355C305.515 88.5355 305.137 88.9135 305.137 89.4035C305.137 89.8935 305.515 90.2715 306.005 90.2715C306.467 90.2715 306.845 89.8935 306.845 89.4035ZM306.845 83.4115C306.845 82.9215 306.467 82.5435 306.005 82.5435C305.515 82.5435 305.137 82.9215 305.137 83.4115C305.137 83.9015 305.515 84.2795 306.005 84.2795C306.467 84.2795 306.845 83.9015 306.845 83.4115ZM308.37 85.0215C308.37 87.9615 309.098 90.1875 311.898 90.1875C314.684 90.1875 315.412 87.9615 315.412 85.0215C315.412 82.1235 314.684 79.9115 311.898 79.9115C309.098 79.9115 308.37 82.1235 308.37 85.0215ZM314.152 85.0215C314.152 87.2055 313.886 89.0255 311.898 89.0255C309.896 89.0255 309.63 87.2055 309.63 85.0215C309.63 82.9215 309.896 81.0735 311.898 81.0735C313.886 81.0735 314.152 82.9215 314.152 85.0215ZM317.525 80.0515V85.7635H318.729C319.065 84.9655 319.807 84.4335 320.829 84.4335C322.299 84.4335 323.041 85.2735 323.041 86.7155C323.041 88.1015 322.355 89.1375 320.815 89.1375C319.625 89.1375 318.799 88.5075 318.561 87.4435H317.315C317.567 89.0815 318.785 90.2155 320.801 90.2155C323.167 90.2155 324.259 88.6475 324.259 86.6875C324.259 85.1195 323.475 83.3415 321.011 83.3415C320.017 83.3415 319.121 83.7895 318.701 84.3635V81.1715H323.615V80.0515H317.525ZM331.168 85.0635V81.4795H333.044C334.5 81.4795 335.116 82.1515 335.116 83.2855C335.116 84.3775 334.5 85.0635 333.044 85.0635H331.168ZM336.418 83.2855C336.418 81.6895 335.34 80.4295 333.044 80.4295H329.894V90.1875H331.168V86.1135H333.044C335.466 86.1135 336.418 84.7695 336.418 83.2855ZM338.002 90.1875H339.276V82.9495L342.51 90.1875H343.406L346.626 82.9635V90.1875H347.9V80.4995H346.542L342.958 88.5075L339.374 80.4995H338.002V90.1875Z" fill="white"/>
<mask id="path-12-inside-3_1_1194" fill="white">
<path d="M20.7344 124.188H348.984V200.188H20.7344V124.188Z"/>
</mask>
<path d="M348.984 199.188H20.7344V201.188H348.984V199.188Z" fill="#444444" mask="url(#path-12-inside-3_1_1194)"/>
<rect x="20.7344" y="134.188" width="55" height="55" rx="6" fill="#0D99FF" fill-opacity="0.1"/>
<path d="M37.0273 159.987H46.9073V157.667H41.0073C43.3273 155.707 46.5873 153.067 46.5873 149.687C46.5873 147.147 45.0073 145.287 41.8673 145.287C39.2473 145.287 37.1073 146.827 37.0073 150.167H39.7273C39.7473 148.627 40.4873 147.667 41.8273 147.667C43.2073 147.667 43.7873 148.547 43.7873 149.847C43.7873 152.527 40.3273 155.107 37.0273 157.907V159.987ZM48.6717 152.707C48.6717 156.967 49.9517 160.147 54.0717 160.147C58.1917 160.147 59.4717 156.967 59.4717 152.707C59.4717 148.487 58.1917 145.327 54.0717 145.327C49.9517 145.327 48.6717 148.487 48.6717 152.707ZM56.7117 152.707C56.7117 155.307 56.4317 157.548 54.0717 157.548C51.7117 157.548 51.4317 155.307 51.4317 152.707C51.4317 150.207 51.7117 147.927 54.0717 147.927C56.4317 147.927 56.7117 150.207 56.7117 152.707Z" fill="white"/>
<path d="M34.4202 177.188H35.6942V169.949L38.9282 177.188H39.8242L43.0442 169.963V177.188H44.3182V167.499H42.9602L39.3762 175.507L35.7922 167.499H34.4202V177.188ZM53.7588 173.337C53.7588 170.915 52.0648 169.389 49.8808 169.389C47.7108 169.389 46.0028 170.915 46.0028 173.337C46.0028 175.773 47.6548 177.314 49.8248 177.314C52.0088 177.314 53.7588 175.773 53.7588 173.337ZM47.3048 173.337C47.3048 171.405 48.5228 170.495 49.8668 170.495C51.1828 170.495 52.4568 171.405 52.4568 173.337C52.4568 175.283 51.1548 176.193 49.8248 176.193C48.4948 176.193 47.3048 175.283 47.3048 173.337ZM61.0479 177.188H62.3079V172.665C62.3079 170.467 60.9499 169.375 59.1719 169.375C58.1359 169.375 57.2119 169.809 56.7079 170.607V169.515H55.4339V177.188H56.7079V172.945C56.7079 171.293 57.6039 170.481 58.9059 170.481C60.1939 170.481 61.0479 171.279 61.0479 172.847V177.188Z" fill="#828690"/>
<path d="M88.2644 145.512H84.8594V155.938H88.2644C91.6094 155.938 93.7994 153.972 93.7994 150.762C93.7994 147.537 91.6094 145.512 88.2644 145.512ZM86.5694 154.542V146.907H88.2644C90.7244 146.907 92.0444 148.377 92.0444 150.762C92.0444 153.132 90.7244 154.542 88.2644 154.542H86.5694ZM98.9741 148.977C100.249 148.977 101.254 149.787 101.284 151.062H96.7091C96.8891 149.757 97.8191 148.977 98.9741 148.977ZM102.844 153.477H100.999C100.684 154.122 100.099 154.632 99.0491 154.632C97.7891 154.632 96.8141 153.807 96.6941 152.442H103.009C103.054 152.157 103.069 151.887 103.069 151.602C103.069 149.172 101.404 147.537 99.0491 147.537C96.6041 147.537 94.9241 149.202 94.9241 151.797C94.9241 154.392 96.6791 156.073 99.0491 156.073C101.074 156.073 102.379 154.917 102.844 153.477ZM103.777 147.673L106.912 155.938H108.952L112.102 147.673H110.287L107.947 154.407L105.607 147.673H103.777ZM116.875 148.977C118.15 148.977 119.155 149.787 119.185 151.062H114.61C114.79 149.757 115.72 148.977 116.875 148.977ZM120.745 153.477H118.9C118.585 154.122 118 154.632 116.95 154.632C115.69 154.632 114.715 153.807 114.595 152.442H120.91C120.955 152.157 120.97 151.887 120.97 151.602C120.97 149.172 119.305 147.537 116.95 147.537C114.505 147.537 112.825 149.202 112.825 151.797C112.825 154.392 114.58 156.073 116.95 156.073C118.975 156.073 120.28 154.917 120.745 153.477ZM122.652 155.938H124.362V144.837H122.652V155.938ZM134.482 151.797C134.482 149.202 132.622 147.537 130.267 147.537C127.912 147.537 126.052 149.202 126.052 151.797C126.052 154.392 127.837 156.073 130.192 156.073C132.562 156.073 134.482 154.392 134.482 151.797ZM127.792 151.797C127.792 149.922 128.947 149.022 130.237 149.022C131.512 149.022 132.727 149.922 132.727 151.797C132.727 153.672 131.467 154.587 130.192 154.587C128.902 154.587 127.792 153.672 127.792 151.797ZM137.883 148.887V147.673H136.173V159.868H137.883V154.737C138.423 155.382 139.398 156.073 140.763 156.073C142.938 156.073 144.648 154.317 144.648 151.767C144.648 149.217 142.938 147.537 140.763 147.537C139.413 147.537 138.408 148.197 137.883 148.887ZM142.908 151.767C142.908 153.552 141.678 154.587 140.388 154.587C139.113 154.587 137.883 153.582 137.883 151.797C137.883 150.027 139.113 149.022 140.388 149.022C141.678 149.022 142.908 149.982 142.908 151.767ZM158.054 155.938H159.749V151.062C159.749 148.752 158.279 147.537 156.344 147.537C155.144 147.537 153.974 148.167 153.464 149.172C152.894 148.092 151.799 147.537 150.494 147.537C149.504 147.537 148.604 147.942 148.049 148.617V147.673H146.339V155.938H148.049V151.317C148.049 149.802 148.874 149.022 150.134 149.022C151.379 149.022 152.204 149.802 152.204 151.317V155.938H153.899V151.317C153.899 149.802 154.724 149.022 155.984 149.022C157.229 149.022 158.054 149.802 158.054 151.317V155.938ZM165.405 148.977C166.68 148.977 167.685 149.787 167.715 151.062H163.14C163.32 149.757 164.25 148.977 165.405 148.977ZM169.275 153.477H167.43C167.115 154.122 166.53 154.632 165.48 154.632C164.22 154.632 163.245 153.807 163.125 152.442H169.44C169.485 152.157 169.5 151.887 169.5 151.602C169.5 149.172 167.835 147.537 165.48 147.537C163.035 147.537 161.355 149.202 161.355 151.797C161.355 154.392 163.11 156.073 165.48 156.073C167.505 156.073 168.81 154.917 169.275 153.477ZM177.048 155.938H178.743V151.062C178.743 148.752 177.288 147.537 175.353 147.537C174.363 147.537 173.448 147.942 172.893 148.617V147.673H171.183V155.938H172.893V151.317C172.893 149.802 173.718 149.022 174.978 149.022C176.223 149.022 177.048 149.802 177.048 151.317V155.938ZM181.194 153.642C181.194 155.322 182.109 155.938 183.579 155.938H184.929V154.512H183.879C183.159 154.512 182.919 154.257 182.919 153.642V149.067H184.929V147.673H182.919V145.617H181.194V147.673H180.219V149.067H181.194V153.642ZM192.111 148.887V147.673H190.401V159.868H192.111V154.737C192.651 155.382 193.626 156.073 194.991 156.073C197.166 156.073 198.876 154.317 198.876 151.767C198.876 149.217 197.166 147.537 194.991 147.537C193.641 147.537 192.636 148.197 192.111 148.887ZM197.136 151.767C197.136 153.552 195.906 154.587 194.616 154.587C193.341 154.587 192.111 153.582 192.111 151.797C192.111 150.027 193.341 149.022 194.616 149.022C195.906 149.022 197.136 149.982 197.136 151.767ZM200.567 155.938H202.277V144.837H200.567V155.938ZM203.952 151.767C203.952 154.317 205.677 156.073 207.822 156.073C209.202 156.073 210.192 155.412 210.717 154.707V155.938H212.442V147.673H210.717V148.872C210.207 148.197 209.247 147.537 207.852 147.537C205.677 147.537 203.952 149.217 203.952 151.767ZM210.717 151.797C210.717 153.582 209.502 154.587 208.212 154.587C206.937 154.587 205.707 153.552 205.707 151.767C205.707 149.982 206.937 149.022 208.212 149.022C209.502 149.022 210.717 150.027 210.717 151.797ZM220.553 155.938H222.248V151.062C222.248 148.752 220.793 147.537 218.858 147.537C217.868 147.537 216.953 147.942 216.398 148.617V147.673H214.688V155.938H216.398V151.317C216.398 149.802 217.223 149.022 218.483 149.022C219.728 149.022 220.553 149.802 220.553 151.317V155.938ZM230.295 155.938H231.99V151.062C231.99 148.752 230.535 147.537 228.6 147.537C227.61 147.537 226.695 147.942 226.14 148.617V147.673H224.43V155.938H226.14V151.317C226.14 149.802 226.965 149.022 228.225 149.022C229.47 149.022 230.295 149.802 230.295 151.317V155.938ZM234.171 155.938H235.881V147.673H234.171V155.938ZM235.041 146.577C235.641 146.577 236.121 146.097 236.121 145.482C236.121 144.867 235.641 144.387 235.041 144.387C234.426 144.387 233.946 144.867 233.946 145.482C233.946 146.097 234.426 146.577 235.041 146.577ZM243.991 155.938H245.686V151.062C245.686 148.752 244.231 147.537 242.296 147.537C241.306 147.537 240.391 147.942 239.836 148.617V147.673H238.126V155.938H239.836V151.317C239.836 149.802 240.661 149.022 241.921 149.022C243.166 149.022 243.991 149.802 243.991 151.317V155.938ZM247.297 151.767C247.297 154.317 249.022 156.073 251.197 156.073C252.547 156.073 253.537 155.397 254.062 154.692V156.073C254.062 157.723 253.072 158.533 251.752 158.533C250.567 158.533 249.652 157.948 249.397 157.093H247.702C247.912 158.923 249.547 160.018 251.752 160.018C254.332 160.018 255.787 158.323 255.787 156.073V147.673H254.062V148.872C253.552 148.167 252.547 147.537 251.197 147.537C249.022 147.537 247.297 149.217 247.297 151.767ZM254.062 151.797C254.062 153.582 252.847 154.587 251.557 154.587C250.282 154.587 249.052 153.552 249.052 151.767C249.052 149.982 250.282 149.022 251.557 149.022C252.847 149.022 254.062 150.027 254.062 151.797Z" fill="white"/>
<path d="M86.1264 177.438H87.3484L89.0644 171.782L90.7804 177.438H92.0024L94.2254 170.313H93.0554L91.4434 176.306L89.7144 170.313H88.5054L86.7374 176.293L85.0994 170.313H83.8904L86.1264 177.438ZM95.1784 170.404H96.3354C96.4524 169.494 97.1154 168.87 98.2204 168.87C99.3514 168.87 99.9494 169.494 99.9494 170.391C99.9494 171.483 99.1044 171.964 97.5314 171.977H97.2194V172.965H97.5184C99.2084 172.965 100.131 173.472 100.131 174.798C100.131 175.76 99.5334 176.501 98.2724 176.501C97.0244 176.501 96.2964 175.734 96.1794 174.733H95.0354C95.1784 176.553 96.5044 177.503 98.2854 177.503C100.248 177.503 101.262 176.358 101.262 174.902C101.262 173.55 100.521 172.744 99.4294 172.484V172.419C100.417 172.198 101.093 171.353 101.093 170.275C101.093 168.922 100.092 167.856 98.2594 167.856C96.5174 167.856 95.2954 168.792 95.1784 170.404ZM103.055 177.438H104.238V170.313H103.055V177.438ZM103.666 169.156C104.095 169.156 104.446 168.805 104.446 168.35C104.446 167.895 104.095 167.544 103.666 167.544C103.211 167.544 102.86 167.895 102.86 168.35C102.86 168.805 103.211 169.156 103.666 169.156ZM106.514 175.487C106.514 176.917 107.229 177.438 108.49 177.438H109.556V176.436H108.685C107.957 176.436 107.697 176.189 107.697 175.487V171.288H109.556V170.313H107.697V168.519H106.514V170.313H105.591V171.288H106.514V175.487ZM113.896 169.338H116.379V177.438H117.562V169.338H120.032V168.376H113.896V169.338ZM124.517 171.197C125.739 171.197 126.779 171.964 126.766 173.355H122.268C122.398 171.964 123.36 171.197 124.517 171.197ZM127.845 175.24H126.571C126.311 176.007 125.635 176.553 124.569 176.553C123.36 176.553 122.346 175.76 122.255 174.317H127.949C127.975 174.07 127.988 173.862 127.988 173.602C127.988 171.652 126.636 170.196 124.569 170.196C122.489 170.196 121.046 171.613 121.046 173.862C121.046 176.124 122.541 177.555 124.569 177.555C126.337 177.555 127.481 176.54 127.845 175.24ZM129.108 173.862C129.108 176.124 130.551 177.555 132.579 177.555C134.347 177.555 135.504 176.566 135.868 175.149H134.594C134.334 176.046 133.632 176.553 132.579 176.553C131.279 176.553 130.317 175.63 130.317 173.862C130.317 172.12 131.279 171.197 132.579 171.197C133.632 171.197 134.347 171.743 134.594 172.601H135.868C135.504 171.106 134.347 170.196 132.579 170.196C130.551 170.196 129.108 171.626 129.108 173.862ZM137.446 177.438H138.629V173.498C138.629 171.964 139.461 171.21 140.67 171.21C141.866 171.21 142.659 171.951 142.659 173.407V177.438H143.829V173.238C143.829 171.197 142.568 170.183 140.982 170.183C139.981 170.183 139.097 170.586 138.629 171.34V167.817H137.446V177.438ZM150.975 177.438H152.145V173.238C152.145 171.197 150.884 170.183 149.233 170.183C148.271 170.183 147.413 170.586 146.945 171.327V170.313H145.762V177.438H146.945V173.498C146.945 171.964 147.777 171.21 148.986 171.21C150.182 171.21 150.975 171.951 150.975 173.407V177.438ZM160.837 173.862C160.837 171.613 159.264 170.196 157.236 170.196C155.221 170.196 153.635 171.613 153.635 173.862C153.635 176.124 155.169 177.555 157.184 177.555C159.212 177.555 160.837 176.124 160.837 173.862ZM154.844 173.862C154.844 172.068 155.975 171.223 157.223 171.223C158.445 171.223 159.628 172.068 159.628 173.862C159.628 175.669 158.419 176.514 157.184 176.514C155.949 176.514 154.844 175.669 154.844 173.862ZM162.393 177.438H163.576V167.817H162.393V177.438ZM172.352 173.862C172.352 171.613 170.779 170.196 168.751 170.196C166.736 170.196 165.15 171.613 165.15 173.862C165.15 176.124 166.684 177.555 168.699 177.555C170.727 177.555 172.352 176.124 172.352 173.862ZM166.359 173.862C166.359 172.068 167.49 171.223 168.738 171.223C169.96 171.223 171.143 172.068 171.143 173.862C171.143 175.669 169.934 176.514 168.699 176.514C167.464 176.514 166.359 175.669 166.359 173.862ZM173.465 173.849C173.465 176.059 174.934 177.555 176.845 177.555C178.145 177.555 179.068 176.865 179.497 176.098V177.594C179.497 179.115 178.548 179.921 177.287 179.921C176.117 179.921 175.272 179.336 175.012 178.478H173.842C174.076 179.999 175.415 180.948 177.287 180.948C179.38 180.948 180.693 179.557 180.693 177.594V170.313H179.497V171.613C179.081 170.846 178.145 170.196 176.845 170.196C174.934 170.196 173.465 171.626 173.465 173.849ZM179.497 173.862C179.497 175.539 178.379 176.514 177.079 176.514C175.779 176.514 174.674 175.527 174.674 173.849C174.674 172.172 175.779 171.223 177.079 171.223C178.379 171.223 179.497 172.211 179.497 173.862ZM182.692 177.438H183.875V170.313H182.692V177.438ZM183.303 169.156C183.732 169.156 184.083 168.805 184.083 168.35C184.083 167.895 183.732 167.544 183.303 167.544C182.848 167.544 182.497 167.895 182.497 168.35C182.497 168.805 182.848 169.156 183.303 169.156ZM188.921 171.197C190.143 171.197 191.183 171.964 191.17 173.355H186.672C186.802 171.964 187.764 171.197 188.921 171.197ZM192.249 175.24H190.975C190.715 176.007 190.039 176.553 188.973 176.553C187.764 176.553 186.75 175.76 186.659 174.317H192.353C192.379 174.07 192.392 173.862 192.392 173.602C192.392 171.652 191.04 170.196 188.973 170.196C186.893 170.196 185.45 171.613 185.45 173.862C185.45 176.124 186.945 177.555 188.973 177.555C190.741 177.555 191.885 176.54 192.249 175.24ZM199.075 175.5C199.023 172.952 194.889 173.875 194.889 172.185C194.889 171.613 195.409 171.197 196.28 171.197C197.229 171.197 197.775 171.717 197.827 172.432H199.01C198.932 171.041 197.892 170.196 196.319 170.196C194.733 170.196 193.706 171.093 193.706 172.185C193.706 174.837 197.918 173.914 197.918 175.5C197.918 176.085 197.398 176.553 196.462 176.553C195.461 176.553 194.85 176.033 194.785 175.344H193.563C193.641 176.644 194.811 177.555 196.475 177.555C198.048 177.555 199.075 176.67 199.075 175.5Z" fill="#828690"/>
<path d="M293.86 166.188H295.148V156.065H292.516V157.227H293.86V166.188ZM297.183 166.075H303.917V165.011H299.101C300.907 163.541 303.623 161.399 303.623 158.879C303.623 157.003 302.391 155.883 300.487 155.883C298.667 155.883 297.309 157.003 297.225 159.159H298.457C298.513 157.885 299.185 156.975 300.501 156.975C301.873 156.975 302.363 157.815 302.363 158.935C302.363 161.007 299.843 163.023 297.183 165.165V166.075ZM306.845 165.403C306.845 164.913 306.467 164.535 306.005 164.535C305.515 164.535 305.137 164.913 305.137 165.403C305.137 165.893 305.515 166.272 306.005 166.272C306.467 166.272 306.845 165.893 306.845 165.403ZM306.845 159.411C306.845 158.921 306.467 158.543 306.005 158.543C305.515 158.543 305.137 158.921 305.137 159.411C305.137 159.901 305.515 160.279 306.005 160.279C306.467 160.279 306.845 159.901 306.845 159.411ZM308.37 161.021C308.37 163.961 309.098 166.188 311.898 166.188C314.684 166.188 315.412 163.961 315.412 161.021C315.412 158.123 314.684 155.911 311.898 155.911C309.098 155.911 308.37 158.123 308.37 161.021ZM314.152 161.021C314.152 163.205 313.886 165.025 311.898 165.025C309.896 165.025 309.63 163.205 309.63 161.021C309.63 158.921 309.896 157.073 311.898 157.073C313.886 157.073 314.152 158.921 314.152 161.021ZM317.525 156.051V161.763H318.729C319.065 160.965 319.807 160.433 320.829 160.433C322.299 160.433 323.041 161.273 323.041 162.715C323.041 164.101 322.355 165.137 320.815 165.137C319.625 165.137 318.799 164.507 318.561 163.443H317.315C317.567 165.081 318.785 166.216 320.801 166.216C323.167 166.216 324.259 164.647 324.259 162.688C324.259 161.119 323.475 159.341 321.011 159.341C320.017 159.341 319.121 159.789 318.701 160.363V157.171H323.615V156.051H317.525ZM331.168 161.063V157.479H333.044C334.5 157.479 335.116 158.151 335.116 159.285C335.116 160.377 334.5 161.063 333.044 161.063H331.168ZM336.418 159.285C336.418 157.689 335.34 156.429 333.044 156.429H329.894V166.188H331.168V162.113H333.044C335.466 162.113 336.418 160.769 336.418 159.285ZM338.002 166.188H339.276V158.949L342.51 166.188H343.406L346.626 158.963V166.188H347.9V156.499H346.542L342.958 164.507L339.374 156.499H338.002V166.188Z" fill="white"/>
</g>
<defs>
<clipPath id="clip0_1_1194">
<rect width="368.25" height="144" fill="white" transform="translate(0.734375 48.1875)"/>
</clipPath>
</defs>
</svg>
