<svg width="385" height="45" viewBox="0 0 385 45" fill="none" xmlns="http://www.w3.org/2000/svg">
<mask id="path-1-inside-1_1_505" fill="white">
<path d="M54.1719 6.6875H91.75V38.6875H54.1719V6.6875Z"/>
</mask>
<path d="M91.75 35.6875H54.1719V41.6875H91.75V35.6875Z" fill="#0D99FF" mask="url(#path-1-inside-1_1_505)"/>
<path d="M62.6186 14.9575H59.4406V24.6875H62.6186C65.7406 24.6875 67.7846 22.8535 67.7846 19.8575C67.7846 16.8475 65.7406 14.9575 62.6186 14.9575ZM61.0366 23.3855V16.2595H62.6186C64.9146 16.2595 66.1466 17.6315 66.1466 19.8575C66.1466 22.0695 64.9146 23.3855 62.6186 23.3855H61.0366ZM68.8344 20.7955C68.8344 23.1755 70.4444 24.8135 72.4464 24.8135C73.7344 24.8135 74.6584 24.1975 75.1484 23.5395V24.6875H76.7584V16.9735H75.1484V18.0935C74.6724 17.4635 73.7764 16.8475 72.4744 16.8475C70.4444 16.8475 68.8344 18.4155 68.8344 20.7955ZM75.1484 20.8235C75.1484 22.4895 74.0144 23.4275 72.8104 23.4275C71.6204 23.4275 70.4724 22.4615 70.4724 20.7955C70.4724 19.1295 71.6204 18.2335 72.8104 18.2335C74.0144 18.2335 75.1484 19.1715 75.1484 20.8235ZM81.8927 22.8535L79.7227 16.9735H77.9447L80.9827 24.5615L79.4147 28.3135H81.0667L85.7987 16.9735H84.1467L81.8927 22.8535Z" fill="white"/>
<path d="M132.189 24.7015L133.603 24.6875L135.955 16.8335L138.223 24.6875H139.651L142.479 14.9295H141.107L138.965 23.1755L136.725 14.9295H135.297L132.945 23.2035L130.817 14.9295H129.459L132.189 24.7015ZM147.135 17.9675C148.451 17.9675 149.571 18.7935 149.557 20.2915H144.713C144.853 18.7935 145.889 17.9675 147.135 17.9675ZM150.719 22.3215H149.347C149.067 23.1475 148.339 23.7355 147.191 23.7355C145.889 23.7355 144.797 22.8815 144.699 21.3275H150.831C150.859 21.0615 150.873 20.8375 150.873 20.5575C150.873 18.4575 149.417 16.8895 147.191 16.8895C144.951 16.8895 143.397 18.4155 143.397 20.8375C143.397 23.2735 145.007 24.8135 147.191 24.8135C149.095 24.8135 150.327 23.7215 150.719 22.3215ZM155.817 17.9675C157.133 17.9675 158.253 18.7935 158.239 20.2915H153.395C153.535 18.7935 154.571 17.9675 155.817 17.9675ZM159.401 22.3215H158.029C157.749 23.1475 157.021 23.7355 155.873 23.7355C154.571 23.7355 153.479 22.8815 153.381 21.3275H159.513C159.541 21.0615 159.555 20.8375 159.555 20.5575C159.555 18.4575 158.099 16.8895 155.873 16.8895C153.633 16.8895 152.079 18.4155 152.079 20.8375C152.079 23.2735 153.689 24.8135 155.873 24.8135C157.777 24.8135 159.009 23.7215 159.401 22.3215ZM161.236 24.6875H162.51V21.2995L165.52 24.6875H167.256L163.63 20.8375L167.242 17.0155H165.464L162.51 20.4175V14.3275H161.236V24.6875Z" fill="#888888"/>
<path d="M210.551 24.6875H211.825V17.4495L215.059 24.6875H215.955L219.175 17.4635V24.6875H220.449V14.9995H219.091L215.507 23.0075L211.923 14.9995H210.551V24.6875ZM229.889 20.8375C229.889 18.4155 228.195 16.8895 226.011 16.8895C223.841 16.8895 222.133 18.4155 222.133 20.8375C222.133 23.2735 223.785 24.8135 225.955 24.8135C228.139 24.8135 229.889 23.2735 229.889 20.8375ZM223.435 20.8375C223.435 18.9055 224.653 17.9955 225.997 17.9955C227.313 17.9955 228.587 18.9055 228.587 20.8375C228.587 22.7835 227.285 23.6935 225.955 23.6935C224.625 23.6935 223.435 22.7835 223.435 20.8375ZM237.178 24.6875H238.438V20.1655C238.438 17.9675 237.08 16.8755 235.302 16.8755C234.266 16.8755 233.342 17.3095 232.838 18.1075V17.0155H231.564V24.6875H232.838V20.4455C232.838 18.7935 233.734 17.9815 235.036 17.9815C236.324 17.9815 237.178 18.7795 237.178 20.3475V24.6875ZM240.799 22.5875C240.799 24.1275 241.569 24.6875 242.927 24.6875H244.075V23.6095H243.137C242.353 23.6095 242.073 23.3435 242.073 22.5875V18.0655H244.075V17.0155H242.073V15.0835H240.799V17.0155H239.805V18.0655H240.799V22.5875ZM245.619 24.6875H246.893V20.4455C246.893 18.7935 247.789 17.9815 249.091 17.9815C250.379 17.9815 251.233 18.7795 251.233 20.3475V24.6875H252.493V20.1655C252.493 17.9675 251.135 16.8755 249.427 16.8755C248.349 16.8755 247.397 17.3095 246.893 18.1215V14.3275H245.619V24.6875Z" fill="#888888"/>
<path d="M297.703 21.0055V24.6875H298.977V21.0055L302.155 14.9295H300.741L298.333 19.8715L295.925 14.9295H294.511L297.703 21.0055ZM306.761 17.9675C308.077 17.9675 309.197 18.7935 309.183 20.2915H304.339C304.479 18.7935 305.515 17.9675 306.761 17.9675ZM310.345 22.3215H308.973C308.693 23.1475 307.965 23.7355 306.817 23.7355C305.515 23.7355 304.423 22.8815 304.325 21.3275H310.457C310.485 21.0615 310.499 20.8375 310.499 20.5575C310.499 18.4575 309.043 16.8895 306.817 16.8895C304.577 16.8895 303.023 18.4155 303.023 20.8375C303.023 23.2735 304.633 24.8135 306.817 24.8135C308.721 24.8135 309.953 23.7215 310.345 22.3215ZM311.705 20.8235C311.705 23.2035 313.287 24.8135 315.331 24.8135C316.745 24.8135 317.739 24.0855 318.201 23.2595V24.6875H319.489V17.0155H318.201V18.4155C317.753 17.6175 316.773 16.8895 315.345 16.8895C313.287 16.8895 311.705 18.4295 311.705 20.8235ZM318.201 20.8375C318.201 22.6435 316.997 23.6935 315.597 23.6935C314.197 23.6935 313.007 22.6295 313.007 20.8235C313.007 19.0175 314.197 17.9955 315.597 17.9955C316.997 17.9955 318.201 19.0595 318.201 20.8375ZM322.915 20.5155C322.915 18.7375 323.839 18.1915 325.057 18.1915H325.393V16.8755C324.175 16.8755 323.349 17.4075 322.915 18.2615V17.0155H321.641V24.6875H322.915V20.5155Z" fill="#888888"/>
</svg>
