<svg width="96" height="25" viewBox="0 0 96 25" fill="none" xmlns="http://www.w3.org/2000/svg">
<g clip-path="url(#clip0_1_933)">
<path fill-rule="evenodd" clip-rule="evenodd" d="M14.3242 9.26999L13.9092 8.54993C13.5582 7.94065 12.7802 7.73046 12.1701 8.08006C11.8797 8.25114 11.5331 8.29968 11.2069 8.21497C10.8806 8.13026 10.6015 7.91926 10.431 7.62849C10.3213 7.44368 10.2623 7.23318 10.2601 7.01827C10.27 6.67373 10.14 6.33985 9.89977 6.09269C9.65951 5.84554 9.32944 5.70615 8.98476 5.7063H8.14875C7.81106 5.70629 7.48729 5.84086 7.24909 6.08021C7.01088 6.31956 6.87787 6.64397 6.87949 6.98166C6.86948 7.67886 6.30141 8.23879 5.60413 8.23871C5.38923 8.23648 5.17872 8.17754 4.99391 8.06785C4.38379 7.71826 3.60583 7.92844 3.25478 8.53772L2.80932 9.26999C2.45869 9.87851 2.66602 10.656 3.27309 11.0091C3.66769 11.2369 3.91077 11.658 3.91077 12.1136C3.91077 12.5693 3.66769 12.9903 3.27309 13.2181C2.66679 13.5689 2.45924 14.3444 2.80932 14.9511L3.23037 15.6773C3.39485 15.9741 3.67082 16.1931 3.99721 16.2859C4.32361 16.3786 4.67351 16.3375 4.9695 16.1716C5.26047 16.0018 5.60721 15.9553 5.93265 16.0424C6.25808 16.1294 6.53524 16.3429 6.70253 16.6353C6.81222 16.8202 6.87116 17.0307 6.87339 17.2456C6.87339 17.9499 7.44439 18.5209 8.14875 18.5209H8.98476C9.68674 18.5209 10.2568 17.9536 10.2601 17.2517C10.2585 16.9129 10.3923 16.5876 10.6319 16.348C10.8714 16.1085 11.1967 15.9747 11.5355 15.9763C11.7499 15.982 11.9595 16.0407 12.1457 16.1472C12.7542 16.4978 13.5317 16.2905 13.8848 15.6834L14.3242 14.9511C14.4943 14.6592 14.5409 14.3116 14.4539 13.9852C14.3668 13.6587 14.1533 13.3805 13.8604 13.212C13.5676 13.0435 13.354 12.7653 13.267 12.4389C13.1799 12.1124 13.2266 11.7648 13.3967 11.4729C13.5072 11.2798 13.6673 11.1197 13.8604 11.0091C14.4638 10.6562 14.6707 9.88324 14.3242 9.27609V9.26999Z" stroke="#0D99FF" stroke-linecap="round" stroke-linejoin="round"/>
<path d="M8.56982 13.8711C9.54043 13.8711 10.3273 13.0842 10.3273 12.1136C10.3273 11.143 9.54043 10.3562 8.56982 10.3562C7.59921 10.3562 6.81238 11.143 6.81238 12.1136C6.81238 13.0842 7.59921 13.8711 8.56982 13.8711Z" stroke="#0D99FF" stroke-linecap="round" stroke-linejoin="round"/>
</g>
<rect x="16.4531" y="0.1875" width="78.875" height="24" rx="4" fill="#242424"/>
<g clip-path="url(#clip1_1_933)">
<g clip-path="url(#clip2_1_933)">
<path d="M33.5251 14.6265C33.5251 11.3245 28.7411 12.5985 28.7411 10.5575C28.7411 9.6865 29.4041 9.2705 30.2621 9.2965C31.1981 9.3225 31.7311 9.8815 31.7831 10.4925H33.4211C33.2911 8.9455 32.0691 8.0355 30.3401 8.0355C28.4941 8.0355 27.2331 9.0235 27.2331 10.6095C27.2331 13.9375 32.0301 12.5205 32.0301 14.7045C32.0301 15.4715 31.4451 16.0305 30.4051 16.0305C29.3781 16.0305 28.8581 15.4325 28.7931 14.6915H27.2071C27.2071 16.2905 28.5981 17.2785 30.4051 17.2785C32.4201 17.2785 33.5251 15.9785 33.5251 14.6265ZM38.2898 11.1555C39.3948 11.1555 40.2658 11.8575 40.2918 12.9625H36.3268C36.4828 11.8315 37.2888 11.1555 38.2898 11.1555ZM41.6438 15.0555H40.0448C39.7718 15.6145 39.2648 16.0565 38.3548 16.0565C37.2628 16.0565 36.4178 15.3415 36.3138 14.1585H41.7868C41.8258 13.9115 41.8388 13.6775 41.8388 13.4305C41.8388 11.3245 40.3958 9.9075 38.3548 9.9075C36.2358 9.9075 34.7798 11.3505 34.7798 13.5995C34.7798 15.8485 36.3008 17.3045 38.3548 17.3045C40.1098 17.3045 41.2408 16.3035 41.6438 15.0555ZM43.5313 15.1985C43.5313 16.6545 44.3243 17.1875 45.5983 17.1875H46.7683V15.9525H45.8583C45.2343 15.9525 45.0263 15.7315 45.0263 15.1985V11.2335H46.7683V10.0245H45.0263V8.2435H43.5313V10.0245H42.6863V11.2335H43.5313V15.1985ZM48.3682 15.1985C48.3682 16.6545 49.1612 17.1875 50.4352 17.1875H51.6052V15.9525H50.6952C50.0712 15.9525 49.8632 15.7315 49.8632 15.1985V11.2335H51.6052V10.0245H49.8632V8.2435H48.3682V10.0245H47.5232V11.2335H48.3682V15.1985ZM52.9711 17.1875H54.4531V10.0245H52.9711V17.1875ZM53.7251 9.0755C54.2451 9.0755 54.6611 8.6595 54.6611 8.1265C54.6611 7.5935 54.2451 7.1775 53.7251 7.1775C53.1921 7.1775 52.7761 7.5935 52.7761 8.1265C52.7761 8.6595 53.1921 9.0755 53.7251 9.0755ZM61.4818 17.1875H62.9508V12.9625C62.9508 10.9605 61.6898 9.9075 60.0128 9.9075C59.1548 9.9075 58.3618 10.2585 57.8808 10.8435V10.0245H56.3988V17.1875H57.8808V13.1835C57.8808 11.8705 58.5958 11.1945 59.6878 11.1945C60.7668 11.1945 61.4818 11.8705 61.4818 13.1835V17.1875ZM64.3472 13.5735C64.3472 15.7835 65.8422 17.3045 67.7272 17.3045C68.8972 17.3045 69.7552 16.7195 70.2102 16.1085V17.3045C70.2102 18.7345 69.3522 19.4365 68.2082 19.4365C67.1812 19.4365 66.3882 18.9295 66.1672 18.1885H64.6982C64.8802 19.7745 66.2972 20.7235 68.2082 20.7235C70.4442 20.7235 71.7052 19.2545 71.7052 17.3045V10.0245H70.2102V11.0645C69.7682 10.4535 68.8972 9.9075 67.7272 9.9075C65.8422 9.9075 64.3472 11.3635 64.3472 13.5735ZM70.2102 13.5995C70.2102 15.1465 69.1572 16.0175 68.0392 16.0175C66.9342 16.0175 65.8682 15.1205 65.8682 13.5735C65.8682 12.0265 66.9342 11.1945 68.0392 11.1945C69.1572 11.1945 70.2102 12.0655 70.2102 13.5995Z" fill="#0D99FF"/>
</g>
</g>
<path d="M79.2594 14.2438C79.4562 14.4406 79.7844 14.4406 79.9812 14.2438L84.2469 10C84.4437 9.78125 84.4437 9.45313 84.2469 9.25625L83.7437 8.75313C83.5469 8.55625 83.2187 8.55625 83 8.75313L79.6312 12.1219L76.2406 8.75313C76.0219 8.55625 75.6937 8.55625 75.4969 8.75313L74.9937 9.25625C74.7969 9.45313 74.7969 9.78125 74.9937 10L79.2594 14.2438Z" fill="#0D99FF"/>
<defs>
<clipPath id="clip0_1_933">
<rect width="16" height="16" fill="white" transform="translate(0.453125 4.1875)"/>
</clipPath>
<clipPath id="clip1_1_933">
<rect width="46.2344" height="20" fill="white" transform="translate(26.4531 2.1875)"/>
</clipPath>
<clipPath id="clip2_1_933">
<rect width="47" height="20" fill="white" transform="translate(26.4531 2.1875)"/>
</clipPath>
</defs>
</svg>
