<svg width="282" height="40" viewBox="0 0 282 40" fill="none" xmlns="http://www.w3.org/2000/svg">
<g clip-path="url(#clip0_1_9)">
<mask id="mask0_1_9" style="mask-type:luminance" maskUnits="userSpaceOnUse" x="-4" y="-1" width="289" height="43">
<path d="M284.5 -0.1875H-3.5V41.8125H284.5V-0.1875Z" fill="white"/>
</mask>
<g mask="url(#mask0_1_9)">
<path d="M-0.5 40.8125V35.4792L27.7 8.8125L55.9 22.1458L84.1 15.4792L112.3 22.1458L140.5 16.8125L168.7 24.8125L196.9 18.1458L225.1 22.1458L253.3 15.4792L281.5 8.8125V40.8125" fill="url(#paint0_linear_1_9)"/>
</g>
<mask id="mask1_1_9" style="mask-type:luminance" maskUnits="userSpaceOnUse" x="-4" y="-1" width="289" height="43">
<path d="M284.5 -0.1875H-3.5V41.8125H284.5V-0.1875Z" fill="white"/>
</mask>
<g mask="url(#mask1_1_9)">
<path d="M-0.5 35.4792L27.7 8.8125L55.9 22.1458L84.1 15.4792L112.3 22.1458L140.5 16.8125L168.7 24.8125L196.9 18.1458L225.1 22.1458L253.3 15.4792L281.5 8.8125" stroke="#0D99FF" stroke-width="2"/>
</g>
</g>
<defs>
<linearGradient id="paint0_linear_1_9" x1="-0.5" y1="8.8125" x2="-0.5" y2="40.8125" gradientUnits="userSpaceOnUse">
<stop stop-opacity="0.4"/>
<stop offset="0.006" stop-opacity="0.4"/>
<stop offset="1" stop-color="white" stop-opacity="0"/>
</linearGradient>
<clipPath id="clip0_1_9">
<rect width="281" height="40" fill="white" transform="translate(0.5 0.8125)"/>
</clipPath>
</defs>
</svg>
