<svg width="151" height="105" viewBox="0 0 151 105" fill="none" xmlns="http://www.w3.org/2000/svg">
<g clip-path="url(#clip0_1_54)">
<path d="M76.9375 7.88794C85.7754 7.88794 94.4014 10.5944 101.655 15.6432C108.909 20.692 114.443 27.8411 117.512 36.1289L109.397 39.1344C106.942 32.5041 102.515 26.7849 96.7117 22.7458C90.9086 18.7067 84.0079 16.5416 76.9375 16.5416V7.88794Z" fill="#3AC977" stroke="#444444" stroke-width="2"/>
<path d="M117.512 36.1289C121.366 46.5343 121.075 58.0225 116.699 68.2193C112.323 78.4161 104.197 86.5421 94.0006 90.9179C83.8038 95.2937 72.3155 95.5849 61.9102 91.7311C51.5048 87.8774 42.9776 80.1734 38.091 70.2113L45.8603 66.4003C49.7696 74.37 56.5913 80.5332 64.9156 83.6162C73.2399 86.6991 82.4305 86.4662 90.588 82.9656C98.7454 79.465 105.246 72.9642 108.747 64.8067C112.247 56.6492 112.48 47.4587 109.397 39.1344L117.512 36.1289Z" fill="#0D99FF" stroke="#444444" stroke-width="2"/>
<path d="M38.091 70.2113C34.8555 63.6153 33.3528 56.304 33.7246 48.9666C34.0964 41.6292 36.3304 34.5073 40.2161 28.2721C44.1018 22.0369 49.5111 16.8938 55.9344 13.3275C62.3576 9.76122 69.5831 7.88922 76.9299 7.88794L76.9314 16.5416C71.054 16.5426 65.2736 18.0402 60.135 20.8932C54.9964 23.7463 50.6689 27.8607 47.5604 32.8489C44.4518 37.8371 42.6646 43.5346 42.3672 49.4045C42.0698 55.2745 43.2719 61.1235 45.8603 66.4003L38.091 70.2113Z" fill="black" stroke="#444444" stroke-width="2"/>
<path d="M61.5713 59.3955L62.6133 59.6587C62.3949 60.5145 62.001 61.168 61.4316 61.6191C60.8659 62.0667 60.173 62.2905 59.353 62.2905C58.5044 62.2905 57.8133 62.1187 57.2798 61.7749C56.7498 61.4276 56.3452 60.9263 56.0659 60.271C55.7902 59.6157 55.6523 58.9121 55.6523 58.1602C55.6523 57.3402 55.8081 56.6258 56.1196 56.0171C56.4347 55.4048 56.8805 54.9411 57.457 54.626C58.0371 54.3073 58.6745 54.1479 59.3691 54.1479C60.1569 54.1479 60.8193 54.3485 61.3564 54.7495C61.8936 55.1506 62.2677 55.7145 62.479 56.4414L61.4531 56.6831C61.2705 56.1102 61.0055 55.693 60.6582 55.4316C60.3109 55.1702 59.874 55.0396 59.3477 55.0396C58.7425 55.0396 58.2358 55.1846 57.8276 55.4746C57.423 55.7646 57.1383 56.1549 56.9736 56.6455C56.8089 57.1325 56.7266 57.6356 56.7266 58.1548C56.7266 58.8244 56.8232 59.4098 57.0166 59.9111C57.2135 60.4089 57.5179 60.7812 57.9297 61.0283C58.3415 61.2754 58.7873 61.3989 59.2671 61.3989C59.8507 61.3989 60.3449 61.2306 60.7495 60.894C61.1541 60.5575 61.4281 60.0579 61.5713 59.3955ZM63.4189 59.3042C63.4189 58.2479 63.7126 57.4655 64.2998 56.957C64.7904 56.5345 65.3883 56.3232 66.0938 56.3232C66.8779 56.3232 67.5189 56.5811 68.0166 57.0967C68.5143 57.6087 68.7632 58.3177 68.7632 59.2236C68.7632 59.9577 68.6522 60.536 68.4302 60.9585C68.2118 61.3774 67.8913 61.7033 67.4688 61.936C67.0498 62.1688 66.5915 62.2852 66.0938 62.2852C65.2952 62.2852 64.6489 62.0291 64.1548 61.5171C63.6642 61.005 63.4189 60.2674 63.4189 59.3042ZM64.4126 59.3042C64.4126 60.0347 64.5719 60.5825 64.8906 60.9478C65.2093 61.3094 65.6104 61.4902 66.0938 61.4902C66.5736 61.4902 66.9728 61.3076 67.2915 60.9424C67.6102 60.5771 67.7695 60.0203 67.7695 59.272C67.7695 58.5666 67.6084 58.033 67.2861 57.6714C66.9674 57.3062 66.57 57.1235 66.0938 57.1235C65.6104 57.1235 65.2093 57.3044 64.8906 57.666C64.5719 58.0277 64.4126 58.5737 64.4126 59.3042ZM69.9019 62.1562V56.4521H70.7666V57.2524C70.9456 56.9731 71.1838 56.7493 71.481 56.5811C71.7782 56.4092 72.1165 56.3232 72.4961 56.3232C72.9186 56.3232 73.2642 56.411 73.5327 56.5864C73.8049 56.7619 73.9964 57.0072 74.1074 57.3223C74.5586 56.6562 75.1458 56.3232 75.8691 56.3232C76.4349 56.3232 76.87 56.4808 77.1743 56.7959C77.4787 57.1074 77.6309 57.589 77.6309 58.2407V62.1562H76.6694V58.563C76.6694 58.1763 76.6372 57.8988 76.5728 57.7305C76.5119 57.5586 76.3991 57.4207 76.2344 57.3169C76.0697 57.2131 75.8763 57.1611 75.6543 57.1611C75.2533 57.1611 74.9202 57.2954 74.6553 57.564C74.3903 57.8289 74.2578 58.255 74.2578 58.8423V62.1562H73.291V58.4502C73.291 58.0205 73.2122 57.6982 73.0547 57.4834C72.8971 57.2686 72.6393 57.1611 72.2812 57.1611C72.0091 57.1611 71.7567 57.2327 71.5239 57.376C71.2948 57.5192 71.1283 57.7287 71.0244 58.0044C70.9206 58.2801 70.8687 58.6776 70.8687 59.1968V62.1562H69.9019ZM79.0649 64.3423V56.4521H79.9458V57.1934C80.1535 56.9033 80.388 56.6867 80.6494 56.5435C80.9108 56.3966 81.2277 56.3232 81.6001 56.3232C82.0871 56.3232 82.5168 56.4486 82.8892 56.6992C83.2616 56.9499 83.5426 57.3044 83.7324 57.7627C83.9222 58.2174 84.0171 58.717 84.0171 59.2612C84.0171 59.8449 83.9115 60.3713 83.7002 60.8403C83.4925 61.3058 83.1882 61.6639 82.7871 61.9146C82.3896 62.1616 81.9707 62.2852 81.5303 62.2852C81.208 62.2852 80.918 62.2171 80.6602 62.0811C80.4059 61.945 80.1965 61.7731 80.0317 61.5654V64.3423H79.0649ZM79.9404 59.3364C79.9404 60.0705 80.089 60.613 80.3862 60.9639C80.6834 61.3148 81.0433 61.4902 81.4658 61.4902C81.8955 61.4902 82.2625 61.3094 82.5669 60.9478C82.8748 60.5825 83.0288 60.0186 83.0288 59.2559C83.0288 58.529 82.8784 57.9847 82.5776 57.623C82.2804 57.2614 81.9242 57.0806 81.5088 57.0806C81.097 57.0806 80.7318 57.2739 80.4131 57.6606C80.098 58.0438 79.9404 58.6024 79.9404 59.3364ZM89.0928 60.3193L90.0918 60.4429C89.9342 61.0265 89.6424 61.4795 89.2163 61.8018C88.7902 62.124 88.2459 62.2852 87.5835 62.2852C86.7492 62.2852 86.0868 62.0291 85.5962 61.5171C85.1092 61.0015 84.8657 60.2799 84.8657 59.3525C84.8657 58.3929 85.1128 57.6481 85.6069 57.1182C86.1011 56.5882 86.742 56.3232 87.5298 56.3232C88.2925 56.3232 88.9155 56.5828 89.3989 57.1021C89.8823 57.6213 90.124 58.3517 90.124 59.2935C90.124 59.3507 90.1222 59.4367 90.1187 59.5513H85.8647C85.9006 60.1779 86.0778 60.6577 86.3965 60.9907C86.7152 61.3237 87.1126 61.4902 87.5889 61.4902C87.9434 61.4902 88.2459 61.3971 88.4966 61.2109C88.7472 61.0247 88.946 60.7275 89.0928 60.3193ZM85.9185 58.7563H89.1035C89.0605 58.2765 88.9388 57.9167 88.7383 57.6768C88.4303 57.3044 88.0311 57.1182 87.5405 57.1182C87.0965 57.1182 86.7223 57.2668 86.418 57.564C86.1172 57.8612 85.9507 58.2586 85.9185 58.7563ZM93.4219 61.2915L93.5615 62.1455C93.2894 62.2028 93.0459 62.2314 92.8311 62.2314C92.4801 62.2314 92.208 62.1759 92.0146 62.0649C91.8213 61.9539 91.6852 61.8089 91.6064 61.6299C91.5277 61.4473 91.4883 61.0659 91.4883 60.4858V57.2041H90.7793V56.4521H91.4883V55.0396L92.4497 54.4595V56.4521H93.4219V57.2041H92.4497V60.5396C92.4497 60.8153 92.4658 60.9925 92.498 61.0713C92.5339 61.1501 92.5894 61.2127 92.6646 61.2593C92.7433 61.3058 92.8543 61.3291 92.9976 61.3291C93.105 61.3291 93.2464 61.3166 93.4219 61.2915ZM98.2773 60.3193L99.2764 60.4429C99.1188 61.0265 98.827 61.4795 98.4009 61.8018C97.9748 62.124 97.4305 62.2852 96.7681 62.2852C95.9338 62.2852 95.2713 62.0291 94.7808 61.5171C94.2938 61.0015 94.0503 60.2799 94.0503 59.3525C94.0503 58.3929 94.2974 57.6481 94.7915 57.1182C95.2856 56.5882 95.9266 56.3232 96.7144 56.3232C97.4771 56.3232 98.1001 56.5828 98.5835 57.1021C99.0669 57.6213 99.3086 58.3517 99.3086 59.2935C99.3086 59.3507 99.3068 59.4367 99.3032 59.5513H95.0493C95.0851 60.1779 95.2624 60.6577 95.5811 60.9907C95.8997 61.3237 96.2972 61.4902 96.7734 61.4902C97.1279 61.4902 97.4305 61.3971 97.6812 61.2109C97.9318 61.0247 98.1305 60.7275 98.2773 60.3193ZM95.103 58.7563H98.2881C98.2451 58.2765 98.1234 57.9167 97.9229 57.6768C97.6149 57.3044 97.2157 57.1182 96.7251 57.1182C96.2811 57.1182 95.9069 57.2668 95.6025 57.564C95.3018 57.8612 95.1353 58.2586 95.103 58.7563Z" fill="#828690"/>
<path d="M61.5713 59.3955L61.6937 58.9107L61.192 58.784L61.0826 59.2898L61.5713 59.3955ZM62.6133 59.6587L63.0978 59.7823L63.2217 59.2967L62.7357 59.1739L62.6133 59.6587ZM61.4316 61.6191L61.7419 62.0113L61.7422 62.011L61.4316 61.6191ZM57.2798 61.7749L57.0057 62.1931L57.009 62.1952L57.2798 61.7749ZM56.0659 60.271L55.605 60.4649L55.606 60.467L56.0659 60.271ZM56.1196 56.0171L55.675 55.7883L55.6745 55.7893L56.1196 56.0171ZM57.457 54.626L57.6968 55.0647L57.6978 55.0642L57.457 54.626ZM62.479 56.4414L62.5937 56.9281L63.1061 56.8074L62.9591 56.3019L62.479 56.4414ZM61.4531 56.6831L60.9767 56.835L61.1173 57.2759L61.5678 57.1698L61.4531 56.6831ZM60.6582 55.4316L60.3575 55.8311L60.6582 55.4316ZM57.8276 55.4746L57.538 55.067L57.5363 55.0682L57.8276 55.4746ZM56.9736 56.6455L57.4473 56.8057L57.4476 56.8047L56.9736 56.6455ZM57.0166 59.9111L56.5501 60.0911L56.5517 60.0951L57.0166 59.9111ZM60.7495 60.894L61.0693 61.2784L60.7495 60.894ZM61.4488 59.8803L62.4908 60.1435L62.7357 59.1739L61.6937 58.9107L61.4488 59.8803ZM62.1288 59.535C61.9315 60.3083 61.5874 60.8577 61.1211 61.2273L61.7422 62.011C62.4145 61.4782 62.8583 60.7207 63.0978 59.7823L62.1288 59.535ZM61.1214 61.227C60.6559 61.5953 60.0766 61.7905 59.353 61.7905V62.7905C60.2694 62.7905 61.0759 62.5381 61.7419 62.0113L61.1214 61.227ZM59.353 61.7905C58.5689 61.7905 57.9804 61.6315 57.5506 61.3546L57.009 62.1952C57.6462 62.6058 58.4399 62.7905 59.353 62.7905V61.7905ZM57.5539 61.3567C57.1164 61.07 56.7715 60.6511 56.5259 60.0749L55.606 60.467C55.919 61.2014 56.3832 61.7851 57.0057 62.1931L57.5539 61.3567ZM56.5268 60.0771C56.2784 59.4867 56.1523 58.8494 56.1523 58.1602H55.1523C55.1523 58.9748 55.302 59.7448 55.6051 60.4649L56.5268 60.0771ZM56.1523 58.1602C56.1523 57.4037 56.2958 56.7704 56.5647 56.2449L55.6745 55.7893C55.3204 56.4813 55.1523 57.2766 55.1523 58.1602H56.1523ZM56.5642 56.2459C56.8359 55.7179 57.2124 55.3295 57.6968 55.0647L57.2172 54.1872C56.5487 54.5527 56.0336 55.0916 55.675 55.7883L56.5642 56.2459ZM57.6978 55.0642C58.2004 54.7881 58.7543 54.6479 59.3691 54.6479V53.6479C58.5946 53.6479 57.8738 53.8265 57.2163 54.1878L57.6978 55.0642ZM59.3691 54.6479C60.0686 54.6479 60.621 54.8244 61.0573 55.1502L61.6556 54.3489C61.0176 53.8725 60.2452 53.6479 59.3691 53.6479V54.6479ZM61.0573 55.1502C61.4962 55.4779 61.8138 55.9443 61.9989 56.581L62.9591 56.3019C62.7216 55.4847 62.2909 54.8232 61.6556 54.3489L61.0573 55.1502ZM62.3643 55.9547L61.3385 56.1964L61.5678 57.1698L62.5937 56.9281L62.3643 55.9547ZM61.9295 56.5313C61.7272 55.8964 61.4153 55.3757 60.9589 55.0321L60.3575 55.8311C60.5957 56.0104 60.8139 56.3239 60.9767 56.835L61.9295 56.5313ZM60.9589 55.0321C60.5078 54.6927 59.959 54.5396 59.3477 54.5396V55.5396C59.789 55.5396 60.1139 55.6478 60.3575 55.8311L60.9589 55.0321ZM59.3477 54.5396C58.6608 54.5396 58.0472 54.7052 57.538 55.067L58.1172 55.8822C58.4245 55.6639 58.8242 55.5396 59.3477 55.5396V54.5396ZM57.5363 55.0682C57.0428 55.422 56.6964 55.9004 56.4996 56.4864L57.4476 56.8047C57.5803 56.4095 57.8032 56.1073 58.1189 55.881L57.5363 55.0682ZM56.5 56.4853C56.3176 57.0244 56.2266 57.5817 56.2266 58.1548H57.2266C57.2266 57.6895 57.3002 57.2406 57.4473 56.8057L56.5 56.4853ZM56.2266 58.1548C56.2266 58.8713 56.3299 59.5202 56.5501 60.0911L57.4831 59.7312C57.3166 59.2995 57.2266 58.7774 57.2266 58.1548H56.2266ZM56.5517 60.0951C56.7842 60.6827 57.1556 61.147 57.6724 61.4571L58.1869 60.5996C57.8802 60.4155 57.6429 60.135 57.4815 59.7272L56.5517 60.0951ZM57.6724 61.4571C58.1619 61.7507 58.6966 61.8989 59.2671 61.8989V60.8989C58.878 60.8989 58.5211 60.8001 58.1869 60.5996L57.6724 61.4571ZM59.2671 61.8989C59.954 61.8989 60.5649 61.698 61.0693 61.2784L60.4298 60.5097C60.1249 60.7633 59.7475 60.8989 59.2671 60.8989V61.8989ZM61.0693 61.2784C61.5818 60.8521 61.9 60.241 62.06 59.5012L61.0826 59.2898C60.9561 59.8748 60.7265 60.2628 60.4298 60.5097L61.0693 61.2784ZM64.2998 56.957L63.9735 56.5782L63.9725 56.579L64.2998 56.957ZM68.0166 57.0967L67.6569 57.4439L67.6581 57.4452L68.0166 57.0967ZM68.4302 60.9585L67.9876 60.7259L67.9868 60.7273L68.4302 60.9585ZM67.4688 61.936L67.2275 61.4981L67.2259 61.499L67.4688 61.936ZM64.1548 61.5171L63.7937 61.863L63.795 61.8643L64.1548 61.5171ZM64.8906 60.9478L64.5139 61.2765L64.5155 61.2783L64.8906 60.9478ZM67.2915 60.9424L66.9148 60.6137L67.2915 60.9424ZM67.2861 57.6714L66.9094 58.0001L66.9128 58.004L67.2861 57.6714ZM63.9189 59.3042C63.9189 58.3381 64.1851 57.7177 64.6271 57.335L63.9725 56.579C63.24 57.2133 62.9189 58.1576 62.9189 59.3042H63.9189ZM64.6261 57.3359C65.0175 56.9987 65.4966 56.8232 66.0938 56.8232V55.8232C65.2801 55.8232 64.5632 56.0703 63.9735 56.5782L64.6261 57.3359ZM66.0938 56.8232C66.7564 56.8232 67.2628 57.0357 67.6569 57.4439L68.3763 56.7494C67.775 56.1265 66.9995 55.8232 66.0938 55.8232V56.8232ZM67.6581 57.4452C68.0424 57.8406 68.2632 58.4113 68.2632 59.2236H69.2632C69.2632 58.2241 68.9862 57.3769 68.3751 56.7482L67.6581 57.4452ZM68.2632 59.2236C68.2632 59.9163 68.157 60.4035 67.9876 60.7259L68.8728 61.1911C69.1474 60.6684 69.2632 59.9991 69.2632 59.2236H68.2632ZM67.9868 60.7273C67.8149 61.057 67.5657 61.3118 67.2275 61.4981L67.71 62.374C68.2169 62.0948 68.6086 61.6979 68.8735 61.1896L67.9868 60.7273ZM67.2259 61.499C66.8842 61.6888 66.5099 61.7852 66.0938 61.7852V62.7852C66.673 62.7852 67.2154 62.6487 67.7116 62.3731L67.2259 61.499ZM66.0938 61.7852C65.4127 61.7852 64.9025 61.5719 64.5146 61.1699L63.795 61.8643C64.3953 62.4864 65.1778 62.7852 66.0938 62.7852V61.7852ZM64.5158 61.1712C64.1424 60.7814 63.9189 60.1856 63.9189 59.3042H62.9189C62.9189 60.3492 63.186 61.2287 63.7937 61.863L64.5158 61.1712ZM63.9126 59.3042C63.9126 60.0963 64.0839 60.7837 64.5139 61.2765L65.2674 60.619C65.06 60.3813 64.9126 59.9731 64.9126 59.3042H63.9126ZM64.5155 61.2783C64.9294 61.748 65.4672 61.9902 66.0938 61.9902V60.9902C65.7535 60.9902 65.4892 60.8708 65.2658 60.6172L64.5155 61.2783ZM66.0938 61.9902C66.7197 61.9902 67.2557 61.7439 67.6682 61.2711L66.9148 60.6137C66.6899 60.8713 66.4275 60.9902 66.0938 60.9902V61.9902ZM67.6682 61.2711C68.0998 60.7765 68.2695 60.0782 68.2695 59.272H67.2695C67.2695 59.9624 67.1206 60.3778 66.9148 60.6137L67.6682 61.2711ZM68.2695 59.272C68.2695 58.4989 68.0937 57.8261 67.6594 57.3387L66.9128 58.004C67.1231 58.24 67.2695 58.6342 67.2695 59.272H68.2695ZM67.6629 57.3427C67.2512 56.8708 66.7173 56.6235 66.0938 56.6235V57.6235C66.4226 57.6235 66.6837 57.7415 66.9094 58.0001L67.6629 57.3427ZM66.0938 56.6235C65.4672 56.6235 64.9294 56.8657 64.5155 57.3355L65.2658 57.9966C65.4892 57.743 65.7535 57.6235 66.0938 57.6235V56.6235ZM64.5155 57.3355C64.0837 57.8255 63.9126 58.5126 63.9126 59.3042H64.9126C64.9126 58.6348 65.0602 58.2299 65.2658 57.9966L64.5155 57.3355ZM69.9019 62.1562H69.4019V62.6562H69.9019V62.1562ZM69.9019 56.4521V55.9521H69.4019V56.4521H69.9019ZM70.7666 56.4521H71.2666V55.9521H70.7666V56.4521ZM70.7666 57.2524H70.2666V58.9589L71.1875 57.5223L70.7666 57.2524ZM71.481 56.5811L71.7273 57.0162L71.7313 57.0139L71.481 56.5811ZM73.5327 56.5864L73.2592 57.005L73.2618 57.0067L73.5327 56.5864ZM74.1074 57.3223L73.6358 57.4884L73.9653 58.4236L74.5214 57.6027L74.1074 57.3223ZM77.1743 56.7959L76.8147 57.1433L76.8167 57.1453L77.1743 56.7959ZM77.6309 62.1562V62.6562H78.1309V62.1562H77.6309ZM76.6694 62.1562H76.1694V62.6562H76.6694V62.1562ZM76.5728 57.7305L76.1013 57.8974L76.1058 57.9093L76.5728 57.7305ZM74.6553 57.564L75.0088 57.9175L75.0112 57.9151L74.6553 57.564ZM74.2578 62.1562V62.6562H74.7578V62.1562H74.2578ZM73.291 62.1562H72.791V62.6562H73.291V62.1562ZM73.0547 57.4834L72.6515 57.7791L73.0547 57.4834ZM71.5239 57.376L71.2619 56.9501L71.2589 56.952L71.5239 57.376ZM70.8687 62.1562V62.6562H71.3687V62.1562H70.8687ZM70.4019 62.1562V56.4521H69.4019V62.1562H70.4019ZM69.9019 56.9521H70.7666V55.9521H69.9019V56.9521ZM70.2666 56.4521V57.2524H71.2666V56.4521H70.2666ZM71.1875 57.5223C71.3214 57.3135 71.4987 57.1456 71.7273 57.0161L71.2346 56.146C70.8688 56.3531 70.5699 56.6328 70.3457 56.9826L71.1875 57.5223ZM71.7313 57.0139C71.9446 56.8905 72.1949 56.8232 72.4961 56.8232V55.8232C72.0382 55.8232 71.6118 55.9278 71.2306 56.1482L71.7313 57.0139ZM72.4961 56.8232C72.8517 56.8232 73.0941 56.8971 73.2592 57.005L73.8062 56.1678C73.4342 55.9248 72.9855 55.8232 72.4961 55.8232V56.8232ZM73.2618 57.0067C73.4376 57.12 73.5604 57.2743 73.6358 57.4884L74.579 57.1561C74.4324 56.74 74.1721 56.4038 73.8037 56.1662L73.2618 57.0067ZM74.5214 57.6027C74.8918 57.0559 75.3324 56.8232 75.8691 56.8232V55.8232C74.9593 55.8232 74.2254 56.2566 73.6935 57.0418L74.5214 57.6027ZM75.8691 56.8232C76.3408 56.8232 76.6299 56.952 76.8147 57.1433L77.5339 56.4485C77.11 56.0096 76.529 55.8232 75.8691 55.8232V56.8232ZM76.8167 57.1453C76.9932 57.326 77.1309 57.6557 77.1309 58.2407H78.1309C78.1309 57.5223 77.9642 56.8889 77.532 56.4465L76.8167 57.1453ZM77.1309 58.2407V62.1562H78.1309V58.2407H77.1309ZM77.6309 61.6562H76.6694V62.6562H77.6309V61.6562ZM77.1694 62.1562V58.563H76.1694V62.1562H77.1694ZM77.1694 58.563C77.1694 58.169 77.1393 57.8118 77.0397 57.5516L76.1058 57.9093C76.1351 57.9857 76.1694 58.1835 76.1694 58.563H77.1694ZM77.0441 57.5635C76.943 57.2783 76.7539 57.0533 76.501 56.8939L75.9677 57.7399C76.0443 57.7881 76.0807 57.8389 76.1014 57.8974L77.0441 57.5635ZM76.501 56.8939C76.2457 56.733 75.9571 56.6611 75.6543 56.6611V57.6611C75.7955 57.6611 75.8936 57.6931 75.9677 57.7399L76.501 56.8939ZM75.6543 56.6611C75.1289 56.6611 74.6647 56.8425 74.2994 57.2128L75.0112 57.9151C75.1758 57.7483 75.3777 57.6611 75.6543 57.6611V56.6611ZM74.3017 57.2104C73.9016 57.6105 73.7578 58.1954 73.7578 58.8423H74.7578C74.7578 58.3147 74.879 58.0474 75.0088 57.9175L74.3017 57.2104ZM73.7578 58.8423V62.1562H74.7578V58.8423H73.7578ZM74.2578 61.6562H73.291V62.6562H74.2578V61.6562ZM73.791 62.1562V58.4502H72.791V62.1562H73.791ZM73.791 58.4502C73.791 57.9742 73.7064 57.5266 73.4579 57.1877L72.6515 57.7791C72.7181 57.8699 72.791 58.0669 72.791 58.4502H73.791ZM73.4579 57.1877C73.1758 56.803 72.7391 56.6611 72.2812 56.6611V57.6611C72.5395 57.6611 72.6185 57.7341 72.6515 57.7791L73.4579 57.1877ZM72.2812 56.6611C71.9162 56.6611 71.5731 56.7586 71.2619 56.9501L71.786 57.8018C71.9403 57.7069 72.1021 57.6611 72.2812 57.6611V56.6611ZM71.2589 56.952C70.9283 57.1586 70.6953 57.4597 70.5565 57.8282L71.4923 58.1806C71.5612 57.9977 71.6613 57.8798 71.7889 57.8L71.2589 56.952ZM70.5565 57.8282C70.4211 58.1876 70.3687 58.6561 70.3687 59.1968H71.3687C71.3687 58.6991 71.42 58.3726 71.4923 58.1806L70.5565 57.8282ZM70.3687 59.1968V62.1562H71.3687V59.1968H70.3687ZM70.8687 61.6562H69.9019V62.6562H70.8687V61.6562ZM79.0649 64.3423H78.5649V64.8423H79.0649V64.3423ZM79.0649 56.4521V55.9521H78.5649V56.4521H79.0649ZM79.9458 56.4521H80.4458V55.9521H79.9458V56.4521ZM79.9458 57.1934H79.4458V58.7505L80.3523 57.4845L79.9458 57.1934ZM80.6494 56.5435L80.8897 56.982L80.8943 56.9794L80.6494 56.5435ZM82.8892 56.6992L82.61 57.114L82.8892 56.6992ZM83.7324 57.7627L83.2705 57.954L83.271 57.9553L83.7324 57.7627ZM83.7002 60.8403L83.2443 60.635L83.2436 60.6366L83.7002 60.8403ZM82.7871 61.9146L83.0511 62.3392L83.0521 62.3385L82.7871 61.9146ZM80.6602 62.0811L80.4242 62.5219L80.4268 62.5232L80.6602 62.0811ZM80.0317 61.5654L80.4235 61.2547L79.5317 60.1304V61.5654H80.0317ZM80.0317 64.3423V64.8423H80.5317V64.3423H80.0317ZM82.5669 60.9478L82.1846 60.6255L82.1843 60.6258L82.5669 60.9478ZM82.5776 57.623L82.1913 57.9405L82.1932 57.9428L82.5776 57.623ZM80.4131 57.6606L80.0272 57.3427L80.0269 57.343L80.4131 57.6606ZM79.5649 64.3423V56.4521H78.5649V64.3423H79.5649ZM79.0649 56.9521H79.9458V55.9521H79.0649V56.9521ZM79.4458 56.4521V57.1934H80.4458V56.4521H79.4458ZM80.3523 57.4845C80.5248 57.2435 80.7058 57.0827 80.8897 56.9819L80.4091 56.105C80.0703 56.2906 79.7821 56.5631 79.5393 56.9023L80.3523 57.4845ZM80.8943 56.9794C81.0648 56.8836 81.2929 56.8232 81.6001 56.8232V55.8232C81.1625 55.8232 80.7568 55.9097 80.4046 56.1075L80.8943 56.9794ZM81.6001 56.8232C81.9964 56.8232 82.3271 56.9236 82.61 57.114L83.1683 56.2844C82.7064 55.9735 82.1777 55.8232 81.6001 55.8232V56.8232ZM82.61 57.114C82.8923 57.304 83.1142 57.5766 83.2705 57.954L84.1944 57.5714C83.9711 57.0322 83.6308 56.5957 83.1683 56.2844L82.61 57.114ZM83.271 57.9553C83.4328 58.3429 83.5171 58.7761 83.5171 59.2612H84.5171C84.5171 58.6578 84.4116 58.092 84.1939 57.5701L83.271 57.9553ZM83.5171 59.2612C83.5171 59.7836 83.4228 60.2386 83.2443 60.635L84.1561 61.0457C84.4001 60.5039 84.5171 59.9062 84.5171 59.2612H83.5171ZM83.2436 60.6366C83.0731 61.0187 82.8322 61.2968 82.5221 61.4906L83.0521 62.3385C83.5441 62.031 83.9119 61.593 84.1568 61.0441L83.2436 60.6366ZM82.5231 61.4899C82.1997 61.6909 81.8715 61.7852 81.5303 61.7852V62.7852C82.0699 62.7852 82.5796 62.6323 83.0511 62.3392L82.5231 61.4899ZM81.5303 61.7852C81.2806 61.7852 81.0721 61.7331 80.8935 61.6389L80.4268 62.5232C80.7639 62.7012 81.1354 62.7852 81.5303 62.7852V61.7852ZM80.8961 61.6402C80.6968 61.5336 80.5421 61.4043 80.4235 61.2547L79.64 61.8761C79.8508 62.1419 80.115 62.3564 80.4242 62.5219L80.8961 61.6402ZM79.5317 61.5654V64.3423H80.5317V61.5654H79.5317ZM80.0317 63.8423H79.0649V64.8423H80.0317V63.8423ZM79.4404 59.3364C79.4404 60.1224 79.5969 60.8056 80.0047 61.287L80.7678 60.6407C80.5811 60.4204 80.4404 60.0185 80.4404 59.3364H79.4404ZM80.0047 61.287C80.3874 61.7389 80.8822 61.9902 81.4658 61.9902V60.9902C81.2044 60.9902 80.9795 60.8907 80.7678 60.6407L80.0047 61.287ZM81.4658 61.9902C82.059 61.9902 82.5608 61.7315 82.9494 61.2697L82.1843 60.6258C81.9642 60.8873 81.7321 60.9902 81.4658 60.9902V61.9902ZM82.9492 61.2701C83.367 60.7745 83.5288 60.0703 83.5288 59.2559H82.5288C82.5288 59.9668 82.3827 60.3906 82.1846 60.6255L82.9492 61.2701ZM83.5288 59.2559C83.5288 58.4728 83.3688 57.7924 82.9621 57.3033L82.1932 57.9428C82.3881 58.177 82.5288 58.5852 82.5288 59.2559H83.5288ZM82.9639 57.3056C82.5854 56.8449 82.0939 56.5806 81.5088 56.5806V57.5806C81.7544 57.5806 81.9755 57.6779 82.1913 57.9405L82.9639 57.3056ZM81.5088 56.5806C80.9153 56.5806 80.4182 56.8682 80.0272 57.3427L80.7989 57.9786C81.0453 57.6796 81.2787 57.5806 81.5088 57.5806V56.5806ZM80.0269 57.343C79.6101 57.8498 79.4404 58.5402 79.4404 59.3364H80.4404C80.4404 58.6645 80.5859 58.2377 80.7993 57.9782L80.0269 57.343ZM89.0928 60.3193L89.1541 59.8231L88.7575 59.7741L88.6223 60.1501L89.0928 60.3193ZM90.0918 60.4429L90.5745 60.5732L90.7246 60.0173L90.1532 59.9467L90.0918 60.4429ZM85.5962 61.5171L85.2327 61.8604L85.2351 61.863L85.5962 61.5171ZM89.3989 57.1021L89.033 57.4428L89.3989 57.1021ZM90.1187 59.5513V60.0513H90.6033L90.6184 59.5669L90.1187 59.5513ZM85.8647 59.5513V59.0513H85.3354L85.3656 59.5798L85.8647 59.5513ZM85.9185 58.7563L85.4195 58.724L85.385 59.2563H85.9185V58.7563ZM89.1035 58.7563V59.2563H89.6503L89.6015 58.7118L89.1035 58.7563ZM88.7383 57.6768L88.353 57.9954L88.3546 57.9974L88.7383 57.6768ZM86.418 57.564L86.0686 57.2062L86.0665 57.2083L86.418 57.564ZM89.0314 60.8156L90.0304 60.9391L90.1532 59.9467L89.1541 59.8231L89.0314 60.8156ZM89.6091 60.3126C89.4764 60.8039 89.2408 61.1563 88.9147 61.403L89.5179 62.2005C90.044 61.8027 90.3921 61.2491 90.5745 60.5732L89.6091 60.3126ZM88.9147 61.403C88.5945 61.6451 88.1637 61.7852 87.5835 61.7852V62.7852C88.3282 62.7852 88.9859 62.6029 89.5179 62.2005L88.9147 61.403ZM87.5835 61.7852C86.8594 61.7852 86.3368 61.5674 85.9572 61.1712L85.2351 61.863C85.8367 62.4908 86.639 62.7852 87.5835 62.7852V61.7852ZM85.9597 61.1738C85.5847 60.7767 85.3657 60.1928 85.3657 59.3525H84.3657C84.3657 60.3671 84.6337 61.2262 85.2327 61.8604L85.9597 61.1738ZM85.3657 59.3525C85.3657 58.4774 85.5897 57.8698 85.9726 57.4591L85.2412 56.7772C84.6358 57.4265 84.3657 58.3084 84.3657 59.3525H85.3657ZM85.9726 57.4591C86.3634 57.0401 86.8672 56.8232 87.5298 56.8232V55.8232C86.6168 55.8232 85.8388 56.1364 85.2412 56.7772L85.9726 57.4591ZM87.5298 56.8232C88.1653 56.8232 88.6518 57.0334 89.033 57.4428L89.7649 56.7613C89.1792 56.1323 88.4196 55.8232 87.5298 55.8232V56.8232ZM89.033 57.4428C89.4051 57.8425 89.624 58.4358 89.624 59.2935H90.624C90.624 58.2677 90.3595 57.4 89.7649 56.7613L89.033 57.4428ZM89.624 59.2935C89.624 59.3426 89.6224 59.4222 89.6189 59.5357L90.6184 59.5669C90.622 59.4512 90.624 59.3589 90.624 59.2935H89.624ZM90.1187 59.0513H85.8647V60.0513H90.1187V59.0513ZM85.3656 59.5798C85.4057 60.2821 85.6087 60.8907 86.0352 61.3364L86.7577 60.645C86.5469 60.4247 86.3954 60.0736 86.3639 59.5227L85.3656 59.5798ZM86.0352 61.3364C86.4517 61.7716 86.9813 61.9902 87.5889 61.9902V60.9902C87.2439 60.9902 86.9786 60.8758 86.7577 60.645L86.0352 61.3364ZM87.5889 61.9902C88.0356 61.9902 88.4464 61.871 88.7947 61.6123L88.1984 60.8096C88.0454 60.9232 87.8511 60.9902 87.5889 60.9902V61.9902ZM88.7947 61.6123C89.1497 61.3486 89.3957 60.9546 89.5633 60.4885L88.6223 60.1501C88.4963 60.5005 88.3448 60.7008 88.1984 60.8096L88.7947 61.6123ZM85.9185 59.2563H89.1035V58.2563H85.9185V59.2563ZM89.6015 58.7118C89.554 58.1816 89.4144 57.7061 89.1219 57.3561L88.3546 57.9974C88.4632 58.1273 88.567 58.3715 88.6055 58.8009L89.6015 58.7118ZM89.1236 57.3581C88.719 56.8689 88.1775 56.6182 87.5405 56.6182V57.6182C87.8847 57.6182 88.1417 57.7399 88.353 57.9954L89.1236 57.3581ZM87.5405 56.6182C86.9723 56.6182 86.4709 56.8135 86.0686 57.2062L86.7673 57.9217C86.9738 57.72 87.2207 57.6182 87.5405 57.6182V56.6182ZM86.0665 57.2083C85.6634 57.6066 85.4581 58.1273 85.4195 58.724L86.4174 58.7887C86.4432 58.3899 86.571 58.1157 86.7694 57.9196L86.0665 57.2083ZM93.4219 61.2915L93.9153 61.2108L93.8362 60.7272L93.3512 60.7965L93.4219 61.2915ZM93.5615 62.1455L93.6645 62.6348L94.1321 62.5364L94.055 62.0648L93.5615 62.1455ZM91.6064 61.6299L91.1473 61.8279L91.1488 61.8313L91.6064 61.6299ZM91.4883 57.2041H91.9883V56.7041H91.4883V57.2041ZM90.7793 57.2041H90.2793V57.7041H90.7793V57.2041ZM90.7793 56.4521V55.9521H90.2793V56.4521H90.7793ZM91.4883 56.4521V56.9521H91.9883V56.4521H91.4883ZM91.4883 55.0396L91.23 54.6114L90.9883 54.7573V55.0396H91.4883ZM92.4497 54.4595H92.9497V53.5738L92.1914 54.0314L92.4497 54.4595ZM92.4497 56.4521H91.9497V56.9521H92.4497V56.4521ZM93.4219 56.4521H93.9219V55.9521H93.4219V56.4521ZM93.4219 57.2041V57.7041H93.9219V57.2041H93.4219ZM92.4497 57.2041V56.7041H91.9497V57.2041H92.4497ZM92.498 61.0713L92.0353 61.2606L92.0389 61.2695L92.0429 61.2782L92.498 61.0713ZM92.6646 61.2593L92.4013 61.6845L92.4102 61.6897L92.6646 61.2593ZM92.9284 61.3722L93.0681 62.2262L94.055 62.0648L93.9153 61.2108L92.9284 61.3722ZM93.4585 61.6562C93.2109 61.7084 93.0029 61.7314 92.8311 61.7314V62.7314C93.0889 62.7314 93.3678 62.6972 93.6645 62.6348L93.4585 61.6562ZM92.8311 61.7314C92.522 61.7314 92.3496 61.6807 92.2636 61.6313L91.7657 62.4986C92.0664 62.6712 92.4383 62.7314 92.8311 62.7314V61.7314ZM92.2636 61.6313C92.1493 61.5657 92.094 61.4965 92.0641 61.4285L91.1488 61.8313C91.2764 62.1214 91.4933 62.3422 91.7657 62.4986L92.2636 61.6313ZM92.0656 61.4318C92.0572 61.4125 92.0335 61.3334 92.0152 61.1555C91.9979 60.9882 91.9883 60.7665 91.9883 60.4858H90.9883C90.9883 60.7853 90.9984 61.0443 91.0205 61.2583C91.0415 61.4618 91.0769 61.6647 91.1473 61.8279L92.0656 61.4318ZM91.9883 60.4858V57.2041H90.9883V60.4858H91.9883ZM91.4883 56.7041H90.7793V57.7041H91.4883V56.7041ZM91.2793 57.2041V56.4521H90.2793V57.2041H91.2793ZM90.7793 56.9521H91.4883V55.9521H90.7793V56.9521ZM91.9883 56.4521V55.0396H90.9883V56.4521H91.9883ZM91.7466 55.4677L92.708 54.8876L92.1914 54.0314L91.23 54.6114L91.7466 55.4677ZM91.9497 54.4595V56.4521H92.9497V54.4595H91.9497ZM92.4497 56.9521H93.4219V55.9521H92.4497V56.9521ZM92.9219 56.4521V57.2041H93.9219V56.4521H92.9219ZM93.4219 56.7041H92.4497V57.7041H93.4219V56.7041ZM91.9497 57.2041V60.5396H92.9497V57.2041H91.9497ZM91.9497 60.5396C91.9497 60.6853 91.9539 60.8151 91.9638 60.9245C91.9726 61.0209 91.9892 61.1481 92.0353 61.2606L92.9608 60.882C92.9703 60.9052 92.9709 60.9153 92.9682 60.901C92.966 60.8892 92.9628 60.8677 92.9597 60.834C92.9536 60.7662 92.9497 60.6695 92.9497 60.5396H91.9497ZM92.0429 61.2782C92.1206 61.4492 92.2439 61.587 92.4014 61.6844L92.9277 60.8341C92.9292 60.835 92.9345 60.8387 92.9408 60.8459C92.9472 60.853 92.9512 60.86 92.9532 60.8644L92.0429 61.2782ZM92.4102 61.6897C92.5978 61.8006 92.811 61.8291 92.9976 61.8291V60.8291C92.9519 60.8291 92.9238 60.8253 92.9095 60.8223C92.8952 60.8193 92.9016 60.8186 92.9189 60.8288L92.4102 61.6897ZM92.9976 61.8291C93.1389 61.8291 93.3067 61.813 93.4926 61.7865L93.3512 60.7965C93.1862 60.8201 93.0711 60.8291 92.9976 60.8291V61.8291ZM98.2773 60.3193L98.3387 59.8231L97.9421 59.7741L97.8068 60.1501L98.2773 60.3193ZM99.2764 60.4429L99.7591 60.5732L99.9091 60.0173L99.3377 59.9467L99.2764 60.4429ZM94.7808 61.5171L94.4172 61.8604L94.4197 61.863L94.7808 61.5171ZM98.5835 57.1021L98.2175 57.4428L98.5835 57.1021ZM99.3032 59.5513V60.0513H99.7878L99.803 59.5669L99.3032 59.5513ZM95.0493 59.5513V59.0513H94.5199L94.5501 59.5798L95.0493 59.5513ZM95.103 58.7563L94.6041 58.724L94.5696 59.2563H95.103V58.7563ZM98.2881 58.7563V59.2563H98.8349L98.7861 58.7118L98.2881 58.7563ZM97.9229 57.6768L97.5375 57.9954L97.5392 57.9974L97.9229 57.6768ZM95.6025 57.564L95.2532 57.2062L95.2511 57.2083L95.6025 57.564ZM98.216 60.8156L99.215 60.9391L99.3377 59.9467L98.3387 59.8231L98.216 60.8156ZM98.7936 60.3126C98.661 60.8039 98.4254 61.1563 98.0993 61.403L98.7025 62.2005C99.2286 61.8027 99.5766 61.2491 99.7591 60.5732L98.7936 60.3126ZM98.0993 61.403C97.7791 61.6451 97.3482 61.7852 96.7681 61.7852V62.7852C97.5128 62.7852 98.1705 62.6029 98.7025 62.2005L98.0993 61.403ZM96.7681 61.7852C96.044 61.7852 95.5214 61.5674 95.1418 61.1712L94.4197 61.863C95.0212 62.4908 95.8235 62.7852 96.7681 62.7852V61.7852ZM95.1443 61.1738C94.7693 60.7767 94.5503 60.1928 94.5503 59.3525H93.5503C93.5503 60.3671 93.8183 61.2262 94.4173 61.8604L95.1443 61.1738ZM94.5503 59.3525C94.5503 58.4774 94.7743 57.8698 95.1572 57.4591L94.4258 56.7772C93.8204 57.4265 93.5503 58.3084 93.5503 59.3525H94.5503ZM95.1572 57.4591C95.548 57.0401 96.0518 56.8232 96.7144 56.8232V55.8232C95.8014 55.8232 95.0233 56.1364 94.4258 56.7772L95.1572 57.4591ZM96.7144 56.8232C97.3499 56.8232 97.8364 57.0334 98.2175 57.4428L98.9494 56.7613C98.3638 56.1323 97.6042 55.8232 96.7144 55.8232V56.8232ZM98.2175 57.4428C98.5897 57.8425 98.8086 58.4358 98.8086 59.2935H99.8086C99.8086 58.2677 99.5441 57.4 98.9494 56.7613L98.2175 57.4428ZM98.8086 59.2935C98.8086 59.3426 98.807 59.4222 98.8035 59.5357L99.803 59.5669C99.8066 59.4512 99.8086 59.3589 99.8086 59.2935H98.8086ZM99.3032 59.0513H95.0493V60.0513H99.3032V59.0513ZM94.5501 59.5798C94.5903 60.2821 94.7933 60.8907 95.2198 61.3364L95.9423 60.645C95.7314 60.4247 95.58 60.0736 95.5485 59.5227L94.5501 59.5798ZM95.2198 61.3364C95.6363 61.7716 96.1659 61.9902 96.7734 61.9902V60.9902C96.4285 60.9902 96.1632 60.8758 95.9423 60.645L95.2198 61.3364ZM96.7734 61.9902C97.2201 61.9902 97.631 61.871 97.9793 61.6123L97.383 60.8096C97.23 60.9232 97.0357 60.9902 96.7734 60.9902V61.9902ZM97.9793 61.6123C98.3343 61.3486 98.5802 60.9546 98.7478 60.4885L97.8068 60.1501C97.6808 60.5005 97.5293 60.7008 97.383 60.8096L97.9793 61.6123ZM95.103 59.2563H98.2881V58.2563H95.103V59.2563ZM98.7861 58.7118C98.7386 58.1816 98.599 57.7061 98.3065 57.3561L97.5392 57.9974C97.6477 58.1273 97.7516 58.3715 97.7901 58.8009L98.7861 58.7118ZM98.3082 57.3581C97.9036 56.8689 97.3621 56.6182 96.7251 56.6182V57.6182C97.0692 57.6182 97.3262 57.7399 97.5375 57.9954L98.3082 57.3581ZM96.7251 56.6182C96.1569 56.6182 95.6554 56.8135 95.2532 57.2062L95.9519 57.9217C96.1584 57.72 96.4053 57.6182 96.7251 57.6182V56.6182ZM95.2511 57.2083C94.848 57.6066 94.6427 58.1273 94.6041 58.724L95.602 58.7887C95.6278 58.3899 95.7555 58.1157 95.954 57.9196L95.2511 57.2083Z" fill="white"/>
<path d="M76.1377 36.2646L74.2148 36.415C74.043 35.6559 73.7995 35.1045 73.4844 34.7607C72.9616 34.2093 72.3171 33.9336 71.5508 33.9336C70.9349 33.9336 70.3942 34.1055 69.9287 34.4492C69.32 34.8932 68.8402 35.5413 68.4893 36.3936C68.1383 37.2458 67.9557 38.4596 67.9414 40.0352C68.4069 39.3262 68.9762 38.7998 69.6494 38.4561C70.3226 38.1123 71.028 37.9404 71.7656 37.9404C73.0547 37.9404 74.1504 38.4167 75.0527 39.3691C75.9622 40.3145 76.417 41.5391 76.417 43.043C76.417 44.0312 76.2021 44.9515 75.7725 45.8037C75.3499 46.6488 74.7663 47.2969 74.0215 47.748C73.2767 48.1992 72.4316 48.4248 71.4863 48.4248C69.875 48.4248 68.5609 47.834 67.5439 46.6523C66.527 45.4635 66.0186 43.5085 66.0186 40.7871C66.0186 37.7435 66.5807 35.5306 67.7051 34.1484C68.6862 32.9453 70.0075 32.3438 71.6689 32.3438C72.9079 32.3438 73.9212 32.6911 74.709 33.3857C75.5039 34.0804 75.9801 35.04 76.1377 36.2646ZM68.2422 43.0537C68.2422 43.7197 68.3818 44.3571 68.6611 44.9658C68.9476 45.5745 69.3451 46.04 69.8535 46.3623C70.362 46.6774 70.8955 46.835 71.4541 46.835C72.2705 46.835 72.9723 46.5055 73.5596 45.8467C74.1468 45.1878 74.4404 44.2926 74.4404 43.1611C74.4404 42.0726 74.1504 41.2168 73.5703 40.5938C72.9902 39.9635 72.2598 39.6484 71.3789 39.6484C70.5052 39.6484 69.764 39.9635 69.1553 40.5938C68.5465 41.2168 68.2422 42.0368 68.2422 43.0537ZM88.5127 46.2979V48.1562H78.1035C78.0892 47.6908 78.1644 47.2432 78.3291 46.8135C78.5941 46.1045 79.0166 45.4062 79.5967 44.7188C80.1839 44.0312 81.029 43.2363 82.1318 42.334C83.8434 40.9303 85 39.8203 85.6016 39.0039C86.2031 38.1803 86.5039 37.4033 86.5039 36.6729C86.5039 35.9066 86.2282 35.262 85.6768 34.7393C85.1325 34.2093 84.4199 33.9443 83.5391 33.9443C82.6081 33.9443 81.8633 34.2236 81.3047 34.7822C80.7461 35.3408 80.4632 36.1143 80.4561 37.1025L78.4688 36.8984C78.6048 35.416 79.1169 34.2881 80.0049 33.5146C80.8929 32.734 82.0853 32.3438 83.582 32.3438C85.0931 32.3438 86.2891 32.7627 87.1699 33.6006C88.0508 34.4385 88.4912 35.4769 88.4912 36.7158C88.4912 37.346 88.3623 37.9655 88.1045 38.5742C87.8467 39.1829 87.417 39.8239 86.8154 40.4971C86.221 41.1702 85.2292 42.0941 83.8398 43.2686C82.6797 44.2425 81.9349 44.9049 81.6055 45.2559C81.276 45.5996 81.0039 45.9469 80.7891 46.2979H88.5127Z" fill="#828690"/>
<path d="M76.1377 36.2646L76.1767 36.7631L76.7007 36.7221L76.6336 36.2008L76.1377 36.2646ZM74.2148 36.415L73.7272 36.5255L73.8227 36.9472L74.2538 36.9135L74.2148 36.415ZM73.4844 34.7607L73.853 34.4228L73.8472 34.4167L73.4844 34.7607ZM69.9287 34.4492L70.2234 34.8532L70.2257 34.8514L69.9287 34.4492ZM68.4893 36.3936L68.0269 36.2032L68.4893 36.3936ZM67.9414 40.0352L67.4414 40.0306L67.426 41.7312L68.3594 40.3096L67.9414 40.0352ZM69.6494 38.4561L69.422 38.0108L69.6494 38.4561ZM75.0527 39.3691L74.6897 39.713L74.6924 39.7158L75.0527 39.3691ZM75.7725 45.8037L75.326 45.5786L75.3252 45.5801L75.7725 45.8037ZM67.5439 46.6523L67.164 46.9774L67.165 46.9785L67.5439 46.6523ZM67.7051 34.1484L67.3176 33.8324L67.3172 33.8329L67.7051 34.1484ZM74.709 33.3857L74.3783 33.7608L74.38 33.7622L74.709 33.3857ZM68.6611 44.9658L68.2067 45.1743L68.2087 45.1787L68.6611 44.9658ZM69.8535 46.3623L69.5858 46.7846L69.5901 46.7873L69.8535 46.3623ZM73.5596 45.8467L73.9328 46.1794L73.5596 45.8467ZM73.5703 40.5938L73.2024 40.9324L73.2044 40.9345L73.5703 40.5938ZM69.1553 40.5938L69.5129 40.9432L69.5149 40.9411L69.1553 40.5938ZM76.0987 35.7662L74.1759 35.9166L74.2538 36.9135L76.1767 36.7631L76.0987 35.7662ZM74.7025 36.3046C74.5228 35.5109 74.254 34.8603 73.853 34.4229L73.1158 35.0986C73.345 35.3486 73.5631 35.8009 73.7272 36.5255L74.7025 36.3046ZM73.8472 34.4167C73.2291 33.7648 72.453 33.4336 71.5508 33.4336V34.4336C72.1811 34.4336 72.6941 34.6539 73.1215 35.1047L73.8472 34.4167ZM71.5508 33.4336C70.8353 33.4336 70.1889 33.6355 69.6317 34.047L70.2257 34.8514C70.5995 34.5754 71.0345 34.4336 71.5508 34.4336V33.4336ZM69.6341 34.0453C68.9358 34.5546 68.4051 35.2847 68.0269 36.2032L68.9516 36.5839C69.2752 35.798 69.7042 35.2318 70.2234 34.8532L69.6341 34.0453ZM68.0269 36.2032C67.6404 37.1419 67.456 38.4301 67.4414 40.0306L68.4414 40.0397C68.4555 38.4892 68.6363 37.3496 68.9516 36.5839L68.0269 36.2032ZM68.3594 40.3096C68.7832 39.6641 69.29 39.201 69.8768 38.9014L69.422 38.0108C68.6625 38.3986 68.0306 38.9883 67.5234 39.7607L68.3594 40.3096ZM69.8768 38.9014C70.4814 38.5926 71.1091 38.4404 71.7656 38.4404V37.4404C70.9469 37.4404 70.1638 37.632 69.422 38.0108L69.8768 38.9014ZM71.7656 38.4404C72.9146 38.4404 73.8799 38.8582 74.6898 39.713L75.4157 39.0253C74.4208 37.9751 73.1947 37.4404 71.7656 37.4404V38.4404ZM74.6924 39.7158C75.4991 40.5542 75.917 41.6479 75.917 43.043H76.917C76.917 41.4302 76.4254 40.0747 75.413 39.0225L74.6924 39.7158ZM75.917 43.043C75.917 43.9559 75.7192 44.7987 75.326 45.5786L76.2189 46.0288C76.6851 45.1043 76.917 44.1066 76.917 43.043H75.917ZM75.3252 45.5801C74.9412 46.3482 74.4197 46.9223 73.7624 47.3204L74.2805 48.1757C75.1129 47.6715 75.7587 46.9493 76.2197 46.0273L75.3252 45.5801ZM73.7624 47.3204C73.1024 47.7202 72.3484 47.9248 71.4863 47.9248V48.9248C72.5149 48.9248 73.451 48.6782 74.2805 48.1757L73.7624 47.3204ZM71.4863 47.9248C70.015 47.9248 68.8413 47.3933 67.9229 46.3262L67.165 46.9785C68.2805 48.2747 69.735 48.9248 71.4863 48.9248V47.9248ZM67.9239 46.3273C67.0241 45.2755 66.5186 43.4693 66.5186 40.7871H65.5186C65.5186 43.5476 66.0299 45.6516 67.164 46.9774L67.9239 46.3273ZM66.5186 40.7871C66.5186 37.7844 67.0771 35.7128 68.093 34.464L67.3172 33.8329C66.0844 35.3484 65.5186 37.7026 65.5186 40.7871H66.5186ZM68.0926 34.4644C68.9714 33.3868 70.1457 32.8438 71.6689 32.8438V31.8438C69.8693 31.8438 68.401 32.5038 67.3176 33.8324L68.0926 34.4644ZM71.6689 32.8438C72.8092 32.8438 73.6978 33.1607 74.3783 33.7608L75.0397 33.0107C74.1446 32.2215 73.0066 31.8438 71.6689 31.8438V32.8438ZM74.38 33.7622C75.0677 34.3632 75.497 35.2032 75.6418 36.3285L76.6336 36.2008C76.4633 34.8769 75.9401 33.7976 75.038 33.0092L74.38 33.7622ZM67.7422 43.0537C67.7422 43.7921 67.8975 44.5006 68.2067 45.1743L69.1156 44.7573C68.8661 44.2136 68.7422 43.6473 68.7422 43.0537H67.7422ZM68.2087 45.1787C68.5307 45.863 68.988 46.4057 69.5858 46.7846L70.1212 45.94C69.7021 45.6744 69.3645 45.2861 69.1135 44.7529L68.2087 45.1787ZM69.5901 46.7873C70.1719 47.1478 70.7958 47.335 71.4541 47.335V46.335C70.9952 46.335 70.5521 46.207 70.1169 45.9373L69.5901 46.7873ZM71.4541 47.335C72.4256 47.335 73.2594 46.935 73.9328 46.1794L73.1863 45.514C72.6853 46.0761 72.1154 46.335 71.4541 46.335V47.335ZM73.9328 46.1794C74.6226 45.4054 74.9404 44.3797 74.9404 43.1611H73.9404C73.9404 44.2056 73.671 44.9702 73.1863 45.514L73.9328 46.1794ZM74.9404 43.1611C74.9404 41.9827 74.6245 40.9923 73.9363 40.253L73.2044 40.9345C73.6763 41.4413 73.9404 42.1625 73.9404 43.1611H74.9404ZM73.9382 40.2551C73.2604 39.5188 72.3951 39.1484 71.3789 39.1484V40.1484C72.1245 40.1484 72.72 40.4083 73.2024 40.9324L73.9382 40.2551ZM71.3789 39.1484C70.3692 39.1484 69.4983 39.5189 68.7956 40.2464L69.5149 40.9411C70.0297 40.4081 70.6413 40.1484 71.3789 40.1484V39.1484ZM68.7976 40.2443C68.0824 40.9764 67.7422 41.9297 67.7422 43.0537H68.7422C68.7422 42.1439 69.0107 41.4572 69.5129 40.9432L68.7976 40.2443ZM88.5127 46.2979H89.0127V45.7979H88.5127V46.2979ZM88.5127 48.1562V48.6562H89.0127V48.1562H88.5127ZM78.1035 48.1562L77.6038 48.1716L77.6187 48.6562H78.1035V48.1562ZM78.3291 46.8135L78.796 46.9925L78.7975 46.9885L78.3291 46.8135ZM79.5967 44.7188L79.2165 44.394L79.2145 44.3963L79.5967 44.7188ZM82.1318 42.334L82.4485 42.721L82.4489 42.7206L82.1318 42.334ZM85.6016 39.0039L86.0041 39.3005L86.0053 39.2988L85.6016 39.0039ZM85.6768 34.7393L85.3279 35.0975L85.3328 35.1021L85.6768 34.7393ZM80.4561 37.1025L80.405 37.5999L80.9521 37.6561L80.956 37.1062L80.4561 37.1025ZM78.4688 36.8984L77.9708 36.8527L77.9256 37.3453L78.4177 37.3958L78.4688 36.8984ZM80.0049 33.5146L80.3333 33.8917L80.335 33.8902L80.0049 33.5146ZM86.8154 40.4971L86.4426 40.1639L86.4406 40.1661L86.8154 40.4971ZM83.8398 43.2686L84.1613 43.6515L84.1626 43.6504L83.8398 43.2686ZM81.6055 45.2559L81.9665 45.6018L81.97 45.5981L81.6055 45.2559ZM80.7891 46.2979L80.3626 46.0368L79.8967 46.7979H80.7891V46.2979ZM88.0127 46.2979V48.1562H89.0127V46.2979H88.0127ZM88.5127 47.6562H78.1035V48.6562H88.5127V47.6562ZM78.6033 48.1409C78.591 47.7409 78.6553 47.3594 78.796 46.9924L77.8622 46.6345C77.6735 47.1269 77.5874 47.6406 77.6038 48.1716L78.6033 48.1409ZM78.7975 46.9885C79.039 46.3423 79.4289 45.6929 79.9788 45.0412L79.2145 44.3963C78.6043 45.1196 78.1492 45.8667 77.8607 46.6384L78.7975 46.9885ZM79.9769 45.0435C80.5371 44.3876 81.3571 43.6139 82.4485 42.721L81.8152 41.947C80.7009 42.8588 79.8307 43.6749 79.2165 44.394L79.9769 45.0435ZM82.4489 42.7206C84.164 41.3141 85.3628 40.1708 86.0041 39.3005L85.199 38.7073C84.6372 39.4698 83.5229 40.5466 81.8148 41.9474L82.4489 42.7206ZM86.0053 39.2988C86.6453 38.4227 87.0039 37.544 87.0039 36.6729H86.0039C86.0039 37.2626 85.761 37.938 85.1978 38.709L86.0053 39.2988ZM87.0039 36.6729C87.0039 35.7707 86.6727 34.9945 86.0208 34.3764L85.3328 35.1021C85.7836 35.5296 86.0039 36.0425 86.0039 36.6729H87.0039ZM86.0256 34.381C85.373 33.7457 84.5278 33.4443 83.5391 33.4443V34.4443C84.312 34.4443 84.8919 34.673 85.3279 35.0975L86.0256 34.381ZM83.5391 33.4443C82.5009 33.4443 81.6201 33.7597 80.9511 34.4287L81.6582 35.1358C82.1065 34.6876 82.7152 34.4443 83.5391 34.4443V33.4443ZM80.9511 34.4287C80.2777 35.1021 79.9639 36.014 79.9561 37.0989L80.956 37.1062C80.9625 36.2145 81.2145 35.5795 81.6582 35.1358L80.9511 34.4287ZM80.5071 36.6052L78.5198 36.4011L78.4177 37.3958L80.405 37.5999L80.5071 36.6052ZM78.9667 36.9441C79.0942 35.5545 79.5661 34.5599 80.3333 33.8917L79.6765 33.1376C78.6676 34.0163 78.1154 35.2775 77.9708 36.8527L78.9667 36.9441ZM80.335 33.8902C81.1095 33.2094 82.1734 32.8438 83.582 32.8438V31.8438C81.9971 31.8438 80.6763 32.2587 79.6748 33.1391L80.335 33.8902ZM83.582 32.8438C84.9975 32.8438 86.0587 33.2336 86.8253 33.9629L87.5145 33.2383C86.5194 32.2918 85.1887 31.8438 83.582 31.8438V32.8438ZM86.8253 33.9629C87.6048 34.7044 87.9912 35.6109 87.9912 36.7158H88.9912C88.9912 35.3429 88.4967 34.1726 87.5145 33.2383L86.8253 33.9629ZM87.9912 36.7158C87.9912 37.2758 87.8771 37.8291 87.6441 38.3792L88.5649 38.7692C88.8475 38.1019 88.9912 37.4163 88.9912 36.7158H87.9912ZM87.6441 38.3792C87.4139 38.9227 87.02 39.5178 86.4426 40.1639L87.1883 40.8302C87.814 40.13 88.2794 39.4432 88.5649 38.7692L87.6441 38.3792ZM86.4406 40.1661C85.8714 40.8108 84.9026 41.7154 83.517 42.8867L84.1626 43.6504C85.5557 42.4727 86.5707 41.5297 87.1902 40.828L86.4406 40.1661ZM83.5184 42.8856C82.3628 43.8557 81.5943 44.5372 81.2409 44.9136L81.97 45.5981C82.2755 45.2727 82.9965 44.6294 84.1613 43.6515L83.5184 42.8856ZM81.2445 44.9099C80.894 45.2756 80.5988 45.651 80.3626 46.0368L81.2155 46.5589C81.409 46.2429 81.658 45.9236 81.9665 45.6018L81.2445 44.9099ZM80.7891 46.7979H88.5127V45.7979H80.7891V46.7979Z" fill="white"/>
</g>
<defs>
<clipPath id="clip0_1_54">
<rect width="150" height="103.688" fill="white" transform="translate(0.9375 0.65625)"/>
</clipPath>
</defs>
</svg>
