<svg width="41" height="40" viewBox="0 0 41 40" fill="none" xmlns="http://www.w3.org/2000/svg">
<rect x="0.9375" width="40" height="40" rx="10" fill="#0D99FF" fill-opacity="0.1"/>
<g clip-path="url(#clip0_1_48)">
<path d="M26.4017 23.8637C26.4134 22.2815 25.7879 21.0301 24.5403 20.1463C23.5767 19.4659 22.4073 19.111 21.2763 18.7699C18.9202 18.0557 18.2368 17.6795 18.2368 16.5528C18.2368 15.2977 19.8678 14.8512 21.2641 14.8512C22.2809 14.8512 23.4508 15.1673 24.1774 15.6359L25.6177 13.4051C24.6682 12.7895 23.3686 12.3697 22.0853 12.2394V10.1562H19.4283V12.3854C17.0663 12.905 15.5784 14.4487 15.5784 16.5528C15.5784 18.0263 16.1908 19.1949 17.395 20.0191C18.3108 20.6483 19.4278 20.9862 20.5068 21.3134C22.8178 22.0119 23.7562 22.4375 23.7456 23.8472L23.7455 23.8576C23.7455 25.0407 22.1776 25.4614 20.8343 25.4614C19.5654 25.4614 18.1855 24.9053 17.4033 24.0785L15.473 25.9044C16.4636 26.952 17.9027 27.6926 19.4282 27.983V30.1563H22.0853V28.0298C24.7099 27.6541 26.3991 26.0739 26.4017 23.8637Z" fill="#0D99FF"/>
</g>
<defs>
<clipPath id="clip0_1_48">
<rect width="12" height="20" fill="white" transform="translate(14.9375 10.1562)"/>
</clipPath>
</defs>
</svg>
