<svg width="243" height="35" viewBox="0 0 243 35" fill="none" xmlns="http://www.w3.org/2000/svg">
<path d="M1.2885 10.0905H3.9625V18.8125H5.2365V10.0905H7.8965V9.0545H1.2885V10.0905ZM8.98872 14.9485C8.98872 17.3285 10.5707 18.9385 12.6147 18.9385C14.0287 18.9385 15.0227 18.2105 15.4847 17.3845V18.8125H16.7727V11.1405H15.4847V12.5405C15.0367 11.7425 14.0567 11.0145 12.6287 11.0145C10.5707 11.0145 8.98872 12.5545 8.98872 14.9485ZM15.4847 14.9625C15.4847 16.7685 14.2807 17.8185 12.8807 17.8185C11.4807 17.8185 10.2907 16.7545 10.2907 14.9485C10.2907 13.1425 11.4807 12.1205 12.8807 12.1205C14.2807 12.1205 15.4847 13.1845 15.4847 14.9625ZM24.4417 16.7265C24.3857 13.9825 19.9337 14.9765 19.9337 13.1565C19.9337 12.5405 20.4937 12.0925 21.4317 12.0925C22.4537 12.0925 23.0417 12.6525 23.0977 13.4225H24.3717C24.2877 11.9245 23.1677 11.0145 21.4737 11.0145C19.7657 11.0145 18.6597 11.9805 18.6597 13.1565C18.6597 16.0125 23.1957 15.0185 23.1957 16.7265C23.1957 17.3565 22.6357 17.8605 21.6277 17.8605C20.5497 17.8605 19.8917 17.3005 19.8217 16.5585H18.5057C18.5897 17.9585 19.8497 18.9385 21.6417 18.9385C23.3357 18.9385 24.4417 17.9865 24.4417 16.7265ZM26.2401 18.8125H27.5141V15.4245L30.5241 18.8125H32.2601L28.6341 14.9625L32.2461 11.1405H30.4681L27.5141 14.5425V8.4525H26.2401V18.8125ZM38.9612 16.7265C38.9052 13.9825 34.4532 14.9765 34.4532 13.1565C34.4532 12.5405 35.0132 12.0925 35.9512 12.0925C36.9732 12.0925 37.5612 12.6525 37.6172 13.4225H38.8912C38.8072 11.9245 37.6872 11.0145 35.9932 11.0145C34.2852 11.0145 33.1792 11.9805 33.1792 13.1565C33.1792 16.0125 37.7152 15.0185 37.7152 16.7265C37.7152 17.3565 37.1552 17.8605 36.1472 17.8605C35.0692 17.8605 34.4112 17.3005 34.3412 16.5585H33.0252C33.1092 17.9585 34.3692 18.9385 36.1612 18.9385C37.8552 18.9385 38.9612 17.9865 38.9612 16.7265ZM50.8901 9.0405V16.7965L45.7661 9.0405H44.4921V18.8125H45.7661V11.0425L50.8901 18.8125H52.1641V9.0405H50.8901ZM61.6158 14.9625C61.6158 12.5405 59.9218 11.0145 57.7378 11.0145C55.5678 11.0145 53.8598 12.5405 53.8598 14.9625C53.8598 17.3985 55.5118 18.9385 57.6818 18.9385C59.8658 18.9385 61.6158 17.3985 61.6158 14.9625ZM55.1618 14.9625C55.1618 13.0305 56.3798 12.1205 57.7238 12.1205C59.0398 12.1205 60.3138 13.0305 60.3138 14.9625C60.3138 16.9085 59.0118 17.8185 57.6818 17.8185C56.3518 17.8185 55.1618 16.9085 55.1618 14.9625ZM63.5709 16.7125C63.5709 18.2525 64.3409 18.8125 65.6989 18.8125H66.8469V17.7345H65.9089C65.1249 17.7345 64.8449 17.4685 64.8449 16.7125V12.1905H66.8469V11.1405H64.8449V9.2085H63.5709V11.1405H62.5769V12.1905H63.5709V16.7125ZM72.1229 18.8125H73.3969V14.4165H76.8409V13.3805H73.3969V10.0905H77.6389V9.0545H72.1229V18.8125ZM79.1776 18.8125H80.4516V11.1405H79.1776V18.8125ZM79.8356 9.8945C80.2976 9.8945 80.6756 9.5165 80.6756 9.0265C80.6756 8.5365 80.2976 8.1585 79.8356 8.1585C79.3456 8.1585 78.9676 8.5365 78.9676 9.0265C78.9676 9.5165 79.3456 9.8945 79.8356 9.8945ZM88.2369 18.8125H89.4969V14.2905C89.4969 12.0925 88.1389 11.0005 86.3609 11.0005C85.3249 11.0005 84.4009 11.4345 83.8969 12.2325V11.1405H82.6229V18.8125H83.8969V14.5705C83.8969 12.9185 84.7929 12.1065 86.0949 12.1065C87.3829 12.1065 88.2369 12.9045 88.2369 14.4725V18.8125ZM91.578 18.8125H92.852V11.1405H91.578V18.8125ZM92.236 9.8945C92.698 9.8945 93.076 9.5165 93.076 9.0265C93.076 8.5365 92.698 8.1585 92.236 8.1585C91.746 8.1585 91.368 8.5365 91.368 9.0265C91.368 9.5165 91.746 9.8945 92.236 9.8945ZM100.539 16.7265C100.483 13.9825 96.0313 14.9765 96.0313 13.1565C96.0313 12.5405 96.5913 12.0925 97.5293 12.0925C98.5513 12.0925 99.1393 12.6525 99.1953 13.4225H100.469C100.385 11.9245 99.2653 11.0145 97.5713 11.0145C95.8633 11.0145 94.7573 11.9805 94.7573 13.1565C94.7573 16.0125 99.2933 15.0185 99.2933 16.7265C99.2933 17.3565 98.7333 17.8605 97.7253 17.8605C96.6473 17.8605 95.9893 17.3005 95.9193 16.5585H94.6033C94.6873 17.9585 95.9473 18.9385 97.7393 18.9385C99.4333 18.9385 100.539 17.9865 100.539 16.7265ZM102.338 18.8125H103.612V14.5705C103.612 12.9185 104.508 12.1065 105.81 12.1065C107.098 12.1065 107.952 12.9045 107.952 14.4725V18.8125H109.212V14.2905C109.212 12.0925 107.854 11.0005 106.146 11.0005C105.068 11.0005 104.116 11.4345 103.612 12.2465V8.4525H102.338V18.8125ZM114.555 12.0925C115.871 12.0925 116.991 12.9185 116.977 14.4165H112.133C112.273 12.9185 113.309 12.0925 114.555 12.0925ZM118.139 16.4465H116.767C116.487 17.2725 115.759 17.8605 114.611 17.8605C113.309 17.8605 112.217 17.0065 112.119 15.4525H118.251C118.279 15.1865 118.293 14.9625 118.293 14.6825C118.293 12.5825 116.837 11.0145 114.611 11.0145C112.371 11.0145 110.817 12.5405 110.817 14.9625C110.817 17.3985 112.427 18.9385 114.611 18.9385C116.515 18.9385 117.747 17.8465 118.139 16.4465ZM119.498 14.9485C119.498 17.3285 121.08 18.9385 123.138 18.9385C124.538 18.9385 125.532 18.2245 125.994 17.3705V18.8125H127.282V8.4525H125.994V12.5125C125.462 11.6305 124.356 11.0145 123.152 11.0145C121.08 11.0145 119.498 12.5545 119.498 14.9485ZM125.994 14.9625C125.994 16.7685 124.79 17.8185 123.39 17.8185C121.99 17.8185 120.8 16.7545 120.8 14.9485C120.8 13.1425 121.99 12.1205 123.39 12.1205C124.79 12.1205 125.994 13.1845 125.994 14.9625Z" fill="#828690"/>
<path d="M202.573 18.7005H209.307V17.6365H204.491C206.297 16.1665 209.013 14.0245 209.013 11.5045C209.013 9.6285 207.781 8.5085 205.877 8.5085C204.057 8.5085 202.699 9.6285 202.615 11.7845H203.847C203.903 10.5105 204.575 9.6005 205.891 9.6005C207.263 9.6005 207.753 10.4405 207.753 11.5605C207.753 13.6325 205.233 15.6485 202.573 17.7905V18.7005ZM210.78 13.6465C210.78 16.5865 211.508 18.8125 214.308 18.8125C217.094 18.8125 217.822 16.5865 217.822 13.6465C217.822 10.7485 217.094 8.5365 214.308 8.5365C211.508 8.5365 210.78 10.7485 210.78 13.6465ZM216.562 13.6465C216.562 15.8305 216.296 17.6505 214.308 17.6505C212.306 17.6505 212.04 15.8305 212.04 13.6465C212.04 11.5465 212.306 9.6985 214.308 9.6985C216.296 9.6985 216.562 11.5465 216.562 13.6465ZM219.445 21.1925H220.705L224.541 5.6245H223.267L219.445 21.1925ZM226.075 18.7005H232.809V17.6365H227.993C229.799 16.1665 232.515 14.0245 232.515 11.5045C232.515 9.6285 231.283 8.5085 229.379 8.5085C227.559 8.5085 226.201 9.6285 226.117 11.7845H227.349C227.405 10.5105 228.077 9.6005 229.393 9.6005C230.765 9.6005 231.255 10.4405 231.255 11.5605C231.255 13.6325 228.735 15.6485 226.075 17.7905V18.7005ZM236.13 13.5485C234.996 13.8845 234.254 14.8085 234.254 16.0825C234.254 17.9165 235.696 19.0925 237.824 19.0925C239.966 19.0925 241.422 17.9165 241.422 16.0825C241.422 14.8225 240.68 13.8985 239.532 13.5485C240.526 13.1565 241.156 12.3165 241.156 11.2245C241.156 9.7545 240.022 8.5365 237.824 8.5365C235.626 8.5365 234.506 9.7405 234.506 11.2245C234.506 12.3585 235.094 13.1425 236.13 13.5485ZM237.824 13.1285C236.592 13.1285 235.738 12.4425 235.738 11.3925C235.738 10.2025 236.578 9.6005 237.824 9.6005C239.098 9.6005 239.924 10.2165 239.924 11.3785C239.924 12.4285 239.07 13.1285 237.824 13.1285ZM237.824 14.1085C239.154 14.1085 240.162 14.7385 240.162 16.0405C240.162 17.2165 239.266 18.0285 237.824 18.0285C236.382 18.0285 235.472 17.2305 235.472 16.0405C235.472 14.6965 236.522 14.1085 237.824 14.1085Z" fill="#828690"/>
<g clip-path="url(#clip0_1_137)">
<rect x="0.8125" y="30" width="241.438" height="5" rx="2.5" fill="#E6EAEE"/>
<rect x="0.8125" y="30" width="120.719" height="5" rx="2.5" fill="#0D99FF"/>
</g>
<defs>
<clipPath id="clip0_1_137">
<rect x="0.8125" y="30" width="241.438" height="5" rx="2.5" fill="white"/>
</clipPath>
</defs>
</svg>
