<svg width="75" height="25" viewBox="0 0 75 25" fill="none" xmlns="http://www.w3.org/2000/svg">
<rect x="0.78125" y="0.875" width="73.4688" height="24" rx="4" fill="#242424"/>
<g clip-path="url(#clip0_1_1219)">
<g clip-path="url(#clip1_1_1219)">
<path d="M11.2883 10.049H13.7063V17.875H15.1883V10.049H17.5933V8.84H11.2883V10.049ZM25.9191 14.287C25.9191 12.038 24.3071 10.595 22.2661 10.595C20.2251 10.595 18.6131 12.038 18.6131 14.287C18.6131 16.536 20.1601 17.992 22.2011 17.992C24.2551 17.992 25.9191 16.536 25.9191 14.287ZM20.1211 14.287C20.1211 12.662 21.1221 11.882 22.2401 11.882C23.3451 11.882 24.3981 12.662 24.3981 14.287C24.3981 15.912 23.3061 16.705 22.2011 16.705C21.0831 16.705 20.1211 15.912 20.1211 14.287ZM26.8902 14.261C26.8902 16.471 28.3852 17.992 30.2702 17.992C31.4402 17.992 32.2982 17.446 32.7532 16.796V17.875H34.2482V8.255H32.7532V11.713C32.2072 11.037 31.2192 10.595 30.2832 10.595C28.3852 10.595 26.8902 12.051 26.8902 14.261ZM32.7532 14.287C32.7532 15.834 31.7002 16.705 30.5822 16.705C29.4772 16.705 28.4112 15.808 28.4112 14.261C28.4112 12.714 29.4772 11.882 30.5822 11.882C31.7002 11.882 32.7532 12.753 32.7532 14.287ZM35.7007 14.261C35.7007 16.471 37.1957 17.992 39.0547 17.992C40.2507 17.992 41.1087 17.42 41.5637 16.809V17.875H43.0587V10.712H41.5637V11.752C41.1217 11.167 40.2897 10.595 39.0807 10.595C37.1957 10.595 35.7007 12.051 35.7007 14.261ZM41.5637 14.287C41.5637 15.834 40.5107 16.705 39.3927 16.705C38.2877 16.705 37.2217 15.808 37.2217 14.261C37.2217 12.714 38.2877 11.882 39.3927 11.882C40.5107 11.882 41.5637 12.753 41.5637 14.287ZM47.8263 16.172L45.8113 10.712H44.1603L46.9813 17.758L45.5253 21.242H47.0593L51.4533 10.712H49.9193L47.8263 16.172Z" fill="#0D99FF"/>
</g>
</g>
<path d="M58.1812 14.9313C58.3781 15.1281 58.7062 15.1281 58.9031 14.9313L63.1687 10.6875C63.3656 10.4688 63.3656 10.1406 63.1687 9.94375L62.6656 9.44063C62.4687 9.24375 62.1406 9.24375 61.9219 9.44063L58.5531 12.8094L55.1625 9.44063C54.9437 9.24375 54.6156 9.24375 54.4187 9.44063L53.9156 9.94375C53.7187 10.1406 53.7187 10.4688 53.9156 10.6875L58.1812 14.9313Z" fill="#0D99FF"/>
<defs>
<clipPath id="clip0_1_1219">
<rect width="40.8281" height="20" fill="white" transform="translate(10.7812 2.875)"/>
</clipPath>
<clipPath id="clip1_1_1219">
<rect width="41" height="20" fill="white" transform="translate(10.7812 2.875)"/>
</clipPath>
</defs>
</svg>
