<svg width="133" height="25" viewBox="0 0 133 25" fill="none" xmlns="http://www.w3.org/2000/svg">
<path d="M7.88875 13.0275C7.88875 9.4155 2.62475 10.9835 2.62475 8.4635C2.62475 7.4135 3.45075 6.8675 4.50075 6.8955C5.69075 6.9095 6.30675 7.6515 6.39075 8.3095H7.79075C7.63675 6.8255 6.41875 5.8035 4.55675 5.8035C2.62475 5.8035 1.32275 6.8955 1.32275 8.5055C1.32275 12.1315 6.60075 10.4515 6.60075 13.0835C6.60075 14.0075 5.87275 14.7075 4.64075 14.7075C3.28275 14.7075 2.70875 13.8955 2.62475 13.0835H1.26675C1.29475 14.6935 2.68075 15.7855 4.64075 15.7855C6.75475 15.7855 7.88875 14.4135 7.88875 13.0275ZM19.0875 10.8015C19.0875 7.8755 16.9455 5.8175 14.1875 5.8175C11.4435 5.8175 9.28755 7.8755 9.28755 10.8015C9.28755 13.7275 11.4435 15.7855 14.1875 15.7855C16.9455 15.7855 19.0875 13.7275 19.0875 10.8015ZM10.5895 10.8015C10.5895 8.4075 12.1295 6.9235 14.1875 6.9235C16.2455 6.9235 17.7855 8.4075 17.7855 10.8015C17.7855 13.1815 16.2455 14.6795 14.1875 14.6795C12.1295 14.6795 10.5895 13.1815 10.5895 10.8015ZM25.9914 8.7995C25.9914 9.8915 25.3614 10.6755 23.9194 10.6755H22.0434V6.9795H23.9194C25.3754 6.9795 25.9914 7.6935 25.9914 8.7995ZM20.7694 5.9295V15.6875H22.0434V11.6975H23.5834L25.9074 15.6875H27.4334L24.9834 11.5995C26.6214 11.2355 27.3074 10.0455 27.3074 8.7995C27.3074 7.2035 26.2154 5.9295 23.9194 5.9295H20.7694ZM28.685 6.9655H31.359V15.6875H32.633V6.9655H35.293V5.9295H28.685V6.9655ZM46.1376 12.9435C46.1376 14.0075 45.3816 14.6375 44.1216 14.6375H41.8676V11.1935H44.0796C45.3256 11.1935 46.1376 11.8655 46.1376 12.9435ZM45.8856 8.5615C45.8856 9.5555 45.1996 10.1435 44.0096 10.1435H41.8676V6.9795H43.9816C45.2276 6.9795 45.8856 7.5955 45.8856 8.5615ZM47.4116 13.0695C47.4116 11.8655 46.5436 10.8435 45.4796 10.6615C46.4176 10.3535 47.1876 9.6395 47.1876 8.4075C47.1876 7.0495 46.1516 5.9295 44.0936 5.9295H40.5936V15.6875H44.2336C46.2496 15.6875 47.4116 14.5395 47.4116 13.0695ZM51.5596 12.0055V15.6875H52.8336V12.0055L56.0116 5.9295H54.5976L52.1896 10.8715L49.7816 5.9295H48.3676L51.5596 12.0055ZM58.6013 14.9035C58.6013 14.4135 58.2233 14.0355 57.7613 14.0355C57.2713 14.0355 56.8933 14.4135 56.8933 14.9035C56.8933 15.3935 57.2713 15.7715 57.7613 15.7715C58.2233 15.7715 58.6013 15.3935 58.6013 14.9035ZM58.6013 8.9115C58.6013 8.4215 58.2233 8.0435 57.7613 8.0435C57.2713 8.0435 56.8933 8.4215 56.8933 8.9115C56.8933 9.4015 57.2713 9.7795 57.7613 9.7795C58.2233 9.7795 58.6013 9.4015 58.6013 8.9115Z" fill="#828690"/>
<rect x="59.2656" y="0.1875" width="73.4688" height="24" rx="4" fill="#242424"/>
<g clip-path="url(#clip0_1_975)">
<g clip-path="url(#clip1_1_975)">
<path d="M69.7726 9.3615H72.1906V17.1875H73.6726V9.3615H76.0776V8.1525H69.7726V9.3615ZM84.4035 13.5995C84.4035 11.3505 82.7915 9.9075 80.7505 9.9075C78.7095 9.9075 77.0975 11.3505 77.0975 13.5995C77.0975 15.8485 78.6445 17.3045 80.6855 17.3045C82.7395 17.3045 84.4035 15.8485 84.4035 13.5995ZM78.6055 13.5995C78.6055 11.9745 79.6065 11.1945 80.7245 11.1945C81.8295 11.1945 82.8825 11.9745 82.8825 13.5995C82.8825 15.2245 81.7905 16.0175 80.6855 16.0175C79.5675 16.0175 78.6055 15.2245 78.6055 13.5995ZM85.3746 13.5735C85.3746 15.7835 86.8696 17.3045 88.7546 17.3045C89.9246 17.3045 90.7826 16.7585 91.2376 16.1085V17.1875H92.7326V7.5675H91.2376V11.0255C90.6916 10.3495 89.7036 9.9075 88.7676 9.9075C86.8696 9.9075 85.3746 11.3635 85.3746 13.5735ZM91.2376 13.5995C91.2376 15.1465 90.1846 16.0175 89.0666 16.0175C87.9616 16.0175 86.8956 15.1205 86.8956 13.5735C86.8956 12.0265 87.9616 11.1945 89.0666 11.1945C90.1846 11.1945 91.2376 12.0655 91.2376 13.5995ZM94.1851 13.5735C94.1851 15.7835 95.6801 17.3045 97.5391 17.3045C98.7351 17.3045 99.5931 16.7325 100.048 16.1215V17.1875H101.543V10.0245H100.048V11.0645C99.6061 10.4795 98.7741 9.9075 97.5651 9.9075C95.6801 9.9075 94.1851 11.3635 94.1851 13.5735ZM100.048 13.5995C100.048 15.1465 98.9951 16.0175 97.8771 16.0175C96.7721 16.0175 95.7061 15.1205 95.7061 13.5735C95.7061 12.0265 96.7721 11.1945 97.8771 11.1945C98.9951 11.1945 100.048 12.0655 100.048 13.5995ZM106.311 15.4845L104.296 10.0245H102.645L105.466 17.0705L104.01 20.5545H105.544L109.938 10.0245H108.404L106.311 15.4845Z" fill="#0D99FF"/>
</g>
</g>
<path d="M116.666 14.2438C116.862 14.4406 117.191 14.4406 117.387 14.2438L121.653 10C121.85 9.78125 121.85 9.45313 121.653 9.25625L121.15 8.75313C120.953 8.55625 120.625 8.55625 120.406 8.75313L117.037 12.1219L113.647 8.75313C113.428 8.55625 113.1 8.55625 112.903 8.75313L112.4 9.25625C112.203 9.45313 112.203 9.78125 112.4 10L116.666 14.2438Z" fill="#0D99FF"/>
<defs>
<clipPath id="clip0_1_975">
<rect width="40.8281" height="20" fill="white" transform="translate(69.2656 2.1875)"/>
</clipPath>
<clipPath id="clip1_1_975">
<rect width="41" height="20" fill="white" transform="translate(69.2656 2.1875)"/>
</clipPath>
</defs>
</svg>
